<svg width="42" height="60" viewBox="0 0 42 60" fill="none" xmlns="http://www.w3.org/2000/svg">
<path d="M41.5105 59.9998H0.161834V51.3012L15.0101 36.2911C18.004 33.2162 20.4046 30.6538 22.2117 28.6039C24.0459 26.5271 25.3675 24.639 26.1767 22.9397C27.0128 21.2405 27.4309 19.4198 27.4309 17.4778C27.4309 15.1312 26.7701 13.378 25.4484 12.2182C24.1537 11.0314 22.414 10.4381 20.2293 10.4381C17.9366 10.4381 15.7114 10.964 13.5536 12.0159C11.3958 13.0679 9.14363 14.5648 6.79703 16.5068L0 8.45559C1.69926 6.99908 3.49292 5.62349 5.38098 4.32882C7.29602 3.03415 9.50775 1.99571 12.0162 1.21351C14.5516 0.404341 17.586 -0.000244141 21.1194 -0.000244141C25.0034 -0.000244141 28.3345 0.701037 31.1126 2.1036C33.9177 3.50616 36.0755 5.4212 37.586 7.84871C39.0964 10.2493 39.8517 12.9735 39.8517 16.0213C39.8517 19.285 39.2043 22.2654 37.9096 24.9627C36.615 27.6599 34.7269 30.3302 32.2454 32.9735C29.791 35.6167 26.824 38.5432 23.3446 41.753L15.7384 48.9141V49.4805H41.5105V59.9998Z" fill="url(#paint0_linear_330_7802)"/>
<defs>
<linearGradient id="paint0_linear_330_7802" x1="20.7552" y1="-0.000244141" x2="20.7552" y2="59.9998" gradientUnits="userSpaceOnUse">
<stop/>
<stop offset="1" stop-opacity="0.05"/>
</linearGradient>
</defs>
</svg>
