<svg width="41" height="60" viewBox="0 0 41 60" fill="none" xmlns="http://www.w3.org/2000/svg">
<path d="M38.6826 13.892C38.6826 16.5799 38.1237 18.9086 37.006 20.878C35.8882 22.8474 34.3713 24.4575 32.4551 25.7083C30.5655 26.9592 28.4365 27.8773 26.0679 28.4628V28.7024C30.7518 29.2878 34.3047 30.725 36.7265 33.0137C39.175 35.3025 40.3992 38.363 40.3992 42.1954C40.3992 45.6019 39.5609 48.6491 37.8842 51.3371C36.2342 54.025 33.6793 56.1408 30.2196 57.6844C26.7598 59.228 22.3021 59.9998 16.8463 59.9998C13.6261 59.9998 10.6188 59.7336 7.82435 59.2014C5.05655 58.6957 2.44844 57.9106 0 56.8461V46.3471C2.50166 47.6245 5.12309 48.5959 7.86427 49.2612C10.6055 49.9 13.1603 50.2193 15.5289 50.2193C19.9468 50.2193 23.0339 49.4608 24.7904 47.9439C26.5735 46.4003 27.4651 44.2446 27.4651 41.4768C27.4651 39.8534 27.0526 38.4828 26.2275 37.365C25.4025 36.2473 23.9654 35.3956 21.9162 34.8101C19.8935 34.2246 17.0592 33.9319 13.4132 33.9319H8.98204V24.4708H13.493C17.0858 24.4708 19.8137 24.1381 21.6766 23.4728C23.5662 22.7809 24.8436 21.8494 25.509 20.6784C26.2009 19.4808 26.5469 18.1235 26.5469 16.6065C26.5469 14.5307 25.9082 12.9073 24.6307 11.7363C23.3533 10.5653 21.2242 9.9798 18.2435 9.9798C16.3806 9.9798 14.6773 10.2193 13.1337 10.6984C11.6168 11.1508 10.2462 11.7097 9.02196 12.375C7.79774 13.0137 6.71989 13.6391 5.78842 14.2513L0.0798403 5.74826C2.3686 4.09823 5.04325 2.72763 8.10379 1.63648C11.191 0.545331 14.8636 -0.000244141 19.1218 -0.000244141C25.1364 -0.000244141 29.9002 1.21067 33.4132 3.63249C36.9261 6.05431 38.6826 9.47414 38.6826 13.892Z" fill="url(#paint0_linear_330_7807)"/>
<defs>
<linearGradient id="paint0_linear_330_7807" x1="20.1996" y1="-0.000244141" x2="20.1996" y2="59.9998" gradientUnits="userSpaceOnUse">
<stop/>
<stop offset="1" stop-opacity="0.05"/>
</linearGradient>
</defs>
</svg>
