<svg width="381" height="378" viewBox="0 0 381 378" fill="none" xmlns="http://www.w3.org/2000/svg">
<path d="M224.556 352.422C219.446 350.727 215.626 346.39 214.549 341.059L207.111 304.247L143.485 306.506L135.655 344.857C134.558 350.227 138.948 355.616 144.004 357.594L170.624 368.009C175.575 369.947 180.897 370.718 186.186 370.266L242.443 365.453C244.088 365.312 245.407 364.019 245.599 362.361C245.79 360.702 246.942 358.84 245.374 358.32L224.556 352.422Z" fill="#97A6B7"/>
<path d="M225.186 350.183C220.081 348.509 216.265 344.227 215.189 338.963L207.758 302.614L145.683 304.847L137.861 342.715C136.765 348.019 139.664 353.337 144.715 355.29L171.308 365.574C176.254 367.487 181.57 368.249 186.855 367.802L243.055 363.05C244.698 362.911 246.016 361.635 246.207 359.997C246.398 358.359 245.41 356.814 243.843 356.3L225.186 350.183Z" fill="url(#paint0_linear_326_5168)"/>
<path d="M13.4746 328.714C6.57492 329.126 0.930176 324.649 0.930176 318.734V105.531C0.930176 99.6154 6.57492 95.0475 13.4746 95.3464L333.946 117.532C339.011 117.752 341.729 113.663 341.729 118.693V300.021C341.729 305.052 337.628 309.39 332.562 309.692L13.4746 328.714Z" fill="#97A6B7"/>
<path d="M16.3423 328.714C9.4426 329.126 3.79785 324.649 3.79785 318.734V105.531C3.79785 99.6154 9.4426 95.0475 16.3423 95.3464L335.43 109.172C340.495 109.392 344.597 113.662 344.597 118.693V300.021C344.597 305.052 340.495 309.39 335.43 309.692L16.3423 328.714Z" fill="white"/>
<path opacity="0.3" d="M335.43 113.44L16.3425 100.313C12.6538 100.161 9.65479 102.598 9.65479 105.757V271.573V318.412C9.65479 321.571 12.6538 323.96 16.3425 323.748L335.43 305.424C338.145 305.269 340.341 302.954 340.341 300.255V258.804V118.529C340.341 115.83 338.145 113.551 335.43 113.44Z" fill="#D8DEE8"/>
<path d="M333.059 290.081L19.8006 305.544C16.5126 305.707 13.8403 303.533 13.8403 300.689V108.55C13.8403 105.706 16.5126 103.5 19.8006 103.622L333.059 115.25C335.517 115.341 337.506 117.401 337.506 119.852V285.424C337.506 287.875 335.517 289.96 333.059 290.081Z" fill="url(#paint1_linear_326_5168)"/>
<path opacity="0.6" d="M97.9472 123.913L26.4062 121.809V114.988L97.9472 117.302V123.913Z" fill="white"/>
<path opacity="0.36" d="M131.638 123.017L115.112 122.517V117.857L131.638 118.392V123.017Z" fill="white"/>
<path opacity="0.36" d="M131.638 129.444L115.112 128.992V124.332L131.638 124.819V129.444Z" fill="white"/>
<path d="M213.997 131.699L149.881 129.944V125.356L213.997 127.244V131.699Z" fill="url(#paint2_linear_326_5168)"/>
<path opacity="0.5" d="M224.511 138.145L161.033 136.591V132.026L224.511 133.712V138.145Z" fill="url(#paint3_linear_326_5168)"/>
<path opacity="0.5" d="M224.511 144.303L161.033 142.933V138.368L224.511 139.871V144.303Z" fill="url(#paint4_linear_326_5168)"/>
<path opacity="0.6" d="M224.511 150.462L161.033 149.275V144.71L224.511 146.029V150.462Z" fill="white"/>
<path opacity="0.36" d="M131.638 135.871L115.112 135.467V130.807L131.638 131.246V135.871Z" fill="white"/>
<path opacity="0.36" d="M131.638 142.298L115.112 141.942V137.281L131.638 137.673V142.298Z" fill="white"/>
<path opacity="0.36" d="M131.638 148.725L115.112 148.416V143.756L131.638 144.1V148.725Z" fill="white"/>
<path opacity="0.36" d="M131.638 155.152L115.112 154.891V150.231L131.638 150.527V155.152Z" fill="white"/>
<path opacity="0.6" d="M175.924 155.852L135.245 155.209V150.591L175.924 151.319V155.852Z" fill="white"/>
<path opacity="0.36" d="M131.638 161.579L115.112 161.366V156.706L131.638 156.954V161.579Z" fill="white"/>
<path opacity="0.36" d="M131.638 168.006L115.112 167.841V163.18L131.638 163.38V168.006Z" fill="white"/>
<path opacity="0.36" d="M131.638 174.433L115.112 174.316V169.655L131.638 169.808V174.433Z" fill="white"/>
<path opacity="0.5" d="M194.983 162.397L149.881 161.815V157.227L194.983 157.903V162.397Z" fill="url(#paint5_linear_326_5168)"/>
<path opacity="0.6" d="M218.414 168.876L161.033 168.301V163.736L218.414 164.431V168.876Z" fill="white"/>
<path d="M218.414 175.052L161.033 174.643V170.078L218.414 170.607V175.052Z" fill="url(#paint6_linear_326_5168)"/>
<path opacity="0.36" d="M131.638 180.86L115.112 180.79V176.13L131.638 176.234V180.86Z" fill="white"/>
<path opacity="0.36" d="M131.638 187.287L115.112 187.265V182.605L131.638 182.661V187.287Z" fill="white"/>
<path opacity="0.36" d="M131.638 193.714L115.112 193.74V189.08L131.638 189.088V193.714Z" fill="white"/>
<path opacity="0.36" d="M131.638 200.141L115.112 200.214V195.554L131.638 195.515V200.141Z" fill="white"/>
<path opacity="0.36" d="M131.638 206.568L115.112 206.689V202.029L131.638 201.942V206.568Z" fill="white"/>
<path opacity="0.36" d="M131.638 212.995L115.112 213.164V208.504L131.638 208.369V212.995Z" fill="white"/>
<path opacity="0.36" d="M131.638 219.422L115.112 219.639V214.979L131.638 214.796V219.422Z" fill="white"/>
<path opacity="0.36" d="M131.638 225.849L115.112 226.113V221.453L131.638 221.223V225.849Z" fill="white"/>
<path opacity="0.36" d="M131.638 232.276L115.112 232.588V227.928L131.638 227.65V232.276Z" fill="white"/>
<path opacity="0.36" d="M131.638 238.703L115.112 239.063V234.403L131.638 234.077V238.703Z" fill="white"/>
<path opacity="0.36" d="M131.638 245.13L115.112 245.538V240.878L131.638 240.504V245.13Z" fill="white"/>
<path opacity="0.36" d="M131.638 251.557L115.112 252.013V247.352L131.638 246.931V251.557Z" fill="white"/>
<path opacity="0.36" d="M131.638 257.984L115.112 258.487V253.827L131.638 253.358V257.984Z" fill="white"/>
<path opacity="0.36" d="M131.638 264.411L115.112 264.962V260.302L131.638 259.785V264.411Z" fill="white"/>
<path opacity="0.36" d="M131.638 270.838L115.112 271.437V266.777L131.638 266.212V270.838Z" fill="white"/>
<path opacity="0.36" d="M131.638 277.265L115.112 277.912V273.252L131.638 272.639V277.265Z" fill="white"/>
<path opacity="0.36" d="M131.638 283.692L115.112 284.386V279.726L131.638 279.066V283.692Z" fill="white"/>
<path opacity="0.36" d="M131.638 290.119L115.112 290.861V286.201L131.638 285.493V290.119Z" fill="white"/>
<path opacity="0.5" d="M180.205 124.487L135.132 123.123V118.505L180.205 119.962V124.487Z" fill="url(#paint7_linear_326_5168)"/>
<path opacity="0.6" d="M213.997 255.476L149.881 257.428V252.841L213.997 251.022V255.476Z" fill="white"/>
<path opacity="0.5" d="M224.511 261.314L161.033 263.431V258.866L224.511 256.882V261.314Z" fill="url(#paint8_linear_326_5168)"/>
<path opacity="0.5" d="M224.511 267.473L161.033 269.773V265.208L224.511 263.04V267.473Z" fill="url(#paint9_linear_326_5168)"/>
<path opacity="0.5" d="M251.866 272.561L190.031 274.98V270.476L251.866 268.186V272.561Z" fill="url(#paint10_linear_326_5168)"/>
<path d="M251.866 278.64L190.031 281.238V276.734L251.866 274.265V278.64Z" fill="url(#paint11_linear_326_5168)"/>
<path opacity="0.6" d="M251.866 284.72L190.031 287.497V282.992L251.866 280.344V284.72Z" fill="white"/>
<path opacity="0.5" d="M180.205 250.219L135.132 251.461V246.842L180.205 245.694V250.219Z" fill="url(#paint12_linear_326_5168)"/>
<path opacity="0.5" d="M213.997 187.399L149.881 187.312V182.724L213.997 182.944V187.399Z" fill="url(#paint13_linear_326_5168)"/>
<path opacity="0.6" d="M224.511 193.571L161.033 193.669V189.104L224.511 189.139V193.571Z" fill="white"/>
<path opacity="0.5" d="M224.511 199.73L161.033 200.011V195.446L224.511 195.297V199.73Z" fill="url(#paint14_linear_326_5168)"/>
<path opacity="0.5" d="M224.511 205.888L161.033 206.353V201.788L224.511 201.456V205.888Z" fill="url(#paint15_linear_326_5168)"/>
<path opacity="0.5" d="M175.924 212.543L135.245 212.958V208.34L175.924 208.009V212.543Z" fill="url(#paint16_linear_326_5168)"/>
<path opacity="0.6" d="M194.983 218.592L149.881 219.183V214.595L194.983 214.098V218.592Z" fill="white"/>
<path d="M218.414 224.461L161.033 225.379V220.814L218.414 220.016V224.461Z" fill="url(#paint17_linear_326_5168)"/>
<path opacity="0.5" d="M218.414 230.637L161.033 231.721V227.156L218.414 226.192V230.637Z" fill="url(#paint18_linear_326_5168)"/>
<path opacity="0.5" d="M231.135 236.536L174.444 237.771V233.234L231.135 232.117V236.536Z" fill="url(#paint19_linear_326_5168)"/>
<path opacity="0.5" d="M231.135 242.676L174.444 244.074V239.537L231.135 238.257V242.676Z" fill="url(#paint20_linear_326_5168)"/>
<path d="M180.205 181.066L135.132 180.875V176.257L180.205 176.541V181.066Z" fill="url(#paint21_linear_326_5168)"/>
<path d="M97.9473 134.244L56.9988 133.227V126.495L97.9473 127.632V134.244Z" fill="white"/>
<path opacity="0.6" d="M46.4075 132.964L54.1199 133.155V126.415L46.4075 126.201V132.964Z" fill="white"/>
<path opacity="0.6" d="M97.9473 143.748L56.9988 142.903V136.172L97.9473 137.136V143.748Z" fill="white"/>
<path opacity="0.6" d="M46.4075 142.685L54.1199 142.844V136.104L46.4075 135.922V142.685Z" fill="white"/>
<path opacity="0.6" d="M97.9473 153.251L56.9988 152.579V145.848L97.9473 146.64V153.251Z" fill="white"/>
<path opacity="0.6" d="M46.4075 152.406L54.1199 152.532V145.792L46.4075 145.643V152.406Z" fill="white"/>
<path d="M97.9472 220.712L26.4062 221.677V214.856L97.9472 214.101V220.712Z" fill="white"/>
<path opacity="0.6" d="M97.9473 231.042L56.9988 231.782V225.051L97.9473 224.431V231.042Z" fill="white"/>
<path opacity="0.6" d="M46.4075 231.973L54.1199 231.834V225.094L46.4075 225.211V231.973Z" fill="white"/>
<path opacity="0.6" d="M97.9473 240.546L56.9988 241.458V234.727L97.9473 233.935V240.546Z" fill="white"/>
<path opacity="0.6" d="M46.4075 241.694L54.1199 241.522V234.782L46.4075 234.932V241.694Z" fill="white"/>
<path opacity="0.6" d="M97.9473 250.05L56.9988 251.134V244.403L97.9473 243.439V250.05Z" fill="white"/>
<path opacity="0.6" d="M46.4075 251.415L54.1199 251.211V244.471L46.4075 244.653V251.415Z" fill="white"/>
<path d="M97.9472 162.82L26.4062 161.949V155.128L97.9472 156.208V162.82Z" fill="white"/>
<path opacity="0.6" d="M97.9473 173.15L56.9988 172.839V166.108L97.9473 166.539V173.15Z" fill="white"/>
<path opacity="0.6" d="M46.4075 172.758L54.1199 172.817V166.077L46.4075 165.996V172.758Z" fill="white"/>
<path opacity="0.6" d="M97.9473 182.654L56.9988 182.515V175.784L97.9473 176.042V182.654Z" fill="white"/>
<path opacity="0.6" d="M46.4075 182.479L54.1199 182.505V175.766L46.4075 175.717V182.479Z" fill="white"/>
<path opacity="0.6" d="M97.9473 201.785L56.9988 201.994V195.262L97.9473 195.174V201.785Z" fill="white"/>
<path opacity="0.6" d="M46.4075 202.047L54.1199 202.008V195.268L46.4075 195.285V202.047Z" fill="white"/>
<path opacity="0.6" d="M97.9473 211.289L56.9988 211.67V204.939L97.9473 204.677V211.289Z" fill="white"/>
<path opacity="0.6" d="M46.4075 211.768L54.1199 211.697V204.957L46.4075 205.006V211.768Z" fill="white"/>
<path opacity="0.6" d="M97.9473 192.158L56.9988 192.192V185.46L97.9473 185.546V192.158Z" fill="white"/>
<path opacity="0.6" d="M46.4075 192.2L54.1199 192.194V185.454L46.4075 185.438V192.2Z" fill="white"/>
<path d="M97.9472 259.551L26.4062 261.746V254.926L97.9472 252.939V259.551Z" fill="white"/>
<path opacity="0.6" d="M97.9473 269.881L56.9988 271.325V264.594L97.9473 263.27V269.881Z" fill="white"/>
<path opacity="0.6" d="M46.4075 271.699L54.1199 271.427V264.687L46.4075 264.936V271.699Z" fill="white"/>
<path opacity="0.6" d="M97.9473 279.385L56.9988 281.001V274.27L97.9473 272.773V279.385Z" fill="white"/>
<path opacity="0.6" d="M46.4075 281.42L54.1199 281.115V274.375L46.4075 274.657V281.42Z" fill="white"/>
<path opacity="0.6" d="M97.9473 288.889L56.9988 290.678V283.946L97.9473 282.277V288.889Z" fill="white"/>
<path opacity="0.6" d="M46.4075 291.141L54.1199 290.804V284.064L46.4075 284.378V291.141Z" fill="white"/>
<path opacity="0.6" d="M106.641 288.542L105.065 288.611V117.532L106.641 117.583V288.542Z" fill="white"/>
<path opacity="0.6" d="M302.118 296.495C232.657 297.947 217.037 307.865 197.3 295.982C170.179 279.652 182.53 250.605 156.106 235.368C122.885 216.212 84.5833 251.295 67.2449 234.191C49.9783 217.158 82.5959 177.07 63.7141 132.384C56.1367 114.451 43.2343 102.804 34.3215 96.1256L16.3421 95.3466C9.44222 95.0477 3.79761 99.6158 3.79761 105.531V318.734C3.79761 324.65 9.44222 329.126 16.3421 328.715L335.43 309.692C340.495 309.39 344.597 305.053 344.597 300.021V296.798C335.034 296.458 320.22 296.117 302.118 296.495Z" fill="white"/>
<path d="M293.422 151.311C310.499 166.801 332.246 170.891 343.198 161.047L343.205 161.052L343.246 161.003C343.694 160.6 344.13 160.182 344.539 159.73C345.054 159.159 345.531 158.562 345.965 157.945L359.208 143.032L361.959 139.932L342.135 122.495C339.253 118.013 335.583 113.653 331.2 109.672C326.268 105.2 320.946 101.682 315.613 99.1669L295.769 81.7183L280.26 101.069C280.204 101.132 280.14 101.19 280.083 101.253C279.498 101.893 278.97 102.572 278.493 103.279C277.731 104.398 277.098 105.593 276.585 106.856C271.622 119.08 278.19 137.49 293.422 151.311Z" fill="url(#paint22_linear_326_5168)"/>
<path opacity="0.3" d="M293.3 151.441C297.914 155.827 303.145 159.533 308.819 162.042C314.641 164.617 322.866 166.961 329.308 166.422C340.02 165.525 345.074 158.734 351.62 151.445C354.143 148.636 356.852 145.981 359.223 143.038C353.003 142.246 344.93 144.281 339.097 146.333C334.057 148.106 329.259 150.992 323.917 151.786C312.138 153.535 299.555 146.227 293.665 136.207C290.065 130.084 291.498 122.139 286.875 116.468C283.887 112.803 279.266 110.797 276.585 106.856C277.065 107.562 275.393 112.572 275.273 113.637C274.998 116.088 275.014 118.555 275.357 120.998C276.158 126.704 278.595 132.089 281.601 136.956C284.789 142.116 288.744 147.11 293.3 151.441Z" fill="url(#paint23_linear_326_5168)"/>
<path d="M280.448 68.2894L349.288 83.6919L378.902 147.716L380.802 149.249L380.14 150.07L308.567 134.071L277.792 67.5016L278.454 66.6812L280.448 68.2894Z" fill="url(#paint24_linear_326_5168)"/>
<path d="M350.198 82.5631L381 149.155L309.4 133.134L278.599 66.543L350.198 82.5631Z" fill="url(#paint25_linear_326_5168)"/>
<path d="M353.115 182.242C353.655 182.326 354.175 181.976 354.294 181.434L362.066 146.025C362.128 145.741 362.069 145.444 361.903 145.205L332.353 102.829C332.023 102.356 331.373 102.24 330.9 102.57C330.427 102.899 330.311 103.55 330.64 104.023L359.93 146.024L352.255 180.986C352.131 181.549 352.488 182.106 353.051 182.229C353.072 182.234 353.093 182.238 353.115 182.242Z" fill="url(#paint26_linear_326_5168)"/>
<path d="M355.502 180.568L354.877 179.186C354.637 178.661 354.133 178.31 353.558 178.268C352.983 178.227 352.433 178.504 352.122 178.989L351.378 180.305C351.175 180.621 351.147 180.99 351.114 181.364L350.099 192.905C350.077 193.153 351.025 193.438 352.347 193.555C353.669 193.671 354.652 193.555 354.674 193.307L355.692 181.734C355.727 181.334 355.668 180.933 355.502 180.568Z" fill="url(#paint27_linear_326_5168)"/>
<path d="M282.885 236.345C279.595 232.832 288.703 219.634 293.579 213.851C297.838 208.799 302.216 203.606 307.591 204.263C312.311 204.841 316.904 209.818 317.179 214.589C317.919 227.422 287.563 241.339 282.885 236.345Z" fill="url(#paint28_linear_326_5168)"/>
<path d="M322.391 371.966C323.011 372.469 323.125 373.726 323.199 374.548C323.233 374.915 323.249 375.099 323.208 375.229C322.909 376.175 321.074 376.274 318.198 376.568C313.652 377.032 312.299 377.39 311.944 376.714C311.61 376.08 312.417 375.042 312.508 374.927C312.996 374.312 313.596 374.088 314.755 373.707C316.9 373.001 318.349 372.614 318.787 372.497C321.527 371.766 321.985 371.635 322.391 371.966Z" fill="url(#paint29_linear_326_5168)"/>
<path d="M319.688 367.813L319.233 372.993C319.362 373.243 320.902 373.993 322.125 373.35L323.294 368.258L319.688 367.813Z" fill="#D8DEE8"/>
<path d="M286.341 371.3C287.083 372.12 287.252 373.629 286.607 374.373C285.972 375.104 285.018 374.556 282.312 374.637C279.414 374.723 278.657 375.408 276.687 374.864C275.891 374.644 274.486 374.111 274.513 373.543C274.531 373.143 275.247 372.937 277.637 372.136C281.029 371 281.014 370.938 281.734 370.818C283.543 370.519 285.36 370.218 286.341 371.3Z" fill="url(#paint30_linear_326_5168)"/>
<path d="M284.483 366.573L283.03 371.408C283.139 371.668 284.617 372.533 285.886 371.985L288.045 367.291L284.483 366.573Z" fill="#D8DEE8"/>
<path d="M297.4 260.66C297.192 276.912 296.083 295.186 293.422 315.039C290.792 334.661 287.107 352.39 283.086 367.98C284.941 368.479 286.796 368.978 288.651 369.477C293.356 365.089 299.293 358.182 302.157 348.421C303.935 342.363 303.342 339.25 304.47 331.798C306.266 319.934 309.902 313.718 313.661 304.15C317.039 295.553 321.032 282.935 323.173 266.069C314.582 264.266 305.991 262.463 297.4 260.66Z" fill="url(#paint31_linear_326_5168)"/>
<path d="M314.143 259.11C315.279 279.78 316.212 300.834 316.92 322.262C317.451 338.341 317.841 354.216 318.1 369.882C319.995 370.116 321.889 370.35 323.784 370.584C325.615 367.176 328.047 361.964 329.712 355.285C331.735 347.173 331.267 342.355 332.154 333.948C333.15 324.518 334.596 322.463 337.157 310.568C342.356 286.426 344.956 274.355 339.156 266.846C337.274 264.409 331.372 258.294 314.143 259.11Z" fill="url(#paint32_linear_326_5168)"/>
<path d="M341.757 207.16C337.32 205.913 330.817 204.453 322.853 204.003C311.494 203.361 305.814 203.04 301.79 205.745C292.494 211.993 299.691 226.412 295.886 262.156C295.342 267.261 295.22 272.402 294.827 277.52C294.175 285.994 294.027 286.454 294.617 287.313C298.314 292.698 312.11 284.576 332.33 287.786C343.643 289.583 348.774 293.722 351.874 290.736C355.489 287.255 352.388 277.892 349.719 269.831C346.655 260.579 344.763 260.46 343.024 253.492C341.206 246.209 342.306 242.459 342.589 230.974C342.724 225.479 342.695 217.3 341.757 207.16Z" fill="url(#paint33_linear_326_5168)"/>
<g opacity="0.3">
<path d="M314.261 274.265C319.546 273.852 322.974 276.84 327.536 274.511C333.791 271.318 335.801 261.384 335.403 254.353C334.797 243.67 328.697 240.854 329.748 233.948C330.317 230.214 332.983 225.256 342.556 220.19C342.684 224.453 342.66 228.087 342.588 230.974C342.305 242.459 341.206 246.209 343.024 253.492C344.763 260.46 346.655 260.579 349.719 269.831C352.388 277.892 355.488 287.255 351.874 290.736C348.774 293.721 343.643 289.583 332.329 287.786C314.907 285.02 302.261 290.66 296.728 288.831C303.414 277.783 309.478 274.64 314.261 274.265Z" fill="url(#paint34_linear_326_5168)"/>
</g>
<path d="M334.548 207.894C338.323 204.793 345.912 208.303 347.941 209.242C359.254 214.475 369.412 228.577 366.895 243.479C366.517 245.714 364.767 256.168 355.915 261.233C347.928 265.804 337.142 264.628 328.501 258.155C327.321 257.107 326.139 256.059 324.958 255.012C323.797 253.756 322.635 252.5 321.473 251.244C323.299 249.725 326.402 247.533 330.76 246.127C336.506 244.273 340.689 247.6 343.355 245.071C345.195 243.325 345.199 240.242 344.745 238.374C343.829 234.608 340.509 233.549 337.738 230.876C331.228 224.595 330.029 211.607 334.548 207.894Z" fill="url(#paint35_linear_326_5168)"/>
<path d="M280.306 256.544L330.897 255.789L317.445 262.282L280.177 259.843L280.306 256.544Z" fill="url(#paint36_linear_326_5168)"/>
<path d="M332.683 257.133V257.134C332.683 258.08 332.09 258.926 331.201 259.25L315.035 265.587L314.962 261.193L330.898 255.789C331.792 255.532 332.683 256.203 332.683 257.133Z" fill="url(#paint37_linear_326_5168)"/>
<path d="M324.893 254.14C325.203 254.071 323.38 250.438 321.949 250.857C320.518 251.277 313.518 255.334 312.882 257.004C312.245 258.674 312.245 258.674 312.245 258.674C312.245 258.674 315.299 258.913 317.193 258.277C319.086 257.64 322.368 254.703 324.893 254.14Z" fill="white"/>
<path d="M313.62 230.366L317.186 262.836C317.309 263.956 315.74 265.625 314.614 265.572L262.3 262.36C261.441 262.319 260.725 261.687 260.58 260.838L254.013 229.479C253.817 228.338 255.869 227.159 257.026 227.191L311.848 228.733C312.764 228.759 313.52 229.456 313.62 230.366Z" fill="url(#paint38_linear_326_5168)"/>
<path d="M312.424 231.313L315.99 263.783C316.113 264.903 315.206 265.868 314.08 265.815L261.105 263.307C260.245 263.266 259.529 262.633 259.384 261.785L253.971 230.282C253.775 229.141 254.673 228.106 255.831 228.138L310.652 229.68C311.568 229.705 312.324 230.403 312.424 231.313Z" fill="url(#paint39_linear_326_5168)"/>
<path opacity="0.3" d="M281.317 255.698C285.942 253.738 284.31 249.999 289.772 245.341C296.978 239.195 304.323 241.86 306.894 237.097C307.695 235.613 308.077 233.305 306.683 229.568L310.652 229.68C311.568 229.705 312.324 230.403 312.424 231.313L315.99 263.782C316.113 264.903 315.206 265.868 314.08 265.815L261.105 263.307C260.245 263.266 259.529 262.633 259.384 261.785L258.637 257.438C260.244 256.544 262.165 255.73 264.406 255.276C272.178 253.699 275.991 257.956 281.317 255.698Z" fill="url(#paint40_linear_326_5168)"/>
<path d="M257.767 258.766C257.681 258.504 257.864 258.235 258.139 258.221C259.258 258.163 261.855 258.14 263.289 259.018C265.151 260.159 267.559 262.24 265.531 263.291L263.637 264.272C263.551 264.317 263.456 264.331 263.36 264.31C262.688 264.162 259.856 263.534 259.546 263.378C259.264 263.236 258.184 260.031 257.767 258.766Z" fill="white"/>
<path d="M322.005 191.593C321.976 194.961 322.352 197.631 322.707 199.46C323.115 201.556 323.408 202.097 323.782 202.537C324.346 203.198 325.2 203.752 330.025 204.949C332.651 205.6 332.989 205.582 333.047 205.843C333.33 207.114 326.17 211.447 318.772 210.402C314.244 209.763 310.125 207.18 310.378 205.824C310.633 204.459 315.155 205.191 316.503 202.722C317.441 201.004 316.389 198.565 315.147 196.545C316.351 194.29 320.801 193.848 322.005 191.593Z" fill="white"/>
<path d="M313.601 192.925C312.533 191.505 312.467 189.028 313.698 187.461C314.758 186.113 316.425 185.921 317.423 185.806C320.315 185.472 323.965 186.679 325.234 189.341C325.987 190.919 324.359 194.197 324.105 194.786C323.816 195.453 323.293 195.681 322.809 196.185C322.139 196.884 321.089 197.995 319.375 199.853C319.242 199.305 319.039 198.626 318.718 197.89C318.594 197.607 318.096 196.501 317.344 195.584C315.837 193.745 314.614 194.27 313.601 192.925Z" fill="url(#paint41_linear_326_5168)"/>
<path d="M321.819 198.29C321.819 198.29 319.918 201.41 316.132 201.163C312.742 200.943 312.246 193.341 314.411 191.728C315.133 191.19 316.58 190.967 317.756 191.296C318.451 191.491 318.686 191.78 319.827 192.075C320.88 192.349 321.177 192.232 321.495 192.499C321.893 192.834 322.184 193.654 321.52 195.876C322.167 195.222 322.943 194.97 323.493 195.23C323.581 195.272 323.813 195.43 323.944 195.67C324.418 196.538 323.625 197.647 321.819 198.29Z" fill="white"/>
<path d="M321.649 192.045C321.485 192.167 321.985 192.777 322.022 193.64C322.095 195.315 320.399 197.327 318.668 197.497C317.645 197.598 317.364 196.982 315.673 196.803C314.626 196.692 313.755 196.825 313.207 196.945C312.675 198.783 313.175 200.615 314.404 201.465C315.726 202.38 317.415 201.825 318.121 201.593C318.594 201.437 320.108 200.943 320.899 199.555C321.724 198.108 320.915 197.236 321.86 196.257C322.337 195.764 322.964 195.55 323.574 194.594C323.74 194.335 323.85 194.105 323.918 193.951C323.043 193.024 321.885 191.868 321.649 192.045Z" fill="url(#paint42_linear_326_5168)"/>
<path d="M314.437 197.626C314.437 197.626 315.169 198.009 316.434 197.938C316.496 197.934 316.564 197.952 316.572 197.984C316.601 198.104 315.789 198.642 315.041 198.432C314.51 198.283 314.097 197.78 314.169 197.652C314.199 197.598 314.319 197.605 314.437 197.626Z" fill="white"/>
<path d="M49.756 210.974C48.8572 211.313 35.1484 216.765 32.3307 231.073C32.103 232.229 29.9006 244.522 38.2371 253.206C47.5851 262.944 65.5854 262.702 72.7303 254.562C74.3964 252.663 75.2754 250.559 75.7679 248.791L73.8852 243.79C71.5882 241.017 68.4606 240.359 66.7902 239.948C62.6724 238.933 59.5635 240.767 57.2052 238.781C55.9003 237.683 55.641 236.101 55.4095 234.689C54.6208 229.878 57.3363 226.916 57.534 223.949C57.6819 221.731 58.4582 216.872 55.5631 213.702C53.73 211.696 51.1909 211.149 49.756 210.974Z" fill="url(#paint43_linear_326_5168)"/>
<path d="M44.4144 370.43C44.2544 369.549 41.41 368.752 40.0015 369.932C39.3021 370.518 38.8205 371.705 39.2252 372.242C39.3724 372.437 38.7694 372.78 39.3472 372.787C41.2633 372.809 44.5736 371.306 44.4144 370.43Z" fill="url(#paint44_linear_326_5168)"/>
<path d="M41.4329 370.751L38.5076 370.337C39.8628 368.706 39.6119 363.509 39.6119 363.509L42.7231 364.203C42.7231 364.203 42.3686 365.63 41.7655 367.734C41.5591 368.454 41.4669 369.581 41.4329 370.751Z" fill="url(#paint45_linear_326_5168)"/>
<path d="M41.6925 370.391C41.6925 370.391 38.1704 369.579 37.7894 370.278C37.4084 370.976 37.1127 372.847 39.3472 372.786C41.5818 372.726 41.891 370.983 41.6925 370.391Z" fill="url(#paint46_linear_326_5168)"/>
<path d="M84.5548 373.733C84.2733 372.883 81.3452 372.492 80.1155 373.857C79.5051 374.535 79.1943 375.778 79.6702 376.253C79.8433 376.426 79.2943 376.85 79.8672 376.775C81.7677 376.529 84.8348 374.577 84.5548 373.733Z" fill="url(#paint47_linear_326_5168)"/>
<path d="M81.6473 374.468H78.6929C79.8065 372.662 78.8306 367.552 78.8306 367.552L82.0084 367.804C82.0084 367.804 81.857 369.266 81.5545 371.434C81.4508 372.176 81.5173 373.305 81.6473 374.468Z" fill="url(#paint48_linear_326_5168)"/>
<path d="M89.3045 262.74C90.6731 267.26 92.6277 274.554 93.8858 283.707C97.4746 309.811 89.8469 310.644 91.2712 339.572C91.726 348.806 83.2717 370.098 82.5265 370.568C82.1659 370.603 81.7746 370.626 81.3572 370.614C80.6219 370.591 79.5851 370.479 78.3796 370.117C77.0404 369.887 72.2118 356.808 73.3311 349.033C74.123 343.529 73.8935 337.623 73.4343 325.811C73.3599 323.897 68.4629 288.572 68.4629 288.572C66.9733 301.647 65.2602 312.757 63.775 321.37C59.0033 349.044 43.4888 365.794 42.6795 366.063C42.5196 366.127 41.0638 366.656 39.8735 365.871C39.3438 365.522 39.1634 365.071 39.1634 365.071C38.7485 364.747 39.2858 337.442 44.018 316.894C50.8867 287.068 47.8958 280.089 50.0719 266.767C51.9548 255.239 89.3045 262.74 89.3045 262.74Z" fill="url(#paint49_linear_326_5168)"/>
<path d="M91.144 267.246C87.0193 269.363 76.3957 273.156 63.7345 271.272C58.121 270.436 53.6008 268.601 50.3612 266.92C50.2624 266.87 50.1634 266.821 50.0694 266.771C53.3584 256.825 50.7815 251.503 49.565 246.597C47.8291 239.604 47.8042 240.133 46.3748 234.574C44.0208 225.405 43.6348 216.038 45.2522 214.124C49.6144 208.955 57.4782 208.767 61.5585 208.644C66.1183 208.51 76.6035 206.903 82.3751 212.096C82.4741 212.185 81.2921 212.818 81.8756 213.5C82.4147 214.133 84.2693 216.354 85.9508 219.351C87.1674 221.522 88.2704 224.055 89.3783 227.823C91.332 234.475 91.8957 240.143 92.0836 242.611C92.143 243.427 92.1976 244.219 92.2468 244.98C93.0136 257.236 92.0392 263.151 91.144 267.246Z" fill="url(#paint50_linear_326_5168)"/>
<path d="M81.854 374.075C81.854 374.075 78.2531 373.764 77.9737 374.509C77.6943 375.254 77.6632 377.148 79.8674 376.775C82.0714 376.403 82.1334 374.633 81.854 374.075Z" fill="url(#paint51_linear_326_5168)"/>
<path d="M74.6842 202.816C75.9268 200.335 75.1087 197.657 74.9259 197.079C74.1613 194.658 73.9148 194.3 73.4212 193.811L72.7273 193.173C72.7273 193.173 72.6852 193.145 72.6405 193.119C72.1696 192.841 70.4567 192.456 70.0932 192.464C68.9321 192.487 66.8675 196.8 65.9661 203.289C65.8726 203.524 65.7804 203.763 65.6892 204.003C65.1218 205.501 64.6478 206.967 64.2525 208.393C56.4793 209.6 55.4582 210.594 55.4605 211.126C55.465 212.246 60.0106 213.224 63.3954 213.48C70.7777 214.039 78.1545 211.587 78.0249 210.227C77.9685 209.634 76.4621 208.963 70.2106 208.585C70.2839 207.549 70.3571 206.514 70.4303 205.479C70.9261 205.332 73.7691 204.644 74.6842 202.816Z" fill="url(#paint52_linear_326_5168)"/>
<path d="M75.391 191.795C75.0001 193.783 73.6523 195.727 73.1088 195.976C73.0386 196.009 72.6384 196.216 72.236 196.625C72.1812 196.68 72.1293 196.748 72.0772 196.838C71.3992 198.008 73.1081 199.868 72.6148 200.355C72.257 200.709 71.0072 199.902 70.7782 200.223C70.5625 200.525 71.5562 201.428 71.3073 201.791C71.1193 202.065 70.4791 201.657 69.9535 202.031C69.6917 202.218 69.7206 202.411 69.355 203.065C69.1483 203.434 68.8822 203.831 68.6944 204.044C67.781 205.079 65.751 205.13 65.4665 204.59C65.3873 204.44 65.498 204.348 65.4759 203.89C65.4759 203.89 65.4554 203.466 65.2639 202.943C64.9903 202.195 64.1103 201.529 63.2652 200.633C61.7007 198.973 61.4221 197.762 61.3466 197.357C61.3198 197.212 61.3066 197.105 61.2972 197.027C61.1078 195.469 61.5216 193.314 62.4368 192.117C63.97 190.111 66.2582 191.646 68.7224 189.84C71.5654 187.758 70.8334 184.019 72.1844 183.883C73.6733 183.732 76.1136 188.118 75.391 191.795Z" fill="#26264F"/>
<path d="M71.9898 199.75C71.6314 198.986 70.6529 199.45 70.4805 200.316C70.308 201.182 70.974 202.245 71.8221 202.231C72.6704 202.218 72.472 200.779 71.9898 199.75Z" fill="url(#paint53_linear_326_5168)"/>
<path d="M51.5248 260.61C51.5155 260.61 51.5051 260.609 51.4958 260.609C51.3497 260.593 51.245 260.461 51.2615 260.315C51.7973 255.49 50.7963 251.98 49.9134 248.882C49.6969 248.124 49.4865 247.388 49.3072 246.661C48.3249 242.7 47.8948 241.169 47.4389 239.548C47.1394 238.484 46.8338 237.394 46.356 235.561C46.3198 235.419 46.4047 235.275 46.5456 235.238C46.6886 235.198 46.8336 235.287 46.87 235.428C47.3456 237.256 47.6513 238.343 47.9498 239.404C48.4068 241.029 48.8378 242.564 49.8212 246.533C50.0005 247.254 50.2088 247.984 50.4233 248.737C51.3196 251.881 52.3361 255.445 51.788 260.374C51.7734 260.509 51.6584 260.61 51.5248 260.61Z" fill="url(#paint54_linear_326_5168)"/>
<path opacity="0.3" d="M91.1441 267.246C87.0194 269.363 76.3958 273.156 63.7346 271.272C58.1212 270.436 53.601 268.601 50.3613 266.919C51.8303 265.777 53.6406 263.863 56.6326 260.609C60.258 256.672 64.5062 258.141 67.0038 259.624C68.8041 260.688 71.0348 260.717 72.8597 259.709C74.6895 258.695 75.847 256.791 75.9013 254.703C75.931 253.744 75.8864 252.651 75.7678 251.414C74.9121 242.458 87.321 241.696 87.321 241.696C89.0718 240.786 90.7338 242.255 92.247 244.98C93.0138 257.236 92.0394 263.151 91.1441 267.246Z" fill="url(#paint55_linear_326_5168)"/>
<path d="M134.523 227.347C134.024 227.394 133.42 227.9 132.995 228.141C132.392 228.483 131.784 228.82 131.168 229.14C129.98 229.759 128.722 230.218 127.363 230.193C127.401 230 127.468 229.805 127.544 229.62C127.774 229.082 128.078 228.616 127.897 228.455C127.637 228.22 126.496 228.705 125.444 229.713C125.018 230.115 124.611 230.609 124.278 231.172C123.741 232.088 123.832 232.588 123.382 233.286C122.714 233.885 122.213 234.017 122.213 234.017V234.208L122.288 234.443C121.691 234.898 121.016 235.168 120.488 235.344C121.418 235.594 122.327 235.848 123.252 236.103L123.895 237.175C123.895 237.175 127.402 236.441 129.517 235.158C130.506 234.556 130.847 233.811 130.93 233.194C130.989 232.783 130.929 232.431 130.875 232.205C130.831 232.044 130.791 231.946 130.791 231.946C130.791 231.946 133.68 230.746 134.821 228.151C134.993 227.759 135.01 227.3 134.523 227.347Z" fill="url(#paint56_linear_326_5168)"/>
<path d="M122.287 232.938C123.936 234.092 124.821 235.659 125.279 236.66C124.067 239.505 121.317 244.79 115.625 248.684C106.293 255.069 92.6089 255.284 83.0778 248.002C71.6907 239.303 69.788 222.62 74.5707 215.476C75.1213 214.653 76.9315 211.949 79.7416 211.639C81.5163 211.443 83.9318 212.175 87.7482 216.643C95.7004 225.954 92.8916 231.767 97.5897 234.491C104.635 238.576 115.103 227.911 122.287 232.938Z" fill="url(#paint57_linear_326_5168)"/>
<path d="M224.545 181.894C224.545 181.894 225.946 182.393 225.951 183.502C225.957 184.61 224.532 189.492 222.984 191.227C221.436 192.962 221.298 190.374 221.394 188.706C221.489 187.039 221.895 183.308 222.278 182.586C222.661 181.865 224.545 181.894 224.545 181.894Z" fill="url(#paint58_linear_326_5168)"/>
<path d="M225.354 177.185C225.272 178.893 225.127 180.321 224.996 181.381C224.707 183.727 224.441 184.655 224.077 185.501C223.759 186.238 222.965 187.845 222.586 187.733C222.201 187.62 222.597 185.84 222.897 180.888C222.941 180.169 223.073 177.881 223.073 177.881L225.354 177.185Z" fill="url(#paint59_linear_326_5168)"/>
<path d="M134.162 368.037C131.951 357.114 132.903 348.337 133.907 343.037C135.125 336.606 137.601 323.534 147.993 316.248C148.812 315.673 156.941 310.082 160.592 312.859C162.475 314.291 162.905 317.75 162.082 320.48C159.956 327.528 150.372 326.746 147.187 334.768C146.127 337.44 145.93 340.699 146.67 341.007C147.58 341.385 150.177 337.399 150.425 337.019C152.74 333.466 152.761 331.454 154.526 330.908C155.61 330.573 157.039 330.888 157.678 331.744C159.133 333.693 156.259 338.135 155.455 339.376C153.353 342.624 151.597 343.362 151.17 346.127C150.987 347.318 151.019 349.078 151.726 349.352C152.681 349.723 154.504 347.236 155.673 345.64C158.818 341.349 159.153 338.855 160.716 338.676C162.175 338.509 163.818 340.459 164.24 341.647C165.392 344.889 160.762 351.789 134.162 368.037Z" fill="url(#paint60_linear_326_5168)"/>
<path opacity="0.28" d="M134.494 366.163C134.164 356.014 135.807 347.968 137.295 342.688C139.208 335.902 142.806 323.137 152.901 317.613C153.618 317.22 158.896 314.332 160.37 315.879C161.353 316.91 160.482 319.74 159.036 321.614C156.57 324.812 153.728 323.544 149.7 326.683C146.085 329.499 144.816 333.293 144.498 334.285C143.319 337.968 143.932 341.125 144.098 342.288C144.729 346.706 143.436 353.943 134.494 366.163Z" fill="white"/>
<path opacity="0.28" d="M138.096 363.629C143.756 358.559 145.064 354.406 145.165 351.491C145.243 349.221 144.629 346.526 146.365 344.022C147.476 342.42 148.313 342.678 150.233 340.954C154.244 337.353 154.742 332.497 155.568 332.685C156.029 332.789 156.267 334.382 155.969 335.886C155.352 338.99 152.925 339.315 150.5 343.088C148.844 345.666 148.268 348.172 147.966 349.49C147.228 352.708 147.729 353.837 147.299 355.626C146.742 357.945 144.725 360.937 138.096 363.629Z" fill="white"/>
<path d="M137.562 369.801C147.375 370.364 150.291 370.952 154.915 369.376C159.26 367.895 163.717 364.98 163.326 363.641C163.045 362.681 160.317 362.694 158.688 362.701C154.316 362.722 150.71 364.061 148.18 365.355C150.362 363.875 152.544 362.394 154.726 360.913C156.25 360.368 158.828 359.211 161.111 356.767C162.541 355.237 165.827 351.093 164.592 349.102C163.302 347.021 157.174 347.442 153.641 350.392C151.946 351.807 151.944 352.89 149.672 355.362C147.608 357.608 145.476 359.033 143.978 359.894C145.382 358.14 147.29 355.399 148.774 351.707C151.028 346.095 152.73 337.218 149.863 335.604C147.961 334.534 144.19 336.74 142.303 339.354C140.774 341.473 140.924 343.251 139.871 350.061C139.414 353.022 138.965 355.406 138.674 356.885C135.756 350.484 134.909 345.098 134.738 341.14C134.519 336.054 135.36 332.069 133.415 331.009C131.681 330.064 128.585 331.908 127.015 333.638C120.659 340.639 129.045 357.069 129.931 358.765C127.599 356.999 124.385 354.236 121.272 350.242C117.944 345.971 116.538 342.792 114.846 343.077C113.163 343.36 112.054 346.943 112.18 349.715C112.532 357.446 122.628 361.985 123.705 362.453C122.856 362.59 121.416 362.734 119.719 362.41C115.954 361.691 114.78 359.409 110.961 358.635C109.501 358.338 106.514 358.031 106.147 358.936C105.486 360.559 113.029 366.655 122.181 368.979C125.536 369.831 124.734 369.066 137.562 369.801Z" fill="url(#paint61_linear_326_5168)"/>
<path opacity="0.28" d="M144.039 364.209C148.506 362.223 147.899 359.522 152.786 356.178C155.916 354.037 156.643 354.817 159.997 352.77C161.842 351.644 163.349 350.353 164.573 349.075C164.579 349.084 164.587 349.093 164.592 349.102C165.827 351.093 162.542 355.237 161.112 356.767C158.828 359.211 156.25 360.368 154.726 360.913C152.544 362.394 150.362 363.875 148.18 365.355C150.71 364.061 154.316 362.722 158.688 362.701C160.108 362.695 162.363 362.684 163.104 363.318C161.791 364.132 160.61 364.524 159.648 364.72C157.456 365.167 156.081 364.667 154.185 365.81C152.664 366.727 152.791 367.506 151.452 368.002C150.191 368.47 149.547 367.976 146.437 367.466C143.411 366.969 141.874 366.736 140.651 367.504C139.727 368.085 139.236 369.042 138.966 369.884C138.652 369.865 138.332 369.846 138.002 369.827C138.246 368.86 138.693 367.751 139.543 366.762C140.892 365.192 142.368 364.952 144.039 364.209Z" fill="white"/>
<path opacity="0.28" d="M131.309 367.642C130.603 367.473 130.265 367.977 129.285 368.105C127.463 368.341 126.781 366.838 124.639 366.124C122.105 365.279 121.462 366.851 118.938 366.069C116.939 365.45 117.197 364.42 114.586 362.915C111.808 361.314 110.631 361.971 108.589 360.65C107.933 360.225 107.184 359.593 106.471 358.61C107.369 358.123 109.718 358.382 110.962 358.635C114.78 359.409 115.955 361.691 119.719 362.41C121.416 362.734 122.856 362.59 123.705 362.453C122.628 361.985 112.532 357.446 112.18 349.716C112.063 347.144 113.009 343.876 114.49 343.19C114.314 344.976 114.29 346.502 114.317 347.703C114.38 350.496 114.43 351.917 115.313 353.082C116.846 355.104 118.715 354.05 121.263 356.152C123.583 358.065 122.775 359.549 125.195 361.465C127.283 363.118 128.521 362.516 130.486 363.856C131.718 364.697 133.216 366.29 134.115 369.623C133.705 369.605 133.313 369.588 132.94 369.573C132.585 368.627 132.07 367.824 131.309 367.642Z" fill="white"/>
<path opacity="0.28" d="M133.513 357.107C132.29 353.777 130.168 354.119 129.282 351.186C128.402 348.271 130.328 347.365 129.837 343.143C129.469 339.98 128.275 339.515 128.195 337.353C128.137 335.759 128.699 333.588 131.296 330.897C132.084 330.69 132.828 330.689 133.415 331.009C135.36 332.069 134.519 336.054 134.738 341.14C134.909 345.098 135.756 350.484 138.674 356.885C138.966 355.406 139.414 353.021 139.872 350.061C140.924 343.25 140.774 341.473 142.304 339.353C144.19 336.739 147.961 334.534 149.863 335.604C149.972 335.665 150.073 335.738 150.169 335.82C149.22 336.466 148.345 337.261 147.609 338.242C145.101 341.585 146.528 343.98 144.254 350.574C142.066 356.915 139.847 357.307 138.087 362.787C137.525 364.537 136.995 366.853 136.886 369.763C136.243 369.727 135.638 369.696 135.065 369.668C134.406 367.509 134.095 365.578 133.963 363.939C133.671 360.332 134.339 359.356 133.513 357.107Z" fill="white"/>
<path d="M158.018 0.928132C172.167 1.36236 184.051 10.001 186.366 20.9364C186.369 20.9506 186.372 20.9649 186.375 20.9793C186.501 21.5779 186.597 22.1833 186.664 22.7946C186.668 22.8349 186.673 22.8752 186.677 22.9156C186.707 23.2012 186.729 23.4882 186.746 23.7764C186.749 23.8287 186.751 23.881 186.753 23.9334C186.767 24.2279 186.777 24.5231 186.777 24.82C186.777 37.5277 173.807 47.1579 158.018 46.3408C157.599 46.319 157.181 46.2886 156.766 46.2527C156.725 46.2492 156.684 46.2463 156.644 46.2426C156.251 46.2071 155.86 46.1644 155.472 46.1167C155.411 46.1093 155.351 46.1021 155.29 46.0944C154.914 46.0463 154.541 45.9917 154.17 45.932C154.1 45.9209 154.03 45.9095 153.96 45.8978C153.596 45.837 153.233 45.771 152.874 45.6996C152.801 45.685 152.729 45.6699 152.656 45.655C152.298 45.5814 151.942 45.5036 151.59 45.4196C151.522 45.4033 151.454 45.3861 151.386 45.3694C151.035 45.2838 150.687 45.1943 150.342 45.0986C150.28 45.0814 150.219 45.063 150.157 45.0455C149.847 44.9575 149.539 44.8652 149.233 44.7691C149.156 44.7447 149.078 44.7214 149 44.6966C148.69 44.5967 148.383 44.4915 148.078 44.3834C148.012 44.3602 147.945 44.3395 147.879 44.3157C147.88 44.3149 147.881 44.3143 147.881 44.3134C137.386 40.5277 130.008 32.0076 130.008 22.4795C130.008 10.1021 142.458 0.450369 158.018 0.928132Z" fill="url(#paint62_linear_326_5168)"/>
<path d="M127.012 22.4797C127.012 34.8572 139.462 45.5355 155.023 46.3409C170.811 47.1582 183.781 37.5279 183.781 24.8202C183.781 12.1125 170.811 1.41276 155.023 0.928122C139.462 0.450494 127.012 10.1023 127.012 22.4797Z" fill="url(#paint63_linear_326_5168)"/>
<g opacity="0.3">
<path d="M148.154 40.2203C151.561 33.6928 148.117 27.286 152.726 23.1556C157.429 18.9412 163.571 23.2897 170.22 19.9519C172.802 18.656 175.679 16.09 177.823 10.6536C181.556 14.6513 183.78 19.5712 183.78 24.8203C183.78 37.528 170.811 47.1583 155.022 46.341C151.438 46.1555 148.02 45.4464 144.883 44.3161C146.429 42.9732 147.453 41.5629 148.154 40.2203Z" fill="url(#paint64_linear_326_5168)"/>
</g>
<path d="M140.784 17.4806C139.57 17.4764 138.631 17.9467 137.968 18.8897C137.306 19.8314 136.975 21.1459 136.975 22.8339C136.975 26.3467 138.241 28.124 140.784 28.1661C141.856 28.1837 143.158 27.9267 144.693 27.393V30.2213C143.431 30.7405 142.027 30.984 140.482 30.9533C138.272 30.9092 136.59 30.181 135.428 28.7715C134.271 27.3659 133.693 25.3697 133.693 22.7795C133.693 21.1483 133.976 19.7209 134.544 18.496C135.113 17.2696 135.931 16.3286 137.001 15.6735C138.073 15.0166 139.334 14.6875 140.785 14.6875C142.268 14.6875 143.764 15.0607 145.272 15.8088L144.219 18.5471C143.645 18.2619 143.068 18.0134 142.488 17.8012C141.909 17.5893 141.341 17.4825 140.784 17.4806Z" fill="white"/>
<path d="M158.355 26.5983C158.355 28.0581 157.838 29.1994 156.807 30.0202C155.778 30.8392 154.351 31.2297 152.531 31.1934C150.86 31.1601 149.388 30.81 148.112 30.1442V26.9983C149.16 27.4952 150.05 27.8484 150.78 28.0573C151.51 28.2665 152.18 28.3763 152.788 28.3864C153.519 28.3986 154.08 28.2647 154.472 27.9849C154.864 27.7049 155.06 27.2821 155.06 26.7166C155.06 26.401 154.974 26.1189 154.801 25.8704C154.628 25.6223 154.375 25.3824 154.041 25.1506C153.707 24.9192 153.028 24.5481 152.005 24.0383C151.049 23.567 150.333 23.1177 149.857 22.6895C149.381 22.262 149.001 21.7665 148.717 21.2027C148.434 20.6397 148.292 19.9831 148.292 19.2327C148.292 17.8197 148.758 16.71 149.691 15.9023C150.627 15.0929 151.923 14.6875 153.583 14.6875C154.402 14.6875 155.184 14.7867 155.93 14.9852C156.677 15.1841 157.46 15.4646 158.278 15.8264L157.192 18.4864C156.346 18.1295 155.649 17.8805 155.098 17.7388C154.547 17.5976 154.007 17.5259 153.476 17.524C152.845 17.5219 152.362 17.6702 152.027 17.969C151.691 18.2677 151.523 18.6581 151.523 19.1407C151.523 19.4406 151.591 19.7025 151.727 19.9263C151.862 20.1504 152.078 20.3676 152.375 20.5782C152.672 20.789 153.375 21.1698 154.488 21.7216C155.964 22.4547 156.979 23.1872 157.529 23.9184C158.079 24.6504 158.355 25.544 158.355 26.5983Z" fill="white"/>
<path d="M171.962 26.7924C171.962 28.2761 171.428 29.4356 170.363 30.2697C169.301 31.1018 167.827 31.498 165.946 31.4606C164.221 31.4262 162.701 31.0699 161.384 30.393V27.1964C162.467 27.7015 163.385 28.0607 164.139 28.2732C164.893 28.486 165.584 28.5978 166.212 28.6081C166.967 28.6207 167.547 28.4848 167.951 28.2006C168.356 27.9161 168.558 27.4866 168.558 26.9118C168.558 26.591 168.469 26.3044 168.291 26.0518C168.113 25.7997 167.851 25.5557 167.506 25.3201C167.161 25.085 166.46 24.7077 165.404 24.1895C164.416 23.7104 163.677 23.2537 163.185 22.8185C162.694 22.384 162.302 21.8804 162.009 21.3076C161.716 20.7354 161.57 20.0681 161.57 19.3057C161.57 17.87 162.051 16.7424 163.014 15.9218C163.98 15.0992 165.319 14.6873 167.033 14.6873C167.879 14.6873 168.686 14.7881 169.457 14.9898C170.228 15.192 171.037 15.477 171.882 15.8448L170.76 18.5482C169.887 18.1854 169.166 17.9323 168.597 17.7882C168.029 17.6445 167.47 17.5718 166.922 17.5699C166.271 17.5677 165.773 17.7184 165.426 18.022C165.079 18.3255 164.906 18.7222 164.906 19.2126C164.906 19.5173 164.976 19.7833 165.116 20.0108C165.256 20.2386 165.479 20.4592 165.786 20.6734C166.092 20.8877 166.819 21.2747 167.967 21.8355C169.492 22.5806 170.54 23.3254 171.108 24.0684C171.677 24.8127 171.962 25.7209 171.962 26.7924Z" fill="white"/>
<path d="M96.1068 37.5848C111.85 38.068 125.073 47.6802 127.649 59.8478C127.653 59.8637 127.656 59.8796 127.659 59.8956C127.799 60.5615 127.906 61.2351 127.98 61.9154C127.985 61.9603 127.991 62.0052 127.995 62.0502C128.028 62.368 128.053 62.6874 128.071 63.008C128.074 63.0661 128.077 63.1244 128.079 63.1827C128.095 63.5103 128.105 63.8389 128.105 64.1693C128.105 78.3089 113.674 89.0244 96.1068 88.1152C95.6396 88.0909 95.1753 88.0572 94.7131 88.0172C94.668 88.0133 94.6224 88.01 94.5773 88.006C94.14 87.9666 93.7055 87.9191 93.2733 87.8658C93.206 87.8575 93.1386 87.8496 93.0715 87.841C92.6532 87.7874 92.2375 87.7267 91.8245 87.6603C91.7466 87.6479 91.6688 87.6352 91.591 87.6223C91.1856 87.5546 90.7827 87.4812 90.3827 87.4017C90.3016 87.3855 90.2208 87.3687 90.14 87.3519C89.742 87.2701 89.3463 87.1836 88.954 87.0901C88.878 87.072 88.8026 87.0526 88.7268 87.034C88.337 86.9387 87.9495 86.8393 87.5658 86.7328C87.497 86.7137 87.4288 86.6932 87.36 86.6738C87.0146 86.5758 86.6719 86.4731 86.3316 86.3662C86.2454 86.339 86.1583 86.3133 86.0724 86.2856C85.7273 86.1745 85.3859 86.0573 85.0463 85.9371C84.973 85.9112 84.8979 85.8882 84.8249 85.8619C84.8258 85.861 84.8266 85.8603 84.8276 85.8594C73.1498 81.6471 64.9397 72.1669 64.9397 61.565C64.9397 47.7928 78.7929 37.0533 96.1068 37.5848Z" fill="url(#paint65_linear_326_5168)"/>
<path d="M61.6064 61.5651C61.6064 75.3374 75.4597 87.219 92.7736 88.1153C110.341 89.0246 124.772 78.3091 124.772 64.1694C124.772 50.0298 110.341 38.1243 92.7736 37.5851C75.4597 37.0535 61.6064 47.7929 61.6064 61.5651Z" fill="url(#paint66_linear_326_5168)"/>
<g opacity="0.3">
<path d="M85.1312 81.3044C88.9223 74.0413 85.0897 66.9127 90.2182 62.3168C95.451 57.6274 102.285 62.4661 109.683 58.7521C112.556 57.31 115.758 54.4549 118.143 48.406C122.297 52.8541 124.772 58.3285 124.772 64.1691C124.772 78.3087 110.341 89.0242 92.7736 88.1149C88.7851 87.9084 84.9821 87.1195 81.4917 85.8617C83.2116 84.3676 84.3515 82.7983 85.1312 81.3044Z" fill="url(#paint67_linear_326_5168)"/>
</g>
<path d="M82.3098 70.0567L69.699 63.9224V62.0247L82.3098 55.489V58.7352L73.572 62.8922L82.3098 66.8239V70.0567Z" fill="white"/>
<path d="M95.8654 53.0272L88.5998 72.9887L84.9661 72.881L92.1531 53.0271L95.8654 53.0272Z" fill="white"/>
<path d="M98.5764 67.1601L107.995 63.4077L98.5764 58.8745V55.5491L112.335 62.6104V64.6315L98.5764 70.4716V67.1601Z" fill="white"/>
<path d="M152.781 85.7064C166.93 86.1407 178.813 94.7794 181.129 105.715C181.132 105.729 181.135 105.743 181.138 105.758C181.263 106.356 181.359 106.962 181.426 107.573C181.431 107.613 181.436 107.653 181.44 107.694C181.469 107.98 181.492 108.267 181.508 108.555C181.511 108.607 181.513 108.659 181.515 108.712C181.529 109.006 181.539 109.301 181.539 109.598C181.539 122.306 168.569 131.936 152.781 131.119C152.361 131.097 151.944 131.067 151.528 131.031C151.488 131.028 151.447 131.025 151.406 131.021C151.013 130.986 150.623 130.943 150.234 130.895C150.174 130.888 150.113 130.881 150.053 130.873C149.677 130.825 149.303 130.77 148.932 130.71C148.862 130.699 148.792 130.688 148.722 130.676C148.358 130.615 147.996 130.549 147.636 130.478C147.563 130.463 147.491 130.448 147.418 130.433C147.06 130.36 146.705 130.282 146.352 130.198C146.284 130.182 146.216 130.164 146.148 130.148C145.798 130.062 145.449 129.973 145.105 129.877C145.043 129.86 144.981 129.841 144.92 129.824C144.609 129.736 144.301 129.644 143.995 129.548C143.918 129.523 143.84 129.5 143.763 129.475C143.452 129.375 143.146 129.27 142.84 129.162C142.774 129.139 142.707 129.118 142.641 129.094C142.642 129.094 142.643 129.093 142.644 129.092C132.148 125.306 124.77 116.786 124.77 107.258C124.77 94.8806 137.22 85.2288 152.781 85.7064Z" fill="url(#paint68_linear_326_5168)"/>
<path d="M121.774 107.258C121.774 119.636 134.225 130.314 149.785 131.119C165.573 131.936 178.543 122.306 178.543 109.598C178.543 96.8908 165.574 86.1911 149.785 85.7064C134.225 85.2289 121.774 94.8807 121.774 107.258Z" fill="url(#paint69_linear_326_5168)"/>
<g opacity="0.3">
<path d="M142.917 124.999C146.324 118.471 142.879 112.064 147.488 107.934C152.191 103.72 158.333 108.068 164.982 104.73C167.564 103.434 170.442 100.868 172.585 95.4321C176.319 99.4298 178.543 104.35 178.543 109.599C178.543 122.307 165.573 131.937 149.785 131.12C146.2 130.934 142.782 130.225 139.646 129.095C141.191 127.752 142.216 126.341 142.917 124.999Z" fill="url(#paint70_linear_326_5168)"/>
</g>
<path d="M136.261 103.075C135.15 103.085 134.297 103.573 133.697 104.536C133.101 105.493 132.804 106.822 132.804 108.527C132.804 112.076 133.944 113.899 136.261 113.999C137.249 114.041 138.457 113.806 139.895 113.288V116.216C138.712 116.713 137.407 116.919 135.984 116.839C133.972 116.725 132.459 115.939 131.424 114.489C130.399 113.053 129.891 111.046 129.891 108.456C129.891 106.824 130.14 105.396 130.641 104.165C131.144 102.929 131.871 101.971 132.827 101.293C133.792 100.609 134.935 100.249 136.261 100.219C137.629 100.188 139.023 100.542 140.441 101.287L139.45 104.136C138.911 103.847 138.373 103.596 137.833 103.384C137.297 103.173 136.773 103.07 136.261 103.075Z" fill="white"/>
<path d="M147.112 110.112L143.087 110.018V107.515L147.112 107.563V103.023L149.456 103.002V107.59L153.723 107.64V110.266L149.456 110.166V114.695L147.112 114.593V110.112Z" fill="white"/>
<path d="M161.453 110.445L156.894 110.339V107.677L161.453 107.73V102.896L164.113 102.872V107.762L168.965 107.818V110.62L164.113 110.507V115.333L161.453 115.218V110.445Z" fill="white"/>
<path d="M86.2846 186.916C83.5292 183.465 81.9424 179.414 81.9424 175.081C81.9424 162.48 95.3594 152.264 111.91 152.264C128.461 152.264 141.878 162.48 141.878 175.081C141.878 187.682 128.461 197.897 111.91 197.897C105.707 197.897 99.9443 196.462 95.1631 194.004C92.0028 194.544 87.0971 195.449 84.5084 195.931C83.7461 196.073 83.1216 195.328 83.3945 194.602L86.2846 186.916Z" fill="url(#paint71_linear_326_5168)"/>
<g opacity="0.2">
<path d="M95.511 179.909C102.231 177.085 109.62 183.047 114.24 178.888C118.897 174.695 113.866 166.406 118.326 160.499C120.453 157.683 124.026 156.35 128.113 155.885C136.394 159.944 141.878 167.025 141.878 175.081C141.878 187.682 128.461 197.897 111.91 197.897C105.707 197.897 99.9443 196.462 95.1632 194.004C92.6696 194.43 89.0902 195.083 86.4189 195.577C88.3894 185.361 92.014 181.379 95.511 179.909Z" fill="url(#paint72_linear_326_5168)"/>
</g>
<path d="M131.335 167.912C131.335 168.526 130.837 169.024 130.222 169.024H93.0784C92.4638 169.024 91.9656 168.526 91.9656 167.912V167.737C91.9656 167.122 92.4638 166.624 93.0784 166.624H130.222C130.837 166.624 131.335 167.122 131.335 167.737V167.912Z" fill="white"/>
<path d="M131.335 174.633C131.335 175.248 130.837 175.746 130.222 175.746H93.0784C92.4638 175.746 91.9656 175.248 91.9656 174.633V174.458C91.9656 173.844 92.4638 173.345 93.0784 173.345H130.222C130.837 173.345 131.335 173.844 131.335 174.458V174.633Z" fill="white"/>
<path d="M112.611 181.322C112.611 181.955 112.098 182.467 111.465 182.467H93.1111C92.4786 182.467 91.9658 181.955 91.9658 181.322V181.212C91.9658 180.58 92.4786 180.067 93.1111 180.067H111.465C112.098 180.067 112.611 180.58 112.611 181.212V181.322Z" fill="white"/>
<defs>
<linearGradient id="paint0_linear_326_5168" x1="191.142" y1="419.297" x2="192.058" y2="341.431" gradientUnits="userSpaceOnUse">
<stop offset="0.494" stop-color="#EBEFF2"/>
<stop offset="1" stop-color="white"/>
</linearGradient>
<linearGradient id="paint1_linear_326_5168" x1="152.638" y1="168.009" x2="303.45" y2="444.617" gradientUnits="userSpaceOnUse">
<stop stop-color="#444B8C"/>
<stop offset="0.9964" stop-color="#26264F"/>
</linearGradient>
<linearGradient id="paint2_linear_326_5168" x1="175.116" y1="87.0023" x2="202.187" y2="252.011" gradientUnits="userSpaceOnUse">
<stop offset="0.0036" stop-color="#E38DDD"/>
<stop offset="1" stop-color="#9571F6"/>
</linearGradient>
<linearGradient id="paint3_linear_326_5168" x1="161.033" y1="135.086" x2="224.511" y2="135.086" gradientUnits="userSpaceOnUse">
<stop stop-color="#FF9085"/>
<stop offset="1" stop-color="#FB6FBB"/>
</linearGradient>
<linearGradient id="paint4_linear_326_5168" x1="161.033" y1="141.336" x2="224.511" y2="141.336" gradientUnits="userSpaceOnUse">
<stop stop-color="#FF9085"/>
<stop offset="1" stop-color="#FB6FBB"/>
</linearGradient>
<linearGradient id="paint5_linear_326_5168" x1="149.881" y1="159.812" x2="194.983" y2="159.812" gradientUnits="userSpaceOnUse">
<stop stop-color="#FF9085"/>
<stop offset="1" stop-color="#FB6FBB"/>
</linearGradient>
<linearGradient id="paint6_linear_326_5168" x1="175.692" y1="87.1019" x2="200.463" y2="238.082" gradientUnits="userSpaceOnUse">
<stop offset="0.0036" stop-color="#E38DDD"/>
<stop offset="1" stop-color="#9571F6"/>
</linearGradient>
<linearGradient id="paint7_linear_326_5168" x1="135.132" y1="121.496" x2="180.205" y2="121.496" gradientUnits="userSpaceOnUse">
<stop stop-color="#FF9085"/>
<stop offset="1" stop-color="#FB6FBB"/>
</linearGradient>
<linearGradient id="paint8_linear_326_5168" x1="161.033" y1="260.156" x2="224.511" y2="260.156" gradientUnits="userSpaceOnUse">
<stop stop-color="#FF9085"/>
<stop offset="1" stop-color="#FB6FBB"/>
</linearGradient>
<linearGradient id="paint9_linear_326_5168" x1="161.033" y1="266.407" x2="224.511" y2="266.407" gradientUnits="userSpaceOnUse">
<stop stop-color="#FF9085"/>
<stop offset="1" stop-color="#FB6FBB"/>
</linearGradient>
<linearGradient id="paint10_linear_326_5168" x1="190.031" y1="271.583" x2="251.866" y2="271.583" gradientUnits="userSpaceOnUse">
<stop stop-color="#FF9085"/>
<stop offset="1" stop-color="#FB6FBB"/>
</linearGradient>
<linearGradient id="paint11_linear_326_5168" x1="194.941" y1="119.23" x2="214.289" y2="237.161" gradientUnits="userSpaceOnUse">
<stop offset="0.0036" stop-color="#E38DDD"/>
<stop offset="1" stop-color="#9571F6"/>
</linearGradient>
<linearGradient id="paint12_linear_326_5168" x1="135.132" y1="248.577" x2="180.205" y2="248.577" gradientUnits="userSpaceOnUse">
<stop stop-color="#FF9085"/>
<stop offset="1" stop-color="#FB6FBB"/>
</linearGradient>
<linearGradient id="paint13_linear_326_5168" x1="149.881" y1="185.061" x2="213.997" y2="185.061" gradientUnits="userSpaceOnUse">
<stop stop-color="#FF9085"/>
<stop offset="1" stop-color="#FB6FBB"/>
</linearGradient>
<linearGradient id="paint14_linear_326_5168" x1="161.033" y1="197.654" x2="224.511" y2="197.654" gradientUnits="userSpaceOnUse">
<stop stop-color="#FF9085"/>
<stop offset="1" stop-color="#FB6FBB"/>
</linearGradient>
<linearGradient id="paint15_linear_326_5168" x1="161.033" y1="203.904" x2="224.511" y2="203.904" gradientUnits="userSpaceOnUse">
<stop stop-color="#FF9085"/>
<stop offset="1" stop-color="#FB6FBB"/>
</linearGradient>
<linearGradient id="paint16_linear_326_5168" x1="135.245" y1="210.484" x2="175.924" y2="210.484" gradientUnits="userSpaceOnUse">
<stop stop-color="#FF9085"/>
<stop offset="1" stop-color="#FB6FBB"/>
</linearGradient>
<linearGradient id="paint17_linear_326_5168" x1="169.117" y1="97.095" x2="191.602" y2="234.149" gradientUnits="userSpaceOnUse">
<stop offset="0.0036" stop-color="#E38DDD"/>
<stop offset="1" stop-color="#9571F6"/>
</linearGradient>
<linearGradient id="paint18_linear_326_5168" x1="161.033" y1="228.956" x2="218.414" y2="228.956" gradientUnits="userSpaceOnUse">
<stop stop-color="#FF9085"/>
<stop offset="1" stop-color="#FB6FBB"/>
</linearGradient>
<linearGradient id="paint19_linear_326_5168" x1="174.444" y1="234.944" x2="231.135" y2="234.944" gradientUnits="userSpaceOnUse">
<stop stop-color="#FF9085"/>
<stop offset="1" stop-color="#FB6FBB"/>
</linearGradient>
<linearGradient id="paint20_linear_326_5168" x1="174.444" y1="241.165" x2="231.135" y2="241.165" gradientUnits="userSpaceOnUse">
<stop stop-color="#FF9085"/>
<stop offset="1" stop-color="#FB6FBB"/>
</linearGradient>
<linearGradient id="paint21_linear_326_5168" x1="143.311" y1="91.1944" x2="168.229" y2="243.076" gradientUnits="userSpaceOnUse">
<stop offset="0.0036" stop-color="#E38DDD"/>
<stop offset="1" stop-color="#9571F6"/>
</linearGradient>
<linearGradient id="paint22_linear_326_5168" x1="376.048" y1="28.944" x2="307.727" y2="142.319" gradientUnits="userSpaceOnUse">
<stop stop-color="#AA80F9"/>
<stop offset="0.9964" stop-color="#6165D7"/>
</linearGradient>
<linearGradient id="paint23_linear_326_5168" x1="312.894" y1="164.987" x2="319.198" y2="111.919" gradientUnits="userSpaceOnUse">
<stop stop-color="#AA80F9"/>
<stop offset="0.9964" stop-color="#6165D7"/>
</linearGradient>
<linearGradient id="paint24_linear_326_5168" x1="353.649" y1="68.2618" x2="319.514" y2="124.49" gradientUnits="userSpaceOnUse">
<stop stop-color="#AA80F9"/>
<stop offset="0.9964" stop-color="#6165D7"/>
</linearGradient>
<linearGradient id="paint25_linear_326_5168" x1="366.203" y1="54.674" x2="284.039" y2="174.691" gradientUnits="userSpaceOnUse">
<stop stop-color="#AA80F9"/>
<stop offset="0.9964" stop-color="#6165D7"/>
</linearGradient>
<linearGradient id="paint26_linear_326_5168" x1="343.545" y1="181.791" x2="347.296" y2="103.134" gradientUnits="userSpaceOnUse">
<stop stop-color="#FFC444"/>
<stop offset="0.9964" stop-color="#F36F56"/>
</linearGradient>
<linearGradient id="paint27_linear_326_5168" x1="346.8" y1="218.205" x2="355.909" y2="171.908" gradientUnits="userSpaceOnUse">
<stop stop-color="#FFC444"/>
<stop offset="0.9964" stop-color="#F36F56"/>
</linearGradient>
<linearGradient id="paint28_linear_326_5168" x1="291.327" y1="184.36" x2="329.147" y2="365.688" gradientUnits="userSpaceOnUse">
<stop stop-color="#FF9085"/>
<stop offset="1" stop-color="#FB6FBB"/>
</linearGradient>
<linearGradient id="paint29_linear_326_5168" x1="311.923" y1="374.283" x2="323.245" y2="374.61" gradientUnits="userSpaceOnUse">
<stop stop-color="#311944"/>
<stop offset="1" stop-color="#893976"/>
</linearGradient>
<linearGradient id="paint30_linear_326_5168" x1="275.158" y1="371.165" x2="286.761" y2="374.355" gradientUnits="userSpaceOnUse">
<stop stop-color="#311944"/>
<stop offset="1" stop-color="#893976"/>
</linearGradient>
<linearGradient id="paint31_linear_326_5168" x1="279.111" y1="351.578" x2="311.206" y2="279.226" gradientUnits="userSpaceOnUse">
<stop stop-color="#311944"/>
<stop offset="1" stop-color="#893976"/>
</linearGradient>
<linearGradient id="paint32_linear_326_5168" x1="294.873" y1="355.006" x2="335.591" y2="287.13" gradientUnits="userSpaceOnUse">
<stop stop-color="#311944"/>
<stop offset="1" stop-color="#893976"/>
</linearGradient>
<linearGradient id="paint33_linear_326_5168" x1="304.422" y1="181.629" x2="342.242" y2="362.956" gradientUnits="userSpaceOnUse">
<stop stop-color="#FF9085"/>
<stop offset="1" stop-color="#FB6FBB"/>
</linearGradient>
<linearGradient id="paint34_linear_326_5168" x1="336.947" y1="336.707" x2="322.593" y2="268.528" gradientUnits="userSpaceOnUse">
<stop stop-color="#FF9085"/>
<stop offset="1" stop-color="#FB6FBB"/>
</linearGradient>
<linearGradient id="paint35_linear_326_5168" x1="330.33" y1="176.225" x2="368.15" y2="357.553" gradientUnits="userSpaceOnUse">
<stop stop-color="#FF9085"/>
<stop offset="1" stop-color="#FB6FBB"/>
</linearGradient>
<linearGradient id="paint36_linear_326_5168" x1="298.087" y1="277.46" x2="304.207" y2="260.12" gradientUnits="userSpaceOnUse">
<stop offset="0.0036" stop-color="#E38DDD"/>
<stop offset="1" stop-color="#9571F6"/>
</linearGradient>
<linearGradient id="paint37_linear_326_5168" x1="324.822" y1="252.337" x2="322.578" y2="267.841" gradientUnits="userSpaceOnUse">
<stop offset="0.0036" stop-color="#E38DDD"/>
<stop offset="1" stop-color="#9571F6"/>
</linearGradient>
<linearGradient id="paint38_linear_326_5168" x1="280.359" y1="253.695" x2="292.29" y2="236.752" gradientUnits="userSpaceOnUse">
<stop offset="0.0036" stop-color="#E38DDD"/>
<stop offset="1" stop-color="#9571F6"/>
</linearGradient>
<linearGradient id="paint39_linear_326_5168" x1="303.246" y1="281.735" x2="277.134" y2="228.696" gradientUnits="userSpaceOnUse">
<stop offset="0.0036" stop-color="#E38DDD"/>
<stop offset="1" stop-color="#9571F6"/>
</linearGradient>
<linearGradient id="paint40_linear_326_5168" x1="316.001" y1="247.693" x2="258.637" y2="247.693" gradientUnits="userSpaceOnUse">
<stop offset="0.0036" stop-color="#E38DDD"/>
<stop offset="1" stop-color="#9571F6"/>
</linearGradient>
<linearGradient id="paint41_linear_326_5168" x1="326.194" y1="208.711" x2="317.709" y2="186.925" gradientUnits="userSpaceOnUse">
<stop stop-color="#311944"/>
<stop offset="1" stop-color="#6B3976"/>
</linearGradient>
<linearGradient id="paint42_linear_326_5168" x1="323.574" y1="209.743" x2="315.08" y2="187.935" gradientUnits="userSpaceOnUse">
<stop stop-color="#311944"/>
<stop offset="1" stop-color="#6B3976"/>
</linearGradient>
<linearGradient id="paint43_linear_326_5168" x1="57.3034" y1="258.135" x2="45.4589" y2="210.757" gradientUnits="userSpaceOnUse">
<stop offset="0.0036" stop-color="#6165D7"/>
<stop offset="1" stop-color="#AA80F9"/>
</linearGradient>
<linearGradient id="paint44_linear_326_5168" x1="45.9943" y1="367.888" x2="39.731" y2="372.05" gradientUnits="userSpaceOnUse">
<stop stop-color="#444B8C"/>
<stop offset="0.9964" stop-color="#26264F"/>
</linearGradient>
<linearGradient id="paint45_linear_326_5168" x1="39.9339" y1="372.089" x2="41.3043" y2="362.397" gradientUnits="userSpaceOnUse">
<stop stop-color="#FFC444"/>
<stop offset="0.9964" stop-color="#F36F56"/>
</linearGradient>
<linearGradient id="paint46_linear_326_5168" x1="45.5239" y1="367.18" x2="39.2606" y2="371.343" gradientUnits="userSpaceOnUse">
<stop stop-color="#444B8C"/>
<stop offset="0.9964" stop-color="#26264F"/>
</linearGradient>
<linearGradient id="paint47_linear_326_5168" x1="85.7632" y1="370.995" x2="80.1443" y2="375.993" gradientUnits="userSpaceOnUse">
<stop stop-color="#444B8C"/>
<stop offset="0.9964" stop-color="#26264F"/>
</linearGradient>
<linearGradient id="paint48_linear_326_5168" x1="80.3506" y1="376.003" x2="80.3506" y2="366.214" gradientUnits="userSpaceOnUse">
<stop stop-color="#FFC444"/>
<stop offset="0.9964" stop-color="#F36F56"/>
</linearGradient>
<linearGradient id="paint49_linear_326_5168" x1="80.8118" y1="380.492" x2="44.1726" y2="232.561" gradientUnits="userSpaceOnUse">
<stop stop-color="#444B8C"/>
<stop offset="0.9964" stop-color="#26264F"/>
</linearGradient>
<linearGradient id="paint50_linear_326_5168" x1="110.551" y1="270.209" x2="17.9051" y2="205.777" gradientUnits="userSpaceOnUse">
<stop offset="0.0036" stop-color="#6165D7"/>
<stop offset="1" stop-color="#AA80F9"/>
</linearGradient>
<linearGradient id="paint51_linear_326_5168" x1="85.1982" y1="370.36" x2="79.5794" y2="375.358" gradientUnits="userSpaceOnUse">
<stop stop-color="#444B8C"/>
<stop offset="0.9964" stop-color="#26264F"/>
</linearGradient>
<linearGradient id="paint52_linear_326_5168" x1="79.7667" y1="191.735" x2="52.0801" y2="232.047" gradientUnits="userSpaceOnUse">
<stop stop-color="#FFC444"/>
<stop offset="0.9964" stop-color="#F36F56"/>
</linearGradient>
<linearGradient id="paint53_linear_326_5168" x1="78.4153" y1="190.808" x2="50.7293" y2="231.118" gradientUnits="userSpaceOnUse">
<stop stop-color="#FFC444"/>
<stop offset="0.9964" stop-color="#F36F56"/>
</linearGradient>
<linearGradient id="paint54_linear_326_5168" x1="46.3478" y1="247.919" x2="51.9427" y2="247.919" gradientUnits="userSpaceOnUse">
<stop offset="0.0036" stop-color="#6165D7"/>
<stop offset="1" stop-color="#AA80F9"/>
</linearGradient>
<linearGradient id="paint55_linear_326_5168" x1="50.3614" y1="256.604" x2="92.5241" y2="256.604" gradientUnits="userSpaceOnUse">
<stop offset="0.0036" stop-color="#6165D7"/>
<stop offset="1" stop-color="#AA80F9"/>
</linearGradient>
<linearGradient id="paint56_linear_326_5168" x1="125.081" y1="228.137" x2="133.488" y2="238.714" gradientUnits="userSpaceOnUse">
<stop stop-color="#FFC444"/>
<stop offset="0.9964" stop-color="#F36F56"/>
</linearGradient>
<linearGradient id="paint57_linear_326_5168" x1="32.1766" y1="275.336" x2="120.717" y2="213.759" gradientUnits="userSpaceOnUse">
<stop offset="0.0036" stop-color="#6165D7"/>
<stop offset="1" stop-color="#AA80F9"/>
</linearGradient>
<linearGradient id="paint58_linear_326_5168" x1="219.952" y1="171.786" x2="228.312" y2="205.858" gradientUnits="userSpaceOnUse">
<stop offset="0.0036" stop-color="#E38DDD"/>
<stop offset="1" stop-color="#9571F6"/>
</linearGradient>
<linearGradient id="paint59_linear_326_5168" x1="222.427" y1="182.462" x2="225.354" y2="182.462" gradientUnits="userSpaceOnUse">
<stop stop-color="#311944"/>
<stop offset="1" stop-color="#A03976"/>
</linearGradient>
<linearGradient id="paint60_linear_326_5168" x1="131.343" y1="321.315" x2="168.022" y2="364.93" gradientUnits="userSpaceOnUse">
<stop offset="0.0036" stop-color="#E38DDD"/>
<stop offset="1" stop-color="#9571F6"/>
</linearGradient>
<linearGradient id="paint61_linear_326_5168" x1="134.529" y1="371.495" x2="136.038" y2="344.97" gradientUnits="userSpaceOnUse">
<stop stop-color="#AA80F9"/>
<stop offset="0.9964" stop-color="#6165D7"/>
</linearGradient>
<linearGradient id="paint62_linear_326_5168" x1="129.558" y1="16.8372" x2="172.521" y2="26.9859" gradientUnits="userSpaceOnUse">
<stop stop-color="#311944"/>
<stop offset="1" stop-color="#893976"/>
</linearGradient>
<linearGradient id="paint63_linear_326_5168" x1="165.366" y1="5.17272" x2="128.533" y2="73.4855" gradientUnits="userSpaceOnUse">
<stop offset="0.0036" stop-color="#E38DDD"/>
<stop offset="1" stop-color="#9571F6"/>
</linearGradient>
<linearGradient id="paint64_linear_326_5168" x1="176.161" y1="9.68627" x2="140.068" y2="82.1176" gradientUnits="userSpaceOnUse">
<stop offset="0.0036" stop-color="#E38DDD"/>
<stop offset="1" stop-color="#9571F6"/>
</linearGradient>
<linearGradient id="paint65_linear_326_5168" x1="158.536" y1="25.7941" x2="85.1145" y2="69.6956" gradientUnits="userSpaceOnUse">
<stop stop-color="#311944"/>
<stop offset="1" stop-color="#893976"/>
</linearGradient>
<linearGradient id="paint66_linear_326_5168" x1="104.282" y1="42.3078" x2="63.2993" y2="118.318" gradientUnits="userSpaceOnUse">
<stop stop-color="#FF9085"/>
<stop offset="1" stop-color="#FB6FBB"/>
</linearGradient>
<linearGradient id="paint67_linear_326_5168" x1="116.294" y1="47.3296" x2="76.1334" y2="127.923" gradientUnits="userSpaceOnUse">
<stop stop-color="#FF9085"/>
<stop offset="1" stop-color="#FB6FBB"/>
</linearGradient>
<linearGradient id="paint68_linear_326_5168" x1="124.321" y1="101.616" x2="167.283" y2="111.764" gradientUnits="userSpaceOnUse">
<stop stop-color="#FFC444"/>
<stop offset="0.9964" stop-color="#F36F56"/>
</linearGradient>
<linearGradient id="paint69_linear_326_5168" x1="160.128" y1="89.9511" x2="123.296" y2="158.264" gradientUnits="userSpaceOnUse">
<stop stop-color="#FFC444"/>
<stop offset="0.9964" stop-color="#F36F56"/>
</linearGradient>
<linearGradient id="paint70_linear_326_5168" x1="170.924" y1="94.4646" x2="134.83" y2="166.896" gradientUnits="userSpaceOnUse">
<stop stop-color="#FFC444"/>
<stop offset="0.9964" stop-color="#F36F56"/>
</linearGradient>
<linearGradient id="paint71_linear_326_5168" x1="111.504" y1="163.237" x2="115.461" y2="278.72" gradientUnits="userSpaceOnUse">
<stop offset="0.0036" stop-color="#E38DDD"/>
<stop offset="1" stop-color="#9571F6"/>
</linearGradient>
<linearGradient id="paint72_linear_326_5168" x1="133.967" y1="159.315" x2="81.9558" y2="227.812" gradientUnits="userSpaceOnUse">
<stop offset="0.0036" stop-color="#E38DDD"/>
<stop offset="1" stop-color="#9571F6"/>
</linearGradient>
</defs>
</svg>
