<svg width="24" height="24" viewBox="0 0 24 24" fill="none" xmlns="http://www.w3.org/2000/svg">
<path d="M10.6 13.7998L8.45 11.6498C8.26667 11.4664 8.03333 11.3748 7.75 11.3748C7.46667 11.3748 7.23334 11.4664 7.05 11.6498C6.86667 11.8331 6.775 12.0664 6.775 12.3498C6.775 12.6331 6.86667 12.8664 7.05 13.0498L9.9 15.8998C10.1 16.0998 10.3333 16.1998 10.6 16.1998C10.8667 16.1998 11.1 16.0998 11.3 15.8998L16.95 10.2498C17.1333 10.0664 17.225 9.83309 17.225 9.54976C17.225 9.26642 17.1333 9.03309 16.95 8.84976C16.7667 8.66642 16.5333 8.57476 16.25 8.57476C15.9667 8.57476 15.7333 8.66642 15.55 8.84976L10.6 13.7998ZM12 21.9998C10.6167 21.9998 9.31667 21.7371 8.1 21.2118C6.88334 20.6864 5.825 19.9741 4.925 19.0748C4.025 18.1754 3.31267 17.1171 2.788 15.8998C2.26333 14.6824 2.00067 13.3824 2 11.9998C1.99933 10.6171 2.262 9.31709 2.788 8.09976C3.314 6.88242 4.02633 5.82409 4.925 4.92476C5.82367 4.02542 6.882 3.31309 8.1 2.78776C9.318 2.26242 10.618 1.99976 12 1.99976C13.382 1.99976 14.682 2.26242 15.9 2.78776C17.118 3.31309 18.1763 4.02542 19.075 4.92476C19.9737 5.82409 20.6863 6.88242 21.213 8.09976C21.7397 9.31709 22.002 10.6171 22 11.9998C21.998 13.3824 21.7353 14.6824 21.212 15.8998C20.6887 17.1171 19.9763 18.1754 19.075 19.0748C18.1737 19.9741 17.1153 20.6868 15.9 21.2128C14.6847 21.7388 13.3847 22.0011 12 21.9998Z" fill="#F7C15F"/>
</svg>
