<svg width="24" height="25" viewBox="0 0 24 25" fill="none" xmlns="http://www.w3.org/2000/svg">
<path d="M4 20.9741C3.45 20.9741 2.97933 20.7785 2.588 20.3871C2.19667 19.9958 2.00067 19.5248 2 18.9741V6.97412C2 6.42412 2.196 5.95345 2.588 5.56212C2.98 5.17079 3.45067 4.97479 4 4.97412H20C20.55 4.97412 21.021 5.17012 21.413 5.56212C21.805 5.95412 22.0007 6.42479 22 6.97412V18.9741C22 19.5241 21.8043 19.9951 21.413 20.3871C21.0217 20.7791 20.5507 20.9748 20 20.9741H4ZM12 13.7991C12.0833 13.7991 12.171 13.7865 12.263 13.7611C12.355 13.7358 12.4423 13.6985 12.525 13.6491L19.6 9.22412C19.7333 9.14079 19.8333 9.03679 19.9 8.91212C19.9667 8.78745 20 8.64979 20 8.49912C20 8.16579 19.8583 7.91579 19.575 7.74912C19.2917 7.58245 19 7.59079 18.7 7.77412L12 11.9741L5.3 7.77412C5 7.59079 4.70833 7.58679 4.425 7.76212C4.14167 7.93745 4 8.18312 4 8.49912C4 8.66579 4.03333 8.81179 4.1 8.93712C4.16667 9.06245 4.26667 9.15812 4.4 9.22412L11.475 13.6491C11.5583 13.6991 11.646 13.7368 11.738 13.7621C11.83 13.7875 11.9173 13.7998 12 13.7991Z" fill="#F7C15F"/>
</svg>
