<svg width="103" height="101" viewBox="0 0 103 101" fill="none" xmlns="http://www.w3.org/2000/svg">
<path opacity="0.5" d="M63.8935 82.0025C53.9304 85.8341 42.4397 86.8964 32.6982 82.5132C22.9567 78.1301 15.7171 67.43 17.4904 56.8959C18.1635 52.8968 20.0378 49.0037 19.5591 44.9755C19.0151 40.3971 15.5527 36.6961 14.2603 32.27C13.0266 28.0458 13.8911 23.4007 15.9229 19.5011C17.9548 15.6015 21.071 12.3683 24.4327 9.5356C29.7473 5.05728 35.9654 1.37203 42.8317 0.29348C49.698 -0.785076 57.2719 1.08923 61.9408 6.24702C69.152 14.2135 68.1196 27.7924 76.4288 34.6041C80.1986 37.6943 85.2864 38.7836 89.1047 41.8134C92.7069 44.6718 94.9073 49.2215 94.9114 53.8195C94.9242 68.4527 75.2626 77.63 63.8935 82.0025Z" fill="#EDB62B"/>
<path d="M52.7488 100C61.9283 100 69.3697 98.2518 69.3697 96.0953C69.3697 93.9388 61.9283 92.1906 52.7488 92.1906C43.5693 92.1906 36.1279 93.9388 36.1279 96.0953C36.1279 98.2518 43.5693 100 52.7488 100Z" fill="#B8C9DE" stroke="white" stroke-width="0.242754" stroke-miterlimit="10"/>
<path d="M58.972 19.9697C58.7016 18.1723 58.6074 16.0458 57.0615 14.9095C54.6658 13.149 51.1099 14.4375 48.4899 14.8869C46.148 15.2884 45.8919 17.9478 45.629 19.8898C45.4516 21.2012 45.513 22.7388 45.1129 24.0013C44.7061 25.286 43.8076 26.299 43.4891 27.6552C42.8366 30.4341 43.5195 33.5391 45.2787 35.7865C47.2577 38.3148 50.329 39.7723 53.468 40.1981C55.1768 40.4297 56.6389 40.5001 58.3469 40.8562C60.1964 41.2419 62.1241 41.3116 63.9744 40.8907C66.7214 40.2658 69.273 38.467 70.4021 35.8858C71.5309 33.3049 70.9949 29.9738 68.8394 28.1599C67.1695 26.7546 64.8818 26.4073 62.8716 25.5571C60.529 24.5662 59.5403 22.9526 59.0761 20.5829C59.0373 20.3843 59.0035 20.1794 58.972 19.9697Z" fill="#3537A6"/>
<path d="M68.8158 63.2531C69.8948 62.6283 69.8917 60.7674 69.8917 60.7674C69.4142 58.1466 68.9299 55.4923 68.1795 52.9342C67.6088 50.9878 66.8352 49.3077 66.3856 47.2753C65.7649 44.4691 65.1439 41.6629 64.5232 38.8566C64.1221 37.0437 64.169 35.845 62.5411 34.8114C60.7265 33.6593 58.2298 33.3044 56.1433 33.628C58.8947 36.4415 59.0248 40.9679 59.8531 44.6077C60.3959 46.9933 61.0207 49.3635 61.7682 51.6935C62.4884 53.9389 63.6179 55.9887 64.4132 58.1794L65.8918 62.2537C65.8918 62.2537 65.9831 62.4955 66.1438 62.7861C66.3955 63.3182 67.7365 63.878 68.8158 63.2531Z" fill="#00367D"/>
<path d="M62.763 9.98956L62.6482 9.91455C62.7208 9.97403 62.763 9.98956 62.763 9.98956Z" fill="#E2B4BD"/>
<path d="M52.3096 76.4369C51.7826 76.3752 51.2538 76.3102 50.7261 76.2638C51.1638 76.3021 51.5034 73.6794 51.4828 73.359C51.4277 72.503 51.0198 71.6109 50.8489 70.7494C50.3991 68.4806 50.0333 66.1965 49.6189 63.9212L58.0211 62.1044L59.624 64.0547C62.9944 65.2056 66.3539 66.3903 69.7041 67.598C72.3749 68.5607 75.0408 69.5385 77.6866 70.5683C78.6268 70.9341 80.2316 71.2507 80.8115 72.1401C81.4342 73.0954 81.3434 75.1022 81.2747 76.1621C81.1929 77.4232 80.7885 78.7049 79.9151 79.6182C78.3211 81.2847 76.6668 80.7445 74.7825 80.2784C72.6045 79.7398 70.2505 79.5871 68.0323 79.2373C65.4986 78.8375 62.966 78.4323 60.4348 78.0165C60.4348 78.0165 56.8081 76.8746 56.7986 76.8714C55.8227 76.5641 54.8286 76.6505 53.8263 76.5852C53.3233 76.5522 52.8169 76.4961 52.3096 76.4369Z" fill="#002657"/>
<path d="M51.2703 76.2077C51.5626 76.1502 51.8573 76.0975 52.1583 76.0531C52.2513 74.9942 52.3867 73.9824 52.5816 72.9385C52.7771 71.892 53.2014 70.6763 53.2014 69.6145C53.5468 67.763 53.8925 65.9113 54.238 64.0598L45.8435 62.2069L44.2324 64.1501C40.8838 65.2775 37.5462 66.4381 34.2171 67.6217C29.6346 69.2509 22.2151 70.2979 22.6819 76.6806C22.772 77.9128 23.2876 79.5919 24.2698 80.4258C25.124 81.1509 25.8243 80.7987 26.8483 80.6198C29.3016 80.1911 31.7874 79.9017 34.2498 79.5271C37.2886 79.0649 40.3265 78.5937 43.3616 78.1085C43.3616 78.1085 46.9801 76.9862 47.0027 76.9792C47.8941 76.7027 48.8127 76.7469 49.7089 76.5468C50.2328 76.4298 50.7472 76.3109 51.2703 76.2077Z" fill="#002657"/>
<path d="M54.4093 34.7468L53.9019 35.3877C52.8484 36.7277 51.0642 36.6233 50.1174 35.1716L49.4304 34.1132C49.5518 32.5086 49.6974 30.9356 49.797 29.9039C49.8674 29.1708 49.9159 28.7119 49.9159 28.7119L51.9186 28.9474L53.681 28.7119C53.681 28.7119 53.9384 30.3481 54.1641 32.2731C54.2588 33.0791 54.3486 33.9384 54.4093 34.7468Z" fill="#DDAFB8"/>
<path d="M54.164 32.2731C53.0643 32.295 51.9525 31.9551 51.0689 31.2997C50.5591 30.9234 50.1294 30.4428 49.7969 29.9039C49.8673 29.1708 49.9158 28.7119 49.9158 28.7119L51.9185 28.9474L53.6809 28.7119C53.6809 28.7119 53.9383 30.3481 54.164 32.2731Z" fill="#DD96A9"/>
<path d="M47.1484 33.7765L49.1164 33.7457L56.8656 33.7765C56.8656 33.7765 60.2784 35.6523 59.4482 38.2354C58.6183 40.8186 50.0631 43.3553 50.0631 43.3553L45.98 41.3718C45.98 41.3718 45.1498 40.2648 45.0114 39.3885C44.873 38.5122 44.5963 38.0048 44.873 37.405C45.1498 36.8054 45.6627 34.4596 45.6627 34.4596L47.1484 33.7765Z" fill="#00367D"/>
<path d="M45.1169 17.5899C45.1169 17.5899 44.3323 19.4854 45.305 20.4583C46.278 21.4313 46.6671 23.7661 46.6671 23.7661C46.6671 23.7661 48.8075 18.1235 48.8075 17.9288C48.8075 17.7344 45.1169 17.5899 45.1169 17.5899Z" fill="#3537A6"/>
<path d="M57.5013 22.8225C57.1102 22.7453 56.7502 22.8516 56.4722 23.0614V17.6317L49.8922 15.8581L46.1006 16.6449L46.8092 21.0623C47.2656 23.8719 46.6621 27.3853 49.4608 29.1404C50.7056 29.9211 52.9732 30.2821 54.2537 29.3361C55.3575 28.5209 55.9159 26.7507 56.472 25.5365C56.472 25.5365 56.5681 25.4003 56.8602 25.4003C57.654 25.4003 58.2834 24.7684 58.1317 23.9472C58.0375 23.4364 58.0103 22.9228 57.5013 22.8225Z" fill="#DDAFB8"/>
<path d="M57.0172 23.4442C57.0172 23.4442 56.4722 24.3523 56.8356 24.8973C57.199 25.4423 57.3806 24.5339 57.199 24.3523C57.0175 24.1708 57.0175 24.3523 57.3806 24.1708C57.744 23.9889 57.0172 23.4442 57.0172 23.4442Z" fill="#D891A4"/>
<path d="M56.524 22.1977C57.1642 22.2765 57.7696 22.2343 58.2172 21.9882C59.4543 21.3082 59.3147 19.0885 58.996 17.8808C58.6202 16.458 57.5783 15.0449 56.2053 14.429C49.0118 11.1091 43.8469 17.7385 44.9534 19.3987C46.041 21.0305 49.757 17.001 50.4489 16.1761C51.6869 17.8541 51.4442 19.7682 53.4787 21.1004C54.1485 21.5391 55.3906 22.0578 56.524 22.1977Z" fill="#3537A6"/>
<path d="M56.2575 20.5569C57.2202 21.2594 58.0925 21.8445 58.4148 22.1884C58.5886 20.486 59.4298 17.833 58.2175 16.3303C57.7264 15.7217 57.1214 15.3583 56.4277 15.0381C54.8439 14.3072 52.9308 13.4187 51.1322 13.5425C47.7084 13.7787 46.5 17.2778 46.3276 20.1493C49.0489 20.2629 51.7631 18.6209 52.9262 16.1579C52.2991 17.4865 54.4397 19.2307 56.2575 20.5569Z" fill="#3537A6"/>
<path d="M66.1726 62.9492C66.3086 63.099 66.4664 63.251 66.6375 63.3699C67.1483 63.7255 83.0824 71.3162 83.0824 71.3162L83.965 69.4982C83.965 69.4982 71.2027 61.0179 70.5031 60.5702C69.9421 60.2112 69.6161 60.1338 69.4627 60.1209L69.3544 60.1236C69.3544 60.1236 67.877 59.4023 66.9016 60.3406C65.9265 61.2788 65.8039 62.3792 66.0731 62.8361C66.0945 62.8727 66.1304 62.9106 66.1726 62.9492Z" fill="#E2B4BD"/>
<path d="M80.4444 66.8617C80.4444 66.8617 78.7531 67.83 78.2327 69.9155C78.2327 69.9155 66.7633 64.6517 65.9236 62.2304C65.0839 59.8094 66.9133 57.9495 66.9133 57.9495H69.4013L80.4444 66.8617Z" fill="#00367D"/>
<path d="M84.162 70.9907C84.162 70.9907 85.7829 70.0981 86.5422 69.842C87.3016 69.5859 91.4085 68.1432 91.9782 68.0087C92.5479 67.8742 92.799 67.1938 92.799 67.1938C92.799 67.1938 94.6461 66.7437 94.564 66.3296C94.482 65.9154 93.8425 65.9001 93.4571 66.0111C93.0716 66.1218 92.4907 66.3368 92.4907 66.3368C92.4907 66.3368 91.943 66.1948 91.7473 66.2414C91.4985 66.3009 89.5924 66.6184 89.5356 66.7961C89.6652 66.391 89.4589 65.955 89.2028 65.6154C89.0251 65.3799 88.784 65.1478 88.4891 65.15C88.1252 65.1527 87.8715 65.4991 87.68 65.8086C87.7829 66.0839 87.8861 66.3592 87.989 66.6342C88.0087 66.6869 88.0286 66.7398 88.0415 66.7949C88.107 67.0753 87.964 67.3911 87.7096 67.5266C87.5118 67.6322 84.9005 67.396 84.9158 67.9788C85.1588 67.2382 85.7999 66.6417 86.5563 66.4524C86.8607 66.3762 87.1896 66.3582 87.4547 66.1905C87.6081 66.0934 88.0956 65.0689 87.8788 65.1078C87.42 65.1903 86.9612 65.2729 86.5024 65.3554C85.0697 65.6132 83.9231 66.0494 83.1412 67.3205C82.5763 68.2386 82.2581 69.0249 82.5244 70.0867C82.5623 70.2374 82.8616 71.4296 83.2301 71.3053C83.2371 71.3026 84.162 70.9907 84.162 70.9907Z" fill="#E2B4BD"/>
<path d="M88.185 68.2993L88.1306 68.1425L89.9539 67.5081C90.6358 67.3484 91.9426 67.0394 92.0693 66.9969C92.2295 66.9425 92.5007 66.701 92.5065 66.6262C92.5099 66.5432 92.4453 66.4208 92.4203 66.3805L92.5609 66.2927C92.5728 66.3116 92.6784 66.484 92.6721 66.6328C92.6648 66.8151 92.2989 67.0942 92.1222 67.1537C91.9564 67.2095 90.0799 67.6484 90.0001 67.6671L88.185 68.2993Z" fill="#E4A183"/>
<path d="M92.7645 67.1168L89.2458 68.4793L89.3057 68.6339L92.8244 67.2714L92.7645 67.1168Z" fill="#E4A183"/>
<path d="M36.2419 63.2532C35.1626 62.6283 35.166 60.7674 35.166 60.7674C35.6438 58.1466 36.128 55.4923 36.8782 52.9342C37.4489 50.9878 38.2225 49.3077 38.6721 47.2753C39.2928 44.4691 39.9138 41.6629 40.5345 38.8566C40.9355 37.0438 40.8887 35.8448 42.5171 34.8111C44.3205 33.6663 45.9239 33.5833 47.9907 33.6967C47.0197 35.2775 46.248 37.6936 46.1526 39.5779C46.0897 40.8341 43.8804 52.3287 40.6447 58.1796L39.1659 62.254C39.1659 62.254 39.0746 62.4958 38.9141 62.7863C38.6622 63.3182 37.3212 63.878 36.2419 63.2532Z" fill="#00367D"/>
<path d="M39.121 62.4853C38.9926 62.6417 38.8426 62.8011 38.6775 62.9286C38.185 63.3092 22.647 71.6806 22.647 71.6806L21.6755 69.9087C21.6755 69.9087 34.0016 60.8062 34.6782 60.3243C35.2207 59.9379 35.5426 59.8442 35.6951 59.824L35.8033 59.8213C35.8033 59.8213 37.2431 59.0278 38.2636 59.9165C39.2842 60.8052 39.4609 61.8983 39.2147 62.3678C39.1953 62.405 39.1611 62.4445 39.121 62.4853Z" fill="#E2B4BD"/>
<path d="M21.5526 71.4089C21.5526 71.4089 19.8893 70.5979 19.1183 70.3797C18.3473 70.1617 14.1739 68.9241 13.5981 68.818C13.0225 68.7119 12.738 68.0449 12.738 68.0449C12.738 68.0449 10.8707 67.687 10.9324 67.269C10.9938 66.851 11.6315 66.8044 12.0221 66.8959C12.4127 66.9874 13.0036 67.1734 13.0036 67.1734C13.0036 67.1734 13.5435 67.0044 13.7413 67.0413C13.9928 67.0884 15.9123 67.311 15.9778 67.4856C15.8283 67.0872 16.0128 66.6415 16.2516 66.2897C16.4174 66.0458 16.6468 65.8021 16.9413 65.7894C17.3049 65.7739 17.5754 66.1074 17.7822 66.407C17.6929 66.6869 17.6035 66.967 17.5144 67.2469C17.4974 67.3006 17.4802 67.3545 17.47 67.4101C17.4183 67.6934 17.5771 68.0016 17.8375 68.1245C18.0405 68.2201 20.6367 67.8548 20.6503 68.4376C20.3707 67.7099 19.7009 67.1459 18.9362 66.9945C18.6284 66.9335 18.299 66.9318 18.0259 66.7774C17.8679 66.6881 17.3302 65.6889 17.5487 65.7171C18.0111 65.7768 18.4733 65.8365 18.9355 65.896C20.3794 66.0822 21.5461 66.4614 22.3901 67.6919C22.9999 68.5809 23.3568 69.3504 23.1434 70.4241C23.1131 70.5763 22.8732 71.7821 22.4989 71.6762C22.4919 71.6745 21.5526 71.4089 21.5526 71.4089Z" fill="#E2B4BD"/>
<path d="M17.4012 68.9202L15.5485 68.3772C15.4762 68.3646 13.58 68.0191 13.4116 67.9716C13.2322 67.9206 12.853 67.6601 12.8367 67.478C12.8234 67.3302 12.92 67.1527 12.9311 67.1331L13.0758 67.2137C13.0528 67.2549 12.9945 67.3809 13.002 67.463C13.0113 67.5375 13.2938 67.7655 13.4572 67.8116C13.5856 67.8482 14.9064 68.092 15.5869 68.2155L17.4478 68.7607L17.4012 68.9202Z" fill="#E4A183"/>
<path d="M12.7625 67.9624L12.7104 68.1198L16.2933 69.3035L16.3453 69.1461L12.7625 67.9624Z" fill="#E4A183"/>
<path d="M40.7009 64.1268C40.6453 64.4997 40.63 64.875 40.6798 65.2515C40.8431 66.4905 41.6588 67.1013 42.7794 67.3253C43.8647 67.5426 44.9673 67.9429 46.1007 67.966C48.7093 68.0191 53.5394 68.4605 56.1434 68.2993C57.8971 68.1908 62.5516 67.8851 62.5463 65.3462C62.5429 63.7991 61.6314 61.9117 61.3881 60.3413C61.1446 58.769 61.0099 57.1797 60.9859 55.5889C60.9339 52.1651 61.8761 48.9717 62.0904 45.5887C62.2072 43.744 61.9761 41.8787 61.4207 40.116C61.0004 38.7831 60.7099 37.2739 59.9707 36.081C59.5624 35.4222 58.1549 34.4558 57.9881 35.905C57.8471 37.1304 58.8016 38.056 57.6956 39.2196C55.9121 41.0953 52.0067 41.3415 52.0067 41.3415C52.0067 41.3415 48.1015 41.0953 46.3177 39.2196C45.1748 38.0177 46.9346 34.373 46.2095 34.0705C45.1331 33.6229 44.1592 36.6393 43.9256 37.2945C43.1401 39.498 42.431 41.3267 42.6245 43.7348C42.7522 45.3234 43.1199 46.8726 43.4387 48.4299C43.7256 49.8313 43.4552 51.2218 43.302 52.6472C42.9558 55.8649 42.2684 59.046 41.2532 62.1188C41.0361 62.7752 40.8019 63.4471 40.7009 64.1268Z" fill="#00367D"/>
<path d="M52.95 77.1008C51.7661 77.3693 50.8982 77.4802 49.4616 77.1804C47.9357 76.8534 46.148 77.9388 44.8966 78.6724C44.1106 79.1331 43.3386 79.6818 42.4907 80.0073C41.5867 80.3547 40.6254 80.5957 39.7017 80.887C39.4776 80.9577 39.2492 81.0305 39.0601 81.1698C38.871 81.3092 38.7249 81.5291 38.7368 81.7636C38.7545 82.118 39.1293 82.3686 39.4837 82.379C39.8384 82.3897 40.1722 82.2258 40.489 82.0661C40.2807 82.129 40.0671 82.1945 39.8971 82.3302C39.7272 82.4659 39.6092 82.69 39.6621 82.9009C39.734 83.1876 40.0913 83.3218 40.3792 83.2551C40.6671 83.1883 40.8982 82.9803 41.1153 82.78C40.4169 82.6793 40.614 83.3211 40.8745 83.5782C41.2762 83.9746 42.2693 83.8996 42.7755 83.8761C45.5426 83.7474 47.7585 82.8946 50.2916 81.9624C51.5328 81.5056 52.5871 80.9489 53.9074 80.9108C55.9973 80.8506 58.0915 80.8584 60.1821 80.8322C64.2784 80.7807 68.3743 80.7295 72.4706 80.678C74.425 80.6535 76.4823 80.6013 78.1617 79.6016C79.8411 78.602 80.9167 76.3046 79.9132 74.6274C79.333 73.6578 78.2029 73.1228 77.0814 72.9851C75.9599 72.8477 74.8277 73.0519 73.7161 73.2556C69.2779 74.0686 64.8396 74.8813 60.4011 75.6943C58.1923 76.0989 55.9262 76.3924 53.7426 76.9136C53.4591 76.9816 53.1976 77.0445 52.95 77.1008Z" fill="#DD96A9"/>
<path d="M48.7484 82.6366C48.4605 82.7487 44.9736 83.4799 45.7135 80.7457C46.4534 78.0116 49.3221 76.8709 49.057 76.9289C48.7919 76.9867 47.8908 76.5175 45.7133 77.4931C42.9146 78.7474 39.5068 79.2557 38.3168 82.4768C38.1246 82.9973 38.1544 83.6384 38.5363 84.0411C39.0181 84.5495 39.827 84.5004 40.522 84.4138C43.4166 84.0523 46.0951 83.8926 48.7484 82.6366Z" fill="#002657"/>
<path d="M52.2559 76.3182C51.9995 76.3502 51.7434 76.3823 51.4871 76.4143C51.6834 78.2544 51.8796 80.0947 52.076 81.9348C53.0431 81.9202 54.01 81.9056 54.9769 81.8911C55.4774 81.8835 56.339 82.4848 56.8862 82.6011C57.6365 82.7604 58.4143 82.797 59.1765 82.7138C60.5396 82.565 61.5337 81.9076 62.8863 82.0115C64.7205 82.1523 66.5446 82.5227 68.3805 82.6863C72.5938 83.0616 78.4228 83.5617 81.9701 80.7341C86.9405 76.7724 82.1995 70.7729 79.0828 70.5062C76.2919 70.2673 73.0667 71.1293 70.509 72.0984C67.0993 73.3903 62.6452 73.1102 59.0166 73.4343C57.9953 73.5255 56.9561 73.6209 56.0069 74.0089C55.0577 74.3968 54.1945 75.1287 53.9054 76.1123C53.3555 76.1808 52.8057 76.2495 52.2559 76.3182Z" fill="#00367D"/>
<path d="M48.637 77.4766C49.1131 76.8925 49.8792 76.3818 50.5808 76.6561C51.2753 76.9275 51.4957 77.8038 51.4867 78.5493C51.4707 79.8891 50.5218 83.6986 48.503 82.9665C46.4627 82.2268 47.7139 78.6095 48.637 77.4766Z" fill="#002657"/>
<path d="M51.0692 77.4552C52.2531 77.7237 53.1209 77.8347 54.5575 77.5349C56.0835 77.2079 57.8711 78.2932 59.1228 79.0268C60.5693 79.8748 62.5264 80.6142 63.4746 82.0862C63.8565 82.6788 63.9672 83.5051 63.5491 84.0729C63.1544 84.6092 62.4252 84.7667 61.76 84.7966C60.2756 84.8636 59.1628 84.3628 57.8233 83.888C56.4447 83.3991 55.1001 82.8223 53.728 82.3173C52.4868 81.8605 51.4326 81.3036 50.1122 81.2657C48.0224 81.2055 45.9281 81.2133 43.8375 81.1871C39.7413 81.1356 35.6453 81.0844 31.5491 81.0329C29.5947 81.0084 27.5373 80.9562 25.858 79.9566C24.1786 78.9569 23.1029 76.6595 24.1065 74.9823C24.6867 74.0127 25.8167 73.4775 26.9382 73.3401C28.0597 73.2027 29.1919 73.4068 30.3035 73.6105C34.7418 74.4235 39.1801 75.2362 43.6186 76.0492C45.8274 76.4539 48.0935 76.7474 50.2771 77.2686C50.5601 77.3358 50.8216 77.3989 51.0692 77.4552Z" fill="#E2B4BD"/>
<path d="M49.2302 76.2033C49.7519 76.499 50.3053 76.7877 50.4517 76.7282C49.329 77.1838 48.424 78.1471 48.0392 79.296C47.6545 80.445 47.7967 81.759 48.4187 82.799C46.2773 82.7645 44.144 82.6162 42.026 82.7053C38.8772 82.8378 35.7251 82.8228 32.5746 82.8878C28.9984 82.9616 25.2446 83.1138 22.259 80.7341C17.2889 76.7724 22.0299 70.7729 25.1466 70.5062C28.0475 70.2581 31.2761 71.2691 34.0811 71.8717C36.2759 72.3428 38.2759 72.9866 40.5379 73.3226C42.343 73.5908 43.9022 73.8945 45.6229 74.549C46.5121 74.8871 47.3904 75.2544 48.2558 75.6499C48.4002 75.7157 48.8046 75.9618 49.2302 76.2033Z" fill="#00367D"/>
<path d="M51.4818 48.6047L56.0281 33.9979L47.9907 33.6964L51.4818 48.6047Z" fill="white"/>
<path d="M51.5104 57.83L50.6331 64.1788H52.5943L51.5104 57.83Z" fill="white"/>
<path d="M24.6001 67.1166C24.6001 67.1166 26.2916 68.0849 26.8118 70.1704C26.8118 70.1704 38.2812 64.9066 39.1209 62.4853C39.9606 60.0643 38.1312 58.2044 38.1312 58.2044H35.6432L24.6001 67.1166Z" fill="#00367D"/>
<path d="M47.9907 33.6964C47.9907 33.6964 48.0781 37.2569 51.9195 37.2569C55.7608 37.2569 56.1434 33.628 56.1434 33.628L47.9907 33.6964Z" fill="#DDAFB8"/>
<path d="M47.9908 33.6964L44.7544 36.6786L51.4818 48.6047L47.9908 33.6964Z" fill="#002657"/>
<path d="M56.2175 33.6964L59.6408 36.3597L51.5078 48.5211L56.2175 33.6964Z" fill="#002657"/>
<path d="M51.482 51.2895C51.8547 51.2895 52.1568 50.9874 52.1568 50.6147C52.1568 50.242 51.8547 49.9398 51.482 49.9398C51.1093 49.9398 50.8071 50.242 50.8071 50.6147C50.8071 50.9874 51.1093 51.2895 51.482 51.2895Z" fill="#002657"/>
<path d="M51.482 56.5995C51.8547 56.5995 52.1568 56.2974 52.1568 55.9247C52.1568 55.5519 51.8547 55.2498 51.482 55.2498C51.1093 55.2498 50.8071 55.5519 50.8071 55.9247C50.8071 56.2974 51.1093 56.5995 51.482 56.5995Z" fill="#002657"/>
<path d="M56.1439 83.2541C57.054 83.6076 58.8727 83.6603 59.3133 82.5616C59.9775 80.9052 58.5972 78.938 57.1319 78.3012C55.8266 77.7339 54.4604 77.8332 53.0818 77.7446C53.895 76.7413 55.9713 76.5806 57.0969 76.9263C58.7285 77.4271 60.0158 78.7066 61.45 79.5745C62.356 80.1228 63.2677 80.6751 64.0606 81.3772C64.7636 81.9996 68.2284 86.7384 65.4428 86.0125C63.7996 85.5843 62.1848 85.1374 60.5193 84.8667C58.8839 84.6009 57.6589 83.8438 56.1439 83.2541Z" fill="#002657"/>
<path d="M50.4382 64.1873L49.6562 69.0326H53.5711L52.7249 64.1873H50.4382Z" fill="#002657"/>
<path d="M61.2849 60.1772L56.0688 62.0454L56.6507 63.4641L61.5859 62.0454L61.2849 60.1772Z" fill="#002657"/>
<path d="M41.7795 59.782C41.7924 59.7308 47.1036 61.356 47.1036 61.356L46.4982 63.1735L41.2239 61.8209L41.7795 59.782Z" fill="#002657"/>
<path d="M30.4945 32.3343L31.5934 34.3436L33.6027 35.4423L31.5934 36.5413L30.4945 38.5505L29.3955 36.5413L27.3862 35.4423L29.3955 34.3436L30.4945 32.3343Z" fill="#DEAD6D"/>
<path d="M77.6288 50.5163L78.5733 52.2435L80.3005 53.1881L78.5733 54.1327L77.6288 55.8598L76.6842 54.1327L74.957 53.1881L76.6842 52.2435L77.6288 50.5163Z" fill="#DEAD6D"/>
<path d="M67.8092 20.8154L68.4816 22.045L69.7112 22.7174L68.4816 23.3901L67.8092 24.6196L67.1368 23.3901L65.907 22.7174L67.1368 22.045L67.8092 20.8154Z" fill="#DEAD6D"/>
<path d="M18.9698 84.1858L19.6425 85.4154L20.8721 86.0878L19.6425 86.7605L18.9698 87.99L18.2974 86.7605L17.0679 86.0878L18.2974 85.4154L18.9698 84.1858Z" fill="#DEAD6D"/>
<path d="M81.3234 85.7144L81.9958 86.944L83.2253 87.6164L81.9958 88.2888L81.3234 89.5184L80.6509 88.2888L79.4214 87.6164L80.6509 86.944L81.3234 85.7144Z" fill="#DEAD6D"/>
<path d="M15.7989 29.0156L0 36.0902L8.85609 55.8674L24.655 48.7928L15.7989 29.0156Z" fill="#A3B1C7"/>
<path d="M21.8807 33.8379L5.44824 39.2819L12.2631 59.8523L28.6956 54.4082L21.8807 33.8379Z" fill="#B8C8E0"/>
<path d="M21.8058 41.6461L14.8235 43.9586L15.1652 44.9903L22.1475 42.6778L21.8058 41.6461Z" fill="white"/>
<path d="M18.7589 39.0974L11.7764 41.4099L12.1181 42.4419L19.1007 40.1293L18.7589 39.0974Z" fill="white"/>
<path d="M13.1015 44.5286L10.1638 45.5019L10.5057 46.5338L13.4434 45.5606L13.1015 44.5286Z" fill="white"/>
<path d="M12.3172 47.2079L10.8853 47.6823L11.2271 48.714L12.659 48.2396L12.3172 47.2079Z" fill="white"/>
<path d="M18.252 45.2416L13.8235 46.7088L14.1654 47.7407L18.5938 46.2736L18.252 45.2416Z" fill="white"/>
<path d="M22.5328 43.8233L20.2004 44.596L20.5422 45.6277L22.8746 44.855L22.5328 43.8233Z" fill="white"/>
<path d="M16.2728 48.316L11.6082 49.8614L11.95 50.8931L16.6146 49.3477L16.2728 48.316Z" fill="white"/>
<path d="M23.2502 46.0051L17.7734 47.8189L18.1152 48.8509L23.592 47.037L23.2502 46.0051Z" fill="white"/>
<path d="M14.0224 51.4803L12.3247 52.0425L12.6664 53.0742L14.3641 52.512L14.0224 51.4803Z" fill="white"/>
<path d="M20.1779 49.4417L15.2178 51.0845L15.5595 52.1162L20.5196 50.4734L20.1779 49.4417Z" fill="white"/>
<path d="M23.9718 48.1849L21.5952 48.972L21.9369 50.0037L24.3135 49.2166L23.9718 48.1849Z" fill="white"/>
<path d="M17.888 52.6191L13.0461 54.2227L13.3878 55.2544L18.2297 53.6508L17.888 52.6191Z" fill="white"/>
<path d="M24.6935 50.3652L19.5269 52.0763L19.8685 53.108L25.0352 51.3969L24.6935 50.3652Z" fill="white"/>
<path d="M84.4011 15.8302L86.5893 15.35L101.747 18.8816L96.5208 33.6267L82.3054 21.7425L84.4011 15.8302Z" fill="#60A3A1"/>
<path d="M101.935 22.0474L84.3967 15.8303L76.4542 38.2362L93.9928 44.4534L101.935 22.0474Z" fill="#81C0BE"/>
<path d="M100.425 30.7753L97.4968 30.8732L99.9865 23.8496L102.04 26.2186L100.425 30.7753Z" fill="#81C0BE"/>
<path d="M96.6646 23.9152L87.0342 20.5014L84.8543 26.6509L94.4847 30.0648L96.6646 23.9152Z" fill="white"/>
<path d="M95.4324 52.2564L92.1081 47.7659C91.8443 47.4096 91.3413 47.3343 90.9849 47.5984L82.1749 54.1205C81.8185 54.3844 81.7433 54.8874 82.0074 55.2437L85.3317 59.7342C85.5955 60.0905 86.0985 60.1658 86.4549 59.9017L95.2649 53.3796C95.6213 53.1157 95.6963 52.6128 95.4324 52.2564Z" fill="#002657"/>
<path d="M82.2662 54.5385L91.3578 47.8079C91.4542 47.7366 91.5902 47.757 91.6615 47.8533L95.2186 52.6582C95.29 52.7545 95.2696 52.8905 95.1732 52.9618L86.0816 59.6924C85.9852 59.7638 85.8493 59.7434 85.7779 59.647L82.2208 54.8422C82.1495 54.7458 82.1699 54.6097 82.2662 54.5385Z" fill="#B8C8E0"/>
<path d="M91.6018 54.1788C91.0224 54.6077 90.2927 54.6881 89.6644 54.4558C89.2986 54.3242 88.9687 54.0856 88.7194 53.7489C88.472 53.4146 88.3383 53.0269 88.3191 52.6387C88.2819 51.9726 88.572 51.298 89.1512 50.8691C90.0647 50.1928 91.353 50.385 92.0293 51.2985C92.7076 52.2142 92.5153 53.5025 91.6018 54.1788Z" fill="white"/>
<path d="M85.2484 56.0062C84.8472 56.3034 84.2811 56.2189 83.9842 55.8176C83.6871 55.4163 83.7715 54.8502 84.1728 54.5533C84.5741 54.2562 85.1402 54.3407 85.4371 54.742C85.7342 55.143 85.6497 55.7091 85.2484 56.0062Z" fill="white"/>
<path d="M86.6759 57.9344C86.2747 58.2315 85.7086 58.1471 85.4117 57.7458C85.1145 57.3445 85.199 56.7784 85.6003 56.4815C86.0016 56.1846 86.5677 56.2689 86.8646 56.6702C87.1617 57.0714 87.0772 57.6375 86.6759 57.9344Z" fill="white"/>
<path d="M91.0923 52.789C90.8085 52.999 90.4082 52.9393 90.1982 52.6555C89.9882 52.3717 90.048 51.9714 90.3315 51.7614C90.6153 51.5514 91.0156 51.6112 91.2256 51.8949C91.4358 52.1787 91.3761 52.5788 91.0923 52.789Z" fill="#81C0BE"/>
<path d="M89.8628 54.3089L89.8331 54.331C89.4673 54.1994 89.1374 53.9608 88.8881 53.6241C88.6407 53.2898 88.507 52.9021 88.4878 52.514L88.5174 52.4919C89.0199 52.1197 89.7283 52.2278 90.0987 52.7278C90.4706 53.2303 90.3653 53.9367 89.8628 54.3089Z" fill="#81C0BE"/>
<path d="M92.6867 48.9183C92.7154 48.9734 92.3777 49.4793 92.3777 49.4793L93.8864 51.5366L94.719 51.5235C94.719 51.5235 92.618 48.7862 92.6867 48.9183Z" fill="#002657"/>
<path d="M92.7844 55.0367L93.8525 54.2538L94.0096 54.5254L92.9694 55.3005L92.7844 55.0367Z" fill="#002657"/>
<path d="M34.0254 10.4862L29.8956 18.8304C29.6808 19.2642 29.1553 19.4419 28.7215 19.2271L16.4464 13.1519C16.0126 12.9373 15.8349 12.4115 16.0497 11.9775L20.1794 3.63328C20.394 3.19948 20.9198 3.02179 21.3536 3.23662L33.6287 9.31178C34.0625 9.52662 34.24 10.0522 34.0254 10.4862Z" fill="#002657"/>
<path d="M17.7017 8.63912C18.1279 8.80614 31.3738 15.8433 31.3738 15.8433" stroke="white" stroke-width="0.242754" stroke-miterlimit="10"/>
<path d="M24.2981 10.2333L26.0913 11.0912" stroke="white" stroke-width="0.242754" stroke-miterlimit="10"/>
<path d="M48.653 25.1427C49.6786 25.1427 50.51 24.3113 50.51 23.2857C50.51 22.26 49.6786 21.4286 48.653 21.4286C47.6273 21.4286 46.7959 22.26 46.7959 23.2857C46.7959 24.3113 47.6273 25.1427 48.653 25.1427Z" stroke="white" stroke-width="0.242754" stroke-miterlimit="10"/>
<path d="M53.339 25.1427C54.3646 25.1427 55.1961 24.3113 55.1961 23.2857C55.1961 22.26 54.3646 21.4286 53.339 21.4286C52.3134 21.4286 51.4819 22.26 51.4819 23.2857C51.4819 24.3113 52.3134 25.1427 53.339 25.1427Z" stroke="white" stroke-width="0.242754" stroke-miterlimit="10"/>
<path d="M55.1958 23.2857L56.7108 22.7174" stroke="white" stroke-width="0.242754" stroke-miterlimit="10" stroke-linecap="round" stroke-linejoin="round"/>
<path d="M50.5098 23.2857H51.4818" stroke="white" stroke-width="0.242754" stroke-miterlimit="10"/>
</svg>
