<svg width="110" height="100" viewBox="0 0 110 100" fill="none" xmlns="http://www.w3.org/2000/svg">
<path d="M17.5769 17.9548L18.7236 16.6202L17.9887 15.4952C18.1238 15.1977 18.2336 14.8967 18.2998 14.583L19.5802 14.1147L19.4493 12.3617L18.1173 12.0884C18.0046 11.7883 17.8982 11.4527 17.7201 11.1789L18.3313 9.89376L16.9967 8.74714L15.8177 9.54458C15.5202 9.40976 15.1924 9.33075 14.8787 9.26477L14.3968 8.00002L12.6373 8.13875L12.3607 9.4747C12.0605 9.58735 11.7504 9.71904 11.4769 9.89741L10.2173 9.31171L9.07072 10.6464L9.84079 11.8018C9.70571 12.0994 9.61339 12.4155 9.54742 12.7292L8.27588 13.2051L8.41122 14.9617L9.7456 15.2368C9.85826 15.5369 10.0429 15.7834 10.2213 16.0574L9.68849 17.2536L11.0231 18.4002L12.1246 17.6927C12.4222 17.8276 12.7114 17.9514 13.0251 18.0174L13.4877 19.3046L15.2375 19.1771L15.5092 17.8466C15.8094 17.7339 16.0816 17.5746 16.3555 17.3962L17.5769 17.9548ZM12.5062 15.3236C11.5893 14.5358 11.4847 13.1542 12.2722 12.2376C13.06 11.321 14.4416 11.2161 15.3583 12.0039C16.2751 12.7915 16.3797 14.1733 15.5919 15.09C14.8046 16.0066 13.4228 16.1111 12.5062 15.3236Z" fill="#FFECA5"/>
<path d="M24.181 13.2142L25.3101 12.7492L25.2095 11.8222C25.3865 11.6806 25.5493 11.5291 25.6888 11.3557L26.6281 11.4688L27.0985 10.3433L26.3608 9.75529C26.3856 9.53415 26.4252 9.2932 26.4012 9.06763L27.1835 8.46498L26.7188 7.33582L25.7389 7.45813C25.5973 7.28106 25.4191 7.12929 25.246 6.98951L25.3459 6.05568L24.2136 5.58811L23.6221 6.32741C23.401 6.30264 23.1679 6.28673 22.9423 6.31072L22.3475 5.55212L21.2183 6.01709L21.3312 6.97413C21.1542 7.11573 20.9974 7.28236 20.8579 7.45552L19.9218 7.34991L19.4529 8.47906L20.1917 9.06893C20.1669 9.29007 20.2037 9.50077 20.2276 9.72608L19.5217 10.2982L19.9864 11.4274L20.8905 11.3364C21.0321 11.5134 21.1722 11.6808 21.3453 11.8206L21.2264 12.7623L22.349 13.234L22.9358 12.4966C23.1569 12.5213 23.3755 12.5083 23.6008 12.4843L24.181 13.2142ZM21.8721 9.99129C21.5526 9.21549 21.9227 8.32807 22.6985 8.00862C23.4743 7.68943 24.3617 8.05921 24.6812 8.83502C25.0003 9.61056 24.6306 10.4982 23.8548 10.8177C23.079 11.1369 22.1915 10.7668 21.8721 9.99129Z" fill="#FFECA5"/>
<path d="M24.181 13.2142L25.3101 12.7492L25.2095 11.8222C25.3865 11.6806 25.5493 11.5291 25.6888 11.3557L26.6281 11.4688L27.0985 10.3433L26.3608 9.75529C26.3856 9.53415 26.4252 9.2932 26.4012 9.06763L27.1835 8.46498L26.7188 7.33582L25.7389 7.45813C25.5973 7.28106 25.4191 7.12929 25.246 6.98951L25.3459 6.05568L24.2136 5.58811L23.6221 6.32741C23.401 6.30264 23.1679 6.28673 22.9423 6.31072L22.3475 5.55212L21.2183 6.01709L21.3312 6.97413C21.1542 7.11573 20.9974 7.28236 20.8579 7.45552L19.9218 7.34991L19.4529 8.47906L20.1917 9.06893C20.1669 9.29007 20.2037 9.50077 20.2276 9.72608L19.5217 10.2982L19.9864 11.4274L20.8905 11.3364C21.0321 11.5134 21.1722 11.6808 21.3453 11.8206L21.2264 12.7623L22.349 13.234L22.9358 12.4966C23.1569 12.5213 23.3755 12.5083 23.6008 12.4843L24.181 13.2142ZM21.8721 9.99129C21.5526 9.21549 21.9227 8.32807 22.6985 8.00862C23.4743 7.68943 24.3617 8.05921 24.6812 8.83502C25.0003 9.61056 24.6306 10.4982 23.8548 10.8177C23.079 11.1369 22.1915 10.7668 21.8721 9.99129Z" fill="#FFECA5"/>
<path d="M18.27 6.54385L19.0914 5.84549L18.754 5.09446C18.864 4.9273 18.9595 4.75545 19.0294 4.57213L19.849 4.41097L19.9371 3.33762L19.1569 3.04503C19.1175 2.85258 19.0852 2.63927 19.0033 2.45647L19.4959 1.73699L18.7975 0.915549L18.0079 1.28559C17.8407 1.17554 17.6548 1.03081 17.4712 0.960924L17.3054 0.0836779L16.2271 -3.05176e-05L15.9272 0.847747C15.7347 0.887124 15.5321 0.970312 15.3493 1.05193L14.6416 0.593493L13.8196 1.29993L14.175 2.07678C14.065 2.24393 13.9787 2.42856 13.9088 2.61215L13.0936 2.77983L13.0078 3.85656L13.7891 4.15072C13.8287 4.34317 13.9169 4.51007 13.9988 4.69287L13.562 5.36593L14.2603 6.18737L14.9947 5.86427C15.1618 5.97432 15.3251 6.0768 15.5086 6.14669L15.6656 6.96995L16.7369 7.05992L17.0284 6.28073C17.2209 6.24135 17.4008 6.17068 17.5836 6.08906L18.27 6.54385ZM15.4521 4.46704C14.9725 3.90272 15.0411 3.05651 15.6051 2.57694C16.1694 2.09738 17.0157 2.16596 17.4952 2.73002C17.9748 3.29433 17.9062 4.14055 17.3421 4.62011C16.7781 5.09994 15.9319 5.03135 15.4521 4.46704Z" fill="#FFECA5"/>
<g opacity="0.7">
<path d="M18.7445 46.6632L18.8626 33.1692C18.8626 33.1692 12.8776 44.1582 18.7445 46.6632Z" fill="#9FB7FF"/>
<path d="M18.7444 46.6632L18.8625 33.1692C18.8625 33.1692 24.6541 44.2612 18.7444 46.6632Z" fill="#B7C9FF"/>
<path d="M20.7405 50.4534L13.499 36.547" stroke="#B7C9FF" stroke-width="0.490726" stroke-miterlimit="10"/>
<path d="M14.5223 38.0887L8.0003 25.5786C8.0003 25.5786 7.32437 38.9485 14.5223 38.0887Z" fill="#BFCFFF"/>
<path d="M14.5222 38.0887L8.00024 25.5786C8.00024 25.5786 18.4237 33.1619 14.5222 38.0887Z" fill="#DBE4FF"/>
<path d="M18.6727 46.5261L6.86768 39.9879C6.86768 39.9879 13.6734 50.4886 18.6727 46.5261Z" fill="#BFCFFF"/>
<path d="M18.6727 46.5261L6.86768 39.9879C6.86768 39.9879 19.3796 40.1861 18.6727 46.5261Z" fill="#DBE4FF"/>
</g>
<g opacity="0.7">
<path d="M96.1511 87.4867L89.1782 77.1668C89.1782 77.1668 99.3865 82.5675 96.1511 87.4867Z" fill="#9FB7FF"/>
<path d="M96.1511 87.4867L89.1782 77.1668C89.1782 77.1668 90.3801 88.6532 96.1511 87.4867Z" fill="#B7C9FF"/>
<path d="M96.4659 93.1414L96.2534 74.5007" stroke="#B7C9FF" stroke-width="0.452887" stroke-miterlimit="10"/>
<path d="M96.1272 78.2342L96.0806 65.2134C96.0806 65.2134 102.346 75.8444 96.1272 78.2342Z" fill="#BFCFFF"/>
<path d="M96.1274 78.2342L96.0807 65.2134C96.0807 65.2134 90.7502 75.8862 96.1274 78.2342Z" fill="#DBE4FF"/>
<path d="M96.6013 86.097L103.435 75.6848C103.435 75.6848 102.387 87.186 96.6013 86.097Z" fill="#BFCFFF"/>
<path d="M96.6014 86.0971L103.436 75.6848C103.436 75.6848 93.3006 81.2219 96.6014 86.0971Z" fill="#DBE4FF"/>
<path d="M96.2397 91.874L99.3344 87.1592C99.3344 87.1592 98.8597 92.3671 96.2397 91.874Z" fill="#BFCFFF"/>
<path d="M96.2398 91.874L99.3344 87.1592C99.3344 87.1592 94.745 89.6663 96.2398 91.874Z" fill="#DBE4FF"/>
</g>
<path d="M98.4097 98.5926H94.2029C93.256 98.5926 92.4885 97.8251 92.4885 96.8783V93.3171H100.124V96.8783C100.124 97.8251 99.3565 98.5926 98.4097 98.5926Z" fill="#93AEFF"/>
<path d="M97.9905 31.052H94.4628C92.0339 31.052 90.0054 32.8443 90.0054 35.2731C90.0054 37.1804 91.2933 38.6269 92.858 39.2364V40.4868L93.9892 39.4257C94.1256 39.4385 94.323 39.3968 94.4625 39.3968H97.9903C100.419 39.3968 102.388 37.6532 102.388 35.2244C102.388 32.7955 100.42 31.052 97.9905 31.052Z" fill="#D4DFFF"/>
<path d="M39.4526 77.8759C41.2668 77.8759 42.7143 78.6399 44.0944 79.8622V69.885H33.9215C35.313 68.6541 36.1603 66.8222 36.0529 64.7946C35.8841 61.6158 33.3079 59.014 30.1307 58.8172C26.4493 58.589 23.3923 61.5073 23.3923 65.1394C23.3923 67.029 24.2205 68.7242 25.5327 69.885H15.3865V91.9679C15.3865 95.6117 18.3677 98.5928 22.0115 98.5928H44.0944V88.5595C42.7141 89.7818 41.2537 90.5459 39.4395 90.5459C35.4977 90.5459 32.3645 86.9453 33.2216 82.8535C33.8376 79.9136 36.449 77.8759 39.4526 77.8759Z" fill="#FFA1D8"/>
<path d="M36.0813 65.4007C36.0333 67.1333 35.2797 68.5404 34.0976 69.8756H44.0944V59.6832C45.447 61.2909 47.7572 62.172 50.123 61.6938C52.8814 61.1362 54.9515 58.7457 55.1444 55.9382C55.399 52.2365 52.4796 49.1542 48.8324 49.1542C46.9428 49.1542 45.1982 49.9824 44.0941 51.2946V41.1677H22.0112C18.3674 41.1677 15.3862 44.1489 15.3862 47.7924V69.8753H25.4C24.1777 68.495 23.4137 67.025 23.4137 65.2106C23.4137 61.3318 26.8994 58.2362 30.9091 58.9546C33.9737 59.5038 36.1676 62.2894 36.0813 65.4007Z" fill="#E9EEFF"/>
<path d="M65.2307 74.3596C65.2787 72.627 66.0323 71.2198 67.2144 69.8847H57.2176V80.0768C55.865 78.4694 53.5548 77.588 51.189 78.0662C48.4306 78.6237 46.3605 81.0143 46.1676 83.8218C45.9131 87.5237 48.8324 90.6058 52.4796 90.6058C54.3692 90.6058 56.1138 89.7776 57.2179 88.4654V98.5926H79.3008C82.9446 98.5926 85.9258 95.6114 85.9258 91.9676V69.8847H75.912C77.1343 71.265 77.8984 72.7349 77.8984 74.5494C77.8984 78.4282 74.4126 81.5238 70.4029 80.8054C67.3386 80.2567 65.1444 77.4711 65.2307 74.3596Z" fill="#FFE088"/>
<path d="M80.2649 99.8965L91.0318 65.3045L101.799 99.8965H103.583L91.8449 62.3449H90.2187L78.4812 99.8965H80.2649Z" fill="#FFB700"/>
<path d="M85.9935 94.1595H81.1233V92.334H86.9513L85.9935 94.1595Z" fill="#FF63BE"/>
<path d="M89.2075 84.5108H83.7312V86.3362H89.2075V84.5108Z" fill="#FF63BE"/>
<path d="M91.5544 76.6875H85.8174V78.513H91.5544V76.6875Z" fill="#FF63BE"/>
<path d="M94.1621 69.1251H88.6858V70.429H94.1621V69.1251Z" fill="#FF63BE"/>
<path d="M85.7171 99.8965L96.4839 65.3045L107.251 99.8965H109.034L97.297 62.345H95.6708L83.9331 99.8965H85.7171Z" fill="#FFCC38"/>
<path d="M83.1907 66.7648L81.2166 66.3126L79.6071 59.4485C79.4746 58.794 79.6911 58.1172 80.179 57.6612L83.6163 53.8572L89.147 53.4768L87.5289 57.108L82.6133 59.9142L82.6311 59.9667C83.2804 61.899 83.5013 63.9492 83.278 65.9754L83.1907 66.7648Z" fill="#4D5CC4"/>
<path d="M91.2242 54.3814C91.2242 55.9106 90.9554 73.112 90.9554 73.112L88.8392 73.1819L88.2929 64.888L86.0784 52.3609L91.2242 54.3814Z" fill="#4B78FF"/>
<path d="M82.4271 48.0023L83.079 54.7173C83.079 54.7173 84.8724 55.9074 86.6005 55.9257C88.3284 55.9442 91.2241 54.3814 91.2241 54.3814L89.6847 47.3441L91.6423 49.1602L92.7715 53.8966L94.7915 53.415L93.4516 47.795C93.3329 47.2974 93.074 46.8445 92.7053 46.4901L89.0844 42.6551C88.6043 42.1466 87.8906 41.9304 87.2089 42.0867L82.182 43.4724C81.5178 43.6555 80.984 44.1496 80.7506 44.7979L78.7762 51.3272L75.8425 52.7615L76.7769 54.5217L79.2746 53.5159C79.7513 53.3239 80.1401 52.9628 80.3664 52.5015L82.4271 48.0023Z" fill="#FFCC38"/>
<path d="M91.0926 72.9793V76.7115H86.6829C86.8044 76.2304 87.2717 75.9206 87.7622 75.9954L88.2379 76.0682C88.4806 76.0682 88.6661 75.8875 88.6981 75.6705C88.7099 75.591 88.6668 73.014 88.6668 73.014L91.0926 72.9793Z" fill="black"/>
<path d="M83.4212 66.1066V69.8388H79.0115C79.133 69.3577 79.6003 69.0479 80.0908 69.1227L80.5665 69.1955C80.8092 69.1955 80.9947 69.0148 81.0267 68.7978C81.0385 68.7183 80.9954 66.1413 80.9954 66.1413L83.4212 66.1066Z" fill="black"/>
<path d="M79.372 38.1271C79.0529 36.8798 80.0164 35.0575 81.7881 34.6345C82.8693 34.3763 84.0063 34.7406 84.7951 35.5238L84.9002 35.6281C85.5435 36.2667 85.9829 37.5784 85.9287 38.4833L85.562 40.9119L85.8739 42.4935L85.7962 42.6098C85.2434 43.4396 84.1223 43.6628 83.2936 43.1084L82.9501 41.4063L81.7623 41.6859C80.9278 41.8723 80.098 41.3528 79.8999 40.521L79.8967 40.5077L79.7311 39.8145L79.372 38.1271Z" fill="#FF63BE"/>
<path d="M81.1621 40.1097C81.2503 40.4798 81.6219 40.7085 81.9919 40.6201C82.3619 40.5319 82.5906 40.1603 82.5022 39.7903" fill="white"/>
<path d="M81.4657 36.9763C79.3777 38.2924 78.1982 36.358 78.1982 36.358C79.2361 36.0278 79.8995 35.0134 80.6367 34.5192C81.212 34.1336 81.9049 33.9127 82.6465 33.9208C84.7713 33.9434 86.4027 35.8161 86.125 37.9226C86.0327 38.6225 85.7044 40.1465 85.7044 40.1465L84.551 38.5459L83.2575 36.8743C83.0672 36.6286 82.6867 36.2064 81.4657 36.9763Z" fill="black"/>
<path d="M83.5041 38.4653C83.605 38.889 84.0303 39.1506 84.4541 39.0497C84.8778 38.9488 85.1394 38.5232 85.0385 38.0997C84.9375 37.6759 84.512 37.4144 84.0885 37.5153C83.6647 37.6159 83.4031 38.0415 83.5041 38.4653Z" fill="#FF63BE"/>
<path d="M83.2458 36.2636L83.6232 38.5753L84.0477 38.4809C84.0477 38.4809 83.7648 37.443 84.4251 37.1129" fill="black"/>
<path d="M93.1971 56.7612C93.0245 56.8024 92.8511 56.6957 92.8102 56.5231L92.4834 55.1525L92.9997 54.5464L93.4355 56.3742C93.4764 56.5466 93.3698 56.72 93.1971 56.7612Z" fill="#FF63BE"/>
<path d="M93.8927 56.9005C93.7107 56.9438 93.53 56.841 93.4872 56.6699L92.9604 54.5558L93.6239 54.3978L94.1491 56.5059C94.1924 56.6791 94.0771 56.8564 93.8927 56.9005Z" fill="#FF63BE"/>
<path d="M94.4478 56.4629C94.2751 56.5041 94.1017 56.3974 94.0605 56.2248L93.6248 54.397L94.2501 54.2481L94.6858 56.0759C94.7268 56.2485 94.6201 56.4219 94.4478 56.4629Z" fill="#FF63BE"/>
<path d="M94.8667 55.4482C94.6941 55.4894 94.5207 55.3828 94.4795 55.2101L94.2502 54.2481L94.8756 54.099L95.1048 55.0609C95.1457 55.2338 95.0393 55.407 94.8667 55.4482Z" fill="#FF63BE"/>
<path d="M94.9624 54.4646L94.8151 53.8468L94.4182 53.3271L92.7766 53.7185L92.756 53.7493C92.4462 54.209 92.3893 54.7616 92.5179 55.3009L92.4715 55.3168L94.9624 54.4646Z" fill="#FF63BE"/>
<path d="M55.6933 47.0594C53.9795 47.0594 52.612 46.3375 51.3081 45.1828V54.6085H60.9184C59.6787 55.6516 58.8964 57.3065 58.8964 59.0915C58.8964 62.3966 61.5758 65.076 64.8809 65.076C68.186 65.076 70.8654 62.3966 70.8654 59.0915C70.8654 57.3065 70.0828 55.6516 68.8434 54.6085H78.4287V33.7466C78.4287 30.3043 75.6123 27.488 72.1701 27.488H51.3081V36.9666C52.612 35.8119 53.9917 35.0903 55.7055 35.0903C59.4294 35.0903 62.3895 38.4916 61.5798 42.3573C60.9977 45.1343 58.5308 47.0594 55.6933 47.0594Z" fill="#F7C15F"/>
<path d="M72.8236 52.4582C72.6635 52.3781 72.4687 52.4431 72.3887 52.6032L72.0828 53.1453L72.5871 53.9485L72.9767 52.9174C73.0568 52.7573 72.9837 52.5383 72.8236 52.4582Z" fill="#FF63BE"/>
<path d="M73.5561 52.49C73.397 52.4105 73.2035 52.4739 73.1227 52.6322L72.4507 53.8594L73.0306 54.1493L73.6998 52.9279C73.7819 52.7672 73.7175 52.5706 73.5561 52.49Z" fill="#FF63BE"/>
<path d="M73.9836 53.0382C73.8235 52.9581 73.6287 53.0231 73.5487 53.1832L73.0308 54.1493L73.6107 54.4393L74.1286 53.4731C74.2087 53.313 74.1437 53.1182 73.9836 53.0382Z" fill="#FF63BE"/>
<path d="M74.1619 54.1311C74.0018 54.051 73.807 54.1159 73.7269 54.2761L73.6106 54.439L74.249 54.6951L74.3071 54.566C74.3872 54.4059 74.3222 54.2111 74.1619 54.1311Z" fill="#FF63BE"/>
<path d="M74.249 54.6951C74.1131 54.9666 73.9397 55.1911 73.6648 55.3205C73.39 55.4498 72.2702 55.175 71.9583 54.5608C71.7361 54.123 71.8777 53.554 72.1192 53.0705L74.249 54.6951Z" fill="#FF63BE"/>
<path d="M57.0017 79.2953V89.4655" stroke="#B7C9FF" stroke-width="0.782324" stroke-miterlimit="10" stroke-linecap="round"/>
<path d="M56.9581 84.1632L23.0574 75.8184" stroke="#B7C9FF" stroke-width="0.782324" stroke-miterlimit="10" stroke-linecap="round"/>
<path d="M23.0495 75.694C21.3758 76.2974 20.7411 78.0144 20.9878 79.6914C21.3242 81.9771 24.266 86.1508 21.0812 87.6458C20.6259 87.8596 21.0225 88.5343 21.476 88.3212C22.9809 87.6148 23.4712 85.9719 23.249 84.414C22.9397 82.2446 19.8879 77.6631 23.2573 76.4484C23.7275 76.2792 23.5246 75.5229 23.0495 75.694Z" fill="#B7C9FF"/>
<path d="M11.4075 97.0251L13.2684 96.599L13.7425 87.9324C13.7662 87.4979 13.6951 87.0635 13.5336 86.6595L9.05274 79.059L3.8396 78.7004L5.23787 83.6632L11.3009 88.618C10.6888 90.4392 11.1155 94.3714 11.3257 96.2813L11.4075 97.0251Z" fill="#FFB700"/>
<path d="M1.7236 80.9853C1.4657 84.1611 4.29432 88.9658 4.29432 88.9658C4.29432 88.9658 0.918591 93.2389 1.001 96.6073L2.99566 96.6733L6.99855 89.697C7.16336 89.4099 7.24003 89.0806 7.21943 88.7499L6.53489 77.878C6.53489 77.878 1.76376 80.4904 1.7236 80.9853Z" fill="#FFCC38"/>
<path d="M0.802143 96.4819L0 100H4.15675C4.04201 99.5465 3.60182 99.2544 3.13946 99.3251L2.69093 99.3937C2.46223 99.3937 2.28725 99.2234 2.257 99.0189C2.24605 98.9441 3.23126 96.515 3.23126 96.515L0.802143 96.4819Z" fill="black"/>
<path d="M11.1899 96.4047V99.9228H15.3467C15.2319 99.4693 14.7918 99.1772 14.3294 99.2479L13.8809 99.3165C13.6522 99.3165 13.4772 99.1462 13.4469 98.9418C13.436 98.8669 13.4764 96.4378 13.4764 96.4378L11.1899 96.4047Z" fill="black"/>
<path d="M23.5462 76.0851L21.7135 75.2827L21.4978 75.168L23.3686 76.4906C23.4805 76.5397 23.6111 76.4886 23.6601 76.3767C23.7092 76.2648 23.6583 76.1342 23.5462 76.0851Z" fill="#FF63BE"/>
<path d="M21.8289 74.7429L21.9254 74.7852C22.7366 75.1404 23.6462 75.2035 24.4987 74.9633L24.5631 74.945C24.7759 74.8851 24.9913 75.0319 25.0132 75.252C25.0283 75.4027 24.9462 75.5466 24.8088 75.61C23.9492 76.0077 22.9729 76.0724 22.0683 75.7923L21.0247 74.9607L21.8289 74.7429Z" fill="#FF63BE"/>
<path d="M21.8338 74.6697L9.95737 69.2466L8.75754 70.0743C8.41567 70.3786 8.11134 70.7171 7.83936 71.0783L21.4059 75.9921L21.8338 74.6697Z" fill="#4D5CC4"/>
<path d="M14.484 64.4528C14.5012 63.4073 13.5737 62.183 12.2312 61.8234C10.9364 61.4765 9.56712 62.0184 8.86094 63.1578L8.74438 63.3458C8.28411 64.0879 8.16546 64.9926 8.41841 65.8284L9.30478 68.0225L7.94458 69.5746L10.7797 70.4941L12.1584 67.9028L13.0391 67.8994C13.8629 67.8877 14.5244 67.2154 14.5244 66.3916V66.3786L14.5247 65.692L14.484 64.4528Z" fill="#FF63BE"/>
<path d="M13.2493 66.2878C13.2493 66.6545 12.952 66.9518 12.5853 66.9518C12.2187 66.9518 11.9214 66.6545 11.9214 66.2878" fill="white"/>
<path d="M10.3951 60.6366C12.0636 60.2199 13.7941 61.0163 14.3756 62.7022C14.5242 63.133 14.5242 63.3541 14.5242 63.3541L13.249 63.4371L12.7864 62.6096L12.5851 63.4697L10.363 63.6246L8.98981 67.2438C8.52746 66.4636 8.28937 65.7574 8.04841 65.1274C7.32346 63.2308 8.42497 61.1287 10.3951 60.6366Z" fill="#FFE088"/>
<path d="M10.6865 65.2698C10.6865 65.6894 10.3462 66.0297 9.92665 66.0297C9.5068 66.0297 9.16675 65.6894 9.16675 65.2698C9.16675 64.8499 9.50706 64.5099 9.92665 64.5099C10.3462 64.5096 10.6865 64.8499 10.6865 65.2698Z" fill="#FF63BE"/>
<path d="M23.5121 77.3426L21.8781 76.1879L21.6228 76.5493L23.2568 77.704C23.3567 77.7747 23.4946 77.7507 23.5653 77.6511C23.6357 77.5512 23.612 77.4133 23.5121 77.3426Z" fill="#FF63BE"/>
<path d="M22.1001 75.6825L22.1861 75.7433C22.9095 76.2544 23.7875 76.499 24.671 76.4353L24.7378 76.4307C24.9584 76.4148 25.1399 76.602 25.117 76.8218C25.1013 76.9726 24.9921 77.0969 24.8445 77.1316C23.9226 77.3483 22.9531 77.2153 22.1233 76.759L21.2012 75.73L22.1001 75.6825Z" fill="#FF63BE"/>
<path d="M1.71735 82.6853C1.71735 82.6853 5.17262 85.2279 11.1704 82.4898L9.49939 79.6885C9.1523 79.1067 9.07042 78.4042 9.2746 77.7583L9.73617 76.2966L10.2567 76.1629C11.1728 75.9274 11.7405 75.0014 11.517 74.0824C11.3047 73.2093 11.0726 72.5806 11.0726 72.5806L21.7318 76.7204L22.1556 75.4491L8.4456 68.8865L7.18814 69.6242C5.90383 70.6089 5.00755 72.0145 4.65654 73.5942C4.23852 75.4744 3.93394 77.0787 2.76045 78.4478C1.58697 79.8168 1.261 81.0555 1.71735 82.6853Z" fill="#4B78FF"/>
<path d="M40.8901 85.1228C41.0591 85.1228 41.196 84.9859 41.196 84.8169V83.476L40.5842 83.0288V84.8169C40.5842 84.9859 40.7211 85.1228 40.8901 85.1228Z" fill="#FF63BE"/>
<path d="M40.2771 85.4052C40.4552 85.4052 40.5999 85.2701 40.6015 85.1022L40.6226 83.0288H39.9735L39.9524 85.0962C39.9508 85.2665 40.0966 85.4052 40.2771 85.4052Z" fill="#FF63BE"/>
<path d="M39.6667 85.1228C39.8357 85.1228 39.9726 84.9859 39.9726 84.8169V83.0288H39.3608V84.8169C39.3608 84.9859 39.4977 85.1228 39.6667 85.1228Z" fill="#FF63BE"/>
<path d="M39.0549 84.2758C39.2239 84.2758 39.3608 84.1389 39.3608 83.9699V83.0288H38.749V83.9699C38.749 84.1389 38.8859 84.2758 39.0549 84.2758Z" fill="#FF63BE"/>
<path d="M38.749 83.3863V82.7818L39.0017 82.2133L39.0549 81.8083H40.6128L40.6336 82.2371C41.0219 82.5943 41.1964 83.0932 41.1964 83.6207L41.2428 83.6252L38.749 83.3863Z" fill="#FF63BE"/>
<path d="M52.8141 96.9964L54.6929 96.5661L55.1715 87.8158C55.1955 87.3772 55.1235 86.9386 54.9605 86.5307L50.4363 78.8566L45.1729 78.4944L46.6207 82.8608L52.8587 88.0808C52.2406 89.9198 52.5191 94.3169 52.7314 96.2454L52.8141 96.9964Z" fill="#4D5CC4"/>
<path d="M43.0366 80.8015C42.7763 84.008 45.6321 88.8589 45.6321 88.8589C45.6321 88.8589 42.2237 93.1734 42.3069 96.5742L44.3209 96.6407L48.3624 89.5969C48.5287 89.3069 48.6062 88.9745 48.5853 88.6407L47.8943 77.6636C47.8943 77.6641 43.0772 80.3019 43.0366 80.8015Z" fill="#4B78FF"/>
<path d="M50.4199 70.54L51.2976 80.2367C51.2976 80.2367 50.1742 82.1116 47.5714 82.1116L42.8342 82.4217L43.0366 73.2388L40.815 77.1744V82.011H38.8389V76.3099C38.8389 75.8233 38.9786 75.3466 39.2418 74.9372L42.4334 69.408C42.9805 68.4426 44.0046 67.846 45.1144 67.846H48.2356C48.9619 67.846 49.6579 67.5539 50.1664 66.7747L53.9155 62.1713L55.4802 55.3911L57.3056 55.9995L55.9551 63.2798C55.8711 63.5807 55.7285 63.8624 55.5352 64.108L50.4199 70.54Z" fill="#FFE088"/>
<path d="M50.3464 62.6177C50.366 61.4307 49.1122 60.0021 47.4328 60.0019C46.4077 60.0016 45.466 60.5714 44.9257 61.4424L44.8537 61.5584C44.4133 62.2688 44.2996 63.539 44.5418 64.3391L45.1875 66.4388L45.2462 67.9239L45.3028 67.973C46.052 68.6223 47.1704 68.6012 47.8943 67.9239L47.8383 66.3241L48.9633 66.3207C49.7516 66.3095 50.3847 65.6662 50.3847 64.8778V64.8653L50.385 64.2082L50.3464 62.6177Z" fill="#FF63BE"/>
<path d="M46.4402 63.3012L46.8055 62.5721C47.8614 62.9737 49.056 62.654 49.77 61.7783L50.2047 61.2453C49.6574 59.4858 47.8319 58.4594 46.0441 58.9058C44.0228 59.4107 42.8926 61.5673 43.6366 63.5135L45.0492 65.988L45.9445 63.8577L46.4402 63.3012Z" fill="black"/>
<path d="M49.1648 64.7785C49.1648 65.1292 48.8805 65.4137 48.5295 65.4137C48.1788 65.4137 47.8943 65.1295 47.8943 64.7785" fill="white"/>
<path d="M55.6235 55.504L55.4477 53.3897C55.4234 53.241 55.5244 53.1007 55.673 53.0765C55.8289 53.0509 55.9737 53.1628 55.9885 53.3198L56.1753 54.6161L57.9305 54.6437C57.9305 54.6437 57.8351 55.7137 57.0303 56.0759L55.6235 55.504Z" fill="#FF63BE"/>
<path d="M42.1064 96.448L41.2964 100H45.4933C45.3775 99.5421 44.9329 99.2472 44.4661 99.3186L44.0134 99.3877C43.7823 99.3877 43.6058 99.2159 43.5753 99.0093C43.5641 98.9337 44.5589 96.4811 44.5589 96.4811L42.1064 96.448Z" fill="black"/>
<path d="M52.5945 96.37V99.922H56.7914C56.6756 99.4644 56.231 99.1692 55.7642 99.2406L55.3115 99.3097C55.0804 99.3097 54.9039 99.1379 54.8734 98.9313C54.8622 98.8557 54.9031 96.4031 54.9031 96.4031L52.5945 96.37Z" fill="black"/>
<path d="M46.7129 63.8042C46.7129 64.2058 46.3875 64.5315 45.9856 64.5315C45.584 64.5315 45.2583 64.2058 45.2583 63.8042C45.2583 63.4026 45.584 63.0769 45.9856 63.0769C46.3872 63.0769 46.7129 63.4026 46.7129 63.8042Z" fill="#FF63BE"/>
<path d="M44.6258 64.2246C43.5926 64.5412 42.8872 65.4948 42.8872 66.5755V67.3468C42.8872 68.6982 43.8933 69.8378 45.2342 70.0054V64.8442L44.6258 64.2246Z" fill="black"/>
<path d="M26.0791 28.2745C25.8212 28.2155 25.6597 27.9587 25.7187 27.7005L27.3822 20.5704L28.3165 20.784L26.653 27.9141C26.5941 28.1722 26.3372 28.3336 26.0791 28.2745Z" fill="#FFCC38"/>
<path d="M28.5645 26.448L27.4599 25.3204L26.8353 24.4692C26.7357 24.3336 26.5451 24.3044 26.4097 24.4038C26.2676 24.5081 26.2436 24.7107 26.357 24.8453L27.1133 25.7434L26.6408 27.9561L28.3043 28.0035L28.5645 26.448Z" fill="#FF63BE"/>
<path d="M26.0521 25.2281C25.9206 25.1486 25.7436 25.1879 25.6583 25.3157C25.5655 25.4547 25.6067 25.6391 25.7496 25.7254L26.1632 25.9752C26.3301 26.0761 26.5468 25.9872 26.595 25.7984C26.6266 25.6745 26.5736 25.5444 26.4641 25.4779L26.0521 25.2281Z" fill="#FF63BE"/>
<path d="M25.8706 26.479L26.0151 26.5667C26.1807 26.6671 26.3961 26.5789 26.4438 26.3914C26.4754 26.2675 26.4217 26.1374 26.3116 26.0722L25.946 25.8555C25.8367 25.7906 25.6933 25.7924 25.5981 25.8766C25.4404 26.0164 25.4732 26.2516 25.6383 26.3494L25.812 26.4524C25.832 26.459 25.8519 26.4676 25.8706 26.479Z" fill="#FF63BE"/>
<path d="M25.7475 26.3729C25.6174 26.3291 25.44 26.3909 25.3879 26.5267C25.3263 26.6874 25.3767 26.8485 25.5803 26.9641L25.8007 27.0978C25.9717 27.2016 26.1947 27.1106 26.2443 26.9166C26.2769 26.7883 26.2213 26.654 26.1073 26.5865L25.7475 26.3729Z" fill="#FF63BE"/>
<path d="M25.8476 26.8853C25.6789 26.7831 25.4494 26.8668 25.398 27.078C25.3673 27.2055 25.4353 27.337 25.5475 27.405L25.6106 27.4434C25.7829 27.5477 26.0069 27.4561 26.0567 27.2611C26.0893 27.133 26.0346 26.9987 25.9217 26.9304L25.8476 26.8853Z" fill="#FF63BE"/>
<path d="M36.1635 51.6015L37.2858 52.3917L33.9516 55.1241C33.7038 54.6312 33.8713 54.0309 34.3378 53.7373L34.7905 53.4522C35.0693 53.211 35.0129 52.7641 34.6833 52.5993L36.1635 51.6015Z" fill="black"/>
<path d="M46.7379 48.9312L46.0547 50.3702L50.4654 50.3151C50.3236 49.7821 49.7999 49.4441 49.256 49.5344L48.7281 49.6217C48.3597 49.6264 48.1049 49.2546 48.2423 48.9127L46.7379 48.9312Z" fill="black"/>
<path d="M45.4039 38.0757L41.9382 39.0625L38.4725 38.0757L32.9665 40.8475C32.9569 40.8524 32.947 40.8574 32.9373 40.8623C31.9737 41.3562 31.5265 42.4909 31.8478 43.5248L34.7807 52.9625L36.5308 51.5663L34.8391 43.2244L41.9379 41.4256L49.0756 42.3289L46.5503 48.9351H48.3971L52.0643 42.4499C52.3486 41.6162 52.081 40.6936 51.3949 40.1413L45.4039 38.0757Z" fill="#FF63BE"/>
<path d="M48.3947 35.3555C48.3947 35.3555 46.8874 29.1165 46.8095 28.7859C46.5148 27.5367 45.4892 27.3581 44.4808 27.2955C43.8758 27.258 40.0202 27.258 39.4152 27.2955C38.9724 27.3229 38.5549 27.4494 38.1911 27.6515C36.2807 27.9331 34.3244 28.2327 34.2959 28.2148L28.6969 26.1103L27.4631 28.0643L32.6382 30.4634C33.2894 30.7886 34.0242 30.9073 34.7447 30.8037L38.5299 30.182L38.6185 31.6429C38.6754 32.5796 38.6522 33.5194 38.5494 34.4522L38.1267 38.2924C38.1267 38.2924 39.8893 39.5579 42.1492 39.5579C44.409 39.5579 45.6743 38.2022 45.6743 38.2022L45.4461 31.6703L46.3221 35.8445C46.5125 36.752 47.3501 37.4131 48.2766 37.4477L52.1773 37.5927V35.6494L48.3947 35.3555Z" fill="black"/>
<path d="M46.1214 22.0237C46.1422 20.7553 44.8026 19.2292 43.0082 19.2287C41.9132 19.2285 40.9072 19.8371 40.3301 20.7675L40.2532 20.8917C39.7827 21.6505 39.6612 22.5752 39.9199 23.4298L40.8261 25.673L40.8342 27.2697C41.5894 27.8429 42.6322 27.8484 43.3931 27.283L43.4124 27.2687L43.4419 25.5507L44.6441 25.547C45.4861 25.535 46.1626 24.8476 46.1626 24.0056V23.992L46.1628 23.29L46.1214 22.0237Z" fill="#FF63BE"/>
<path d="M44.8591 23.9C44.8591 24.2747 44.5553 24.5788 44.1803 24.5788C43.8055 24.5788 43.5015 24.275 43.5015 23.9" fill="white"/>
<path d="M41.3985 23.016H39.2593C39.1394 22.6699 39.0596 22.2952 39.0596 21.9017C39.0596 20.1675 40.2046 18.8587 41.8465 18.4487C43.6252 18.0046 45.4702 18.8535 46.0903 20.6507C46.13 20.7655 46.0027 20.9475 45.7894 21.1559C44.7619 22.1598 43.2938 22.5742 41.8746 22.3502L41.6864 22.3205L41.3985 23.016Z" fill="#FFCC38"/>
<path d="M43.3765 28.4849V25.5499L44.6368 25.5473C44.92 25.5434 45.3195 25.4576 45.3195 25.3207V28.4849C45.3195 29.0213 44.8845 29.4563 44.3481 29.4563C43.8114 29.4563 43.3765 29.0213 43.3765 28.4849Z" fill="#FFCC38"/>
<path d="M39.0596 28.4849V21.8078L40.3199 21.8052C40.6031 21.8013 41.0026 21.7157 41.0026 21.5786V28.4846C41.0026 29.0211 40.5676 29.456 40.0312 29.456C39.4945 29.4563 39.0596 29.0213 39.0596 28.4849Z" fill="#FFCC38"/>
<path d="M42.239 22.859C42.239 23.2879 41.8911 23.6358 41.4619 23.6358C41.0329 23.6358 40.6851 23.2879 40.6851 22.859C40.6851 22.4297 41.0329 22.0818 41.4619 22.0818C41.8911 22.0818 42.239 22.4297 42.239 22.859Z" fill="#FF63BE"/>
<path d="M53.8898 37.0529C53.9315 37.2253 53.8256 37.399 53.6533 37.4407L53.0621 37.6157L52.3987 36.9504L53.4806 36.8034C53.653 36.7614 53.8481 36.8805 53.8898 37.0529Z" fill="#FF63BE"/>
<path d="M54.022 36.3386C54.0634 36.5097 53.9591 36.6823 53.7883 36.7256L52.4547 37.1017L52.3037 36.4774L53.6313 36.1026C53.8045 36.0591 53.98 36.165 54.022 36.3386Z" fill="#FF63BE"/>
<path d="M53.5879 35.8046C53.6296 35.977 53.5237 36.1506 53.3514 36.1924L52.3038 36.4776L52.1528 35.8533L53.2004 35.5681C53.3725 35.5261 53.5461 35.6322 53.5879 35.8046Z" fill="#FF63BE"/>
<path d="M52.5723 35.3894C52.614 35.5618 52.5082 35.7355 52.3358 35.7772L52.1527 35.8533L52.0471 35.1803L52.1848 35.1529C52.3569 35.1112 52.5306 35.2171 52.5723 35.3894Z" fill="#FF63BE"/>
<path d="M52.0473 35.1803C51.7552 35.251 51.4999 35.3688 51.314 35.6053C51.1283 35.8419 51.1448 36.9838 51.6684 37.4211C52.0416 37.733 52.6223 37.7226 53.1426 37.5966L52.0473 35.1803Z" fill="#FF63BE"/>
<path d="M30.6724 23.3075L24.4929 21.8391C24.0099 21.7243 23.7116 21.2398 23.8263 20.7569L25.2947 14.5773C25.4095 14.0943 25.894 13.796 26.3769 13.9107L32.5565 15.3792C33.0395 15.4939 33.3378 15.9784 33.2231 16.4614L31.7546 22.641C31.6399 23.1239 31.1554 23.4222 30.6724 23.3075Z" fill="#6F93FF"/>
<path d="M27.2531 18.7424L26.7107 21.0257L29.2478 21.6289L29.7905 19.3453L30.989 19.6303L29.2416 15.9463L25.8643 18.4125L27.2531 18.7424Z" fill="white"/>
</svg>
