<svg width="98" height="100" viewBox="0 0 98 100" fill="none" xmlns="http://www.w3.org/2000/svg">
<path opacity="0.5" d="M36.0805 69.9056C35.1199 69.9016 34.1582 69.8631 33.1956 69.7842C22.6452 68.9193 10.4229 63.8815 5.16961 54.7089C0.576941 46.6901 -1.22626 36.3083 0.864838 27.365C2.83053 18.9583 8.9248 12.1485 17.4585 9.56258C27.0557 6.65455 37.6628 10.188 47.1066 6.21645C60.8517 0.436054 78.1277 5.02659 87.7608 16.0246C96.3017 25.7753 98.3689 41.4982 95.6878 53.6806C94.3329 59.8377 90.7685 65.7673 85.0949 68.8671C80.5806 71.3335 75.1238 71.8198 69.9617 71.1769C65.8112 70.6602 61.9899 69.3064 57.9971 68.1924C54.7967 67.2994 52.1706 67.7642 48.8949 68.4125C44.6791 69.2467 40.3926 69.9236 36.0805 69.9056Z" fill="#F7C15F"/>
<path d="M38.4356 64.0225C37.6583 64.0192 36.8801 63.988 36.1012 63.9242C27.564 63.2244 17.6741 59.1478 13.4234 51.7258C9.70721 45.2371 8.24789 36.8363 9.94008 29.5997C11.5307 22.7971 16.4621 17.2867 23.3674 15.1944C31.1333 12.8414 39.7164 15.7005 47.3578 12.4869C58.48 7.80968 72.4595 11.5242 80.2544 20.4233C87.1654 28.3135 88.8382 41.036 86.6687 50.8937C85.5724 55.8759 82.688 60.674 78.097 63.1824C74.4441 65.1781 70.0288 65.5716 65.8515 65.0515C62.4929 64.6332 59.4009 63.5381 56.17 62.6364C53.5803 61.9137 51.4552 62.2899 48.8046 62.8144C45.3935 63.4894 41.9248 64.0369 38.4356 64.0225Z" stroke="white" stroke-width="0.459503" stroke-miterlimit="10" stroke-dasharray="0.91 0.91"/>
<path opacity="0.87" d="M88.3085 96.926C90.6031 96.926 92.4633 96.7846 92.4633 96.6102C92.4633 96.4358 90.6031 96.2944 88.3085 96.2944C86.0139 96.2944 84.1537 96.4358 84.1537 96.6102C84.1537 96.7846 86.0139 96.926 88.3085 96.926Z" fill="#515159"/>
<path d="M88.8358 84.664C88.8358 84.664 85.2786 82.2472 87.5635 78.7343C89.8485 75.2214 89.2772 74.0007 88.4775 73.0116C90.4196 75.2214 89.994 77.7393 88.8358 79.3366C87.6776 80.9336 87.4941 83.1071 88.8358 84.664Z" fill="#AFAFAF"/>
<path d="M91.7383 87.6627H84.8788L85.5483 96.3466H91.0687L91.7383 87.6627Z" fill="#FEFEFE"/>
<path d="M92.4633 87.2184H84.1537V88.2368H92.4633V87.2184Z" fill="#8B8B8C"/>
<path d="M90.8316 86.3025H85.7857C85.2848 86.3025 84.8788 86.7085 84.8788 87.2095V87.2187H91.7385V87.2095C91.7383 86.7085 91.3323 86.3025 90.8316 86.3025Z" fill="#5A5A63"/>
<path d="M91.3569 92.6101L91.5192 90.5065H85.098L85.2603 92.6101H91.3569Z" fill="#EDB62B"/>
<path d="M91.7383 87.2184V87.2092C91.7383 86.7083 91.3323 86.3023 90.8314 86.3023H88.3324C88.8333 86.3023 89.2393 86.7083 89.2393 87.2092V87.2184H89.9641V88.2368H89.1949L88.5697 96.3464H91.0687L91.6941 88.2368H92.4633V87.2184H91.7383Z" fill="#AFAFAF"/>
<path d="M54.9117 33.2177C54.9117 33.2177 56.3493 28.7093 54.249 27.4002C52.9139 26.7141 52.1843 27.5688 52.1843 27.5688C52.1843 27.5688 51.5566 24.3812 47.2306 25.4343C44.4283 26.1163 43.5446 24.6719 43.5446 24.6719C43.5446 24.6719 43.5184 28.6678 45.4481 29.8559C46.8454 31.0541 46.3095 34.2927 46.3095 34.2927L54.9117 33.2177Z" fill="#2F2F35"/>
<path opacity="0.87" d="M67.6559 92.1326C67.6559 92.1326 75.4443 92.3666 77.6178 94.3729C79.9037 96.4831 82.3019 99.7783 72.4614 99.7147C62.6209 99.6512 53.8973 96.9427 45.6439 97.8024C37.3905 98.6619 30.6177 100.144 28.6447 99.8151C26.6717 99.4863 40.7348 92.7494 40.7348 92.7494L66.8442 93.7076L67.6559 92.1326Z" fill="#515159"/>
<path d="M60.3713 74.614L50.553 73.6277L40.7347 74.614C40.7347 74.614 40.1516 79.2532 38.2556 81.7281C50.553 86.1446 50.553 86.1446 50.553 86.1446C50.553 86.1446 50.553 86.1446 62.8504 81.7281C60.9547 79.2532 60.3713 74.614 60.3713 74.614Z" fill="#A87D1D"/>
<path d="M50.1651 86.0052C50.5525 86.1443 50.5529 86.1446 50.5529 86.1446C50.5529 86.1446 50.5534 86.1443 50.9403 86.0055C53.2028 80.8004 52.6615 74.9607 52.5274 73.8261L50.5532 73.6277L48.0263 73.8816C47.9758 75.1289 47.8915 80.8335 50.1651 86.0052Z" fill="#A87D1D"/>
<path d="M40.6791 74.9926C40.6795 74.9928 51.0106 79.5494 60.988 77.569C60.5398 75.9494 60.3716 74.614 60.3716 74.614L50.5533 73.6277L42.6663 74.4201L40.6791 74.9926Z" fill="#895436"/>
<path d="M45.4479 29.8557C46.8451 31.0538 46.3092 34.2925 46.3092 34.2925L48.137 34.0641C50.0141 32.3936 52.1331 30.2787 51.8253 29.4821C51.2862 28.0858 49.7288 26.6921 46.8572 26.5327C43.9855 26.3733 43.5443 24.6717 43.5443 24.6717C43.5443 24.6717 43.5181 28.6675 45.4479 29.8557Z" fill="#515159"/>
<path d="M50.1966 41.169L42.0798 44.128L40.7347 74.6142C40.7347 74.6142 43.604 75.9593 50.553 75.9593C50.553 44.2726 50.553 41.6425 50.553 41.6425L50.1966 41.169Z" fill="white"/>
<path d="M50.9094 41.169L59.0262 44.128L60.3713 74.6142C60.3713 74.6142 57.502 75.9593 50.553 75.9593C50.553 44.2726 50.553 41.6425 50.553 41.6425L50.9094 41.169Z" fill="white"/>
<path d="M42.0798 44.128L42.0422 44.1415C39.6713 44.9882 37.7767 46.8105 36.8384 49.1467L28.1256 70.2346L35.5344 71.1174L41.8063 55.746L42.0798 44.128Z" fill="#FF7E6E"/>
<path d="M59.0262 44.128L59.064 44.1415C61.435 44.9882 63.3296 46.8105 64.2679 49.1467L72.9807 70.2346L65.5719 71.1174L59.3 55.746L59.0262 44.128Z" fill="#FF7E6E"/>
<path d="M67.6511 57.3349L64.2679 49.1465C63.3296 46.8103 61.435 44.9882 59.064 44.1412L59.0262 44.1278L59.3 55.7455L61.0767 60.1001C63.4486 58.1136 65.8283 57.4686 67.6511 57.3349Z" fill="#E8E8E8"/>
<path d="M33.455 57.3349L36.8382 49.1465C37.7765 46.8103 39.6711 44.9882 42.0421 44.1412L42.0798 44.1278L41.8061 55.7455L40.0294 60.1001C37.6575 58.1136 35.2778 57.4686 33.455 57.3349Z" fill="#E8E8E8"/>
<path d="M59.5568 56.1472C59.5568 56.1472 59.3369 55.8393 59.0266 55.2623L59.3003 55.7455C59.3003 55.7455 56.2121 72.8862 47.9565 75.891C48.7503 75.9335 49.6131 75.9588 50.5533 75.9588C57.5023 75.9588 60.3716 74.6138 60.3716 74.6138L59.5568 56.1472Z" fill="#D3D3D3"/>
<path opacity="0.52" d="M38.2557 53.9014C40.3494 48.0285 40.4659 48.0733 45.0389 46.9973C49.6117 45.9213 48.7126 41.7103 48.7126 41.7103L44.4492 43.2643L43.7898 43.5048L42.0799 44.128L42.0421 44.1415C39.6711 44.9882 37.7765 46.8105 36.8382 49.1465L28.4866 69.3605C32.0136 66.7643 36.4724 58.9034 38.2557 53.9014Z" fill="#FFF6E7"/>
<path opacity="0.28" d="M62.8506 53.9014C60.7569 48.0285 60.6404 48.0733 56.0674 46.9973C51.4945 45.9213 52.3937 41.7103 52.3937 41.7103L56.6571 43.2643L57.3165 43.5048L59.0262 44.128L59.064 44.1415C61.4349 44.9882 63.3295 46.8105 64.2678 49.1465L72.6195 69.3605C69.0927 66.7643 64.6339 58.9034 62.8506 53.9014Z" fill="#4C2A29"/>
<path d="M50.575 44.9301H50.5311C49.3313 44.9301 48.3585 43.9575 48.3585 42.7575V37.5704H52.7474V42.7575C52.7476 43.9575 51.7748 44.9301 50.575 44.9301Z" fill="#FF7E6E"/>
<path d="M52.7124 41.5712C52.7249 41.5712 52.7353 41.5698 52.7476 41.5695V37.5704H50.6988L48.3585 38.4161C48.3585 38.4161 49.2295 41.5712 52.7124 41.5712Z" fill="#4C2A29"/>
<path d="M55.6582 34.4543C55.6582 35.2327 55.0274 35.8635 54.249 35.8635C53.4708 35.8635 52.8397 35.2327 52.8397 34.4543C52.8397 33.6758 53.4708 33.045 54.249 33.045C55.0272 33.045 55.6582 33.6758 55.6582 34.4543Z" fill="#C64F4F"/>
<path d="M54.5232 35.8359C54.7268 35.019 54.8463 33.9739 54.9114 33.2177C54.7131 33.1111 54.4896 33.045 54.2487 33.045C53.4705 33.045 52.8395 33.6761 52.8395 34.4543C52.8395 35.2327 53.4705 35.8635 54.2487 35.8635C54.343 35.8635 54.4344 35.8534 54.5232 35.8359Z" fill="#803D3D"/>
<path d="M45.4479 34.4543C45.4479 35.2327 46.0789 35.8635 46.8571 35.8635C47.6356 35.8635 48.2664 35.2327 48.2664 34.4543C48.2664 33.6758 47.6356 33.045 46.8571 33.045C46.0789 33.045 45.4479 33.6758 45.4479 34.4543Z" fill="#C64F4F"/>
<path d="M46.583 35.8359C46.3792 35.019 46.2599 33.9739 46.1947 33.2177C46.3931 33.1111 46.6165 33.045 46.8574 33.045C47.6358 33.045 48.2667 33.6761 48.2667 34.4543C48.2667 35.2327 47.6356 35.8635 46.8574 35.8635C46.7634 35.8635 46.6718 35.8534 46.583 35.8359Z" fill="#803D3D"/>
<path d="M53.0334 29.5253H50.553H48.0727L46.8451 32.2075L47.0515 34.8622C47.1618 36.2787 48.077 38.7248 49.3646 39.3259C49.7472 39.5044 50.1525 39.6235 50.553 39.6235C50.9536 39.6235 51.3589 39.5044 51.7415 39.3259C53.0291 38.7248 53.9443 36.279 54.0546 34.8622L54.261 32.2075L53.0334 29.5253Z" fill="#FF7E6E"/>
<path d="M51.8252 32.8924C51.8252 32.8924 52.6575 33.1258 53.5991 32.8924" stroke="#2F2F35" stroke-width="0.315578" stroke-miterlimit="10" stroke-linecap="round"/>
<path d="M51.5565 31.367C51.5565 31.367 52.7721 31.1648 53.5028 31.5859" stroke="#2F2F35" stroke-width="0.631131" stroke-miterlimit="10" stroke-linecap="round"/>
<path d="M49.2807 32.8924C49.2807 32.8924 48.4485 33.1258 47.5066 32.8924" stroke="#2F2F35" stroke-width="0.315578" stroke-miterlimit="10" stroke-linecap="round"/>
<path d="M49.5496 31.367C49.5496 31.367 48.334 31.1648 47.6033 31.5859" stroke="#2F2F35" stroke-width="0.631131" stroke-miterlimit="10" stroke-linecap="round"/>
<path opacity="0.52" d="M48.5765 35.2056C48.4145 32.5233 48.0727 29.5253 48.0727 29.5253L46.8451 32.2075L46.9108 33.0502C46.8926 33.0495 46.8756 33.0448 46.8574 33.0448C46.0792 33.0448 45.4481 33.6758 45.4481 34.454C45.4481 35.2325 46.0792 35.8633 46.8574 35.8633C46.9807 35.8633 47.0983 35.8425 47.2121 35.8128C47.5439 37.1838 48.3347 38.845 49.3649 39.3259C49.7475 39.5044 50.1527 39.6235 50.5533 39.6235C50.5533 39.6235 48.7385 37.888 48.5765 35.2056Z" fill="#FFF6E7"/>
<path d="M59.0263 86.5394L30.9762 78.0291C27.2517 76.899 23.3348 79.0917 22.3504 82.857L22.3133 82.9992C21.2992 86.8788 23.8149 90.7982 27.7649 91.4885C38.1361 93.3014 56.934 96.3844 66.8274 96.7614L70.9978 99.5416C71.6274 99.9615 72.4635 99.8923 73.0157 99.3746L73.0372 99.3546C73.6932 98.7396 73.7268 97.7091 73.112 97.0526L72.4616 96.358C72.4616 96.358 71.8818 93.5335 69.0184 92.3229C66.155 91.1125 65.886 88.1535 65.2136 86.5394C64.5407 84.9254 60.2369 84.1186 59.0263 86.5394Z" fill="#8C4242"/>
<path d="M22.3504 82.857C23.3348 79.0914 27.252 76.899 30.9762 78.0291L40.4886 80.9152C39.0558 82.7028 37.1659 86.3314 37.1087 93.0657C33.6358 92.5012 30.4226 91.953 27.7647 91.4885C23.8147 90.7981 21.2989 86.8786 22.3131 82.9992L22.3504 82.857Z" fill="#EDB62B"/>
<path opacity="0.67" d="M31.1989 88.7732C31.1989 89.917 30.9245 90.9963 30.4408 91.9514C29.5015 91.7903 28.6029 91.6349 27.7649 91.4885C23.8149 90.7982 21.2992 86.8786 22.3133 82.9992L22.3504 82.857C22.4387 82.5188 22.5516 82.1938 22.685 81.8823C23.1588 81.7817 23.6498 81.7278 24.1536 81.7278C28.0446 81.7281 31.1989 84.8822 31.1989 88.7732Z" fill="#A87D1D"/>
<path d="M60.3713 90.4399C60.3713 90.4399 59.9679 92.7905 56.0675 91.9514" stroke="#7B3C38" stroke-width="0.269004" stroke-miterlimit="10"/>
<path opacity="0.28" d="M62.8505 89.3639C62.8505 89.3639 56.8744 89.0949 44.2317 86.8396C33.989 85.0126 30.9843 79.7697 30.2125 77.8449C30.4674 77.8917 30.7222 77.9519 30.9761 78.0289L59.0262 86.5392C60.2368 84.1182 64.5406 84.9252 65.213 86.5392C65.8854 88.1532 66.1544 91.112 69.0178 92.3227C71.8812 93.5331 72.461 96.3577 72.461 96.3577C72.461 96.3577 69.5168 94.4747 67.6555 94.0713C65.7942 93.6679 62.8505 89.3639 62.8505 89.3639Z" fill="#4C2A29"/>
<path d="M64.1447 96.6102C64.1447 96.6102 69.2954 101.538 73.6866 99.5104C74.4174 99.1732 74.6462 98.24 74.1691 97.5922C70.4702 92.5685 65.8064 87.0956 64.0287 85.0388C63.5838 84.5239 62.8793 84.3159 62.2258 84.5057L57.1671 85.9752L64.1447 96.6102Z" fill="#2F2F35"/>
<path d="M57.1672 85.9755L52.322 84.5053L55.9922 95.7994L64.1447 96.6102L57.1672 85.9755Z" fill="#A5A5A5"/>
<path d="M42.0798 86.5395L70.1301 78.0291C73.8546 76.899 77.7716 79.0917 78.756 82.857L78.793 82.9992C79.8072 86.8788 77.2914 90.7982 73.3414 91.4885C62.9702 93.3014 44.1723 96.3844 34.279 96.7614L30.1086 99.5416C29.4789 99.9615 28.6429 99.8923 28.0907 99.3746L28.0692 99.3546C27.4131 98.7396 27.3796 97.7091 27.9943 97.0526L28.6448 96.358C28.6448 96.358 29.2246 93.5335 32.088 92.3229C34.9513 91.1125 35.2203 88.1535 35.8927 86.5395C36.5654 84.9254 40.8692 84.1187 42.0798 86.5395Z" fill="#FF7E6E"/>
<path d="M78.7557 82.857C77.7713 79.0914 73.8541 76.899 70.1299 78.0291L60.6174 80.9152C62.0503 82.7028 63.9402 86.3314 63.9971 93.0657C67.4701 92.5012 70.6832 91.953 73.3411 91.4885C77.2912 90.7981 79.8069 86.8786 78.7928 82.9992L78.7557 82.857Z" fill="#EDB62B"/>
<path opacity="0.67" d="M69.9071 88.7732C69.9071 89.917 70.1815 90.9963 70.6652 91.9514C71.6045 91.7903 72.5031 91.6349 73.3411 91.4885C77.2911 90.7982 79.8069 86.8786 78.7927 82.9992L78.7557 82.857C78.6673 82.5188 78.5544 82.1938 78.421 81.8823C77.9472 81.7817 77.4562 81.7278 76.9524 81.7278C73.0615 81.7281 69.9071 84.8822 69.9071 88.7732Z" fill="#A87D1D"/>
<path opacity="0.28" d="M38.2557 89.3639C38.2557 89.3639 44.2319 89.0949 56.8746 86.8396C67.1173 85.0126 70.1219 79.7697 70.8937 77.8449C70.6389 77.8917 70.3841 77.9519 70.1302 78.0289L42.0799 86.5394C40.8695 84.1184 36.5654 84.9254 35.893 86.5394C35.2206 88.1535 34.9516 91.1123 32.0882 92.3229C29.2248 93.5333 28.645 96.358 28.645 96.358C28.645 96.358 31.5892 94.4749 33.4505 94.0716C35.3115 93.6679 38.2557 89.3639 38.2557 89.3639Z" fill="#4C2A29"/>
<path opacity="0.57" d="M32.0879 92.3229L27.8831 91.5433C24.0773 90.9359 21.4999 87.3382 22.1492 83.5393L22.1747 83.3905C22.8825 79.2487 27.0864 76.6869 31.092 77.9566L39.0315 80.4731" stroke="white" stroke-width="0.263076" stroke-miterlimit="10"/>
<path d="M49.1109 35.1616C48.9598 35.1616 48.871 35.3369 48.9638 35.4561C49.3849 35.9967 49.9422 36.3271 50.5551 36.3271C51.168 36.3271 51.7254 35.9967 52.1465 35.4561C52.2393 35.3369 52.1505 35.1616 51.9993 35.1616H49.1109Z" fill="white"/>
<path d="M50.9695 32.8332V34.2923C50.9695 34.2923 50.6339 34.1026 50.167 34.2923" stroke="#2F2F35" stroke-width="0.193947" stroke-miterlimit="10" stroke-linecap="round"/>
<path d="M52.1842 27.5686H51.8252V29.8515H52.1842V27.5686Z" fill="#FF7E6E"/>
<path d="M72.9806 70.2344L72.9955 70.2755C73.8363 72.6032 72.8292 75.1943 70.6371 76.3435L55.6581 84.1954L55.5842 84.0041C54.2644 80.5949 55.6449 76.7335 58.8267 74.9333L65.572 71.1172L72.9806 70.2344Z" fill="#FF7E6E"/>
<path opacity="0.28" d="M69.8179 75.0439C69.8179 75.5967 69.956 76.1168 70.1974 76.5738L70.6372 76.3433C72.366 75.4371 73.3532 73.6334 73.2826 71.77C73.2221 71.7667 73.1624 71.7608 73.1009 71.7608C71.2876 71.7608 69.8179 73.2307 69.8179 75.0439Z" fill="#4C2A29"/>
<path d="M65.5719 71.1172L69.8179 68.7094" stroke="#4C2A29" stroke-width="0.315578" stroke-miterlimit="10" stroke-linecap="round"/>
<path d="M28.1693 70.2344L28.1544 70.2755C27.3136 72.6032 28.3206 75.1943 30.5128 76.3435L45.4918 84.1954L45.5659 84.0041C46.8857 80.5949 45.5052 76.7335 42.3235 74.9333L35.5781 71.1172L28.1693 70.2344Z" fill="#FF7E6E"/>
<path opacity="0.28" d="M31.3322 75.0439C31.3322 75.5967 31.1941 76.1168 30.9527 76.5738L30.5129 76.3433C28.7841 75.4371 27.7972 73.6334 27.8675 71.77C27.928 71.7667 27.9878 71.7608 28.0492 71.7608C29.8623 71.7608 31.3322 73.2307 31.3322 75.0439Z" fill="#4C2A29"/>
<path d="M35.5781 71.1172L31.3322 68.7094" stroke="#4C2A29" stroke-width="0.315578" stroke-miterlimit="10" stroke-linecap="round"/>
<path d="M43.8297 83.3239C43.8297 83.3239 44.5857 79.1757 42.1238 77.8449" stroke="#4C2A29" stroke-width="0.315578" stroke-miterlimit="10" stroke-linecap="round"/>
<path d="M57.2764 83.3239C57.2764 83.3239 56.5204 79.1757 58.9823 77.8449" stroke="#4C2A29" stroke-width="0.315578" stroke-miterlimit="10" stroke-linecap="round"/>
<path d="M36.9614 96.6102C36.9614 96.6102 31.8106 101.538 27.4194 99.5104C26.6889 99.1732 26.4598 98.24 26.9369 97.5922C30.6359 92.5685 35.2994 87.0956 37.0773 85.0388C37.5223 84.5239 38.2268 84.3159 38.8803 84.5057L43.9389 85.9752L36.9614 96.6102Z" fill="#2F2F35"/>
<path d="M43.9391 85.9755L48.784 84.5053L45.1138 95.7994L36.9613 96.6102L43.9391 85.9755Z" fill="#ECECEC"/>
<path opacity="0.28" d="M41.9242 89.0464C43.3613 88.8932 45.228 88.6686 47.5371 88.3427L48.7841 84.5055L43.9392 85.9755L41.9242 89.0464Z" fill="#4C2A29"/>
<path d="M38.505 93.1802L35.6943 97.464C35.5193 97.7306 35.2066 97.8733 34.8903 97.8303L34.8717 97.8277C34.2628 97.745 33.953 97.0514 34.2975 96.5427L37.1723 92.2988C37.3563 92.0272 37.6886 91.8976 38.0076 91.9724L38.0242 91.9762C38.5593 92.1019 38.8064 92.7209 38.505 93.1802Z" fill="#FFF6E7"/>
<path d="M50.1669 68.4217H32.9658L37.2068 83.5277H50.1669H63.1271L67.3681 68.4217H50.1669Z" fill="#AFAFAF"/>
<path d="M63.127 83.5277H37.2068V85.728H63.127V83.5277Z" fill="#8B8B8C"/>
<path d="M50.1964 79.3191C52.5192 79.3191 54.4022 78.3548 54.4022 77.1652C54.4022 75.9756 52.5192 75.0113 50.1964 75.0113C47.8736 75.0113 45.9906 75.9756 45.9906 77.1652C45.9906 78.3548 47.8736 79.3191 50.1964 79.3191Z" fill="#5A5A63"/>
<path d="M67.3681 67.4196H32.9658V68.4217H67.3681V67.4196Z" fill="#5A5A63"/>
<path d="M41.2383 84.1595H38.6425V85.044H41.2383V84.1595Z" fill="#5A5A63"/>
<path d="M44.9848 84.1595H42.389V85.044H44.9848V84.1595Z" fill="#5A5A63"/>
<path d="M63.127 84.6278H47.3519" stroke="#0F1201" stroke-width="0.236175" stroke-miterlimit="10"/>
<path opacity="0.54" d="M32.9658 68.4217L37.2068 83.528H46.4387C51.9203 77.1725 55.2509 68.4217 55.2509 68.4217L55.2395 67.4196H32.9658V68.4217Z" fill="white"/>
<path opacity="0.57" d="M32.9658 68.4217H67.3681" stroke="#0F1201" stroke-width="0.236175" stroke-miterlimit="10"/>
<path opacity="0.87" d="M15.0947 96.926C18.5398 96.926 21.3325 96.7846 21.3325 96.6102C21.3325 96.4358 18.5398 96.2944 15.0947 96.2944C11.6496 96.2944 8.85681 96.4358 8.85681 96.6102C8.85681 96.7846 11.6496 96.926 15.0947 96.926Z" fill="#515159"/>
<path d="M16.0068 93.504L16.4156 93.0586L16.2113 93.2813L16.4175 93.0602C16.3672 93.0123 11.4443 88.0214 17.3907 65.5316L16.806 65.377C10.7351 88.3374 15.7888 93.3037 16.0068 93.504Z" fill="#5A5A63"/>
<path d="M14.1727 65.9187C16.4249 67.9654 16.0302 70.3853 16.0302 70.3853C16.0302 70.3853 13.7747 69.4233 13.2516 66.4256C13.1597 65.8998 13.7778 65.5598 14.1727 65.9187Z" fill="#5A5A63"/>
<path d="M19.8078 67.3634C16.8485 68.0738 16.0302 70.3853 16.0302 70.3853C16.0302 70.3853 18.4701 70.6274 20.3715 68.251C20.705 67.8344 20.3267 67.239 19.8078 67.3634Z" fill="#5A5A63"/>
<path d="M12.6297 71.8004C15.0763 73.6105 14.9268 76.0577 14.9268 76.0577C14.9268 76.0577 12.586 75.3275 11.7641 72.3973C11.6201 71.8833 12.2006 71.483 12.6297 71.8004Z" fill="#5A5A63"/>
<path d="M18.3814 72.6715C15.5086 73.6757 14.9266 76.0575 14.9266 76.0575C14.9266 76.0575 17.3786 76.053 19.0314 73.4978C19.3211 73.05 18.8849 72.4955 18.3814 72.6715Z" fill="#5A5A63"/>
<path d="M11.6517 76.9583C14.2255 78.5822 14.2574 81.034 14.2574 81.034C14.2574 81.034 11.8692 80.4789 10.8326 77.6174C10.651 77.1158 11.2006 76.6735 11.6517 76.9583Z" fill="#5A5A63"/>
<path d="M17.4522 77.4016C14.6615 78.6157 14.2574 81.0339 14.2574 81.0339C14.2574 81.0339 16.7023 80.8481 18.1617 78.1774C18.4174 77.7093 17.9415 77.1885 17.4522 77.4016Z" fill="#5A5A63"/>
<path d="M18.9973 61.4123C19.0483 64.4552 17.0146 65.8247 17.0146 65.8247C17.0146 65.8247 16.171 63.5225 17.9971 61.088C18.3171 60.6612 18.9883 60.8788 18.9973 61.4123Z" fill="#5A5A63"/>
<path d="M18.1277 83.5327H11.5883V96.4694H18.1277V83.5327Z" fill="#EDB62B"/>
<path opacity="0.67" d="M18.1276 83.5327H15.515V96.4694H18.1276V83.5327Z" fill="#A87D1D"/>
<path d="M20.9992 21.8312L18.6461 22.4164C18.3049 22.5015 17.9591 22.2934 17.8743 21.9521L17.6478 21.0414L21.2372 20.1487L21.4637 21.0594C21.5485 21.4009 21.3407 21.7464 20.9992 21.8312Z" fill="#A87D1D"/>
<path d="M29.7429 19.0252L9.41575 24.0805C9.06314 24.1682 8.70605 23.9535 8.61819 23.6006L5.26592 10.1212C5.1783 9.76855 5.39298 9.41145 5.74582 9.32359L26.073 4.26826C26.4256 4.18064 26.7827 4.39532 26.8703 4.74817L30.2226 18.2276C30.3104 18.5805 30.0955 18.9373 29.7429 19.0252Z" fill="#A87D1D"/>
<path d="M29.1405 16.6956L28.5737 18.3242L10.5387 22.8094L8.93716 21.7202L5.61536 8.36448L25.819 3.33985L29.1405 16.6956Z" fill="#EDB62B"/>
<path d="M15.4567 5.91725L5.61414 8.36471L8.93506 21.72L18.7776 19.2725L15.4567 5.91725Z" fill="white"/>
<path d="M14.8484 7.06L6.76135 9.07092L6.8775 9.538L14.9645 7.52708L14.8484 7.06Z" fill="#AFAFAF"/>
<path d="M15.2217 8.55199L7.13464 10.5637L7.25084 11.0308L15.3378 9.01907L15.2217 8.55199Z" fill="#AFAFAF"/>
<path d="M15.5915 10.0487L7.50452 12.0597L7.62066 12.5267L15.7077 10.5158L15.5915 10.0487Z" fill="#AFAFAF"/>
<path d="M15.9631 11.543L7.8761 13.5539L7.99224 14.0209L16.0792 12.01L15.9631 11.543Z" fill="#AFAFAF"/>
<path d="M16.3366 13.0349L8.24963 15.0466L8.36583 15.5137L16.4528 13.502L16.3366 13.0349Z" fill="#AFAFAF"/>
<path d="M16.7063 14.5317L8.61926 16.5426L8.73541 17.0097L16.8224 14.9988L16.7063 14.5317Z" fill="#AFAFAF"/>
<path d="M17.0779 16.0259L8.99084 18.0368L9.10699 18.5039L17.194 16.493L17.0779 16.0259Z" fill="#AFAFAF"/>
<path d="M17.4518 17.5178L9.36475 19.5295L9.48094 19.9966L17.5679 17.9849L17.4518 17.5178Z" fill="#AFAFAF"/>
<path d="M25.8179 3.33755L15.9753 5.78602L19.2976 19.1413L29.1402 16.6928L25.8179 3.33755Z" fill="white"/>
<path d="M25.1353 4.49916L17.0483 6.51091L17.1645 6.97798L25.2515 4.96623L25.1353 4.49916Z" fill="#AFAFAF"/>
<path d="M25.5057 5.9968L17.4187 8.00772L17.5348 8.4748L25.6219 6.46388L25.5057 5.9968Z" fill="#AFAFAF"/>
<path d="M25.8772 7.49131L17.7902 9.50222L17.9063 9.9693L25.9933 7.95838L25.8772 7.49131Z" fill="#AFAFAF"/>
<path d="M26.2503 8.98202L18.1633 10.9938L18.2795 11.4608L26.3665 9.44909L26.2503 8.98202Z" fill="#AFAFAF"/>
<path d="M26.6205 10.4798L18.5334 12.4907L18.6496 12.9578L26.7366 10.9469L26.6205 10.4798Z" fill="#AFAFAF"/>
<path d="M26.9919 11.9743L18.9049 13.9852L19.0211 14.4523L27.1081 12.4413L26.9919 11.9743Z" fill="#AFAFAF"/>
<path d="M27.3656 13.4648L19.2786 15.4766L19.3948 15.9437L27.4818 13.9319L27.3656 13.4648Z" fill="#AFAFAF"/>
<path d="M27.7348 14.9628L19.6478 16.9737L19.764 17.4408L27.851 15.4298L27.7348 14.9628Z" fill="#AFAFAF"/>
<path d="M20.3828 21.0506L18.8255 21.438C18.4842 21.5227 18.1389 21.3149 18.0539 20.9739L17.9117 20.4021L20.7048 19.7075L20.8469 20.2793C20.9317 20.6203 20.7239 20.9658 20.3828 21.0506Z" fill="#EDB62B"/>
<path d="M54.9478 1.84626C54.1401 1.07821 53.1195 0.554378 52.0688 0.204366C52.0617 0.202004 52.0457 0.197517 52.0216 0.19114C51.0698 -0.063693 50.0665 -0.063693 49.1147 0.19114C49.0909 0.197517 49.0746 0.202004 49.0675 0.204366C48.0167 0.554378 46.9962 1.07845 46.1885 1.84626C43.7842 4.1322 44.1749 8.28133 46.5163 10.4707C47.1731 11.0847 47.4615 11.8776 47.6625 12.7517C47.7232 13.015 48.0715 15.7605 47.9499 15.7605C49.1249 15.7605 50.5679 15.7605 50.5679 15.7605C50.5679 15.7605 52.0109 15.7605 53.1859 15.7605C53.0645 15.7605 53.4129 13.0148 53.4733 12.7517C53.6746 11.8778 53.9629 11.085 54.6197 10.4707C56.9614 8.28156 57.3518 4.13243 54.9478 1.84626Z" fill="#EDB62B"/>
<path opacity="0.52" d="M49.6265 12.7517C49.4255 11.8779 49.1369 11.085 48.4804 10.4707C46.1389 8.28138 45.7483 4.13225 48.1525 1.84631C48.9603 1.07827 49.9808 0.554429 51.0315 0.204417C51.0386 0.202055 51.0547 0.197568 51.0788 0.191191C51.2346 0.149388 51.3919 0.117032 51.5502 0.0889271C50.7424 -0.0544313 49.9106 -0.0220752 49.1147 0.191191C49.0909 0.197568 49.0746 0.202055 49.0675 0.204417C48.0167 0.554429 46.996 1.0785 46.1885 1.84631C43.7842 4.13225 44.1749 8.28138 46.5163 10.4707C47.1731 11.0848 47.4615 11.8776 47.6625 12.7517C47.7232 13.015 48.0715 15.7606 47.9499 15.7606C48.6247 15.7606 49.3863 15.7606 49.9139 15.7606C50.0356 15.7606 49.6872 13.0148 49.6265 12.7517Z" fill="#FFF6E7"/>
<path d="M50.5683 15.7606V9.35737L51.6953 8.70765C52.0677 8.49296 51.9933 7.93488 51.5777 7.8253L49.5267 7.28398C49.177 7.19164 49.1373 6.71126 49.4672 6.5627L50.568 6.06744V3.89392" stroke="#FEFEFE" stroke-width="0.528726" stroke-miterlimit="10" stroke-linecap="round"/>
<path d="M53.7072 16.6417C53.7072 16.8363 53.5495 16.9941 53.3549 16.9941H47.5979C47.4032 16.9941 47.2455 16.8363 47.2455 16.6417C47.2455 16.4471 47.4032 16.2893 47.5979 16.2893H53.3549C53.5492 16.2893 53.7072 16.4471 53.7072 16.6417Z" fill="#2F2F35"/>
<path d="M53.7072 17.6991C53.7072 17.8937 53.5495 18.0517 53.3549 18.0517H47.5979C47.4032 18.0517 47.2455 17.8939 47.2455 17.6991C47.2455 17.5045 47.4032 17.3467 47.5979 17.3467H53.3549C53.5492 17.3467 53.7072 17.5045 53.7072 17.6991Z" fill="#2F2F35"/>
<path d="M53.7072 18.7564C53.7072 18.951 53.5495 19.1088 53.3549 19.1088H47.5979C47.4032 19.1088 47.2455 18.951 47.2455 18.7564C47.2455 18.5618 47.4032 18.4038 47.5979 18.4038H53.3549C53.5492 18.4041 53.7072 18.5618 53.7072 18.7564Z" fill="#2F2F35"/>
<path d="M50.4761 21.5761C51.6116 21.5761 52.5322 20.6555 52.5322 19.52H48.4202C48.4202 20.6558 49.3405 21.5761 50.4761 21.5761Z" fill="#2F2F35"/>
<path d="M74.8336 22.928V21.2726H74.1022C73.9638 20.4864 73.6423 19.7651 73.1832 19.1508L73.7635 18.5705L72.593 17.4001L71.991 18.0021C71.3748 17.5812 70.6585 17.2992 69.8869 17.188V16.3233H68.2318V17.2203C67.4919 17.3599 66.8117 17.6627 66.225 18.0885L65.6391 17.5026L64.4686 18.673L65.0621 19.2666C64.6285 19.8832 64.3332 20.6016 64.2135 21.3791H63.3918V23.0343H64.2317C64.3672 23.7929 64.6729 24.4905 65.1084 25.0899L64.4617 25.7366L65.6322 26.9071L66.2871 26.2524C66.8875 26.6742 67.5844 26.9649 68.3385 27.0906V27.984H69.9937V27.0906C70.7452 26.9656 71.4398 26.6766 72.0389 26.2571L72.5864 26.8046L73.7569 25.6341L73.2189 25.0961C73.677 24.4676 73.9907 23.7298 74.1166 22.928H74.8336ZM69.1661 24.9629C67.6111 24.9629 66.3504 23.7022 66.3504 22.1472C66.3504 20.592 67.6111 19.3315 69.1661 19.3315C70.7213 19.3315 71.9818 20.5922 71.9818 22.1472C71.9818 23.7024 70.7213 24.9629 69.1661 24.9629Z" fill="#666666"/>
<path d="M81.4341 29.206V28.2511H81.0121C80.9323 27.7974 80.7469 27.3815 80.4821 27.027L80.817 26.6921L80.1418 26.0169L79.7946 26.3641C79.4392 26.1213 79.0259 25.9586 78.5807 25.8943V25.3955H77.6258V25.913C77.199 25.9935 76.8065 26.1683 76.4681 26.4139L76.1301 26.076L75.4549 26.7512L75.7973 27.0936C75.5472 27.4493 75.3769 27.8638 75.3077 28.3123H74.8337V29.2672H75.3184C75.3965 29.7048 75.573 30.1072 75.824 30.453L75.4509 30.8262L76.1261 31.5014L76.5037 31.1237C76.8502 31.3672 77.2522 31.5349 77.687 31.6072V32.1225H78.6418V31.6072C79.0755 31.5352 79.4762 31.3684 79.8218 31.1263L80.1375 31.4421L80.8128 30.7669L80.5024 30.4565C80.7667 30.094 80.9478 29.6684 81.0201 29.2058L81.4341 29.206ZM78.1645 30.3798C77.2675 30.3798 76.5401 29.6526 76.5401 28.7554C76.5401 27.8584 77.2673 27.131 78.1645 27.131C79.0618 27.131 79.7889 27.8581 79.7889 28.7554C79.7889 29.6526 79.0618 30.3798 78.1645 30.3798Z" fill="#9E9E9E"/>
<path d="M96.4784 16.8391V13.4399H94.9761C94.6918 11.8251 94.0319 10.3441 93.0891 9.08219L94.281 7.89021L91.8775 5.48665L90.6413 6.7228C89.3759 5.85863 87.905 5.27953 86.3203 5.05068V3.27511H82.921V5.11728C81.4017 5.40376 80.0045 6.02584 78.7998 6.9004L77.5967 5.69732L75.1931 8.10088L76.412 9.31978C75.5214 10.5862 74.9154 12.0615 74.6695 13.6583H72.9818V17.0576H74.7068C74.9853 18.6154 75.613 20.048 76.5072 21.279L75.1789 22.6072L77.5825 25.0108L78.9273 23.6663C80.1604 24.5328 81.5913 25.1298 83.1399 25.3875V27.2223H86.5392V25.3875C88.0824 25.1308 89.5091 24.5373 90.7394 23.6757L91.8638 24.8001L94.2673 22.3966L93.1628 21.292C94.1037 20.0013 94.748 18.4865 95.0061 16.8394L96.4784 16.8391ZM84.8395 21.0185C81.6459 21.0185 79.0569 18.4295 79.0569 15.2362C79.0569 12.0426 81.6459 9.45369 84.8395 9.45369C88.033 9.45369 90.622 12.0426 90.622 15.2362C90.622 18.4295 88.033 21.0185 84.8395 21.0185Z" fill="#8B8B8C"/>
<path d="M84.7303 18.6421C86.6043 18.6421 88.1234 17.1229 88.1234 15.249C88.1234 13.375 86.6043 11.8558 84.7303 11.8558C82.8563 11.8558 81.3372 13.375 81.3372 15.249C81.3372 17.1229 82.8563 18.6421 84.7303 18.6421Z" fill="#666666"/>
<path d="M18.6356 32.6067C11.3449 33.0488 5.67765 37.418 5.97783 42.3654C6.278 47.3128 12.4316 50.9651 19.7223 50.5227C19.7277 50.5225 19.7332 50.522 19.7386 50.5218C20.4561 50.4776 20.958 49.7844 20.7806 49.0879C20.6944 48.749 20.6457 48.3941 20.6401 48.0275C20.603 45.6693 22.4272 43.6432 24.7762 43.4308C26.4809 43.2768 28.0383 44.0782 28.9371 45.3824C29.3807 46.0259 30.3235 46.0715 30.8032 45.4541C31.8993 44.0432 32.4817 42.437 32.3801 40.7642C32.0802 35.8165 25.9266 32.1643 18.6356 32.6067Z" fill="#5A5A63"/>
<path d="M18.5872 31.806C11.2964 32.2482 5.62918 36.6174 5.92936 41.5648C6.22954 46.5122 12.3831 50.1644 19.6741 49.7221C19.6795 49.7218 19.6849 49.7214 19.6904 49.7211C20.4079 49.677 20.9097 48.9838 20.7324 48.2873C20.6462 47.9484 20.5975 47.5934 20.5918 47.2269C20.5548 44.8687 22.379 42.8425 24.728 42.6302C26.4327 42.4762 27.99 43.2776 28.8889 44.5817C29.3325 45.2253 30.2753 45.2709 30.7549 44.6535C31.851 43.2426 32.4334 41.6364 32.3319 39.9635C32.0315 35.0159 25.8779 31.3637 18.5872 31.806Z" fill="#8B8B8C"/>
<path d="M16.0121 45.8311C16.0655 46.7099 15.3962 47.4657 14.5173 47.519C13.6385 47.5724 12.8828 46.9031 12.8294 46.0243C12.776 45.1455 13.4453 44.3897 14.3242 44.3363C15.203 44.283 15.9587 44.9523 16.0121 45.8311Z" fill="#EDB62B"/>
<path d="M11.669 42.8137C11.7223 43.6925 11.053 44.4483 10.1742 44.5017C9.2954 44.555 8.53963 43.8857 8.48626 43.0069C8.43288 42.1281 9.10221 41.3723 9.98101 41.319C10.8601 41.2656 11.6156 41.9349 11.669 42.8137Z" fill="#EDB62B"/>
<path d="M12.9461 37.5361C12.9994 38.4149 12.3301 39.1707 11.4513 39.2241C10.5725 39.2775 9.81673 38.6081 9.76336 37.7293C9.70998 36.8505 10.3793 36.0947 11.2581 36.0414C12.1372 35.988 12.8929 36.6573 12.9461 37.5361Z" fill="#EDB62B"/>
<path d="M18.3285 34.6839C18.3819 35.5627 17.7126 36.3184 16.8337 36.3718C15.9549 36.4252 15.1992 35.7559 15.1458 34.877C15.0924 33.9982 15.7617 33.2425 16.6406 33.1891C17.5194 33.1357 18.2751 33.805 18.3285 34.6839Z" fill="#EDB62B"/>
<path d="M24.3915 34.7618C24.4449 35.6406 23.7755 36.3963 22.8967 36.4497C22.0179 36.5031 21.2622 35.8338 21.2088 34.955C21.1554 34.0762 21.8247 33.3204 22.7035 33.267C23.5824 33.2136 24.3381 33.883 24.3915 34.7618Z" fill="#EDB62B"/>
<path d="M29.5086 37.6457C29.5619 38.5245 28.8926 39.2803 28.0138 39.3337C27.135 39.387 26.3792 38.7177 26.3259 37.8389C26.2725 36.9601 26.9418 36.2043 27.8206 36.151C28.6997 36.0976 29.4554 36.7669 29.5086 37.6457Z" fill="#EDB62B"/>
<path opacity="0.68" d="M25.6827 32.7503L24.1818 35.8905C23.9839 35.8808 23.7926 35.9932 23.7137 36.1873L23.7095 36.198C23.6094 36.4436 23.7274 36.7239 23.9733 36.8241L24.1141 36.8815C24.0864 36.8723 23.9433 36.8555 23.6415 37.295C23.6412 37.2952 23.6412 37.2952 23.6412 37.2955C23.6231 37.3219 23.6042 37.3505 23.5848 37.3805C23.5829 37.3836 23.581 37.3864 23.5789 37.3895C23.5609 37.4176 23.5423 37.4473 23.5232 37.4785C23.5194 37.4849 23.5156 37.491 23.5116 37.4974C23.4936 37.5269 23.4754 37.5579 23.4568 37.5902C23.4514 37.5997 23.4457 37.6094 23.44 37.6193C23.4223 37.6502 23.4044 37.6823 23.3859 37.7159C23.3786 37.7291 23.3713 37.7428 23.3637 37.7565C23.3463 37.7889 23.3283 37.8224 23.3101 37.8571C23.3011 37.8741 23.2922 37.8916 23.283 37.9093C23.2655 37.9431 23.2478 37.9776 23.2296 38.0137C23.219 38.0349 23.2081 38.0569 23.197 38.0791C23.1795 38.1143 23.162 38.15 23.1443 38.187C23.132 38.2126 23.1195 38.239 23.1068 38.2657C23.0893 38.3028 23.0716 38.3401 23.0536 38.3791C23.0399 38.4083 23.026 38.4393 23.0121 38.4697C22.9944 38.5087 22.9766 38.5477 22.9585 38.5885C22.9431 38.623 22.9273 38.6594 22.9115 38.6955C22.894 38.7354 22.8765 38.7751 22.8586 38.8167C22.8413 38.8568 22.8236 38.8989 22.8059 38.9407C22.7884 38.9822 22.7709 39.0231 22.753 39.0663C22.7341 39.1117 22.7147 39.1594 22.6954 39.2064C22.6779 39.2491 22.6606 39.2909 22.6427 39.3353C22.6219 39.3871 22.6002 39.4418 22.5789 39.4959C22.5617 39.5396 22.5447 39.5821 22.527 39.6275C22.5031 39.6884 22.4785 39.7527 22.454 39.8164C22.4382 39.8577 22.4226 39.8974 22.4065 39.9399C22.3775 40.0165 22.3477 40.0968 22.3177 40.1768C22.3052 40.2106 22.2929 40.2427 22.2802 40.2772C22.2372 40.3939 22.1932 40.5141 22.1484 40.639C22.0282 40.9737 21.8876 41.3676 21.7327 41.8045C21.7148 41.8553 21.6973 41.9047 21.6786 41.9566C21.6552 42.0228 21.6307 42.092 21.6066 42.1602C21.5865 42.2169 21.5669 42.2724 21.5464 42.3305C21.5147 42.42 21.4821 42.5126 21.4495 42.6052C21.4349 42.6467 21.4207 42.6871 21.4058 42.7292C21.3735 42.8208 21.3404 42.9148 21.3074 43.009C21.2906 43.057 21.2738 43.104 21.2568 43.1526C21.2256 43.241 21.194 43.3317 21.1621 43.4221C21.1425 43.4781 21.1231 43.5329 21.1033 43.5896C21.0667 43.6942 21.0294 43.8007 20.9918 43.9077C20.9777 43.9478 20.964 43.9873 20.9498 44.0279C20.9118 44.137 20.873 44.2478 20.8341 44.359C20.8175 44.4065 20.801 44.4535 20.7845 44.5012C20.7483 44.6046 20.7117 44.7097 20.6751 44.8148C20.6565 44.8684 20.638 44.9213 20.6191 44.9754C20.5802 45.0869 20.541 45.1998 20.5018 45.3129C20.4848 45.3616 20.468 45.4098 20.4512 45.4586C20.4125 45.5699 20.3735 45.6823 20.3345 45.795C20.3149 45.8512 20.2956 45.9069 20.2762 45.9634C20.2413 46.0644 20.2061 46.166 20.1709 46.2678C20.1458 46.3398 20.121 46.4119 20.096 46.4844C20.0658 46.5717 20.0353 46.6598 20.0051 46.7477C19.9763 46.8313 19.9475 46.9147 19.9184 46.9985C19.8861 47.0925 19.8535 47.1867 19.8211 47.281C19.8041 47.3303 19.7871 47.3792 19.7701 47.4288C19.5053 48.198 19.2385 48.9786 18.9758 49.7518C19.2073 49.7459 19.4402 49.7363 19.6742 49.7221C19.6796 49.7218 19.6851 49.7214 19.6905 49.7211C20.408 49.677 20.9099 48.9838 20.7325 48.2873C20.6463 47.9484 20.5976 47.5934 20.592 47.2269C20.5596 45.163 21.9526 43.3536 23.8755 42.7915C24.0881 42.3314 24.278 41.9186 24.4369 41.5703C26.1284 37.8661 25.708 37.534 25.6549 37.5083L25.7956 37.5657C26.0413 37.6656 26.3216 37.5475 26.4217 37.3019L26.426 37.2912C26.5195 37.0614 26.4208 36.8033 26.2066 36.6887L27.3312 33.4555C26.8112 33.1924 26.2607 32.9565 25.6827 32.7503Z" fill="#2F2F35"/>
<path opacity="0.42" d="M12.67 37.2922C12.6922 37.6597 12.4123 37.9759 12.0448 37.9981C11.6773 38.0203 11.3611 37.7404 11.3389 37.3729C11.3167 37.0054 11.5965 36.6892 11.964 36.667C12.3315 36.6448 12.6475 36.9247 12.67 37.2922Z" fill="white"/>
<path opacity="0.42" d="M18.056 34.497C18.0782 34.8645 17.7983 35.1808 17.4308 35.203C17.0633 35.2252 16.7471 34.9453 16.7249 34.5778C16.7027 34.2103 16.9825 33.8941 17.35 33.8719C17.7175 33.8494 18.0335 34.1293 18.056 34.497Z" fill="white"/>
<path opacity="0.42" d="M23.759 34.3544C23.7812 34.7219 23.5013 35.0381 23.1338 35.0603C22.7663 35.0825 22.4501 34.8027 22.4279 34.4352C22.4057 34.0677 22.6855 33.7514 23.053 33.7292C23.4205 33.707 23.7365 33.9869 23.759 34.3544Z" fill="white"/>
<path opacity="0.42" d="M10.9967 42.3433C11.0189 42.7107 10.7391 43.027 10.3716 43.0492C10.0041 43.0714 9.68786 42.7915 9.66566 42.424C9.64346 42.0565 9.92333 41.7403 10.2908 41.7181C10.6583 41.6959 10.9743 41.9758 10.9967 42.3433Z" fill="white"/>
<path opacity="0.42" d="M15.7228 45.3684C15.745 45.7359 15.4652 46.0521 15.0977 46.0743C14.7302 46.0965 14.4139 45.8167 14.3917 45.4492C14.3695 45.0817 14.6494 44.7655 15.0169 44.7433C15.3844 44.7211 15.7004 45.0009 15.7228 45.3684Z" fill="white"/>
<path d="M31.5122 31.8018C31.5122 31.8018 33.6874 30.6129 33.8267 28.7754C33.818 27.6895 33.3463 26.7984 33.3463 26.7984L33.0485 27.9174C33.0485 27.9174 32.8848 26.1596 31.6296 25.3103C30.3743 24.461 30.6832 24.6995 30.6832 24.6995C30.6832 24.6995 31.7373 26.0984 30.5672 28.4181C29.3972 30.7378 30.8738 31.542 30.8738 31.542L31.5122 31.8018Z" fill="#EDB62B"/>
<path d="M31.3777 31.0486C31.3777 31.0486 30.9842 29.0312 31.8833 27.9472C30.7145 29.429 30.4731 30.6195 30.7667 31.5815C31.3777 31.0486 31.3777 31.0486 31.3777 31.0486Z" fill="#A87D1D"/>
<path d="M30.327 31.4473C30.5185 31.0595 30.977 30.8854 31.3777 31.0486L31.3848 31.0515L31.3919 31.0543C31.7925 31.2175 31.9991 31.6622 31.8652 32.0736L30.4349 36.4677L29.358 36.0291L28.281 35.5905L30.327 31.4473Z" fill="white"/>
<path d="M28.1145 36.5728L29.9366 37.3146C30.1822 37.4147 30.4626 37.2967 30.5627 37.0508L30.5669 37.0402C30.6671 36.7943 30.549 36.5142 30.3031 36.4141L28.481 35.6722C28.2354 35.5721 27.9551 35.6902 27.855 35.936L27.8507 35.9467C27.7508 36.1923 27.8689 36.4726 28.1145 36.5728Z" fill="#CCCCCC"/>
<path d="M28.2607 36.6321L29.0257 36.9433L29.7906 37.2549C29.7906 37.2549 30.3712 37.3921 28.5779 41.319C27.2451 44.2376 23.8171 51.5576 21.8417 55.4687C21.657 55.8345 21.1029 55.609 21.2262 55.2181C22.5445 51.0395 25.2046 43.4067 26.2896 40.3872C27.7494 36.3248 28.2607 36.6321 28.2607 36.6321Z" fill="#2F2F35"/>
<path d="M24.1808 50.6878C23.327 52.4681 22.5027 54.1598 21.8414 55.4689C21.6568 55.8348 21.1027 55.6092 21.226 55.2184C21.6674 53.8195 22.2592 52.0333 22.8917 50.1628L24.1808 50.6878Z" fill="white"/>
<path opacity="0.75" d="M23.911 47.1775C26.7215 43.6989 27.7781 37.0725 27.7829 37.0437C27.4709 37.4981 26.9896 38.44 26.2895 40.3877C25.7593 41.8631 24.8531 44.4403 23.911 47.1775Z" fill="white"/>
<path d="M78.324 39.0196L78.8218 40.0285L79.9351 40.1903L79.1296 40.9756L79.3197 42.0846L78.324 41.561L77.328 42.0846L77.5184 40.9756L76.7128 40.1903L77.8261 40.0285L78.324 39.0196Z" fill="#9E9E9E"/>
<path d="M92.659 37.6101L93.3543 39.0189L94.909 39.2449L93.7841 40.3414L94.0496 41.8898L92.659 41.1588L91.2686 41.8898L91.5341 40.3414L90.4092 39.2449L91.9639 39.0189L92.659 37.6101Z" fill="#666666"/>
<path d="M88.3085 58.7225L88.6965 59.5087L89.5644 59.6348L88.9365 60.247L89.0848 61.1112L88.3085 60.7031L87.5324 61.1112L87.6805 60.247L87.0525 59.6348L87.9204 59.5087L88.3085 58.7225Z" fill="#9E9E9E"/>
<path d="M74.4627 53.3956L75.158 54.8043L76.7125 55.0301L75.5876 56.1267L75.8533 57.6751L74.4627 56.9441L73.0721 57.6751L73.3378 56.1267L72.2126 55.0301L73.7674 54.8043L74.4627 53.3956Z" fill="#666666"/>
<path d="M87.7945 56.7247C91.7691 55.1309 93.6992 50.6168 92.1054 46.6421C90.5116 42.6675 85.9975 40.7375 82.0229 42.3313C78.0482 43.925 76.1182 48.4391 77.712 52.4138C79.3058 56.3884 83.8199 58.3185 87.7945 56.7247Z" fill="#EDB62B"/>
<g opacity="0.67">
<path d="M82.82 56.9946C85.559 57.7589 88.3635 56.9514 90.2768 55.1159C88.9811 55.463 87.5787 55.48 86.1931 55.0934C82.0685 53.9425 79.6579 49.6661 80.8088 45.5415C81.1954 44.1559 81.936 42.9649 82.9039 42.0362C80.343 42.7226 78.2 44.7041 77.4357 47.443C76.2851 51.5673 78.6957 55.8437 82.82 56.9946Z" fill="#A87D1D"/>
</g>
<path opacity="0.52" d="M86.9878 42.0587C86.6017 41.951 86.2139 41.8744 85.8277 41.8274C85.6256 42.5525 85.5153 43.3156 85.5153 44.1051C85.5153 48.1411 88.3409 51.5149 92.1211 52.3623C92.2165 52.1185 92.3006 51.868 92.3724 51.6105C93.5228 47.486 91.1121 43.2093 86.9878 42.0587Z" fill="#FFF6E7"/>
<path d="M77.1775 48.8886C74.1695 47.7167 72.2986 46.6565 72.4559 46.0932C72.7173 45.1561 78.4913 45.9485 85.3525 47.8629C92.2136 49.7773 97.5634 52.089 97.302 53.0262C97.1454 53.5878 95.0094 53.5283 91.8461 52.9785" stroke="#666666" stroke-width="0.472351" stroke-miterlimit="10"/>
</svg>
