<svg width="121" height="100" viewBox="0 0 121 100" fill="none" xmlns="http://www.w3.org/2000/svg">
<path opacity="0.5" d="M57.2366 13.3045C57.4849 13.4794 57.7372 13.6343 57.9922 13.7663C61.8999 15.7913 67.9313 13.482 71.1367 10.9879C74.6007 8.29269 72.0994 5.01735 68.751 4.01957C67.217 3.56266 65.5919 3.34303 64.1782 2.59243C61.1334 0.975027 58.3321 -1.48499 54.9048 1.17853C51.0173 4.19969 53.6915 10.806 57.2366 13.3045Z" fill="#F7C15F"/>
<path opacity="0.5" d="M17.5273 30.4396C17.6786 30.2618 17.8202 30.0853 17.9512 29.9102C22.9882 23.1861 26.9531 14.9258 34.276 10.3117C39.039 7.31051 45.6178 6.45984 50.1661 9.77702C52.5729 11.5324 54.1422 14.2147 56.4049 16.1517C62.2229 21.1323 68.6691 15.0375 73.8413 12.145C80.6609 8.33116 87.7977 5.00072 95.452 3.26507C99.1018 2.43726 103.003 2.17762 106.527 3.43894C110.076 4.70937 113.593 7.91921 113.058 12.0231C112.426 16.8655 106.538 18.0179 105.343 22.5538C104.471 25.865 106.49 29.2765 108.969 31.6388C112.831 35.3186 120.101 39.2057 118.691 45.6958C117.517 51.0993 110.468 53.6934 107.494 58.0255C103.852 63.3323 104.303 70.4376 105.899 76.673C107.158 81.5941 109.002 86.9755 106.76 91.5342C103.697 97.7606 95.2786 99.8323 88.94 99.9924C79.896 100.221 75.5738 95.2896 68.9904 89.992C61.3774 83.8657 51.5239 82.62 42.292 85.1304C32.2417 87.8633 21.1465 94.3116 10.6897 89.6024C5.90821 87.4488 2.14606 82.1092 3.23221 76.7357C4.34305 71.2392 10.2003 68.3693 11.4957 63.0059C13.1276 56.2491 5.48093 52.8869 4.43558 46.829C3.35515 40.5661 13.6173 35.0399 17.5273 30.4396Z" fill="#F7C15F"/>
<path d="M92.0339 77.8881L86.7072 87.5499L94.1233 91.6382L99.4498 81.9764L92.0339 77.8881ZM93.072 89.8807C93.1978 89.6523 93.4847 89.5694 93.7132 89.6951C93.9414 89.8209 94.024 90.1081 93.8985 90.3363C93.7727 90.5645 93.4858 90.6472 93.2576 90.5214C93.0291 90.3956 92.9462 90.1084 93.072 89.8807ZM93.9019 88.3756C94.0277 88.1471 94.3149 88.0645 94.5425 88.1905C94.771 88.3158 94.8539 88.6033 94.7279 88.8312C94.6023 89.0594 94.3154 89.1418 94.0872 89.0163C93.859 88.8905 93.7761 88.6035 93.9019 88.3756ZM94.7315 86.8702C94.8573 86.6418 95.1442 86.5594 95.3722 86.6854C95.6006 86.8107 95.6835 87.0979 95.5577 87.3261C95.4319 87.554 95.145 87.6372 94.9168 87.5114C94.6889 87.3854 94.6057 87.0989 94.7315 86.8702ZM95.5611 85.3654C95.6869 85.1374 95.9739 85.054 96.2023 85.1803C96.4305 85.3058 96.5134 85.5928 96.3876 85.821C96.2618 86.0492 95.9749 86.1324 95.7467 86.0063C95.5185 85.8805 95.4356 85.5938 95.5611 85.3654ZM96.391 83.8603C96.5168 83.6326 96.8037 83.5497 97.0319 83.6752C97.2601 83.801 97.3433 84.0877 97.2172 84.3159C97.0917 84.5443 96.8045 84.6272 96.5763 84.5012C96.3481 84.3756 96.2652 84.0887 96.391 83.8603ZM97.2209 82.3551C97.3467 82.1269 97.6336 82.044 97.8618 82.1696C98.09 82.2959 98.1729 82.5826 98.0471 82.8108C97.9213 83.0389 97.6344 83.1219 97.4062 82.9958C97.178 82.8705 97.0951 82.5833 97.2209 82.3551Z" fill="white"/>
<path d="M27.568 32.9695L24.6412 42.8252C24.6412 42.8252 31.4599 42.6885 31.9768 44.3958C32.5382 46.2502 34.3966 37.1862 34.7214 35.0763C35.005 33.2333 27.568 32.9695 27.568 32.9695ZM26.059 42.1388C25.8389 42.074 25.7128 41.843 25.7778 41.6231C25.8428 41.4027 26.0736 41.2769 26.2937 41.3419C26.5139 41.4066 26.6397 41.6374 26.5749 41.8578C26.51 42.0777 26.2792 42.2037 26.059 42.1388ZM26.4866 40.6869C26.2664 40.6219 26.1404 40.3914 26.2054 40.171C26.2703 39.9509 26.5011 39.8251 26.7213 39.8898C26.9417 39.9545 27.0675 40.1856 27.0025 40.4054C26.9378 40.6261 26.7065 40.7519 26.4866 40.6869ZM26.9141 39.2353C26.694 39.1706 26.5679 38.9396 26.6326 38.7194C26.6979 38.4993 26.9287 38.3735 27.1486 38.4385C27.3687 38.5032 27.4947 38.7342 27.4298 38.9544C27.3651 39.1743 27.134 39.3001 26.9141 39.2353ZM27.3417 37.7835C27.1215 37.7185 26.9957 37.4875 27.0604 37.2676C27.1252 37.0474 27.3562 36.9216 27.5761 36.9866C27.7962 37.0513 27.9223 37.2821 27.8576 37.5023C27.7926 37.7224 27.5615 37.8485 27.3417 37.7835ZM27.7692 36.3317C27.5491 36.2667 27.423 36.0361 27.488 35.8157C27.5527 35.5956 27.7835 35.4698 28.0036 35.5348C28.2238 35.5995 28.3496 35.8306 28.2849 36.0504C28.2201 36.2708 27.9891 36.3966 27.7692 36.3317ZM28.1965 34.8798C27.9764 34.8151 27.8506 34.5843 27.9153 34.3639C27.9803 34.1438 28.2111 34.018 28.4312 34.083C28.6513 34.1477 28.7771 34.3787 28.7124 34.5986C28.6474 34.8187 28.4166 34.9448 28.1965 34.8798Z" fill="white"/>
<path d="M85.7962 41.5399L83.6634 36.6747L76.7494 39.706L78.9599 44.7477L79.0371 44.9242L81.1701 49.7891L88.0839 46.7581L85.8737 41.7164L85.7962 41.5399Z" fill="#F1F2F2"/>
<path d="M85.1101 40.5803L81.5813 36.61L75.9385 41.6249L79.5954 45.7395L79.7235 45.8837L83.2522 49.8541L88.8948 44.8394L85.2379 40.7246L85.1101 40.5803Z" fill="white"/>
<path d="M80.9523 37.7423L74.3678 41.4354L79.7537 51.038L86.3382 47.3449L80.9523 37.7423Z" fill="#1C75BC"/>
<path d="M83.5479 42.3766L82.0175 43.2348C81.6342 43.0022 80.7297 43.175 79.8174 43.6865C78.9052 44.198 78.2863 44.88 78.2848 45.3283L76.9631 46.0696L77.1518 46.4059L78.4734 45.6646C78.8568 45.897 79.7613 45.7244 80.6733 45.2129C81.5853 44.7014 82.2044 44.0197 82.2057 43.5714L83.736 42.7129L83.5479 42.3766Z" fill="#F5E0CD"/>
<path d="M94.1817 5.47428L97.8248 1.28069L103.784 6.45802L100.009 10.8031L99.8765 10.9552L96.2337 15.1485L90.2748 9.97144L94.0494 5.62632L94.1817 5.47428Z" fill="white"/>
<path d="M100.197 3.19395L91.8334 11.104L97.2571 16.8388L105.621 8.92866L100.197 3.19395Z" fill="#FFCF62"/>
<path d="M96.1663 7.00879L97.4271 8.34159C97.882 8.22879 98.7319 8.68285 99.4825 9.47712C100.234 10.2717 100.64 11.1449 100.502 11.5933L101.591 12.7441L101.297 13.0212L100.209 11.8701C99.7538 11.9831 98.9047 11.5291 98.1533 10.7345C97.4019 9.94001 96.9965 9.06673 97.1342 8.61891L95.8734 7.28585L96.1663 7.00879Z" fill="#754C29"/>
<path d="M24.7095 13.9644L28.56 10.1843L33.932 15.6571L29.9414 19.5739L29.8019 19.7112L25.9511 23.4912L20.5793 18.0187L24.5697 14.1021L24.7095 13.9644Z" fill="#E6E7E8"/>
<path d="M23.4939 16.0699L24.3019 10.735L31.8842 11.8838L31.0465 17.4123L31.0174 17.6057L30.2091 22.9408L22.6268 21.792L23.4645 16.2638L23.4939 16.0699Z" fill="#F1F2F2"/>
<path d="M21.8047 11.2229L21.0208 22.3782L28.6699 22.9158L29.4538 11.7605L21.8047 11.2229Z" fill="#058365"/>
<path d="M29.0501 17.5334L27.2723 17.4084C27.0213 17.7881 26.1152 18.0218 25.0556 17.9469C23.9959 17.8723 23.1317 17.5145 22.9358 17.1035L21.4005 16.9957L21.4281 16.6048L22.9633 16.7124C23.2147 16.3327 24.1202 16.0993 25.1801 16.1739C26.2395 16.2487 27.1036 16.6063 27.2993 17.0175L29.0774 17.1423L29.0501 17.5334Z" fill="#FEC417"/>
<path d="M71.1148 0.12384C71.1148 0.12384 76.4497 1.81453 80.2934 0.51344C75.6972 4.80268 75.6972 4.80268 75.6972 4.80268C75.6972 4.80268 69.0306 6.22384 67.6926 4.26363C70.3858 1.25573 71.1148 0.12384 71.1148 0.12384Z" fill="#F1F2F2"/>
<path d="M54.9475 72.4462C54.9475 72.4462 50.7188 76.1122 46.6744 76.4407C52.5935 78.5576 52.5935 78.5576 52.5935 78.5576C52.5935 78.5576 59.2776 77.2214 59.7295 74.8916C56.0654 73.1968 54.9475 72.4462 54.9475 72.4462Z" fill="white"/>
<path d="M102.91 47.2298C102.987 46.9824 103.175 46.7633 103.563 46.5556C104.345 46.1359 105.175 46.1629 105.739 46.9213C106.561 48.0249 107.152 49.2805 107.95 50.3999C109.298 52.2884 111.356 53.0312 111.485 55.6664C111.645 58.9194 107.618 59.5769 105.154 59.3277C104.26 59.2372 103.357 58.9066 102.747 58.2457C101.556 56.9553 102.442 55.564 102.76 54.1303C103.148 52.384 103.24 50.5766 103.039 48.7997C102.964 48.1418 102.781 47.6457 102.91 47.2298Z" fill="#FFCF62"/>
<path d="M109.157 52.633C109.157 52.633 109.421 51.931 110.39 51.8062C111.361 51.6815 111.884 52.6793 112.308 53.4691C112.733 54.259 113.515 55.7618 111.107 56.4778C110.405 56.4209 109.193 53.551 109.157 52.633Z" fill="#F6931E"/>
<path d="M103.445 54.0562C103.445 54.0562 102.906 53.5351 101.976 53.839C101.046 54.1428 101.002 55.2684 100.958 56.1641C100.914 57.0597 100.852 58.7528 103.335 58.3658C103.945 58.0128 103.806 54.9007 103.445 54.0562Z" fill="#F6931E"/>
<path d="M104.228 28.77C104.151 28.1002 104.301 27.4645 104.681 26.8802C105.489 25.6368 107.268 25.6124 108.237 24.4633C109.518 22.9439 109.949 20.6944 111.726 19.601C114.411 17.9495 117.483 20.9366 117.064 23.7135C116.861 25.0598 115.857 26.1304 114.854 27.0509C113.903 27.9245 112.987 28.4708 111.759 28.8375C110.44 29.231 109.232 28.6431 107.91 28.8461C107.415 28.9223 106.915 28.9706 106.422 29.0637C105.883 29.1653 105.371 29.4785 104.815 29.459C104.711 29.4553 104.606 29.4392 104.513 29.3919C104.358 29.3129 104.292 29.1518 104.261 28.9893C104.248 28.9158 104.237 28.8427 104.228 28.77Z" fill="#024935"/>
<path d="M106.258 28.8401C106.258 29.4805 105.738 29.9998 105.098 29.9998C104.457 29.9998 103.938 29.4805 103.938 28.8401C103.938 28.1997 104.457 27.6804 105.098 27.6804C105.738 27.6804 106.258 28.1995 106.258 28.8401Z" fill="#FAA94D"/>
<path d="M95.1958 40.0559L92.7678 38.0705L91.5158 37.0464C90.9313 36.5479 90.5193 35.8696 90.3485 35.1426L89.1909 28.9449L90.4767 28.6187L92.4013 34.5552C92.5146 34.8331 92.716 35.0607 92.9544 35.2045L94.2453 36.0052L96.9086 37.6619L95.1958 40.0559Z" fill="#FFC9B3"/>
<path d="M90.488 28.6533C90.5036 28.469 90.633 28.2681 90.7858 28.0376C90.883 27.8912 90.941 27.7043 90.9568 27.53C90.9698 27.3875 90.9384 27.2318 90.9878 27.0946C90.9878 27.0946 91.2261 26.6195 91.4764 26.3913C91.7267 26.1631 91.9965 25.9617 91.6989 25.8257C91.401 25.6898 91.0486 25.8595 90.9332 26.0131C90.8178 26.1667 90.4568 26.6382 90.4568 26.6382C90.4568 26.6382 90.3637 26.1054 90.26 25.787C90.0043 25.0008 89.846 24.2926 89.7789 24.0805C89.7119 23.8684 89.4226 23.8245 89.4574 24.3898C89.492 24.9551 89.544 25.7088 89.544 25.7088C89.544 25.7088 88.9589 24.4472 88.8305 23.9326C88.7131 23.4609 88.4074 23.8213 88.4508 24.0888L88.8095 25.7267C88.8095 25.7267 88.0729 24.4391 87.8764 24.2718C87.649 24.0784 87.3465 24.1312 87.6758 24.8041C88.0014 25.4694 88.2915 26.1215 88.2915 26.1215C88.102 25.9131 87.8387 25.6409 87.6646 25.419C87.5793 25.3103 87.4556 25.1955 87.3356 25.1261C87.1359 25.0107 87.1211 25.1638 87.202 25.3223C87.3738 25.6599 87.5749 25.9856 87.7771 26.3058C88.1779 26.9394 88.122 27.741 88.6699 28.3024C88.8324 28.4461 89.2022 29.0086 89.2022 29.0086C89.8702 29.145 90.488 28.6533 90.488 28.6533Z" fill="#FFC9B3"/>
<path d="M111.273 50.816C110.195 50.6546 110.094 49.53 109.91 48.7643C109.746 48.0797 109.373 47.3543 109.873 46.7155C111.757 44.3022 114.112 51.2404 111.273 50.816Z" fill="#FFC9B3"/>
<path d="M82.8976 74.9093C82.5132 73.3031 80.4851 73.9001 79.687 74.7682C78.7848 75.7491 78.147 77.2683 77.7317 78.5246C77.4273 79.446 77.464 81.3129 78.9436 80.6439C80.1153 80.1158 80.5974 78.5376 81.414 77.6241C81.8327 77.1547 82.4399 76.6268 82.7177 76.002C82.9017 75.6485 82.9849 75.275 82.8976 74.9093Z" fill="#66413D"/>
<path d="M115.89 84.3073C116.629 82.8302 118.469 83.8712 119.049 84.8975C119.706 86.0575 119.982 87.6816 120.102 88.9994C120.19 89.9657 119.731 91.7757 118.441 90.7888C117.42 90.0089 117.308 88.3623 116.72 87.2876C116.419 86.7356 115.947 86.0837 115.818 85.4121C115.719 85.0264 115.722 84.6436 115.89 84.3073Z" fill="#66413D"/>
<path d="M79.983 75.9679C79.7655 76.6978 79.7501 77.2025 79.7959 77.5331C79.8406 77.8575 80.2005 78.037 80.4859 77.8764C81.4377 77.3408 82.8077 75.8146 82.8422 75.7226C82.4134 72.8758 80.2723 74.9977 79.983 75.9679Z" fill="#FFC9B3"/>
<path d="M115.752 84.2285C115.752 84.2285 115.738 84.6181 115.905 85.0387C116.104 85.538 116.988 87.3934 117.878 87.9249C118.765 87.8867 118.602 86.1287 118.555 85.553C118.436 84.0926 117.027 83.5725 117.027 83.5725L116.04 83.8543L115.752 84.2285Z" fill="#FFC9B3"/>
<path d="M109.679 74.4709C109.298 73.0684 109.273 71.8001 109.215 70.3628C109.182 69.5498 109.144 68.7373 109.098 67.9257C108.964 65.5769 108.756 63.2302 108.425 60.9006C108.411 60.805 107.922 57.0296 107.922 57.0296C107.922 57.0296 102.973 56.1519 102.989 56.0705L97.3526 54.2717C97.245 54.2338 96.2706 56.2031 96.2259 56.2889C96.1241 56.4838 96.0281 56.6813 95.9283 56.8773C95.663 57.3087 95.4558 57.8124 95.4007 57.9237C94.6348 59.4888 93.9221 61.0805 93.2479 62.687C92.9334 63.4363 92.627 64.1898 92.3253 64.9453C91.7904 66.2815 91.3439 67.4682 90.5174 68.663C89.4377 70.2222 81.1132 73.0203 81.1132 75.2987C81.8331 76.4981 82.8719 76.0321 82.8719 76.0321C82.8719 76.0321 90.6367 74.5395 92.7957 72.2606C95.3812 69.5314 98.0216 66.7018 100.167 63.6258C100.472 63.1889 100.751 62.7343 101.007 62.2672C101.145 62.0167 101.22 61.7357 101.364 61.4875C101.417 61.396 101.513 61.1933 101.631 61.1668C101.886 61.1091 101.784 61.3872 101.768 61.5637C101.626 63.1577 101.841 64.9767 102.262 66.5032C103.258 70.1187 104.804 73.667 106.331 77.1019C107.606 79.9702 115.35 84.7585 115.35 84.7585C115.35 84.7585 116.174 85.5437 117.252 84.6532C118.071 80.6756 110.177 76.3004 109.679 74.4709Z" fill="#02684D"/>
<path d="M107.432 59.029C107.42 59.029 107.408 59.0207 107.405 59.0082C107.388 58.9373 107.369 58.8661 107.35 58.7959C107.346 58.7806 107.355 58.766 107.37 58.7616C107.384 58.7574 107.4 58.7663 107.403 58.7814C107.422 58.8526 107.44 58.9235 107.459 58.9947C107.462 59.0093 107.453 59.0244 107.439 59.0283C107.436 59.0288 107.434 59.029 107.432 59.029Z" fill="#1B9B77"/>
<path d="M117.081 84.0726C117.068 84.0726 117.056 84.064 117.054 84.0503C117.028 83.9159 116.991 83.774 116.944 83.6289C116.939 83.6141 116.947 83.5985 116.961 83.5941C116.976 83.59 116.991 83.5978 116.996 83.6118C117.043 83.7592 117.081 83.9037 117.108 84.0401C117.111 84.0549 117.101 84.069 117.086 84.0724C117.085 84.0724 117.082 84.0726 117.081 84.0726ZM116.815 83.2362C116.804 83.2362 116.794 83.23 116.789 83.2196C116.735 83.0915 116.672 82.9576 116.604 82.823C116.597 82.8092 116.603 82.7928 116.616 82.7861C116.63 82.7788 116.646 82.7848 116.653 82.798C116.722 82.9342 116.785 83.0691 116.84 83.1983C116.846 83.2123 116.839 83.2284 116.825 83.2344C116.822 83.2357 116.818 83.2362 116.815 83.2362ZM116.419 82.4505C116.41 82.4505 116.401 82.4456 116.396 82.437C116.325 82.3136 116.248 82.1875 116.169 82.0609C116.161 82.0482 116.164 82.031 116.177 82.0232C116.19 82.0152 116.207 82.0186 116.215 82.0316C116.295 82.1587 116.372 82.2858 116.443 82.4092C116.451 82.4227 116.446 82.4394 116.433 82.4466C116.429 82.4498 116.424 82.4505 116.419 82.4505ZM115.95 81.7069C115.941 81.7069 115.932 81.7023 115.927 81.6947C115.846 81.5757 115.76 81.4548 115.673 81.3358C115.664 81.3233 115.667 81.3062 115.679 81.2973C115.691 81.2888 115.708 81.2911 115.717 81.3036C115.805 81.4231 115.891 81.5442 115.972 81.6635C115.981 81.676 115.978 81.6932 115.965 81.7017C115.96 81.7051 115.955 81.7069 115.95 81.7069ZM115.431 80.9945C115.423 80.9945 115.415 80.9909 115.409 80.9841C115.322 80.8711 115.23 80.7552 115.137 80.6392C115.127 80.6275 115.129 80.6101 115.141 80.6003C115.152 80.5909 115.17 80.5927 115.179 80.6047C115.273 80.7209 115.365 80.8373 115.453 80.9503C115.462 80.9626 115.46 80.9795 115.448 80.9888C115.443 80.993 115.437 80.9945 115.431 80.9945ZM114.877 80.311C114.87 80.311 114.862 80.3073 114.856 80.3011C114.76 80.1873 114.664 80.0763 114.568 79.9689C114.558 79.9575 114.559 79.9401 114.57 79.9297C114.582 79.9201 114.599 79.9214 114.609 79.932C114.705 80.0404 114.802 80.1519 114.898 80.2655C114.908 80.2772 114.907 80.2946 114.895 80.3047C114.89 80.3084 114.883 80.311 114.877 80.311ZM114.294 79.6511C114.286 79.6511 114.279 79.6482 114.273 79.6425C114.171 79.5307 114.07 79.4239 113.972 79.3218C113.962 79.3106 113.962 79.2932 113.973 79.2831C113.984 79.2724 114.002 79.2727 114.012 79.2838C114.11 79.386 114.211 79.4933 114.314 79.6051C114.324 79.6163 114.324 79.6334 114.312 79.6435C114.307 79.649 114.3 79.6511 114.294 79.6511ZM113.684 79.0159C113.677 79.0159 113.67 79.013 113.664 79.0081C113.559 78.9023 113.454 78.8009 113.355 78.7063L113.349 78.7009C113.339 78.6897 113.339 78.6725 113.349 78.6616C113.36 78.6517 113.377 78.6517 113.388 78.6616L113.392 78.6658C113.493 78.7619 113.598 78.8636 113.704 78.9693C113.714 78.9797 113.714 78.9974 113.704 79.0083C113.698 79.013 113.691 79.0159 113.684 79.0159ZM113.045 78.4105C113.038 78.4105 113.031 78.4082 113.026 78.4038C112.917 78.3063 112.807 78.2094 112.696 78.1135C112.685 78.1039 112.683 78.0862 112.693 78.075C112.703 78.0633 112.721 78.0618 112.732 78.0719C112.843 78.1681 112.954 78.2647 113.063 78.3627C113.074 78.3731 113.075 78.3903 113.065 78.4012C113.06 78.4074 113.052 78.4105 113.045 78.4105ZM112.38 77.8341C112.373 77.8341 112.367 77.832 112.362 77.8278L112.025 77.5443C112.014 77.5347 112.013 77.5175 112.022 77.5056C112.032 77.4939 112.049 77.4928 112.061 77.5024L112.398 77.7857C112.409 77.7959 112.411 77.813 112.401 77.8245C112.395 77.8312 112.388 77.8341 112.38 77.8341ZM111.707 77.2672C111.701 77.2672 111.695 77.2651 111.689 77.2607C111.578 77.1656 111.466 77.0702 111.356 76.9738C111.344 76.9636 111.343 76.9465 111.353 76.9351C111.363 76.9234 111.38 76.9221 111.392 76.9325C111.502 77.0286 111.613 77.1243 111.725 77.2189C111.737 77.2288 111.738 77.2456 111.728 77.2576C111.723 77.2638 111.715 77.2672 111.707 77.2672ZM111.045 76.6881C111.038 76.6881 111.032 76.6853 111.027 76.6811C110.915 76.5787 110.806 76.4776 110.705 76.3802C110.694 76.3692 110.694 76.3524 110.704 76.3412C110.715 76.3303 110.732 76.33 110.743 76.3407C110.844 76.4379 110.952 76.5387 111.064 76.6403C111.075 76.6507 111.076 76.6679 111.066 76.679C111.06 76.6848 111.052 76.6881 111.045 76.6881ZM110.413 76.0771C110.405 76.0771 110.398 76.074 110.393 76.0685C110.289 75.9609 110.188 75.852 110.094 75.7444C110.084 75.733 110.085 75.7158 110.096 75.706C110.108 75.6956 110.125 75.6969 110.135 75.708C110.229 75.8149 110.329 75.9232 110.433 76.0303C110.443 76.041 110.443 76.0589 110.432 76.0693C110.427 76.0742 110.419 76.0771 110.413 76.0771ZM109.835 75.4143C109.827 75.4143 109.819 75.4102 109.813 75.4029C109.725 75.2859 109.641 75.1633 109.563 75.0388C109.555 75.0258 109.559 75.0089 109.572 75.0011C109.585 74.993 109.602 74.9964 109.61 75.0094C109.686 75.1329 109.769 75.2542 109.857 75.3699C109.866 75.3821 109.864 75.3993 109.852 75.4084C109.847 75.4125 109.841 75.4143 109.835 75.4143ZM109.371 74.6692C109.361 74.6692 109.351 74.6635 109.346 74.6544C109.281 74.526 109.219 74.3908 109.162 74.2531C109.157 74.2385 109.163 74.2229 109.177 74.2172C109.192 74.211 109.208 74.2183 109.213 74.2323C109.27 74.369 109.331 74.5029 109.395 74.6294C109.402 74.6435 109.397 74.6598 109.383 74.6663C109.379 74.6682 109.375 74.6692 109.371 74.6692ZM109.037 73.8575C109.025 73.8575 109.014 73.8502 109.01 73.8385C108.966 73.7034 108.924 73.5615 108.886 73.4149C108.882 73.4001 108.892 73.3855 108.906 73.3811C108.921 73.3769 108.936 73.386 108.94 73.4011C108.977 73.5459 109.019 73.6873 109.063 73.8214C109.067 73.8354 109.059 73.8513 109.045 73.8559C109.042 73.8572 109.039 73.8575 109.037 73.8575ZM108.815 73.0071C108.801 73.0071 108.79 72.9977 108.788 72.9845C108.76 72.8467 108.733 72.7009 108.71 72.551C108.707 72.5356 108.717 72.5218 108.732 72.5195C108.747 72.5169 108.761 72.5273 108.764 72.5421C108.788 72.6916 108.814 72.8369 108.842 72.9741C108.844 72.9889 108.835 73.0032 108.82 73.0063C108.818 73.0068 108.816 73.0071 108.815 73.0071ZM108.675 72.1385C108.661 72.1385 108.649 72.1283 108.647 72.1143C108.631 71.9776 108.614 71.8344 108.599 71.6769C108.597 71.6618 108.608 71.648 108.623 71.647C108.637 71.6418 108.652 71.6564 108.653 71.6714C108.669 71.8289 108.685 71.9716 108.702 72.1081C108.704 72.1226 108.693 72.1367 108.678 72.1387C108.677 72.1385 108.676 72.1385 108.675 72.1385ZM108.585 71.2636C108.571 71.2636 108.559 71.253 108.558 71.2384C108.549 71.1394 108.542 71.0401 108.534 70.9401L108.522 70.8002C108.521 70.7854 108.533 70.7719 108.548 70.7709C108.564 70.7698 108.576 70.781 108.577 70.7958L108.589 70.9359C108.596 71.0352 108.605 71.1347 108.613 71.234C108.614 71.2491 108.603 71.2621 108.588 71.2636C108.587 71.2636 108.586 71.2636 108.585 71.2636ZM108.518 70.387C108.503 70.387 108.492 70.3758 108.491 70.3618C108.481 70.2149 108.471 70.0688 108.462 69.9228C108.461 69.9072 108.473 69.895 108.488 69.8934C108.504 69.8952 108.516 69.9043 108.517 69.9191C108.526 70.0655 108.536 70.2115 108.546 70.3579C108.546 70.3727 108.535 70.3857 108.52 70.3867C108.52 70.3867 108.519 70.387 108.518 70.387ZM108.464 69.5098C108.449 69.5098 108.437 69.4986 108.437 69.4841C108.428 69.3377 108.421 69.1914 108.413 69.0453C108.412 69.03 108.424 69.0173 108.439 69.0162C108.455 69.0178 108.467 69.0274 108.468 69.0422C108.475 69.188 108.483 69.3346 108.491 69.4809C108.492 69.4958 108.48 69.509 108.465 69.5098C108.465 69.5098 108.464 69.5098 108.464 69.5098ZM108.42 68.6321C108.405 68.6321 108.393 68.6206 108.392 68.6058C108.385 68.459 108.378 68.3129 108.372 68.1669C108.371 68.1515 108.383 68.1388 108.398 68.138C108.414 68.1383 108.427 68.1492 108.427 68.1643C108.434 68.3101 108.441 68.4572 108.447 68.6032C108.448 68.6183 108.436 68.6313 108.421 68.6321C108.42 68.6321 108.42 68.6321 108.42 68.6321ZM108.381 67.7536C108.365 67.7536 108.354 67.7422 108.353 67.7274L108.334 67.2884C108.334 67.2736 108.345 67.2606 108.361 67.26C108.361 67.26 108.361 67.26 108.362 67.26C108.377 67.26 108.389 67.2717 108.389 67.286L108.408 67.7253C108.408 67.7403 108.396 67.7531 108.381 67.7536H108.381ZM108.343 66.8756C108.328 66.8756 108.316 66.8639 108.316 66.8494L108.297 66.4107C108.296 66.3953 108.308 66.3826 108.323 66.3818C108.338 66.3803 108.351 66.393 108.351 66.4081L108.371 66.847C108.371 66.8624 108.359 66.8751 108.344 66.8756H108.343ZM108.304 65.9974C108.289 65.9974 108.277 65.986 108.277 65.9714C108.27 65.8251 108.262 65.6783 108.254 65.5327C108.254 65.5174 108.266 65.5046 108.28 65.5038C108.281 65.5038 108.282 65.5038 108.282 65.5038C108.297 65.5038 108.309 65.5153 108.31 65.5296C108.317 65.6759 108.324 65.8222 108.332 65.9688C108.332 65.9839 108.321 65.9966 108.305 65.9974H108.304ZM108.258 65.1197C108.244 65.1197 108.231 65.1083 108.231 65.0937C108.222 64.9474 108.213 64.8013 108.205 64.6555C108.203 64.6402 108.215 64.6272 108.23 64.6261C108.246 64.6285 108.258 64.6368 108.259 64.6521C108.268 64.7982 108.277 64.9445 108.286 65.0911C108.286 65.1059 108.275 65.1192 108.26 65.12C108.259 65.1197 108.259 65.1197 108.258 65.1197ZM108.202 64.242C108.187 64.242 108.176 64.2313 108.175 64.2165C108.164 64.0707 108.153 63.9241 108.142 63.7786C108.14 63.7633 108.152 63.75 108.167 63.749C108.182 63.7484 108.195 63.7594 108.197 63.7739C108.208 63.9202 108.219 64.066 108.23 64.2126C108.231 64.2277 108.22 64.241 108.205 64.2417C108.203 64.242 108.203 64.242 108.202 64.242ZM108.132 63.3659C108.118 63.3659 108.106 63.3552 108.105 63.3409C108.092 63.1954 108.078 63.0493 108.063 62.9037C108.061 62.8887 108.072 62.8754 108.088 62.8739C108.089 62.8736 108.089 62.8736 108.09 62.8736C108.105 62.8736 108.116 62.884 108.118 62.8985C108.133 63.0444 108.146 63.1902 108.16 63.3365C108.161 63.351 108.149 63.3643 108.134 63.3659C108.134 63.3659 108.133 63.3659 108.132 63.3659ZM108.043 62.491C108.029 62.491 108.017 62.4804 108.016 62.4666C108 62.321 107.982 62.1758 107.964 62.0305C107.962 62.0156 107.973 62.0016 107.988 62.0001C108.001 61.9962 108.016 62.0086 108.018 62.0237C108.037 62.1693 108.054 62.3151 108.071 62.4606C108.072 62.4754 108.062 62.4889 108.046 62.4908C108.045 62.491 108.044 62.491 108.043 62.491ZM107.932 61.6188C107.919 61.6188 107.908 61.6089 107.905 61.5949C107.885 61.4498 107.864 61.3051 107.841 61.1606C107.839 61.1457 107.849 61.1312 107.864 61.1291C107.882 61.1249 107.893 61.1369 107.895 61.1517C107.918 61.297 107.94 61.442 107.96 61.5873C107.962 61.6021 107.951 61.6164 107.937 61.6185C107.935 61.6188 107.934 61.6188 107.932 61.6188ZM107.796 60.7502C107.783 60.7502 107.771 60.7408 107.769 60.7273C107.744 60.583 107.718 60.4388 107.69 60.2945C107.687 60.28 107.697 60.2654 107.712 60.2626C107.726 60.2605 107.741 60.2696 107.744 60.2847C107.772 60.4287 107.798 60.5729 107.823 60.7179C107.826 60.7327 107.816 60.747 107.801 60.7496C107.799 60.7499 107.798 60.7502 107.796 60.7502ZM107.63 59.8857C107.618 59.8857 107.606 59.8774 107.603 59.8639C107.573 59.7209 107.542 59.5777 107.508 59.435C107.505 59.4205 107.514 59.4057 107.529 59.4018C107.545 59.3989 107.559 59.4077 107.562 59.4226C107.595 59.566 107.627 59.7095 107.657 59.853C107.661 59.8675 107.652 59.8821 107.636 59.8852C107.634 59.8855 107.632 59.8857 107.63 59.8857Z" fill="#1B9B77"/>
<path d="M117.119 84.7283C117.119 84.7283 117.117 84.7283 117.116 84.7283C117.101 84.727 117.09 84.7135 117.092 84.6982C117.099 84.6304 117.102 84.5578 117.101 84.4827C117.101 84.4674 117.113 84.4552 117.128 84.4549H117.128C117.143 84.4549 117.155 84.4669 117.155 84.4817C117.157 84.5591 117.154 84.6337 117.146 84.7042C117.146 84.7182 117.134 84.7283 117.119 84.7283Z" fill="#1B9B77"/>
<path d="M96.9956 56.4778C96.9904 56.4778 96.9844 56.476 96.9797 56.4726C96.9673 56.4643 96.9639 56.4466 96.9727 56.4347C97.0146 56.3741 97.0567 56.3141 97.0993 56.2538C97.1081 56.2416 97.1258 56.2385 97.1378 56.2475C97.1502 56.2564 97.1528 56.2733 97.144 56.2858C97.1014 56.3455 97.0595 56.4056 97.018 56.4661C97.0125 56.4734 97.0042 56.4778 96.9956 56.4778Z" fill="#1B9B77"/>
<path d="M81.6855 75.0432C81.68 75.0432 81.6754 75.0419 81.6707 75.039C81.6579 75.0307 81.6543 75.0136 81.6624 75.0011C81.7362 74.886 81.8243 74.7669 81.9241 74.6476C81.9334 74.6362 81.9509 74.6341 81.9623 74.6442C81.9742 74.6539 81.9761 74.6713 81.9659 74.6827C81.8679 74.8005 81.7811 74.9174 81.7091 75.0305C81.7037 75.0385 81.6948 75.0432 81.6855 75.0432ZM82.2401 74.3708C82.2331 74.3708 82.2261 74.3682 82.2209 74.363C82.21 74.3524 82.2097 74.335 82.2209 74.324C82.3191 74.225 82.4267 74.1247 82.5408 74.0246C82.552 74.014 82.5694 74.0158 82.5796 74.027C82.5894 74.0387 82.5884 74.0558 82.577 74.0654C82.4634 74.165 82.3566 74.2653 82.2594 74.3628C82.2544 74.3682 82.2474 74.3708 82.2401 74.3708ZM82.8946 73.7936C82.8865 73.7936 82.8782 73.7899 82.873 73.7832C82.8639 73.7712 82.8657 73.7538 82.8774 73.7444C82.9879 73.6571 83.1054 73.5685 83.2267 73.4804C83.239 73.4718 83.2558 73.4739 83.2649 73.4864C83.2738 73.4988 83.2712 73.516 83.259 73.5251C83.1384 73.6124 83.0214 73.7008 82.9112 73.7876C82.9068 73.7915 82.9008 73.7936 82.8946 73.7936ZM83.601 73.2803C83.5922 73.2803 83.5838 73.2761 83.5781 73.268C83.5698 73.2558 83.5729 73.2387 83.5857 73.2301C83.7037 73.1511 83.8274 73.0713 83.9527 72.992C83.9654 72.9832 83.9823 72.9873 83.9906 73.0006C83.9981 73.0133 83.9945 73.0302 83.9815 73.0385C83.8567 73.1173 83.7338 73.1968 83.6161 73.2758C83.6119 73.2792 83.6067 73.2803 83.601 73.2803ZM84.3402 72.8153C84.3308 72.8153 84.3217 72.8101 84.3165 72.8015C84.3087 72.7883 84.3129 72.7716 84.3261 72.7638C84.4493 72.6908 84.5767 72.6172 84.7051 72.5452C84.7186 72.538 84.735 72.5426 84.7428 72.5559C84.75 72.5694 84.7454 72.5861 84.7321 72.5936C84.6045 72.6651 84.4774 72.7384 84.3542 72.8111C84.3501 72.8142 84.3454 72.8153 84.3402 72.8153ZM85.102 72.3885C85.0923 72.3885 85.0827 72.3828 85.0778 72.3734C85.0708 72.3602 85.0755 72.3436 85.089 72.336C85.2142 72.2695 85.345 72.2016 85.4778 72.1351C85.4916 72.1281 85.5079 72.1338 85.5144 72.1476C85.5215 72.1611 85.516 72.1775 85.5022 72.1842C85.3702 72.2508 85.2397 72.3183 85.115 72.3849C85.1111 72.3875 85.1064 72.3885 85.102 72.3885ZM85.8825 71.9953C85.8723 71.9953 85.8619 71.9896 85.8575 71.9797C85.851 71.9657 85.8567 71.9498 85.8708 71.9428C86.0083 71.877 86.1421 71.8157 86.2679 71.7593C86.2812 71.7538 86.2981 71.759 86.3043 71.7736C86.3105 71.7874 86.3043 71.8035 86.2903 71.8097C86.165 71.8658 86.0319 71.9274 85.8942 71.9929C85.8903 71.9945 85.8861 71.9953 85.8825 71.9953ZM86.6799 71.6395C86.6689 71.6395 86.6591 71.6335 86.6541 71.6228C86.6487 71.6088 86.6552 71.5927 86.6689 71.5867C86.8041 71.5295 86.9379 71.4726 87.07 71.4157C87.085 71.41 87.1004 71.4162 87.1064 71.43C87.1123 71.4443 87.1061 71.4601 87.0918 71.4664C86.959 71.5236 86.8259 71.5807 86.6905 71.6374C86.6871 71.6387 86.6835 71.6395 86.6799 71.6395ZM87.4806 71.2946C87.47 71.2946 87.4601 71.2883 87.4557 71.2779C87.4494 71.2639 87.4559 71.2478 87.4697 71.2413C87.603 71.1826 87.7353 71.1233 87.8676 71.0633C87.8814 71.0575 87.8975 71.0633 87.9045 71.0773C87.9105 71.0913 87.9045 71.1074 87.8902 71.1139C87.7582 71.1735 87.6257 71.233 87.4921 71.2917C87.4884 71.2938 87.4845 71.2946 87.4806 71.2946ZM88.2759 70.9346C88.2653 70.9346 88.2557 70.9289 88.251 70.9187C88.2445 70.9047 88.2502 70.8886 88.2642 70.8818C88.3955 70.8205 88.527 70.7584 88.6583 70.6957C88.6715 70.689 88.6879 70.6947 88.6949 70.7087C88.7014 70.7223 88.696 70.7386 88.6819 70.7451C88.5509 70.8083 88.4194 70.8704 88.2874 70.932C88.2837 70.9338 88.2796 70.9346 88.2759 70.9346ZM89.0619 70.5562C89.0518 70.5562 89.0419 70.5505 89.0372 70.5408C89.0304 70.5276 89.0359 70.511 89.0499 70.5037C89.1794 70.4395 89.3091 70.374 89.4385 70.3069C89.4518 70.3007 89.4689 70.3048 89.4759 70.3189C89.4827 70.3327 89.4775 70.3488 89.4642 70.3561C89.3338 70.4228 89.2041 70.4883 89.0744 70.5531C89.07 70.5554 89.0661 70.5562 89.0619 70.5562ZM89.8382 70.157C89.8284 70.157 89.8187 70.1515 89.8141 70.1421C89.8068 70.1286 89.8115 70.1123 89.8252 70.1047C89.9523 70.0366 90.08 69.9678 90.2086 69.8971C90.2219 69.8895 90.2385 69.8945 90.2463 69.9077C90.2536 69.9212 90.2489 69.9379 90.2354 69.9454C90.1067 70.0164 89.9791 70.0855 89.8515 70.1536C89.8473 70.1557 89.8421 70.157 89.8382 70.157ZM90.5927 69.7198C90.5847 69.7198 90.5759 69.7159 90.5704 69.7081C90.5618 69.6954 90.5647 69.6787 90.5772 69.6696C90.6938 69.5883 90.8082 69.4973 90.9158 69.4012C90.9272 69.3908 90.9447 69.3915 90.9545 69.4032C90.9647 69.4142 90.9636 69.4316 90.9522 69.442C90.843 69.5399 90.7274 69.6317 90.6086 69.7149C90.6039 69.7182 90.5982 69.7198 90.5927 69.7198ZM91.2412 69.1397C91.2347 69.1397 91.2282 69.1374 91.223 69.1332C91.2113 69.1228 91.2105 69.1054 91.2204 69.0942C91.3127 68.99 91.4031 68.8759 91.4897 68.755C91.4983 68.7431 91.5157 68.7397 91.5279 68.7488C91.5404 68.7576 91.5432 68.775 91.5341 68.7873C91.4471 68.9097 91.3553 69.0248 91.2617 69.1306C91.2565 69.1363 91.2485 69.1397 91.2412 69.1397ZM91.7506 68.4338C91.7454 68.4338 91.741 68.4322 91.7361 68.4296C91.7231 68.4216 91.7192 68.4047 91.727 68.3917C91.7974 68.2739 91.8668 68.1492 91.9383 68.012C91.9456 67.9979 91.9625 67.9935 91.9755 68C91.9892 68.007 91.9944 68.0237 91.9874 68.0372C91.9154 68.1757 91.8458 68.3007 91.7745 68.42C91.7691 68.4288 91.7597 68.4338 91.7506 68.4338ZM92.1558 67.6611C92.1519 67.6611 92.148 67.6606 92.1439 67.6585C92.1303 67.652 92.1246 67.6354 92.1309 67.6216C92.1925 67.4916 92.2525 67.3591 92.3125 67.2255C92.3183 67.2112 92.3349 67.206 92.3487 67.2114C92.3627 67.2174 92.3687 67.2343 92.3627 67.2476C92.3027 67.3822 92.2426 67.5148 92.181 67.6452C92.1761 67.6554 92.1662 67.6611 92.1558 67.6611ZM92.515 66.8658C92.5116 66.8658 92.5077 66.865 92.5038 66.8634C92.4898 66.8572 92.4838 66.8408 92.4898 66.827C92.5488 66.6953 92.6086 66.5625 92.6702 66.4294C92.6767 66.4151 92.6925 66.4096 92.7071 66.4159C92.7206 66.4221 92.7263 66.4387 92.7203 66.4525C92.6587 66.5853 92.599 66.7181 92.5402 66.8494C92.5361 66.8598 92.5257 66.8658 92.515 66.8658ZM92.8791 66.0725C92.875 66.0725 92.8713 66.072 92.8675 66.0702C92.8537 66.0637 92.8477 66.0476 92.8537 66.0335C92.914 65.9012 92.9727 65.7684 93.0299 65.6359C93.0361 65.6216 93.052 65.6156 93.0665 65.6213C93.0803 65.6273 93.0868 65.6437 93.0811 65.658C93.0234 65.7911 92.9644 65.9236 92.9041 66.0567C92.8994 66.0668 92.8895 66.0725 92.8791 66.0725ZM93.2246 65.2731C93.2212 65.2731 93.2178 65.272 93.2139 65.2707C93.1999 65.2647 93.1934 65.2492 93.1991 65.2346C93.2547 65.1002 93.309 64.9656 93.362 64.831C93.3678 64.8169 93.3841 64.8102 93.3977 64.8151C93.4122 64.8208 93.419 64.8369 93.4135 64.8515C93.3602 64.9864 93.3059 65.121 93.25 65.2559C93.2459 65.2666 93.2355 65.2731 93.2246 65.2731ZM93.5455 64.4627C93.5419 64.4627 93.5388 64.4619 93.5359 64.4608C93.5216 64.4554 93.5144 64.4398 93.5195 64.4252C93.5715 64.2891 93.6225 64.1534 93.6729 64.0177C93.6781 64.0029 93.6945 63.9967 93.7082 64.0013C93.7228 64.0068 93.7303 64.0219 93.7249 64.0364C93.6745 64.1729 93.6233 64.3083 93.5718 64.445C93.5671 64.4556 93.5567 64.4627 93.5455 64.4627ZM93.8481 63.645C93.845 63.645 93.8418 63.6447 93.839 63.6434C93.8247 63.638 93.8171 63.6226 93.8226 63.6081C93.8717 63.4714 93.9203 63.3344 93.9689 63.1977C93.9744 63.1834 93.99 63.1759 94.0043 63.1808C94.0186 63.1865 94.0261 63.2019 94.0209 63.2167C93.9728 63.3531 93.9234 63.4901 93.8743 63.6271C93.8704 63.6383 93.8592 63.645 93.8481 63.645ZM94.1394 62.8234C94.1366 62.8234 94.1337 62.8232 94.1309 62.8216C94.116 62.8164 94.1085 62.8011 94.114 62.7865L94.2582 62.3751C94.2631 62.3605 94.2787 62.353 94.2928 62.3582C94.3076 62.3634 94.3151 62.379 94.3097 62.3933L94.1657 62.805C94.1615 62.8164 94.1511 62.8234 94.1394 62.8234ZM94.4282 61.9998C94.4251 61.9998 94.4222 61.9998 94.4191 61.9988C94.4048 61.9933 94.3973 61.9777 94.4025 61.9632C94.4505 61.8259 94.4986 61.689 94.5475 61.552C94.5529 61.5377 94.5683 61.5304 94.5828 61.5353C94.5971 61.5405 94.6047 61.5561 94.5997 61.5707C94.5511 61.7071 94.5028 61.8446 94.4547 61.9819C94.45 61.993 94.4396 61.9998 94.4282 61.9998ZM94.7208 61.1782C94.7175 61.1782 94.7149 61.1782 94.7115 61.1767C94.6972 61.1715 94.6902 61.1556 94.6948 61.1413C94.7447 61.0046 94.7949 60.8679 94.8456 60.7317C94.8511 60.7177 94.8666 60.7107 94.8812 60.7156C94.8952 60.7211 94.9025 60.7366 94.8973 60.7515C94.8466 60.8866 94.7965 61.0236 94.7468 61.16C94.7427 61.1717 94.7323 61.1782 94.7208 61.1782ZM95.026 60.3611C95.0223 60.3611 95.0195 60.3603 95.0158 60.3587C95.0018 60.3535 94.995 60.3377 95.0005 60.3234C95.0525 60.1875 95.106 60.0521 95.1601 59.9172C95.1655 59.9029 95.1811 59.8966 95.1959 59.9018C95.2102 59.9076 95.2167 59.9237 95.211 59.9377C95.157 60.0726 95.1039 60.208 95.0517 60.3437C95.0478 60.3543 95.0369 60.3611 95.026 60.3611ZM95.3519 59.5515C95.348 59.5515 95.3446 59.551 95.3412 59.5494C95.3269 59.5437 95.3207 59.5276 95.3262 59.5133C95.3826 59.3789 95.4405 59.2456 95.4995 59.1122C95.5052 59.0979 95.5213 59.0917 95.5362 59.0979C95.5499 59.1039 95.5564 59.1203 95.5502 59.1343C95.4909 59.2677 95.4338 59.4007 95.3774 59.5348C95.3727 59.5455 95.3626 59.5515 95.3519 59.5515ZM95.7056 58.7536C95.702 58.7536 95.6978 58.753 95.6942 58.7512C95.6804 58.7447 95.6744 58.7281 95.6807 58.7143C95.7428 58.581 95.8067 58.4487 95.8707 58.3206C95.8774 58.3068 95.8943 58.3013 95.9076 58.3081C95.9213 58.3151 95.9271 58.3317 95.9203 58.3453C95.8569 58.4726 95.793 58.6049 95.7308 58.7374C95.7259 58.7478 95.716 58.7536 95.7056 58.7536ZM96.0944 57.9718C96.09 57.9718 96.0856 57.9707 96.0815 57.9689C96.0682 57.9616 96.0627 57.945 96.07 57.9315C96.1381 57.8026 96.2085 57.6731 96.2798 57.5471C96.2873 57.5338 96.3039 57.5294 96.3174 57.5369C96.3307 57.5445 96.3351 57.5614 96.3278 57.5746C96.2574 57.6999 96.1865 57.8286 96.1189 57.9577C96.1137 57.9663 96.1043 57.9718 96.0944 57.9718ZM96.523 57.2113C96.5183 57.2113 96.5134 57.2097 96.509 57.2074C96.4957 57.1991 96.4918 57.1827 96.4996 57.1694C96.5735 57.0455 96.6517 56.9207 96.7304 56.7983C96.7385 56.785 96.7562 56.7824 96.7686 56.79C96.7814 56.7983 96.7853 56.8152 96.777 56.8279C96.6982 56.9498 96.621 57.0743 96.5469 57.1978C96.542 57.2066 96.5324 57.2113 96.523 57.2113Z" fill="#1B9B77"/>
<path d="M81.4095 75.6426C81.4067 75.6426 81.4043 75.6423 81.4023 75.6418C81.3875 75.6379 81.3786 75.6228 81.3825 75.608C81.4007 75.5399 81.4246 75.4692 81.454 75.3967C81.4592 75.3821 81.475 75.3759 81.4901 75.3813C81.5039 75.3868 81.5107 75.4027 81.5055 75.4172C81.4774 75.4874 81.454 75.556 81.4361 75.622C81.4324 75.6348 81.4215 75.6426 81.4095 75.6426Z" fill="#1B9B77"/>
<path d="M108.358 39.3775C105.623 38.538 103.757 39.1473 100.98 38.589C98.2181 38.0338 98.1744 38.0255 95.8649 36.5568C95.8649 36.5568 94.6259 38.2844 94.1898 39.6528C94.1898 39.6528 95.9775 40.8774 96.9061 41.8019C98.2914 43.1813 98.0544 47.1846 97.5824 50.4194C97.507 50.9356 97.3552 51.4502 97.1956 51.9651C97.1956 51.9651 96.1004 56.0503 95.395 56.7868C95.395 56.7868 97.9964 56.7497 100.257 57.2687C100.749 57.42 101.243 57.5793 101.749 57.7313C104.143 58.7325 106.965 59.0852 108.879 58.1784C108.902 58.1701 108.152 54.4703 108.116 54.1303C107.953 52.5652 107.88 50.9907 107.896 49.4172C107.91 48.0275 108.105 46.7992 108.392 45.4783C108.788 46.2869 109.07 47.1552 109.187 48.047C111.026 48.4283 112.498 47.1233 112.498 47.1233C112.077 45.012 109.843 40.0559 108.358 39.3775Z" fill="#F6931E"/>
<path d="M110.39 49.0294C110.718 48.5595 110.99 47.9563 111.308 47.4414C111.629 46.9213 111.939 46.3929 112.239 45.8588C112.54 45.325 112.826 44.7831 113.1 44.2352C113.377 43.6881 113.628 43.1314 113.873 42.5697L115.241 43.0516C115.066 43.6678 114.883 44.2822 114.673 44.8852C114.467 45.4895 114.247 46.0886 114.011 46.6806C113.777 47.2732 113.531 47.8611 113.272 48.4436C113.011 49.0294 112.747 49.5968 112.447 50.1886L110.39 49.0294Z" fill="#FFC9B3"/>
<path d="M115.332 42.9567C115.969 42.1297 116.463 41.2223 116.541 40.5141C116.618 39.8058 115.376 38.8879 114.652 38.6747C113.928 38.4616 113.778 39.7263 113.778 39.7263C113.778 39.7263 113.392 39.7923 113.425 40.6958C113.457 41.5992 113.898 42.4369 113.898 42.4369L113.749 42.8844C114.158 43.1215 114.623 43.3515 115.134 43.3658L115.332 42.9567Z" fill="#FFC9B3"/>
<path d="M103.05 36.1835C103.05 36.1835 103.156 37.7781 102.745 39.2413C102.745 39.2413 103.616 40.2867 104.525 39.2018C104.525 39.2018 104.331 37.5868 104.718 36.5113L103.05 36.1835Z" fill="#FFC9B3"/>
<path d="M103.032 38.6196C103.032 38.6196 102.154 39.1199 101.933 40.1297C101.839 40.5653 102.045 41.1425 102.312 41.6585C102.711 42.4322 103.728 42.637 104.386 42.0662C104.821 41.6886 105.221 41.2073 105.308 40.6698C105.515 39.3897 104.503 38.7025 104.503 38.7025L103.032 38.6196Z" fill="#FFC9B3"/>
<path d="M104.526 37.3768C104.562 37.0771 104.622 36.7777 104.718 36.5113L103.05 36.1835C103.05 36.1835 103.078 36.6116 103.048 37.226C103.26 37.4155 103.522 37.6081 103.755 37.6543C104.081 37.6738 104.339 37.5356 104.526 37.3768Z" fill="#F9AA8F"/>
<path d="M100.953 31.9517C100.953 31.9517 101.331 36.6246 103.75 37.2783C104.97 37.5423 106.214 34.9869 106.681 33.4917C107.148 31.9964 107.289 29.1866 103.838 28.9288C101.862 28.8206 100.897 30.864 100.953 31.9517Z" fill="#FFC9B3"/>
<path d="M104.765 34.352C104.615 34.261 104.47 34.169 104.35 34.0494C104.227 33.9348 104.128 33.7978 104.054 33.6468C103.904 33.3453 103.853 32.9882 103.876 32.6212C103.727 32.9589 103.706 33.3713 103.861 33.7344C103.938 33.9135 104.05 34.0837 104.2 34.2101C104.315 34.3203 104.45 34.399 104.59 34.465C104.541 34.5251 104.489 34.5841 104.431 34.6337C104.346 34.7127 104.244 34.7712 104.119 34.7738C104.238 34.8242 104.379 34.7818 104.492 34.7252C104.608 34.6628 104.706 34.5838 104.797 34.4853L104.864 34.4125L104.765 34.352Z" fill="#EF9170"/>
<path d="M101.132 33.8727C101.132 33.8727 101.815 33.6037 101.673 32.5082C101.531 31.4127 101.545 30.3317 102.412 30.1467C103.28 29.9616 103.543 30.5877 103.938 30.5877C104.333 30.5877 104.632 30.1069 105.229 30.1126C105.826 30.1184 106.623 31.0431 106.395 32.0531C106.168 33.0631 105.897 33.9023 106.296 34.1583C106.694 34.4143 107.185 34.0063 107.341 33.1109C107.497 32.2158 107.805 28.5023 103.883 28.5023C101.744 28.5023 100.054 30.1464 100.725 32.9129C100.928 33.4485 100.915 33.6572 101.132 33.8727Z" fill="#024935"/>
<path d="M101.576 33.6606C101.358 33.1871 100.959 32.7866 100.572 32.9506C99.9603 33.2097 100.573 34.8843 101.413 34.831C101.836 34.7658 101.811 34.1708 101.576 33.6606Z" fill="#FFC9B3"/>
<path d="M106.188 33.8386C106.418 33.3708 106.827 32.9807 107.21 33.1546C107.814 33.4296 107.158 35.0878 106.321 35.0126C105.899 34.9368 105.94 34.3426 106.188 33.8386Z" fill="#FFC9B3"/>
<path d="M103.4 34.9685C103.572 35.1013 103.754 35.2476 103.969 35.3258C104.154 35.3934 104.398 35.3201 104.409 35.5512C104.42 35.7942 104.133 36.2833 103.845 36.2098C103.451 36.1092 103.081 35.4046 103.056 35.0524C103.031 34.7 103.244 34.8476 103.4 34.9685Z" fill="#EF9170"/>
<path d="M106.255 28.9722C106.989 28.7879 107.749 28.7255 108.51 28.7492C108.89 28.7689 109.272 28.8139 109.644 28.9189C110.018 29.0132 110.374 29.2032 110.7 29.3394C111.378 29.6087 112.148 29.6495 112.85 29.4213C113.557 29.2019 114.172 28.7383 114.676 28.1886L114.696 28.2054C114.215 28.7796 113.615 29.2817 112.892 29.5442C112.171 29.8073 111.355 29.7945 110.629 29.5346C110.258 29.3979 109.941 29.243 109.581 29.1684C109.226 29.0839 108.86 29.0382 108.493 29.0086C107.756 28.9392 107.009 28.9615 106.26 28.9979L106.255 28.9722Z" fill="#024935"/>
<path d="M104.528 27.3106C104.512 26.7027 104.696 26.075 105.095 25.5742C105.301 25.3296 105.571 25.1334 105.871 25.0206C106.156 24.9117 106.41 24.8046 106.65 24.632C107.119 24.2887 107.484 23.8052 107.749 23.2748C108.021 22.7459 108.206 22.1707 108.34 21.5856L108.365 21.5906C108.265 22.1839 108.113 22.7737 107.866 23.3309C107.618 23.885 107.263 24.4072 106.775 24.7981C106.536 24.9938 106.239 25.1391 105.969 25.2581C105.712 25.3709 105.48 25.5357 105.291 25.7454C104.902 26.1613 104.684 26.7302 104.554 27.3122L104.528 27.3106Z" fill="#024935"/>
<path d="M106.261 33.1179C106.053 33.3069 105.888 33.5338 105.876 33.7978C105.857 34.0578 105.931 34.3281 106.018 34.5913C106.105 34.8554 106.209 35.1203 106.255 35.4025C106.304 35.6814 106.257 35.9935 106.067 36.21C106.065 36.2129 106.061 36.2134 106.058 36.2111C106.056 36.209 106.055 36.2048 106.057 36.202C106.23 35.9759 106.254 35.6793 106.191 35.4139C106.135 35.1442 106.021 34.8887 105.92 34.6264C105.821 34.3668 105.709 34.0874 105.748 33.7843C105.785 33.4792 106.004 33.2325 106.254 33.107C106.257 33.1055 106.261 33.1068 106.263 33.1099C106.264 33.1127 106.263 33.1161 106.261 33.1179Z" fill="#024935"/>
<path d="M101.214 32.3203C101.464 32.4461 101.682 32.6927 101.72 32.9976C101.759 33.3007 101.647 33.58 101.548 33.8397C101.447 34.1019 101.333 34.3574 101.276 34.6275C101.214 34.8928 101.237 35.1897 101.411 35.4155C101.413 35.4184 101.412 35.4225 101.409 35.4246C101.407 35.4267 101.402 35.4259 101.4 35.4236C101.21 35.2068 101.164 34.8949 101.212 34.616C101.258 34.3338 101.362 34.0687 101.45 33.8046C101.536 33.5411 101.61 33.271 101.591 33.0111C101.579 32.7468 101.414 32.5201 101.206 32.3312C101.203 32.3289 101.203 32.3247 101.205 32.3218C101.208 32.3195 101.211 32.3192 101.214 32.3203Z" fill="#024935"/>
<path d="M97.9169 47.2023C97.4873 46.3895 96.9209 44.8031 96.7122 43.6603C96.4825 42.4021 96.4318 40.5913 97.4969 39.1116C97.7126 38.8117 98.1612 38.256 98.74 37.9018C99.0501 37.712 99.3586 37.6044 99.657 37.5813C100.31 37.5317 101.038 37.9584 101.128 38.6173L100.59 38.51C100.537 38.123 100.034 38.0723 99.697 38.0996C99.4813 38.1162 99.2505 38.1988 99.0113 38.3452C98.5102 38.6519 98.1116 39.1472 97.9187 39.4152C96.9604 40.7467 97.0119 42.4078 97.2237 43.567C97.4231 44.6575 97.737 45.6246 97.9473 46.3791L97.9169 47.2023Z" fill="#FFCF62"/>
<path d="M107.905 50.8347L107.893 49.7429C108.513 45.9763 107.486 39.4001 106.321 38.5445C106.238 38.4829 106.213 38.5035 106.173 38.5373C106.11 38.5895 106.035 38.6576 105.958 38.9321L105.425 38.8998C105.517 38.5721 105.664 38.2851 105.839 38.1386C106.08 37.9379 106.368 37.9332 106.629 38.1256C107.457 38.7337 108.103 41.4552 108.405 43.6008C108.825 46.5819 108.46 49.496 107.905 50.8347Z" fill="#FFCF62"/>
<path d="M16.8475 41.8367C16.9746 41.673 17.2309 41.3814 17.266 41.3507C17.4692 41.1727 17.7026 41.029 17.9519 40.925C18.4377 40.7223 18.9606 40.7218 19.4744 40.7324C20.598 40.7558 21.719 41.6553 22.2773 42.5746C22.7706 43.3876 22.908 44.355 23.2818 45.2197C23.8954 46.6393 25.5144 46.965 26.159 48.342C27.0764 50.3011 24.9678 52.1732 23.273 52.7188C22.0044 53.1271 20.6814 52.7489 19.4001 53.0751C18.4504 53.3168 17.6257 53.9008 16.7072 54.2421C15.1979 54.8027 13.8591 54.2306 12.9924 52.9176C11.6016 50.8103 13.9418 49.512 13.6005 47.4357C13.4584 46.5715 13.0854 45.7447 13.0719 44.86C13.0594 44.0335 13.3526 43.1209 13.9467 42.5299C14.2672 42.211 14.65 42.0946 15.0539 41.9293C15.5948 41.7081 16.2412 41.7242 16.7776 41.9472C16.7691 41.9433 16.7989 41.8994 16.8475 41.8367Z" fill="#4A0F00"/>
<path d="M39.0333 75.2989C38.77 74.5699 36.0241 74.8703 36.0241 74.8703C36.022 75.0398 36.0246 75.21 36.0181 75.3792C35.9997 75.8577 35.3652 76.3227 35.0585 76.6694C34.6271 77.1573 34.206 77.6539 33.797 78.1605C32.8454 79.3389 31.915 80.5768 31.2379 81.9372C31.0721 82.2704 30.9224 82.6127 30.8104 82.9682C30.747 82.9638 30.7592 82.9649 30.6958 82.9605C30.4577 81.29 30.0075 78.9958 29.1964 75.8471C29.1964 75.8471 25.6673 76.9317 24.8671 76.5712C24.7574 76.5226 25.4345 81.6134 25.5174 82.0419C25.8425 83.7217 25.7991 86.319 27.3151 87.454C27.9571 87.9343 28.493 88.4138 29.5158 88.0016C29.5158 88.0016 32.053 87.5943 34.9556 82.3803C35.8882 80.705 37.3883 77.7584 37.9562 76.6372C38.0755 76.4015 38.3419 76.2816 38.5979 76.3474L38.796 76.4485L39.3797 76.6361C39.3797 76.6361 39.2963 76.028 39.0333 75.2989Z" fill="#FFC9B3"/>
<path d="M35.9796 75.4764C35.9796 75.4764 36.14 75.1568 36.7128 75.0583C37.2849 74.9592 38.0116 74.8301 38.5847 75.5321C39.157 76.2338 39.231 76.3632 39.275 76.7388C39.3179 77.1146 40.2969 77.1268 41.6695 77.4281C42.0575 77.6069 42.9625 77.0902 41.8665 76.172C40.7671 75.2516 37.9505 73.0175 36.343 73.6113C36.0594 73.7158 35.9796 75.4764 35.9796 75.4764Z" fill="#66413D"/>
<path d="M36.3427 73.6111C36.2871 73.6319 36.2385 73.7197 36.1974 73.8447C36.2039 73.8403 37.6542 72.9821 42.3795 77.059C42.4198 76.8391 42.3041 76.5384 41.8665 76.1717C40.7671 75.2514 37.9502 73.0172 36.3427 73.6111Z" fill="#231F20"/>
<path d="M9.73316 78.3983C9.83868 77.6305 12.5867 77.3517 12.5867 77.3517C12.6241 77.517 12.6571 77.6838 12.6987 77.8481C12.8164 78.312 13.534 78.6346 13.9062 78.9098C14.4297 79.2968 14.9453 79.6947 15.4511 80.1049C16.6274 81.059 17.7955 82.0755 18.7415 83.2648C18.9731 83.5559 19.1912 83.8597 19.3747 84.1838C19.4357 84.1664 19.424 84.1698 19.4851 84.1524C19.3697 82.4692 19.3312 80.1314 19.4682 76.8828C19.4682 76.8828 23.1459 77.2077 23.8534 76.6881C23.9503 76.6179 24.35 81.7376 24.3584 82.1742C24.3906 83.8849 24.9749 86.4159 23.7289 87.8423C23.201 88.446 22.7771 89.0267 21.6909 88.8369C21.6909 88.8369 19.1246 88.9677 15.1985 84.4739C13.9371 83.0298 11.8553 80.4612 11.066 79.4826C10.9001 79.277 10.6145 79.2155 10.378 79.3329L10.2054 79.473L9.67338 79.7782C9.67338 79.7782 9.62816 79.1661 9.73316 78.3983Z" fill="#FFC9B3"/>
<path d="M12.7567 77.9349C12.7567 77.9349 12.5332 77.6555 11.9525 77.6786C11.3724 77.7012 10.6348 77.7262 10.2208 78.5324C9.80753 79.3381 9.76205 79.48 9.7974 79.8564C9.83404 80.2327 8.87889 80.449 7.59911 81.0299C7.25681 81.2856 6.26397 80.969 7.14427 79.8426C8.02743 78.7133 10.3164 75.9409 12.0123 76.1862C12.3115 76.2297 12.7567 77.9349 12.7567 77.9349Z" fill="#66413D"/>
<path d="M12.0126 76.1865C12.0714 76.1953 12.1371 76.271 12.2034 76.3848C12.1961 76.3819 10.5987 75.845 6.82775 80.8178C6.7425 80.6111 6.79292 80.2928 7.14457 79.8429C8.02774 78.7133 10.3165 75.9409 12.0126 76.1865Z" fill="#231F20"/>
<path d="M27.8001 67.3159C27.8001 67.3159 29.7054 69.831 30.0888 70.2939C30.7843 71.1339 31.6831 71.8068 32.6873 72.2331C33.2233 72.4605 33.7992 72.6255 34.2559 72.9868C35.5564 74.0152 35.1245 76.0485 34.8363 77.4377C34.5423 78.8542 33.8728 80.3247 32.5751 81.0811C29.406 82.928 26.618 80.3325 23.5327 81.815C20.4473 83.2975 17.5839 83.6375 16.0247 82.1048C14.4653 80.5722 12.838 78.7248 14.798 76.9023C16.0603 75.3639 17.5751 72.6016 17.7105 69.5961C17.7105 69.5961 22.4988 66.164 27.8001 67.3159Z" fill="#0A3959"/>
<path d="M11.8782 57.9442L11.2319 59.9138L11.072 60.4C11.0341 60.5141 10.9943 60.6288 10.941 60.7379C10.8394 60.9586 10.7063 61.1676 10.5441 61.3549C10.3827 61.5429 10.1959 61.7136 9.98509 61.8527C9.8806 61.9239 9.76989 61.9868 9.65553 62.0429C9.59913 62.0733 9.53883 62.0946 9.48061 62.1222L9.24175 62.2144L7.30623 62.957L3.40815 64.4985C3.40815 64.4985 2.11174 64.3314 1.47549 64.7475C0.839238 65.1633 0 65.3487 0 65.3487C0 65.3487 0.432225 65.6839 0.795834 65.5883C1.1597 65.4927 1.64469 65.6509 1.64469 65.6509C1.64469 65.6509 1.1571 66.6846 1.04456 67.2733C0.932025 67.8622 0.919809 68.7407 1.16386 69.1142C1.40817 69.4874 2.05378 67.7884 2.27522 67.3554C2.45742 66.9988 3.1745 66.1827 3.81049 65.7066L7.84086 64.6056L9.8437 64.0707L10.0968 64.0026C10.2003 63.9699 10.3056 63.9418 10.4074 63.9028C10.6125 63.8295 10.8139 63.743 11.0081 63.6413C11.3985 63.4415 11.7605 63.1834 12.0854 62.8821C12.4113 62.5817 12.6957 62.2334 12.9298 61.8511C13.0494 61.6614 13.1502 61.4602 13.2435 61.2551L13.4587 60.7769L14.3086 58.8861L15.6562 54.968L13.5219 54.1407L11.8782 57.9442Z" fill="#FFC9B3"/>
<path d="M32.3346 57.8709C31.3823 58.4032 30.6148 57.5751 30.0009 57.0821C29.4525 56.6408 28.7139 56.2951 28.718 55.4842C28.7326 52.422 34.8399 56.4697 32.3346 57.8709Z" fill="#FFC9B3"/>
<path d="M26.9167 51.2688C25.3757 49.7935 22.9503 50.7401 22.0193 51.0369L18.4212 52.0664C17.4756 52.2821 17.7298 52.1205 17.0995 52.26C17.0995 52.26 13.6137 52.1922 12.5226 54.9051C11.1999 58.194 10.2767 59.4056 10.2767 59.4056C10.2767 59.4056 12.8407 60.6277 14.3035 60.3028C14.3035 60.3028 14.9447 58.4237 15.419 57.401C15.3106 57.6349 15.5144 58.4908 15.5518 58.7538C15.6303 59.3058 15.7813 59.8444 15.9487 60.3751C16.4035 61.8194 16.8417 63.2291 17.1216 64.7186C17.4057 66.2279 16.8921 70.2768 16.8921 70.2768C18.6449 70.4415 20.4619 70.618 22.2249 70.4831C23.4709 70.3877 24.7244 70.1094 25.8402 69.5329C26.9053 68.9824 28.0588 68.485 28.9484 67.6496C28.1139 66.3771 27.1171 64.3148 26.794 62.8424C26.589 61.9078 26.3938 60.9713 26.3343 60.0154C26.2379 58.4684 26.5175 56.8718 26.2217 55.308C26.2402 55.3189 26.2579 55.3324 26.2763 55.3428C27.5452 56.0463 29.0646 56.8523 29.0646 56.8523C30.294 56.6678 31.6465 54.4357 31.6465 54.4357C31.6465 54.4357 28.4574 52.7442 26.9167 51.2688Z" fill="#058365"/>
<path d="M18.4313 49.472C18.4313 49.472 18.9467 50.9732 18.9324 52.4828C18.9324 52.4828 20.0385 53.2594 20.629 51.9832C20.629 51.9832 20.024 50.4851 20.116 49.3538L18.4313 49.472Z" fill="#FFC9B3"/>
<path d="M18.9128 51.8941C18.9128 51.8941 18.4702 52.4077 18.5149 53.3106C18.5341 53.6999 18.8408 54.1402 19.1831 54.515C19.6969 55.0772 20.5494 55.669 20.6035 55.5996C20.9133 55.2022 21.536 53.4697 21.4867 52.9964C21.3689 51.8684 20.4574 51.4985 20.4574 51.4985L18.9128 51.8941Z" fill="#FFC9B3"/>
<path d="M20.156 50.2333C20.1131 49.9365 20.0929 49.6339 20.1157 49.3535L18.4313 49.4718C18.4313 49.4718 18.569 49.8751 18.7003 50.4716C18.9524 50.5985 19.2536 50.7152 19.4888 50.699C19.8064 50.6335 20.0183 50.4339 20.156 50.2333Z" fill="#F9AA8F"/>
<path d="M15.3238 45.9583C15.3238 45.9583 16.8981 50.3406 19.3867 50.3401C20.6251 50.277 21.1545 47.5043 21.2146 45.9495C21.2746 44.3948 20.6815 41.6639 17.3056 42.3119C15.3831 42.721 14.9877 44.9302 15.3238 45.9583Z" fill="#FFC9B3"/>
<path d="M21.3711 42.3355C20.9173 42.0176 19.4693 41.3021 19.1052 41.3188C18.7413 41.3354 17.1333 42.0348 17.1289 42.0369C17.1146 42.0431 17.1117 42.072 17.1133 42.1083C16.8549 42.1359 15.3784 42.2983 15.0813 42.448C14.7557 42.6123 13.8455 43.9461 13.6061 44.4459C13.3667 44.9457 13.6217 47.1495 14.8765 47.7317C15.6591 48.0948 16.3476 47.682 16.568 46.868C16.7512 46.1907 16.1433 45.5981 16.1854 44.9307C16.2436 44.0101 17.3927 43.8651 17.3719 42.9117C17.8408 43.668 18.8721 43.2701 19.3617 44.0236C19.7261 44.5845 19.487 45.399 19.9793 45.8993C20.5708 46.5005 21.3731 46.5221 21.8768 45.8216C22.6844 44.6986 21.8251 42.6534 21.3711 42.3355Z" fill="#4A0F00"/>
<path d="M16.3637 47.4354C16.0318 47.038 15.5458 46.7573 15.2173 47.0149C14.6982 47.4219 15.7204 48.8685 16.5111 48.5998C16.9002 48.4275 16.7213 47.8637 16.3637 47.4354Z" fill="#FFC9B3"/>
<path d="M20.832 46.4103C20.9316 45.9022 21.2222 45.4222 21.6341 45.4897C22.2852 45.5966 22.0861 47.3564 21.2635 47.5019C20.8398 47.5381 20.725 46.9577 20.832 46.4103Z" fill="#FFC9B3"/>
<path d="M19.6003 47.2711C19.4334 47.2225 19.27 47.1724 19.1247 47.0884C18.9763 47.0104 18.8458 46.9049 18.7364 46.7794C18.5144 46.5294 18.373 46.2001 18.2992 45.8424C18.2436 46.2047 18.3312 46.6055 18.5734 46.9135C18.6937 47.0653 18.8458 47.1991 19.0223 47.2815C19.1603 47.3574 19.311 47.3977 19.4618 47.425C19.4308 47.4952 19.3963 47.5653 19.3531 47.628C19.2923 47.7257 19.2097 47.8084 19.0906 47.8432C19.2172 47.8611 19.3419 47.7837 19.4358 47.7C19.5304 47.6103 19.6042 47.5089 19.6658 47.3909L19.7115 47.3036L19.6003 47.2711Z" fill="#EF9170"/>
<path d="M19.3713 48.5805C19.3094 48.5288 19.2301 48.5195 19.123 48.5889C18.9718 48.6871 18.8634 48.8828 18.8608 49.0632C18.8572 49.3093 18.9824 49.5822 19.2455 49.6313C19.6083 49.6992 19.5896 49.0216 19.5111 48.8158C19.4744 48.7201 19.431 48.6304 19.3713 48.5805Z" fill="#EF9170"/>
<path d="M32.1537 63.941C32.0815 63.1205 31.5843 62.3639 31.1032 61.632C30.9979 61.4716 30.8937 61.3131 30.795 61.1556C29.76 59.5054 29.2667 57.8405 29.3288 56.2072C29.3694 55.1476 29.6664 52.626 31.5479 52.0997C33.019 51.6885 34.6226 52.5953 36.0648 54.6546C36.5324 55.3223 36.8775 56.0534 37.2113 56.7603C37.6768 57.7464 38.1163 58.6779 38.8565 59.4319L38.3 59.9782C37.4673 59.1301 36.9786 58.0947 36.5061 57.0933C36.1716 56.3845 35.8559 55.7152 35.4262 55.1018C34.7094 54.0783 33.2791 52.4251 31.7582 52.8505C30.3321 53.2498 30.1348 55.5434 30.1083 56.2369C30.0514 57.7316 30.4922 59.205 31.4556 60.7416C31.5515 60.8944 31.6529 61.0485 31.755 61.2042C32.2639 61.979 32.8409 62.8569 32.9303 63.8729L32.1537 63.941Z" fill="#20AF89"/>
<path d="M36.1547 49.5632C36.7923 48.7362 37.2861 47.8289 37.3636 47.1206C37.441 46.4124 36.1992 45.4944 35.4748 45.2813C34.7502 45.0684 34.6013 46.3329 34.6013 46.3329C34.6013 46.3329 34.2153 46.3989 34.2478 47.3023C34.2803 48.2058 34.7211 49.0434 34.7211 49.0434L34.5716 49.491C34.9812 49.728 35.4462 49.958 35.9564 49.9723L36.1547 49.5632Z" fill="#FFC9B3"/>
<path d="M34.6962 49.1765C34.4514 49.7382 34.2001 50.2949 33.923 50.8422C33.6491 51.3901 32.9442 52.5885 32.643 53.1224C32.3433 53.6568 32.0335 54.1852 31.7123 54.705C31.3939 55.2198 31.122 55.8228 30.7943 56.293C30.7943 56.293 30.2269 57.2357 31.3211 57.7513C32.415 58.267 32.8509 57.4522 32.8509 57.4522C33.1508 56.8604 33.4144 56.2933 33.6756 55.7072C33.935 55.1247 34.1806 54.5368 34.415 53.9442C34.6508 53.3522 34.8706 52.7531 35.077 52.1488C35.2865 51.5458 35.8887 50.2749 36.0636 49.6586L34.6962 49.1765Z" fill="#FFC9B3"/>
<path d="M42.6597 62.6173C41.4764 61.0293 38.4412 58.4448 38.4412 58.4448L31.653 63.7032C34.7487 68.3555 34.7219 68.5671 35.524 68.7002C36.7214 69.3219 41.4569 65.6164 42.7096 63.3929C42.8484 63.1467 42.8287 62.8439 42.6597 62.6173Z" fill="#058365"/>
<path d="M41.9882 61.3318C40.9815 60.0941 38.4412 58.4448 38.4412 58.4448L31.528 63.6252C34.1184 67.3149 33.7413 67.665 34.4717 67.7429C36.6876 67.1376 39.6097 64.0538 41.9302 61.9977C42.1238 61.8267 42.1511 61.5325 41.9882 61.3318Z" fill="#20AF89"/>
<path d="M39.3027 64.4382C39.4938 64.6849 39.3243 65.1361 38.9243 65.4459C38.5243 65.7557 38.0448 65.8071 37.8537 65.5605C37.6627 65.3138 37.8324 64.8624 38.2327 64.5526C38.6324 64.243 39.1117 64.1916 39.3027 64.4382Z" fill="#66413D"/>
<path d="M18.2581 52.5446C18.248 52.5446 18.2381 52.5423 18.2285 52.5376C18.1965 52.5212 18.1838 52.4822 18.2001 52.4503C18.2729 52.3081 18.333 52.2223 18.3356 52.2189C18.3561 52.1893 18.3966 52.1823 18.426 52.2034C18.4554 52.2241 18.4624 52.2644 18.4416 52.2938C18.4411 52.2946 18.3839 52.3762 18.3158 52.5095C18.3044 52.5316 18.2815 52.5446 18.2581 52.5446Z" fill="#FFC9B3"/>
<path d="M20.1507 56.1116C20.1388 56.1116 20.1265 56.1082 20.1156 56.1014C19.9701 56.0084 19.816 55.8969 19.6572 55.7706C19.6291 55.7482 19.6244 55.7072 19.6468 55.6791C19.6694 55.651 19.7104 55.6466 19.7382 55.6687C19.8937 55.7924 20.0442 55.9011 20.1858 55.992C20.216 56.0115 20.2248 56.0515 20.2056 56.0817C20.1931 56.1009 20.172 56.1116 20.1507 56.1116ZM19.2735 55.4205C19.2577 55.4205 19.2418 55.4148 19.2296 55.4033C19.0903 55.2752 18.9554 55.1421 18.8286 55.0078C18.8039 54.9815 18.8052 54.9404 18.8312 54.916C18.8574 54.8913 18.8985 54.8926 18.9232 54.9186C19.0479 55.0506 19.181 55.1816 19.318 55.3082C19.3445 55.3324 19.346 55.3734 19.3216 55.4C19.3086 55.4135 19.2912 55.4205 19.2735 55.4205ZM18.5081 54.607C18.4891 54.607 18.4702 54.5987 18.4572 54.5826C18.3215 54.4121 18.2129 54.2546 18.1341 54.1145C18.1164 54.083 18.1276 54.0435 18.1588 54.0261C18.19 54.0084 18.2298 54.0196 18.2472 54.0508C18.3225 54.1849 18.4273 54.3367 18.5588 54.5015C18.5811 54.5295 18.5765 54.5706 18.5484 54.593C18.5367 54.6026 18.5224 54.607 18.5081 54.607ZM18.02 53.6201C17.9873 53.6201 17.9589 53.5952 17.9556 53.5616C17.9501 53.5094 17.9478 53.4577 17.9478 53.4065C17.9478 53.2711 17.9652 53.1297 17.9997 52.9857C18.0081 52.9509 18.0421 52.9288 18.078 52.9376C18.1128 52.9459 18.1344 52.981 18.126 53.0158C18.0938 53.1499 18.0777 53.2812 18.0777 53.4065C18.0777 53.4535 18.08 53.5008 18.0847 53.5484C18.0884 53.584 18.0624 53.616 18.0268 53.6196C18.0244 53.6201 18.0223 53.6201 18.02 53.6201Z" fill="#FFC9B3"/>
<path d="M20.9292 56.431L20.8957 56.4287C20.8162 56.4232 20.7255 56.4021 20.6256 56.366C20.5919 56.3538 20.5744 56.3166 20.5869 56.2828C20.5991 56.2491 20.6366 56.2319 20.6701 56.2441C20.7442 56.2709 20.8115 56.2883 20.8707 56.2958C20.896 56.2634 20.942 56.2028 21.002 56.1186C21.0228 56.0892 21.0636 56.0825 21.0927 56.1032C21.1218 56.124 21.1288 56.1646 21.108 56.194C21.0121 56.3286 20.9505 56.4047 20.9505 56.4047L20.9292 56.431Z" fill="#FFC9B3"/>
<path d="M21.357 55.763C21.3455 55.763 21.3338 55.7599 21.3232 55.7534C21.2925 55.7347 21.2829 55.6949 21.3014 55.6643C21.3975 55.506 21.4869 55.3462 21.5667 55.1886C21.5831 55.1564 21.6218 55.1442 21.654 55.1601C21.686 55.1764 21.6988 55.2154 21.6826 55.2474C21.6013 55.4077 21.5103 55.5707 21.4123 55.7316C21.4001 55.7521 21.3788 55.763 21.357 55.763ZM21.8524 54.7824C21.8443 54.7824 21.8362 54.7809 21.8284 54.7777C21.7952 54.7645 21.7788 54.7265 21.7921 54.6933C21.8617 54.5181 21.9197 54.3452 21.9641 54.1792C21.9735 54.1446 22.0093 54.1254 22.0439 54.1332C22.0785 54.1425 22.099 54.1781 22.0899 54.213C22.0439 54.3837 21.9844 54.5615 21.9129 54.7411C21.9028 54.7671 21.8781 54.7824 21.8524 54.7824ZM22.1292 53.7215C22.1268 53.7215 22.1245 53.7212 22.1221 53.721C22.0865 53.7173 22.0605 53.6853 22.0644 53.6495C22.0746 53.5533 22.0798 53.4582 22.0798 53.3667C22.0798 53.2815 22.0754 53.1967 22.0665 53.1149C22.0626 53.0792 22.0886 53.047 22.1242 53.0434C22.1601 53.0408 22.1921 53.0652 22.1957 53.1011C22.2051 53.1874 22.2097 53.2768 22.2097 53.3667C22.2097 53.4626 22.2043 53.5624 22.1936 53.6633C22.1902 53.6968 22.1619 53.7215 22.1292 53.7215ZM22.007 52.6387C21.9802 52.6387 21.9553 52.6221 21.9459 52.5956C21.8874 52.4334 21.8095 52.2707 21.7141 52.1121C21.6956 52.0815 21.7055 52.0414 21.7364 52.023C21.7674 52.0051 21.8071 52.0144 21.8256 52.0453C21.9254 52.2112 22.007 52.3814 22.0683 52.5519C22.0803 52.5857 22.0629 52.6229 22.0291 52.6351C22.0218 52.6374 22.0145 52.6387 22.007 52.6387Z" fill="#FFC9B3"/>
<path d="M21.4456 51.6952C21.4274 51.6952 21.4092 51.6874 21.3962 51.6726C21.2962 51.5562 21.2247 51.4902 21.2239 51.4897C21.1974 51.4655 21.1959 51.4244 21.2198 51.3979C21.2442 51.3711 21.2853 51.3698 21.3115 51.3938C21.3146 51.3966 21.3892 51.465 21.495 51.5882C21.5184 51.6155 21.5153 51.6563 21.488 51.6799C21.4758 51.69 21.4607 51.6952 21.4456 51.6952Z" fill="#FFC9B3"/>
<path d="M41.4111 31.5902C40.6904 32.2277 39.92 34.5461 39.6453 35.4113C39.3646 35.4592 39.0852 35.5275 38.8071 35.5595C38.0333 35.6484 37.0148 35.4555 36.8539 36.3886C36.6917 37.3297 37.0842 38.2807 37.1031 39.2348C37.125 40.3639 37.2755 41.8435 38.2153 42.6222C38.7528 43.0677 39.4925 43.1155 40.0884 42.755C40.7156 42.3761 40.9523 41.6208 41.0714 40.932C41.1696 40.3623 41.185 39.7822 41.2406 39.2068C41.2661 38.9424 41.3001 38.6784 41.331 38.4146H41.3313L41.3316 38.412C41.3695 38.0892 41.4028 37.7661 41.4095 37.4415C41.4111 37.3648 41.4113 37.2824 41.41 37.1977C41.5145 35.4256 41.659 32.2719 41.4111 31.5902Z" fill="#58595B"/>
<path d="M39.9999 32.6769C39.8592 32.6769 39.7436 32.5646 39.7402 32.4229C39.6822 29.9554 41.3955 27.6009 42.4219 26.417C43.4181 25.2677 44.6275 24.7367 45.7968 24.2231C46.5238 23.9037 47.2757 23.5736 47.9868 23.0941C48.3244 22.8664 48.6657 22.6115 49.0303 22.3144C49.1415 22.2242 49.3053 22.2406 49.396 22.3518C49.4867 22.4631 49.4698 22.6268 49.3586 22.7175C48.9817 23.0245 48.6282 23.2885 48.2776 23.525C47.5278 24.0308 46.7543 24.3705 46.006 24.699C44.8377 25.2121 43.7344 25.6966 42.8146 26.7578C41.8374 27.885 40.206 30.1181 40.2598 32.411C40.2631 32.5544 40.1496 32.6735 40.0061 32.6769C40.004 32.6769 40.0019 32.6769 39.9999 32.6769Z" fill="#A7A9AC"/>
<path d="M42.1563 11.7741L43.7293 13.7247C42.8383 14.7007 42.4186 14.6225 42.199 14.8759C42.0568 14.7345 41.3329 14.1268 41.1793 13.9839C40.7201 13.5561 40.4183 13.4706 40.2348 13.4742C40.0516 13.4799 39.6898 13.2231 39.6898 13.2231C39.6898 13.2231 39.0437 12.688 38.3755 12.2134C37.8497 11.8391 37.293 11.5285 37.1485 11.3739C37.0577 11.2751 37.0668 11.2497 37.1375 11.0922C37.1994 10.9573 37.2428 10.9768 37.3699 11.0007C37.4227 11.0111 38.6611 11.6899 38.7196 11.6517C38.9475 11.5018 38.7747 11.2751 38.7747 11.2751C38.7747 11.2751 36.9754 10.1721 36.9447 10.1191C36.8802 10.0091 36.8194 9.94909 36.9231 9.82797C37.0294 9.70399 37.1297 9.70555 37.249 9.74584C37.3151 9.76871 39.1692 10.7571 39.1692 10.7571C39.1692 10.7571 39.3039 10.7979 39.335 10.681C39.3558 10.6051 37.752 9.10855 37.713 9.05059C37.6152 8.9014 37.89 8.61499 38.0594 8.70154C38.1494 8.7478 39.8073 10.3085 39.9097 10.2812C39.9949 10.2584 40.003 10.1425 39.9838 10.0809C39.9328 9.92647 39.8533 9.78508 39.7706 9.64967C39.5905 9.35572 39.3829 9.08334 39.1874 8.80186C39.0819 8.64929 38.8095 8.33481 39.072 8.11882C39.2126 8.00265 39.3231 8.09647 39.4034 8.19914C39.5471 8.38471 39.6872 8.5721 39.8294 8.75664C40.2096 9.25592 40.5992 9.75078 40.9595 10.2672C41.0044 10.3317 41.3535 10.6043 41.4296 10.4725C41.4894 10.3717 41.5437 10.2937 41.5939 10.2347C41.6399 10.1427 41.6607 10.0143 41.6901 9.93713C41.7688 9.73674 41.8265 9.53947 41.9726 9.36664C42.1579 9.1465 42.4955 9.24734 42.4807 9.51634C42.456 9.90152 42.3047 10.6781 42.1883 11.2315C42.1709 11.5483 42.1563 11.7741 42.1563 11.7741Z" fill="#FFC9B3"/>
<path d="M84.2555 19.6761L82.1185 20.9993C82.5916 22.2336 82.7862 22.22 82.8982 22.5361C83.082 22.4566 84.1746 22.0916 84.2784 22.0337C84.8275 21.7299 85.2538 21.8897 85.4235 21.9604C85.5914 22.0324 86.0226 21.925 86.0226 21.925C86.0226 21.925 86.8195 21.6628 87.615 21.4653C88.2414 21.3085 88.8735 21.2225 89.0632 21.1313C89.1836 21.0718 89.1846 21.0453 89.1763 20.8727C89.1688 20.7243 89.1204 20.7269 88.9936 20.7027C88.9408 20.6931 87.5397 20.8735 87.4991 20.8165C87.3419 20.5935 87.5854 20.4457 87.5854 20.4457C87.5854 20.4457 89.6626 20.075 89.7109 20.0368C89.811 19.9583 89.8897 19.9243 89.8372 19.7738C89.7829 19.6197 89.6896 19.5841 89.5635 19.5781C89.4934 19.5755 87.4066 19.8193 87.4066 19.8193C87.4066 19.8193 87.2665 19.8078 87.2803 19.6875C87.2888 19.6095 89.3281 18.8017 89.386 18.7615C89.5313 18.6588 89.3801 18.2918 89.1906 18.3105C89.09 18.3207 86.9767 19.169 86.8914 19.1064C86.8205 19.0536 86.8548 18.9434 86.8956 18.8925C87.0001 18.7674 87.1251 18.6648 87.2519 18.5684C87.5272 18.3604 87.8196 18.1829 88.1037 17.9927C88.2575 17.8884 88.6261 17.6948 88.4605 17.3983C88.3721 17.2387 88.2352 17.2857 88.1229 17.352C87.9215 17.4726 87.7229 17.5958 87.5225 17.7159C86.9868 18.0418 86.4439 18.3602 85.9199 18.7097C85.8544 18.7534 85.4295 18.8795 85.4071 18.7292C85.3879 18.6138 85.3661 18.5213 85.3411 18.448C85.3315 18.3454 85.3588 18.219 85.3598 18.1359C85.3603 17.9204 85.3775 17.7159 85.305 17.5014C85.2127 17.2293 84.8618 17.1994 84.7771 17.4557C84.6599 17.824 84.5172 18.6016 84.4239 19.1594C84.3236 19.4606 84.2555 19.6761 84.2555 19.6761Z" fill="#FFC9B3"/>
<path d="M74.2551 83.8215C74.8718 84.8089 75.2861 85.5312 76.3598 86.09C77.4132 86.6371 78.0284 85.185 77.9416 84.0406C77.7669 81.7516 76.7528 80.1072 76.4406 78.7819C75.8852 76.4183 74.1446 76.9124 72.8861 77.6703C71.6531 78.4142 73.6942 82.9233 74.2551 83.8215Z" fill="#7B5427"/>
<path d="M77.9416 84.0406C77.7669 81.7516 76.7528 80.1072 76.4406 78.7819C76.2574 78.0006 75.9421 77.5352 75.5593 77.2851C75.8883 77.5357 76.1578 77.9689 76.3208 78.6582C76.6197 79.9234 77.5889 81.4925 77.7563 83.6773C77.8405 84.7694 77.2531 86.1539 76.2465 85.631C75.2196 85.0984 74.823 84.4084 74.2332 83.4662C73.7407 82.6787 72.0576 78.986 72.7016 77.8426C71.891 78.9379 73.728 82.9768 74.2551 83.8218C74.8718 84.8092 75.2861 85.5314 76.3598 86.0902C77.4132 86.6371 78.0284 85.185 77.9416 84.0406Z" fill="#231F20"/>
<path d="M72.7206 78.6413C73.1115 79.6248 73.6459 82.6044 75.7841 81.8397C77.0826 81.3758 75.5252 77.4743 75.2419 77.6729C74.3419 78.3003 73.6318 78.6208 72.7206 78.6413Z" fill="#FFD9CC"/>
<path d="M68.6782 48.3108L69.0579 47.3977C69.0579 47.3977 72.286 48.303 72.2525 49.2433C72.2184 50.1834 72.0372 50.9057 72.0372 50.9057L71.4652 50.4303L71.2864 50.2268L68.6782 48.3108Z" fill="#FFD9CC"/>
<path d="M68.7335 48.0594C68.7335 48.0594 69.0589 47.772 69.7482 47.9201C70.437 48.0683 71.3136 48.2518 71.6411 49.302C71.9681 50.3513 71.9925 50.5304 71.8711 50.9735C71.7497 51.4159 72.8468 51.8728 74.2565 52.8342C74.6123 53.2113 75.8656 53.0392 75.0474 51.5089C74.2266 49.9749 72.0666 46.1829 69.9873 46.1236C69.6208 46.113 68.7335 48.0594 68.7335 48.0594Z" fill="#7B5427"/>
<path d="M63.4039 57.2193C66.2553 54.9116 71.2718 50.292 71.2718 50.292C71.2718 50.292 70.9469 47.6581 68.5625 48.3417C68.5625 48.3417 60.1345 52.148 57.2228 55.6583C54.7105 58.1737 53.2023 61.7697 53.2023 61.7697C53.2023 61.7697 56.3206 62.9505 63.4039 57.2193Z" fill="#1867A5"/>
<path d="M60.0116 45.4502C60.0116 45.4502 54.6843 44.9998 53.8032 44.0831C53.6828 43.9584 51.8406 51.1632 51.7203 51.7844C51.2493 54.2169 49.7874 57.6827 51.2109 60.0268C52.0163 61.3536 52.5676 62.5752 55.9139 61.6013C55.9139 61.6013 58.0818 60.1791 60.0116 45.4502Z" fill="#1C75BC"/>
<path d="M65.4757 44.6149C65.5999 44.5998 66.1829 46.9507 66.2107 47.0536C66.8878 49.5575 67.4341 52.0963 67.8996 54.6478C68.0605 55.5294 68.2123 56.4131 68.3581 57.2978C68.6164 58.8627 68.8165 60.247 69.4232 61.729C70.2161 63.6634 74.0589 71.1862 75.5918 77.7509C74.4633 80.035 72.6972 78.8303 72.6972 78.8303C72.6972 78.8303 67.9011 68.027 66.1174 65.0617C63.9807 61.5109 61.8092 57.8387 60.2284 54.0183C59.561 52.4056 59.0784 50.4451 59.0188 48.6814C58.9796 47.5264 58.965 46.3703 58.9806 45.2155L65.4757 44.6149Z" fill="#1C75BC"/>
<path d="M52.5767 48.3617C52.7422 48.3981 57.3595 50.7245 66.7122 49.0099C66.6532 48.7786 66.3842 47.164 65.8527 46.9062C62.8269 45.4388 53.4421 45.0791 53.4421 45.0791L52.5767 48.3617Z" fill="#1C75BC"/>
<path d="M69.9873 46.1239C69.9148 46.1216 69.8207 46.1988 69.7173 46.3209C69.7269 46.3191 71.7487 46.0088 75.2231 52.7414C75.3687 52.5121 75.3744 52.1205 75.0474 51.5092C74.2267 49.9752 72.0666 46.1832 69.9873 46.1239Z" fill="#231F20"/>
<path d="M59.2977 50.6977L59.1456 50.5275C59.1032 50.4792 58.1081 49.321 58.1403 45.9032L58.3079 45.9051C58.284 48.4376 58.84 49.7111 59.1178 50.1878L59.0131 45.8367L59.1807 45.8326L59.2977 50.6977Z" fill="#1867A5"/>
<path d="M65.1228 46.0411L64.9592 46.0791L65.0097 46.2958L65.1732 46.2577L65.1228 46.0411Z" fill="#1867A5"/>
<path d="M75.0128 77.6854C74.9671 77.5437 74.9218 77.4026 74.8758 77.2615L75.0346 77.2095C75.0809 77.3511 75.1274 77.4933 75.1727 77.635L75.0128 77.6854ZM74.7358 76.8381C74.6885 76.6972 74.6409 76.5561 74.5931 76.416L74.7508 76.3622C74.7997 76.5028 74.8473 76.6434 74.8946 76.7851L74.7358 76.8381ZM74.4478 75.995C74.3989 75.8538 74.3493 75.7137 74.2996 75.5734L74.4579 75.5178C74.5081 75.6579 74.5569 75.7987 74.6055 75.9401L74.4478 75.995ZM74.1499 75.1534C74.0992 75.0128 74.0478 74.8732 73.9971 74.7339L74.1538 74.6762C74.2055 74.8155 74.2565 74.9556 74.3067 75.0967L74.1499 75.1534ZM73.8422 74.3152C73.79 74.1748 73.7372 74.0358 73.6849 73.897L73.8417 73.8377C73.8944 73.9763 73.9462 74.1161 73.9987 74.2562L73.8422 74.3152ZM73.5254 73.4801C73.4721 73.3403 73.4183 73.2015 73.3645 73.0632L73.5199 73.0024C73.5742 73.1407 73.628 73.2797 73.6824 73.4195L73.5254 73.4801ZM73.2013 72.6479C73.1464 72.5086 73.0911 72.3708 73.0357 72.2328L73.1911 72.1712C73.2465 72.3084 73.3024 72.447 73.3572 72.5865L73.2013 72.6479ZM72.8681 71.819C72.8117 71.68 72.7558 71.5425 72.6996 71.4055L72.8546 71.3418C72.911 71.4788 72.9674 71.6173 73.0235 71.7559L72.8681 71.819ZM72.5286 70.993L72.3561 70.5808L72.5104 70.5159L72.6835 70.9283L72.5286 70.993ZM72.1814 70.1699L72.0057 69.7598L72.1596 69.693L72.3358 70.1036L72.1814 70.1699ZM71.8279 69.3497L71.6483 68.9408L71.8022 68.8727L71.9818 69.2823L71.8279 69.3497ZM71.4677 68.5323C71.4064 68.3942 71.3453 68.2581 71.285 68.1247L71.4378 68.0556C71.4986 68.1897 71.5592 68.3256 71.621 68.4639L71.4677 68.5323ZM71.101 67.7172L70.9151 67.3104L71.068 67.241L71.2538 67.6475L71.101 67.7172ZM70.7285 66.9047L70.5401 66.4995L70.6924 66.4286L70.8808 66.8343L70.7285 66.9047ZM70.3498 66.0949L70.1591 65.691L70.3103 65.6192L70.5021 66.0239L70.3498 66.0949ZM69.9665 65.2878L69.7726 64.885L69.9244 64.812L70.1177 65.2153L69.9665 65.2878ZM69.5782 64.4824L69.3827 64.0801L69.5335 64.0068L69.7289 64.4091L69.5782 64.4824ZM69.1868 63.6775C69.1031 63.5041 69.0381 63.3679 68.9934 63.2712L69.1457 63.2013C69.1893 63.2972 69.2543 63.4321 69.3375 63.6039L69.1868 63.6775ZM68.8203 62.8541C68.7706 62.7285 68.7158 62.5885 68.6573 62.4367L68.8138 62.3764C68.8717 62.5274 68.9266 62.6677 68.9757 62.7925L68.8203 62.8541ZM68.4985 62.0177C68.4478 61.8815 68.3966 61.7404 68.3447 61.5961L68.5024 61.5402C68.5536 61.6835 68.6051 61.8238 68.6552 61.9592L68.4985 62.0177ZM68.196 61.1735C68.1476 61.0319 68.0996 60.8897 68.0533 60.7481L68.2126 60.6961C68.2584 60.8364 68.3059 60.9783 68.3548 61.1189L68.196 61.1735ZM67.9176 60.3205C67.8724 60.1721 67.8308 60.0273 67.7924 59.8885L67.9543 59.8444C67.992 59.9818 68.0335 60.1253 68.0782 60.2716L67.9176 60.3205ZM67.6832 59.4506L67.6694 59.3874C67.6598 59.2655 67.6465 59.1387 67.6304 58.9981L67.797 58.9784C67.8137 59.1216 67.8264 59.251 67.8347 59.3638L67.8469 59.4142L67.6832 59.4506ZM67.5714 58.5563C67.5517 58.4172 67.5288 58.2698 67.5039 58.1149L67.6694 58.0884C67.6949 58.2444 67.7172 58.3928 67.7375 58.5324L67.5714 58.5563ZM67.4308 57.6739C67.4064 57.532 67.3807 57.3854 67.3536 57.2339L67.5182 57.204C67.5454 57.3555 67.572 57.5029 67.5959 57.6458L67.4308 57.6739ZM67.2731 56.7941L67.1904 56.3546L67.3549 56.3234L67.4376 56.7629L67.2731 56.7941ZM67.1054 55.9156L67.0186 55.4769L67.1831 55.4441L67.2699 55.8831L67.1054 55.9156ZM66.931 55.0384L66.8416 54.6002L67.0061 54.5664L67.0955 55.0054L66.931 55.0384ZM66.7512 54.1623L66.6602 53.7246L66.8242 53.6898L66.9157 54.1285L66.7512 54.1623ZM66.5679 53.2869L66.4751 52.8487L66.6392 52.8136L66.7319 53.2521L66.5679 53.2869ZM66.3811 52.4113L66.2872 51.9752L66.4507 51.9401L66.5451 52.3765L66.3811 52.4113ZM66.1924 51.5385L66.0965 51.1014L66.2599 51.0655L66.3559 51.5024L66.1924 51.5385ZM66.0003 50.6642L65.9034 50.2278L66.0668 50.1912L66.1638 50.6286L66.0003 50.6642ZM65.8061 49.7909L65.7084 49.3543L65.8722 49.3171L65.9696 49.7545L65.8061 49.7909ZM65.6102 48.9179L65.5114 48.4815L65.6749 48.4441L65.7737 48.881L65.6102 48.9179ZM65.4127 48.0446L65.3128 47.608L65.4761 47.5708L65.5759 48.0072L65.4127 48.0446ZM65.2125 47.1718L65.1119 46.7349L65.2754 46.6973L65.376 47.1339L65.2125 47.1718Z" fill="#1867A5"/>
<path d="M75.2925 78.0309L75.1329 78.0807L75.1996 78.2943L75.3592 78.2445L75.2925 78.0309Z" fill="#1867A5"/>
<path d="M52.8113 61.6297C52.7201 61.5033 52.6341 61.3812 52.5533 61.2622L52.6918 61.1678C52.7718 61.2853 52.8571 61.4067 52.9473 61.5312L52.8113 61.6297ZM52.3071 60.8861C52.2234 60.753 52.1462 60.6246 52.075 60.5006L52.2208 60.4172C52.2905 60.5396 52.3664 60.6659 52.449 60.7969L52.3071 60.8861ZM51.8619 60.1035C51.792 59.9639 51.7278 59.8262 51.6717 59.6936L51.8263 59.6284C51.8809 59.7576 51.9435 59.8919 52.0119 60.0284L51.8619 60.1035ZM51.5113 59.2705C51.4622 59.1234 51.4208 58.9765 51.3886 58.8328L51.5521 58.7956C51.5835 58.9334 51.6233 59.0756 51.6704 59.2172L51.5113 59.2705ZM51.3117 58.3842C51.2948 58.2374 51.2849 58.089 51.2828 57.9307L51.4502 57.9286C51.4528 58.0809 51.4617 58.2238 51.4783 58.3652L51.3117 58.3842ZM51.2917 57.4797L51.2982 57.3467C51.3034 57.2417 51.3083 57.1382 51.3109 57.0353L51.4785 57.0395C51.4759 57.1437 51.4707 57.2487 51.4658 57.3552L51.4596 57.4873L51.2917 57.4797ZM51.3008 56.5984L51.293 56.5199C51.2826 56.4289 51.286 56.3039 51.3028 56.1373L51.4697 56.154C51.4541 56.3065 51.451 56.424 51.4596 56.5012L51.4676 56.5844L51.3008 56.5984ZM51.365 55.689C51.3871 55.5536 51.4141 55.4054 51.4455 55.2469L51.6098 55.2791C51.5789 55.4358 51.5521 55.5822 51.53 55.7168L51.365 55.689ZM51.5362 54.8074L51.5724 54.6418L51.6332 54.37L51.7967 54.4074L51.7361 54.6777L51.7002 54.8427L51.5362 54.8074ZM51.8978 53.972L51.7351 53.9333C51.7686 53.7911 51.8037 53.6459 51.8401 53.4975L52.0028 53.5375C51.9666 53.6851 51.9316 53.8304 51.8978 53.972ZM52.1106 53.1032L51.9479 53.0624C51.9841 52.9197 52.0207 52.7746 52.0584 52.6281L52.2208 52.6696C52.1832 52.816 52.1465 52.9607 52.1106 53.1032ZM52.3326 52.2366L52.1704 52.1945L52.2845 51.761L52.4467 51.8039L52.3326 52.2366ZM52.5618 51.3719L52.3999 51.3285L52.5169 50.8958L52.6785 50.94L52.5618 51.3719ZM52.7963 50.5085L52.6346 50.4641L52.7539 50.0326L52.9153 50.0771L52.7963 50.5085ZM53.0351 49.6459L52.8737 49.6009L52.9946 49.1695L53.156 49.215L53.0351 49.6459ZM53.2776 48.7846L53.1162 48.7388L53.2389 48.3079L53.4003 48.3544L53.2776 48.7846ZM53.5235 47.9238L53.3623 47.8775L53.4863 47.4468L53.6475 47.4936L53.5235 47.9238ZM53.7722 47.0629L53.6113 47.0164L53.7369 46.586L53.8978 46.6333L53.7722 47.0629ZM54.0241 46.2037L53.8632 46.1561L53.9911 45.7244L54.1519 45.7723L54.0241 46.2037Z" fill="#1867A5"/>
<path d="M83.4381 19.9656C79.5273 21.4471 75.6547 22.6159 71.7438 24.0971C70.1056 24.7177 67.2727 25.8314 65.5323 25.9461C65.0206 25.9799 64.5073 25.9297 63.9966 25.8795C61.2746 25.6121 60.5499 25.5279 57.8604 25.1627C57.7105 25.1424 57.5602 25.1209 57.4136 25.0821C56.3537 24.8027 54.2352 23.5562 53.4849 22.8176C52.2779 21.6295 51.0706 20.4418 49.8636 19.2537C47.4875 16.9154 45.0621 14.6963 42.6863 12.3579C42.6863 12.3579 41.5435 12.6981 41.386 14.2347C43.3093 16.4868 51.6809 27.1463 51.8049 27.2978C53.7622 29.6918 54.6872 31.9699 54.3878 35.101C54.229 36.7621 53.9946 38.4148 53.7178 40.06C53.5709 40.9333 53.4113 41.8045 53.2453 42.6744C53.1483 43.1823 52.5765 44.6754 52.7964 45.1287C53.1956 45.9521 56.5099 46.7711 57.4373 47.0367C59.1277 47.5209 60.8816 47.2428 62.5629 46.8722C63.0853 46.757 66.0314 46.4631 66.1039 45.8889L66.1491 45.5311C66.6933 43.6077 67.2875 35.5156 67.8 32.8549C68.1584 30.9942 69.3808 30.5469 70.908 29.6895C72.1576 28.9877 73.4083 28.2883 74.6608 27.5915C77.3786 26.0794 80.0946 24.5571 82.8577 23.1287C83.3055 22.8971 83.8108 22.4706 84.269 22.2603C84.3821 20.8186 83.4381 19.9656 83.4381 19.9656Z" fill="#0A3959"/>
<g opacity="0.2">
<path d="M38.6737 36.7163L37.5398 37.5623L37.0168 38.4177C37.0168 38.4177 40.4531 38.9232 40.8668 37.2858L38.6737 36.7163Z" fill="#231F20"/>
</g>
<path d="M38.1977 32.6132C38.8214 31.7295 39.7543 30.8996 40.6969 30.9752C41.8057 31.0644 41.401 32.5854 41.3589 33.2962C41.3114 34.1009 41.2641 34.9053 41.2165 35.71C41.1583 36.696 41.0556 37.4344 39.9921 37.7396C39.0985 37.6044 37.4686 38.7623 36.6281 38.3194C35.9601 37.967 36.3942 37.0087 36.6021 36.5071C36.9792 35.5961 37.228 34.642 37.5846 33.724C37.7148 33.39 37.9271 32.9965 38.1977 32.6132Z" fill="#414042"/>
<path d="M38.5438 38.4624C38.5935 38.6441 38.5708 38.8426 38.5989 39.0285C38.6382 39.2868 38.641 39.4934 38.8913 39.5168C39.0395 39.5316 39.4709 39.4422 39.5393 39.2569C39.5788 39.2556 39.0992 38.0398 39.0933 37.6242C39.0875 37.2341 38.7403 37.1641 38.397 37.3406C37.972 37.5592 38.4583 38.1471 38.5438 38.4624Z" fill="#6D6E71"/>
<path d="M39.6217 39.1595C39.5726 38.9206 39.3387 38.7667 39.0998 38.8159L38.9015 38.8564C38.6621 38.906 38.5083 39.1394 38.5579 39.3788C38.6068 39.6182 38.8404 39.7715 39.08 39.7224L39.2781 39.6816C39.5169 39.6322 39.6708 39.3988 39.6217 39.1595Z" fill="#414042"/>
<path d="M60.4958 23.5183L60.1405 26.2117L62.6205 26.5111L62.5938 23.6932L60.4958 23.5183Z" fill="#FFC9B3"/>
<path d="M60.298 25.4834L61.0933 29.7677L62.6132 25.7418L60.298 25.4834Z" fill="#FFC9B3"/>
<path d="M62.6206 25.4379L61.0934 29.7677L63.2745 28.5467L62.7547 27.3826L64.2375 26.6741L62.6206 25.4379Z" fill="#1A6189"/>
<path d="M61.0934 29.7677L60.2583 25.3194L58.6383 26.3785L59.9116 27.2685L59.1015 28.2831L61.0934 29.7677Z" fill="#1A6189"/>
<path d="M60.815 29.7677L60.1078 33.8904C59.8757 35.2627 59.64 36.6332 59.4417 38.0083C59.2332 39.3817 59.0448 40.7579 58.9086 42.1385C58.7763 43.5196 58.67 44.9029 58.696 46.3014C58.4538 44.9211 58.4462 43.5074 58.5039 42.1091C58.5588 40.7075 58.7269 39.3157 58.9278 37.9311C59.1378 36.5476 59.397 35.173 59.7115 33.8114C60.0241 32.4492 60.375 31.0956 60.815 29.7677Z" fill="#1A6189"/>
<path d="M61.6854 32.7943C61.6854 33.0028 61.5165 33.1717 61.308 33.1717C61.0996 33.1717 60.9307 33.0028 60.9307 32.7943C60.9307 32.5859 61.0996 32.417 61.308 32.417C61.5165 32.4172 61.6854 32.5859 61.6854 32.7943Z" fill="#1A6189"/>
<path d="M60.6754 38.7914C60.6754 38.9999 60.5065 39.1688 60.298 39.1688C60.0896 39.1688 59.9207 38.9999 59.9207 38.7914C59.9207 38.583 60.0896 38.414 60.298 38.414C60.5065 38.414 60.6754 38.5832 60.6754 38.7914Z" fill="#1A6189"/>
<path d="M60.3191 43.7042C60.3191 43.9126 60.1502 44.0816 59.9417 44.0816C59.7333 44.0816 59.5643 43.9126 59.5643 43.7042C59.5643 43.4957 59.7333 43.3268 59.9417 43.3268C60.1502 43.3268 60.3191 43.4957 60.3191 43.7042Z" fill="#1A6189"/>
<path d="M76.2029 82.1225C75.9858 82.1225 75.7686 82.1082 75.5534 82.0799L75.4795 82.0685L75.4439 81.9965C75.3787 81.846 75.6799 81.2674 75.683 81.2625C75.885 80.9672 76.2057 80.7809 76.5862 80.738C76.835 80.7102 77.0639 80.7661 77.2136 80.8913C77.3316 80.9901 77.3995 81.1299 77.4101 81.2955C77.4372 81.716 77.1383 82.0531 76.6995 82.0976C76.5348 82.1145 76.3687 82.1225 76.2029 82.1225ZM75.7176 81.8377C76.035 81.8704 76.3559 81.8709 76.6741 81.839C76.973 81.8088 77.1692 81.5923 77.1513 81.3121C77.1453 81.2167 77.111 81.1442 77.047 81.0907C76.953 81.0119 76.7918 80.9766 76.6153 80.9963C76.3112 81.0304 76.0563 81.177 75.898 81.4091C75.8751 81.4501 75.768 81.6926 75.7176 81.8377Z" fill="#4A0F00"/>
<path d="M74.3069 82.8378C74.054 82.8378 73.8188 82.712 73.6758 82.4783C73.5895 82.3367 73.5646 82.1831 73.6044 82.0344C73.6548 81.8457 73.8099 81.6685 74.0296 81.5484C74.3656 81.3646 74.7352 81.3324 75.07 81.4579C75.0754 81.46 75.6542 81.7594 75.6878 81.9208L75.7023 81.991L75.6462 82.0521C75.3642 82.3115 75.052 82.5381 74.7183 82.7258C74.5839 82.8014 74.4428 82.8378 74.3069 82.8378ZM74.6567 81.6422C74.4893 81.6422 74.3175 81.6872 74.1543 81.7763C73.9989 81.8613 73.8871 81.9829 73.8554 82.1015C73.8339 82.1823 73.8476 82.261 73.8975 82.3429C74.0439 82.5823 74.329 82.6465 74.5907 82.4994C74.8691 82.3429 75.1313 82.1579 75.3722 81.9484C75.2472 81.8587 75.0193 81.7212 74.9728 81.6994C74.8722 81.6612 74.7654 81.6422 74.6567 81.6422Z" fill="#4A0F00"/>
<path d="M74.316 84.2527C74.2578 84.2527 74.2048 84.2135 74.1902 84.1545C74.0818 83.722 74.2432 83.3264 74.6219 83.0964C74.6887 83.0558 74.7576 83.02 74.8262 82.9846C75.0185 82.8851 75.1846 82.7993 75.2743 82.6156C75.3561 82.4482 75.4715 82.102 75.4487 82.0235L75.5477 81.9629L75.661 81.8764C75.6615 81.8772 75.6623 81.8779 75.6628 81.8787C75.6893 81.912 76.3142 82.6691 77.4344 81.9985C77.4959 81.9619 77.5757 81.9819 77.6126 82.0432C77.6496 82.1048 77.6293 82.1846 77.5679 82.2215C76.6591 82.7653 76.0064 82.4796 75.6836 82.2436C75.6319 82.4739 75.516 82.7135 75.5082 82.7297C75.3806 82.9906 75.1596 83.105 74.946 83.2154C74.8828 83.2482 74.8189 83.2809 74.7573 83.3186C74.473 83.4914 74.3615 83.7659 74.4428 84.0916C74.4602 84.1612 74.4179 84.2319 74.3485 84.2493C74.337 84.2514 74.3264 84.2527 74.316 84.2527Z" fill="#4A0F00"/>
<path d="M75.3247 83.6279C75.2922 83.6279 75.2597 83.6159 75.2345 83.5915C75.1828 83.5416 75.1812 83.4595 75.2311 83.4077C75.2545 83.3836 75.811 82.8157 76.7004 82.9105C76.7716 82.9181 76.8233 82.9823 76.8155 83.0538C76.808 83.125 76.7464 83.1764 76.6723 83.1689C75.9103 83.087 75.4227 83.5832 75.418 83.5881C75.3928 83.6144 75.3588 83.6279 75.3247 83.6279Z" fill="#4A0F00"/>
<path d="M75.7893 84.4284C75.7579 84.4284 75.7264 84.4172 75.7015 84.3941C75.6487 84.3457 75.6451 84.2639 75.6934 84.2111C75.7158 84.1864 76.2496 83.6131 77.0504 83.7875C77.1206 83.8028 77.165 83.8719 77.1497 83.9421C77.1344 84.0123 77.0657 84.0567 76.995 84.0414C76.3455 83.8995 75.9032 84.3668 75.8847 84.3868C75.859 84.4144 75.8242 84.4284 75.7893 84.4284Z" fill="#4A0F00"/>
<path d="M71.9229 51.5245L71.9057 51.3225C71.9021 51.2797 71.82 50.2637 72.2275 49.8406C72.3572 49.7059 72.5181 49.6417 72.7104 49.6513C73.1548 49.6727 73.2726 49.8902 73.303 50.0181C73.3968 50.4113 72.9355 50.9501 72.0991 51.4244L71.9229 51.5245ZM72.6758 49.9105C72.5719 49.9105 72.4864 49.9466 72.4151 50.0207C72.1999 50.2439 72.1547 50.7567 72.1563 51.0884C72.8773 50.6395 73.0901 50.2447 73.0504 50.0784C73.0187 49.9458 72.8162 49.9165 72.6982 49.911C72.6904 49.9107 72.6831 49.9105 72.6758 49.9105Z" fill="#4A0F00"/>
<path d="M72.7267 51.9921C72.7023 51.9921 72.6776 51.9853 72.6558 51.971C72.5957 51.9318 72.5788 51.8515 72.6181 51.7914C72.629 51.7748 72.8892 51.38 73.2408 51.27C73.3092 51.248 73.3822 51.2867 73.4035 51.3553C73.4251 51.4239 73.3869 51.4967 73.3183 51.518C73.0563 51.5999 72.8377 51.9302 72.8354 51.9336C72.8107 51.9713 72.7691 51.9921 72.7267 51.9921Z" fill="#4A0F00"/>
<path d="M73.4956 52.4763C73.4803 52.4763 73.4644 52.4737 73.4488 52.4682C73.381 52.4448 73.348 52.3637 73.3714 52.2959C73.4007 52.2104 73.5494 52.0729 73.7901 51.9089C73.8493 51.8689 73.9304 51.8837 73.9707 51.9429C74.0113 52.0022 73.9959 52.083 73.9367 52.1236C73.663 52.3102 73.6131 52.3913 73.611 52.3949C73.5928 52.4469 73.5468 52.4763 73.4956 52.4763Z" fill="#4A0F00"/>
<path d="M72.1545 51.4442C72.0822 51.4442 72.0362 51.4416 72.0277 51.4411C71.9559 51.4369 71.9013 51.3753 71.9055 51.3038C71.9097 51.2321 71.971 51.178 72.0427 51.1817C72.0523 51.1827 73.0085 51.2321 73.3994 50.8163C73.808 50.3814 74.2605 50.5161 74.4422 50.6478C74.5004 50.6899 74.5134 50.771 74.4713 50.8292C74.4292 50.8875 74.3478 50.9002 74.2899 50.8584C74.2551 50.8342 73.9341 50.6265 73.5887 50.9943C73.2066 51.4013 72.4547 51.4442 72.1545 51.4442Z" fill="#4A0F00"/>
<path d="M38.9364 38.1923L38.8303 37.6834C38.8831 37.6723 44.1205 36.5266 46.0313 31.8964C47.2282 28.9958 49.2851 27.1952 51.0995 25.6066C52.3236 24.535 53.3807 23.6095 53.9207 22.554C54.2345 21.9412 54.478 21.1121 53.8576 20.6414C53.2528 20.1826 52.0648 20.2817 51.4592 20.8412L51.1065 20.4594C51.9023 19.7244 53.3633 19.6137 54.1718 20.2273C54.5019 20.4776 55.1831 21.2285 54.3836 22.7911C53.7983 23.9352 52.7065 24.8911 51.442 25.9978C49.6705 27.5486 47.6625 29.3064 46.5119 32.0947C44.4939 36.984 39.1625 38.1453 38.9364 38.1923Z" fill="#A7A9AC"/>
<path d="M60.4139 24.1384C60.705 24.3456 61.0151 24.8144 61.4556 24.7877C61.8458 24.764 62.33 24.3864 62.5987 24.2031L62.5938 23.6935L60.4958 23.5185L60.4139 24.1384Z" fill="#FFC9B3"/>
<path d="M58.945 17.7639C59.1064 16.5289 60.6133 14.4304 62.8132 14.9601C66.6416 15.9625 65.9024 19.0936 65.0684 20.6785C64.2343 22.2634 62.3084 24.8807 60.9907 24.3318C58.4054 23.097 58.945 17.7639 58.945 17.7639Z" fill="#FFC9B3"/>
<path d="M60.7134 18.9998C60.5437 19.247 60.4158 19.5162 60.3131 19.7954C60.2089 20.0745 60.1351 20.3664 60.1031 20.6728C60.0956 20.8275 60.0891 20.9842 60.1221 21.1479C60.1343 21.2285 60.1668 21.3109 60.2011 21.3912C60.2401 21.4661 60.283 21.5349 60.342 21.5983C60.4506 21.7286 60.6248 21.8216 60.7961 21.8185C60.9655 21.8151 61.1157 21.7468 61.2244 21.6433C61.082 21.6854 60.9356 21.6989 60.8142 21.6625C60.6916 21.6306 60.604 21.5487 60.5393 21.445C60.4751 21.3345 60.427 21.2251 60.4213 21.0991C60.4033 20.9746 60.4104 20.8368 60.4221 20.7009C60.4447 20.4256 60.5008 20.1455 60.553 19.8627C60.6076 19.5797 60.6671 19.2951 60.7134 18.9998Z" fill="#F2A799"/>
<path d="M62.1436 22.2962C61.8416 22.4324 61.5908 22.5678 61.3257 22.6684C61.196 22.7251 61.0619 22.7601 60.9236 22.7981C60.7838 22.8381 60.6398 22.8508 60.4724 22.8857C60.6078 22.9805 60.7736 23.0429 60.9431 23.0471C61.1126 23.058 61.2849 23.0278 61.4419 22.9662C61.5975 22.9015 61.7426 22.8147 61.8627 22.7006C61.9832 22.5883 62.0867 22.4558 62.1436 22.2962Z" fill="#F2A799"/>
<path d="M58.8982 19.9206C58.8982 19.9206 59.031 17.8489 59.6444 17.2792C59.8918 17.0495 60.2045 16.9122 60.5385 17.0245C60.8738 17.1373 61.1009 17.4526 61.4271 17.5921C62.0581 17.8619 62.8566 17.5534 63.4369 17.2792C64.2057 16.9159 65.0213 18.7953 64.3419 20.3196C63.6625 21.8276 63.9773 21.8276 64.4248 21.4133C64.8721 20.999 65.1742 20.6167 65.5539 20.7394C65.9336 20.8618 66.7635 19.9994 66.3853 19.3039C66.0251 18.6406 66.3521 18.0402 66.757 17.4929C67.2937 16.7675 67.3462 15.7952 66.5756 15.1862C66.0009 14.7319 65.2259 14.7891 64.546 14.6492C63.7187 14.479 63.3371 14.0556 62.8275 13.4214C62.3963 12.8847 61.6298 12.6713 60.9772 12.8803C60.2827 13.1028 59.7421 13.8729 58.9385 13.5969C58.8018 13.5498 58.6708 13.475 58.526 13.4687C57.5753 13.4274 57.9875 14.5603 58.2006 15.069C58.3391 15.4001 58.5575 15.7185 58.6697 16.0579C58.8447 16.5853 58.5429 17.0445 58.3893 17.5503C58.1832 18.2302 58.4792 19.6075 58.8982 19.9206Z" fill="#4A0F00"/>
<path d="M65.7176 21.4673C66.01 20.9054 66.0981 20.2247 65.6526 19.9752C64.9488 19.5809 63.7971 21.4156 64.4729 22.1816C64.8505 22.54 65.4028 22.0727 65.7176 21.4673Z" fill="#FFC9B3"/>
<path opacity="0.5" d="M56.611 87.0347C59.0731 87.5707 61.5481 88.3756 63.5003 89.9686C65.4525 91.5615 66.8011 94.0772 66.4419 96.571C66.3907 96.926 66.3016 97.2873 66.0872 97.575C63.7116 100.766 56.6518 98.1868 53.5487 98.1759C50.3181 98.1645 47.2156 99.3686 44.0177 99.8281C40.7925 100.292 34.0571 99.378 34.2499 94.8574C34.3926 91.5116 39.4228 89.1101 42.0066 87.9481C46.5266 85.9153 51.8516 85.9988 56.611 87.0347Z" fill="#F7C15F"/>
<path d="M62.2369 61.6915C62.8519 62.4398 63.413 63.2255 63.9523 64.025C64.4945 64.8229 65.0018 65.6431 65.492 66.4743C65.7335 66.892 65.9682 67.3138 66.2008 67.7367C66.4212 68.1666 66.6535 68.5897 66.8563 69.0295C67.2726 69.9009 67.6622 70.7921 67.9268 71.7255C67.4629 70.8764 66.9784 70.0501 66.4978 69.2194L65.0434 66.7363C64.0833 65.0734 63.1102 63.4181 62.2369 61.6915Z" fill="#AFD68E"/>
<path d="M64.6313 68.9372C65.1467 69.6571 65.6104 70.4064 66.0541 71.1669C66.5006 71.9259 66.9138 72.703 67.3157 73.4863C67.7097 74.2733 68.0868 75.0702 68.4244 75.8855C68.7628 76.699 69.0776 77.5302 69.2746 78.3949C68.8746 77.6064 68.4626 76.8352 68.0569 76.0573C67.6468 75.2825 67.2522 74.5005 66.8517 73.7203C66.4606 72.9353 66.0684 72.1507 65.6962 71.3548C65.3211 70.5606 64.9575 69.7598 64.6313 68.9372Z" fill="#AFD68E"/>
<path d="M69.7173 53.677L69.9523 56.0526C70.0388 56.838 70.1261 57.6214 70.2805 58.3826C70.3497 58.7647 70.4466 59.1384 70.5755 59.4901L70.6761 59.7508L70.798 60.0237C70.8809 60.2051 70.9594 60.3883 71.0366 60.5726C71.3503 61.3063 71.6471 62.0478 71.8964 62.8099C71.4509 62.1396 71.053 61.449 70.6719 60.7506C70.5753 60.5768 70.4804 60.4021 70.3894 60.2254L70.2512 59.9611L70.1178 59.6726C69.9582 59.2827 69.8522 58.8837 69.7706 58.4845C69.6191 57.6832 69.5531 56.8783 69.5484 56.0752C69.5453 55.2723 69.5884 54.4703 69.7173 53.677Z" fill="#AFD68E"/>
<path d="M42.463 38.4915C42.5854 39.0061 42.6226 39.5332 42.6119 40.0595C42.601 40.5861 42.5391 41.1155 42.4022 41.6348C42.261 42.1502 42.0523 42.6692 41.6846 43.0973C41.5031 43.3101 41.2752 43.4918 41.0176 43.6049C40.7585 43.7146 40.4762 43.7515 40.2158 43.7042C40.7369 43.5784 41.1099 43.2574 41.3599 42.8538C41.6154 42.4512 41.7667 41.9779 41.8998 41.5009C42.1576 40.5364 42.2795 39.5251 42.463 38.4915Z" fill="#AFD68E"/>
<path d="M51.2826 29.4912C51.923 30.0625 52.3872 30.8167 52.7357 31.605C53.0866 32.398 53.2937 33.2489 53.4078 34.1074C53.4936 34.9692 53.4923 35.8389 53.3678 36.6911C53.3234 37.1187 53.2056 37.5353 53.1207 37.9532C53.0014 38.3646 52.8652 38.7706 52.7175 39.1688C52.7537 38.741 52.822 38.3249 52.8698 37.907L52.921 37.2788C52.9382 37.0701 52.9668 36.8632 52.9639 36.6537C52.9681 36.445 52.9738 36.2368 52.9845 36.0291C52.9998 35.8215 52.9759 35.6138 52.9738 35.4064C52.9782 34.9911 52.9286 34.5799 52.8922 34.1679C52.7926 33.3477 52.6185 32.5381 52.3591 31.7511C52.0925 30.9672 51.7559 30.1994 51.2826 29.4912Z" fill="#AFD68E"/>
<path d="M76.7493 28.6584C75.8147 29.2721 74.8676 29.8564 73.9228 30.4409C73.4537 30.7385 72.9773 31.0226 72.5136 31.3251C72.0463 31.6211 71.5798 31.9185 71.1371 32.2392C71.0241 32.3166 70.9131 32.3954 70.8071 32.4783L70.6457 32.6005C70.5945 32.642 70.555 32.6867 70.5087 32.7291L70.3735 32.8575C70.3325 32.9053 70.2956 32.9586 70.2561 33.0088L70.1388 33.1611C70.1019 33.2138 70.0707 33.2726 70.0357 33.3277C69.7565 33.7721 69.558 34.28 69.3862 34.7967C69.0582 35.8391 68.8458 36.9302 68.6779 38.0338C68.6301 36.9159 68.7301 35.789 68.996 34.6852C69.1283 34.1326 69.3266 33.5897 69.613 33.075C69.6497 33.0111 69.6819 32.9451 69.724 32.8837L69.8581 32.7029C69.9036 32.6431 69.9462 32.5815 69.9948 32.5235L70.1586 32.3608C70.2137 32.3083 70.2683 32.2496 70.3244 32.2028L70.4939 32.0705C70.6062 31.9806 70.7205 31.8958 70.8364 31.8153C71.7653 31.1681 72.7345 30.6137 73.7219 30.0903C74.7096 29.5694 75.7141 29.0821 76.7493 28.6584Z" fill="#AFD68E"/>
<path d="M103.518 71.7252C103.985 72.757 104.427 73.7941 104.876 74.8256C105.107 75.3384 105.324 75.8567 105.565 76.3612C105.802 76.8672 106.038 77.3758 106.316 77.8468C106.575 78.3227 106.922 78.7297 107.307 79.1333C107.685 79.539 108.095 79.919 108.501 80.3045C109.326 81.0644 110.176 81.8033 111.023 82.5563C110.048 81.9775 109.121 81.323 108.236 80.6114C107.791 80.2572 107.367 79.8769 106.955 79.4767C106.551 79.0767 106.155 78.6208 105.866 78.1069C105.302 77.0938 104.886 76.0407 104.501 74.9746C104.12 73.9079 103.782 72.8272 103.518 71.7252Z" fill="#AFD68E"/>
<path d="M111.334 61.8812C111.569 62.7636 111.735 63.6582 111.875 64.5559C112.018 65.4537 112.12 66.3571 112.198 67.2629C112.267 68.1694 112.319 69.0786 112.307 69.9906C112.298 70.901 112.252 71.8169 112.082 72.7149C112.035 71.8039 111.968 70.9049 111.901 70.0046L111.681 67.3055L111.474 64.6012C111.41 63.698 111.355 62.7933 111.334 61.8812Z" fill="#AFD68E"/>
<path d="M100.061 67.7946C99.6899 68.6092 99.2205 69.3741 98.7051 70.1055C98.1905 70.8384 97.6132 71.5287 96.983 72.172C96.3449 72.8059 95.6538 73.3988 94.8749 73.8663C94.1071 74.3401 93.2328 74.6889 92.3376 74.7518C93.1881 74.4745 93.9498 74.0454 94.6503 73.5284C94.9978 73.267 95.3424 73.0016 95.6639 72.7064C95.9901 72.4176 96.3108 72.1213 96.6141 71.8058C97.2338 71.1882 97.8141 70.5289 98.3854 69.8581C98.953 69.1841 99.5072 68.4956 100.061 67.7946Z" fill="#AFD68E"/>
<path d="M103.518 75.2064C104.063 76.2151 104.584 77.1952 105.185 78.1275C105.478 78.5974 105.807 79.0395 106.144 79.4793C106.489 79.9143 106.869 80.3151 107.27 80.731C106.746 80.4945 106.263 80.1561 105.845 79.7529C105.428 79.3488 105.062 78.8937 104.747 78.4079C104.442 77.9172 104.172 77.4049 103.964 76.8682C103.755 76.3336 103.588 75.7795 103.518 75.2064Z" fill="#AFD68E"/>
<path d="M112.864 66.3732C113.048 66.8371 113.163 67.318 113.25 67.8019C113.336 68.2861 113.391 68.7755 113.412 69.267C113.438 69.7582 113.42 70.2521 113.373 70.743C113.327 71.2337 113.235 71.7231 113.078 72.1956C113.019 71.6995 112.997 71.2171 112.968 70.7339L112.893 69.2899C112.871 68.8085 112.857 68.3264 112.847 67.8417C112.838 67.3567 112.835 66.8704 112.864 66.3732Z" fill="#AFD68E"/>
<path d="M93.8961 40.9648C94.6652 41.3008 95.3334 41.8518 95.8992 42.4792C96.4687 43.1087 96.9259 43.838 97.2791 44.6118C97.6001 45.3977 97.8566 46.2146 97.9514 47.0551C97.9657 47.1596 97.985 47.2633 97.9954 47.3681L98.0128 47.6836L98.039 48.3128C98.0302 48.7323 97.9943 49.1508 97.9504 49.5638C97.8789 49.1492 97.8464 48.7383 97.7846 48.3318L97.6749 47.7262L97.6245 47.4245C97.6045 47.3244 97.5761 47.2262 97.5522 47.1271C97.5015 46.9296 97.4529 46.7326 97.409 46.5345C97.3591 46.3381 97.2871 46.1478 97.2276 45.955C97.1221 45.5638 96.9508 45.1965 96.8037 44.8218C96.4775 44.0844 96.0671 43.3876 95.5871 42.7358C95.1018 42.0883 94.5487 41.483 93.8961 40.9648Z" fill="#AFD68E"/>
<path d="M25.7385 89.9922C25.9662 90.0309 26.1793 90.1165 26.3992 90.1669C26.618 90.2215 26.8366 90.2708 27.0573 90.301C27.4971 90.3673 27.9394 90.3784 28.3719 90.3348C29.2363 90.2365 30.0569 89.9041 30.7594 89.3898C31.1129 89.1364 31.451 88.8546 31.7543 88.5334C31.9168 88.3839 32.0553 88.2095 32.2071 88.0479L32.6302 87.5304C33.1765 86.8216 33.6602 86.0575 34.1436 85.2796C33.8564 86.1487 33.4635 86.9864 32.9611 87.7651C32.4597 88.5427 31.8294 89.2567 31.0601 89.8134C30.2916 90.3655 29.3517 90.7197 28.3974 90.7382C27.9217 90.7498 27.4497 90.6781 27.0017 90.5487C26.7784 90.4796 26.5606 90.3987 26.3509 90.3018C26.2461 90.2532 26.1429 90.202 26.0418 90.1479C25.94 90.0964 25.8456 90.0268 25.7385 89.9922Z" fill="#AFD68E"/>
<path d="M23.0393 90.806C22.6952 91.1961 22.2178 91.47 21.7099 91.6257C21.2005 91.7721 20.6542 91.8422 20.1229 91.7773C19.05 91.6816 18.0499 91.2455 17.1465 90.7088C16.9235 90.5687 16.7153 90.4083 16.4993 90.2589C16.2875 90.1042 16.0634 89.9641 15.8735 89.7838L15.2858 89.2655L14.9932 89.0059L14.7257 88.7213L14.1934 88.1516C14.0177 87.9605 13.8415 87.7705 13.6863 87.5621C13.3698 87.1507 13.0527 86.7416 12.7556 86.319C13.1413 86.6672 13.5073 87.029 13.8735 87.3885C14.0494 87.5751 14.2425 87.744 14.4359 87.9122L15.0043 88.4263L15.2871 88.6836L15.585 88.9219L16.1794 89.3978C16.3709 89.5654 16.5851 89.6993 16.7922 89.8435C17.0017 89.9836 17.205 90.1349 17.4189 90.2662L18.0733 90.6365C18.2856 90.7743 18.5263 90.8431 18.7509 90.9518C18.8652 91.0007 18.9778 91.0568 19.094 91.1002L19.4498 91.2062L19.8064 91.3131L20.171 91.376C20.6576 91.47 21.1576 91.4589 21.6483 91.3793C22.1408 91.2993 22.6201 91.1083 23.0393 90.806Z" fill="#AFD68E"/>
<path d="M36.6328 83.5122C36.5553 84.078 36.3983 84.6249 36.2091 85.1582C36.0215 85.6931 35.7852 86.2093 35.5243 86.7135C35.2542 87.2128 34.9496 87.6957 34.6011 88.1461C34.2507 88.595 33.852 89.0111 33.3959 89.3523C33.6927 88.864 33.9864 88.3972 34.265 87.9189C34.5356 87.4363 34.8108 86.9594 35.0658 86.4689C35.5897 85.4945 36.0766 84.503 36.6328 83.5122Z" fill="#AFD68E"/>
<path d="M30.9746 68.2734C31.5321 68.8163 32.0987 69.3348 32.7017 69.7889C33.0055 70.0116 33.3127 70.2266 33.6412 70.388C33.963 70.5525 34.3097 70.6952 34.6258 70.7082C34.9598 70.7347 35.3169 70.6409 35.6625 70.5328C36.0147 70.4298 36.351 70.2575 36.6928 70.0987C37.367 69.7546 38.0241 69.3562 38.6801 68.9372C38.1626 69.5222 37.5573 70.0254 36.8927 70.4517C36.2245 70.8613 35.4819 71.2394 34.598 71.227C34.1387 71.1903 33.7605 71.0162 33.405 70.8184C33.0536 70.612 32.7321 70.3719 32.4436 70.1C31.8617 69.5638 31.3639 68.9502 30.9746 68.2734Z" fill="#AFD68E"/>
<path d="M14.5136 65.4763C14.7795 66.2903 14.9271 67.1386 15.008 67.9922C15.0886 68.8467 15.0862 69.712 14.9911 70.5723C14.8887 71.4299 14.6935 72.2887 14.3333 73.085C13.9839 73.8811 13.4509 74.6143 12.7554 75.1165C13.2996 74.4555 13.6905 73.7182 13.9561 72.9353C14.0887 72.5444 14.1997 72.146 14.2792 71.7398C14.3668 71.3359 14.4331 70.9257 14.4749 70.5122C14.5765 69.687 14.6012 68.8504 14.6043 68.0109C14.6007 67.1714 14.568 66.3282 14.5136 65.4763Z" fill="#AFD68E"/>
<path d="M26.1107 51.1664C26.4239 51.4182 26.7082 51.6789 26.9952 51.9276C27.2813 52.1745 27.5693 52.4165 27.8659 52.5961C27.9389 52.6463 28.0138 52.678 28.0876 52.7159C28.1622 52.7437 28.2277 52.7744 28.3145 52.7921C28.4787 52.8383 28.6513 52.8524 28.8291 52.8596C29.1849 52.8625 29.556 52.8014 29.9412 52.6923C29.6652 52.9888 29.2829 53.1853 28.8662 53.2635C28.6575 53.3077 28.4384 53.3023 28.2219 53.2755C28.1159 53.2664 27.9992 53.2248 27.8911 53.1902C27.79 53.1442 27.6863 53.099 27.5971 53.0411C27.2286 52.817 26.9479 52.5192 26.7007 52.2047C26.4556 51.8884 26.2498 51.5448 26.1107 51.1664Z" fill="#AFD68E"/>
<path d="M92.2234 20.0982C92.2234 20.0982 90.2608 25.3392 86.8649 27.5603C93.0761 26.5914 93.0761 26.5914 93.0761 26.5914C93.0761 26.5914 98.3091 22.2237 97.5928 19.9609C93.564 20.2234 92.2234 20.0982 92.2234 20.0982Z" fill="white"/>
</svg>
