<svg width="600" height="452" viewBox="0 0 600 452" fill="none" xmlns="http://www.w3.org/2000/svg">
<path d="M48.45 267.285C53.0401 265.086 57.6084 279.715 57.6084 279.715C65.4097 290.035 76.3119 276.306 75.2463 291.732C73.3806 318.727 106.285 300.221 91.1043 328.404C75.9236 356.588 104.508 344.341 95.074 367.065C85.641 389.791 97.8679 416.895 83.6742 405.758C83.6742 405.758 71.1755 378.319 58.2866 369.831C45.3978 361.342 66.0084 351.271 61.9755 339.74C56.1176 322.994 42.0051 323.651 52.1804 305.655C62.3565 287.658 32.8476 274.754 48.45 267.285Z" fill="url(#paint0_linear_326_4657)"/>
<path d="M88.1684 395.431C82.0161 391.1 74.8154 360.913 74.3856 342.933C74.1653 333.723 71.4462 329.886 69.046 326.501C66.7523 323.265 64.772 320.47 65.9261 314.052C68.1312 301.791 62.3338 296.496 62.2751 296.443L62.947 295.678C63.2044 295.904 69.242 301.363 66.9284 314.232C65.8502 320.228 67.6274 322.735 69.8768 325.909C72.2382 329.241 75.1766 333.385 75.4042 342.907C75.8647 362.204 83.2271 390.705 88.7545 394.597L88.1684 395.431Z" fill="white"/>
<path d="M90.4712 397.668C89.6774 397.668 88.815 397.577 87.8696 397.385C85.4982 396.906 83.9432 395.653 83.2479 393.663C81.589 388.914 85.4323 381.2 88.5513 377.483C88.6028 377.421 93.8232 371.033 93.2669 362.18C93.173 360.696 93.0195 359.323 92.884 358.11C92.4912 354.606 92.2077 352.075 93.7112 350.385C95.0359 348.894 97.5933 348.25 102.262 348.227C110.451 348.188 113.688 344.795 116.29 342.067C117.395 340.909 118.439 339.815 119.707 339.122C123.787 336.892 128.109 336.564 129.984 338.343C130.874 339.188 131.626 340.843 130.151 343.929C128.804 346.749 127.055 348.536 125.65 349.97C123.76 351.901 122.512 353.176 123.162 355.717C123.315 356.315 123.491 356.917 123.667 357.522C124.93 361.844 126.36 366.743 118.971 370.068C117.404 370.773 115.974 371.334 114.714 371.829C109.556 373.855 106.442 375.079 102.927 382.506C102.247 383.944 101.646 385.307 101.065 386.624C98.2941 392.913 96.1972 397.668 90.4712 397.668ZM120.194 340.018C119.065 340.635 118.121 341.625 117.026 342.772C114.292 345.639 110.889 349.206 102.268 349.247C97.9753 349.267 95.5714 349.828 94.4725 351.063C93.2705 352.414 93.5333 354.757 93.8963 357.997C94.0327 359.221 94.188 360.608 94.2828 362.116C94.8662 371.388 89.5582 377.866 89.3325 378.138C86.245 381.818 82.7485 389.144 84.2096 393.328C84.7776 394.956 86.0771 395.985 88.0718 396.388C95.0314 397.797 96.9522 393.438 100.135 386.216C100.719 384.892 101.322 383.523 102.008 382.073C105.696 374.28 109.136 372.93 114.343 370.884C115.593 370.392 117.009 369.836 118.555 369.14C125.136 366.179 123.949 362.114 122.692 357.81C122.511 357.194 122.333 356.581 122.177 355.973C121.385 352.875 122.947 351.28 124.925 349.259C126.347 347.806 127.959 346.159 129.234 343.492C129.903 342.093 130.453 340.194 129.285 339.085C127.746 337.625 123.838 338.026 120.194 340.018Z" fill="url(#paint1_linear_326_4657)"/>
<path d="M87.9788 403.549L86.9629 403.495C87.0126 402.539 88.2948 380.012 97.3296 373.419C107.243 366.186 110.367 358.412 111.856 353.195C113.609 347.047 122.537 345.404 122.916 345.337L123.093 346.339C123.006 346.356 114.413 347.94 112.834 353.475C111.305 358.837 108.095 366.825 97.9292 374.243C89.2819 380.552 87.9905 403.319 87.9788 403.549Z" fill="url(#paint2_linear_326_4657)"/>
<path d="M108.637 290.018C102.216 287.813 103.55 300.205 100.836 309.373C98.1227 318.541 70.6482 313.372 82.1807 336.329C93.7132 359.288 67.596 344.007 75.3972 364.041C83.1984 384.075 76.0745 405.501 84.5547 400.05C93.035 394.601 89.3191 369.372 98.138 366.376C106.957 363.378 108.396 359.88 99.6641 351.732C90.9328 343.582 122.544 335.492 114.743 319.037C106.942 302.582 116.058 292.565 108.637 290.018Z" fill="url(#paint3_linear_326_4657)"/>
<path d="M88.4899 399.093C87.6826 395.663 80.7853 365.481 87.2203 361.832C92.8931 358.617 92.7531 346.11 91.8672 334.3C91.0843 323.845 104.496 318.959 105.068 318.757L105.408 319.718C105.275 319.765 92.1571 324.548 92.8822 334.225C93.7907 346.353 93.8882 359.224 87.7215 362.72C82.8343 365.491 87.3332 389.747 89.4796 398.86L88.4899 399.093Z" fill="white"/>
<path d="M103.088 388.345L93.9189 423.168H73.4284L64.26 388.345H103.088Z" fill="url(#paint4_linear_326_4657)"/>
<path d="M103.088 388.345C103.088 388.345 82.9031 392.139 82.9031 423.168H73.4286L64.2593 388.345H103.088Z" fill="url(#paint5_linear_326_4657)"/>
<path d="M497.198 255.193H448.364V254.319H496.326V214.878H497.198V255.193Z" fill="#78C2FF"/>
<path d="M488.815 184.305H465.468V160.932H488.815V184.305ZM466.245 183.525H488.037V161.71H466.245V183.525Z" fill="#6AAFE8"/>
<path d="M546.927 169.501H493.485V163.788H546.927V169.501ZM494.264 168.722H546.149V164.566H494.264V168.722Z" fill="#6AAFE8"/>
<path d="M546.927 196.073H465.468V190.359H546.927V196.073ZM466.245 195.293H546.148V191.138H466.245V195.293Z" fill="#6AAFE8"/>
<path d="M517.353 207.045H465.468V201.332H517.353V207.045ZM466.245 206.266H516.574V202.111H466.245V206.266Z" fill="#6AAFE8"/>
<path d="M529.675 180.4H493.486V174.687H529.675V180.4ZM494.264 179.621H528.897V175.466H494.264V179.621Z" fill="#6AAFE8"/>
<path d="M556.202 219.47H456.194V148.505H556.202V219.47ZM456.971 218.692H555.423V149.286H456.971V218.692Z" fill="#6AAFE8"/>
<path d="M496.762 215.466C494.997 215.466 493.559 214.028 493.559 212.26C493.559 210.492 494.997 209.054 496.762 209.054C498.528 209.054 499.964 210.492 499.964 212.26C499.964 214.028 498.528 215.466 496.762 215.466ZM496.762 209.927C495.476 209.927 494.431 210.974 494.431 212.26C494.431 213.547 495.476 214.593 496.762 214.593C498.047 214.593 499.092 213.547 499.092 212.26C499.092 210.973 498.047 209.927 496.762 209.927Z" fill="#78C2FF"/>
<path d="M161.952 195.076H103.613L103.714 194.556C104.652 189.745 108.891 186.254 113.797 186.254C114.505 186.254 115.211 186.328 115.9 186.473C118.94 180.69 124.845 177.113 131.394 177.113C136.973 177.113 142.234 179.794 145.53 184.301C146.733 183.935 147.981 183.75 149.249 183.75C155.597 183.75 160.907 188.302 161.874 194.574L161.952 195.076ZM104.687 194.203H160.922C159.827 188.707 154.896 184.622 149.247 184.622C147.965 184.622 146.704 184.826 145.497 185.227L145.19 185.329L145.004 185.063C141.883 180.631 136.796 177.985 131.393 177.985C125.062 177.985 119.364 181.504 116.523 187.169L116.366 187.481L116.029 187.397C115.302 187.218 114.551 187.126 113.797 187.126C109.485 187.127 105.736 190.072 104.687 194.203Z" fill="#6AAFE8"/>
<path d="M391.993 384.119H301.46H210.927L197.977 432.571H301.46H404.944L391.993 384.119Z" fill="url(#paint6_linear_326_4657)"/>
<path d="M212.353 396.987H224.201C224.696 396.987 225.069 397.372 224.976 397.788L223.83 402.947C223.758 403.266 223.433 403.496 223.053 403.496H211.003C210.497 403.496 210.122 403.096 210.232 402.674L211.582 397.515C211.663 397.206 211.984 396.987 212.353 396.987Z" fill="white"/>
<path d="M229.633 396.987H238.59L237.398 403.496H228.271L229.633 396.987Z" fill="white"/>
<path d="M243.068 396.987H252.024L251.086 403.496L241.959 403.505L243.068 396.987Z" fill="white"/>
<path d="M256.502 396.987H265.458L264.777 403.496H255.65L256.502 396.987Z" fill="white"/>
<path d="M269.936 396.987H278.893L278.467 403.496H269.34L269.936 396.987Z" fill="white"/>
<path d="M283.37 396.987H292.328L292.157 403.496L283.03 403.505L283.37 396.987Z" fill="white"/>
<path d="M390.876 396.987H377.443L378.89 403.496H392.579L390.876 396.987Z" fill="white"/>
<path d="M372.965 396.987H364.008L365.2 403.496H374.327L372.965 396.987Z" fill="white"/>
<path d="M359.53 396.987H350.574L351.511 403.496L360.638 403.505L359.53 396.987Z" fill="white"/>
<path d="M346.096 396.987H337.139L337.82 403.496H346.947L346.096 396.987Z" fill="white"/>
<path d="M332.661 396.987H323.705L324.131 403.496H333.256L332.661 396.987Z" fill="white"/>
<path d="M319.226 396.987H310.27L310.44 403.496L319.567 403.505L319.226 396.987Z" fill="white"/>
<path d="M296.806 396.987H305.762L305.911 403.496H296.806V396.987Z" fill="white"/>
<path d="M208.412 408.345H227.128L226.062 415.059H206.992L208.412 408.345Z" fill="white"/>
<path d="M393.799 408.345H370.666L371.983 415.059H395.556L393.799 408.345Z" fill="white"/>
<path d="M366.039 408.345H356.785L357.839 415.059H367.269L366.039 408.345Z" fill="white"/>
<path d="M352.159 408.345H342.904L343.695 415.059H353.124L352.159 408.345Z" fill="white"/>
<path d="M338.278 408.345H329.024L329.551 415.059H338.98L338.278 408.345Z" fill="white"/>
<path d="M324.398 408.345H315.144L315.408 415.059H324.837L324.398 408.345Z" fill="white"/>
<path d="M205.617 420.312H224.75L223.354 426.981H203.872L205.617 420.312Z" fill="white"/>
<path d="M229.533 420.312H239.1L237.966 426.981H228.225L229.533 420.312Z" fill="white"/>
<path d="M243.884 420.312H253.45H315.627L315.895 426.981H242.836L243.884 420.312Z" fill="white"/>
<path d="M320.417 420.312H329.984L330.507 426.981H320.766L320.417 420.312Z" fill="white"/>
<path d="M334.767 420.312H344.333L345.119 426.981H335.377L334.767 420.312Z" fill="white"/>
<path d="M349.117 420.312H358.684L359.73 426.981H349.99L349.117 420.312Z" fill="white"/>
<path d="M363.467 420.312H373.033L374.343 426.981H364.601L363.467 420.312Z" fill="white"/>
<path d="M377.818 420.312H396.95L398.696 426.981H379.212L377.818 420.312Z" fill="white"/>
<path d="M310.537 408.345H301.359V415.059H310.713L310.537 408.345Z" fill="white"/>
<path d="M296.657 408.345H287.403L287.14 415.059H296.569L296.657 408.345Z" fill="white"/>
<path d="M282.776 408.345H273.523L272.997 415.059H282.425L282.776 408.345Z" fill="white"/>
<path d="M268.896 408.345H259.643L258.852 415.059H268.281L268.896 408.345Z" fill="white"/>
<path d="M255.016 408.345H245.762L244.708 415.059H254.138L255.016 408.345Z" fill="white"/>
<path d="M241.136 408.345H231.882L230.564 415.059H239.994L241.136 408.345Z" fill="white"/>
<path d="M212.79 392.896L214.311 387.085H218.66L217.24 392.896H212.79Z" fill="white"/>
<path d="M223.009 387.085H231.705L230.49 392.896H221.64L223.009 387.085Z" fill="white"/>
<path d="M236.054 387.085H244.752L243.763 392.896H234.913L236.054 387.085Z" fill="white"/>
<path d="M249.1 387.085H257.797L257.037 392.896H248.188L249.1 387.085Z" fill="white"/>
<path d="M262.146 387.085H270.844L270.311 392.896H261.461L262.146 387.085Z" fill="white"/>
<path d="M275.192 387.085H283.889L283.585 392.896H274.736L275.192 387.085Z" fill="white"/>
<path d="M288.237 387.085H296.935L296.859 392.896H288.01L288.237 387.085Z" fill="white"/>
<path d="M301.284 387.085H309.981L310.133 392.896H301.284V387.085Z" fill="white"/>
<path d="M314.329 387.085H323.028L323.407 392.896H314.558L314.329 387.085Z" fill="white"/>
<path d="M327.375 387.085H336.073L336.681 392.896H327.832L327.375 387.085Z" fill="white"/>
<path d="M340.421 387.085H349.118L349.954 392.896H341.106L340.421 387.085Z" fill="white"/>
<path d="M353.468 387.085H362.165L363.229 392.896H354.379L353.468 387.085Z" fill="white"/>
<path d="M366.513 387.085H375.211L376.502 392.896H367.654L366.513 387.085Z" fill="white"/>
<path d="M379.559 387.085H388.256L389.777 392.896H380.927L379.559 387.085Z" fill="white"/>
<path d="M404.944 432.571H197.977V435.431H404.944V432.571Z" fill="url(#paint7_linear_326_4657)"/>
<path d="M287.838 368.106H316.322V281.498H287.838V368.106Z" fill="#518AFA"/>
<path d="M187.758 323.219H416.401C421.182 323.219 425.058 319.339 425.058 314.552V158.188C425.058 153.401 421.182 149.521 416.401 149.521H187.758C182.977 149.521 179.101 153.401 179.101 158.188V314.552C179.101 319.339 182.977 323.219 187.758 323.219Z" fill="url(#paint8_linear_326_4657)"/>
<path d="M187.795 291.647H415.928V158.029H187.795V291.647Z" fill="url(#paint9_linear_326_4657)"/>
<path d="M294.146 308.454C294.146 312.841 297.698 316.397 302.08 316.397C306.462 316.397 310.014 312.84 310.014 308.454C310.014 304.068 306.462 300.512 302.08 300.512C297.698 300.512 294.146 304.068 294.146 308.454Z" fill="#696969"/>
<path d="M366.151 364.838H238.007V371.377H366.151V364.838Z" fill="url(#paint10_linear_326_4657)"/>
<path d="M377.443 91.4949L377.244 91.3927C356.541 80.8123 359.322 60.3195 359.353 60.1134L359.409 59.7401H359.784C372.947 59.7401 377.083 55.4931 377.124 55.4506L377.445 55.1089L377.763 55.4515C377.802 55.4931 381.94 59.7401 395.101 59.7401H395.478L395.534 60.1134C395.565 60.3195 398.344 80.8114 377.641 91.3927L377.443 91.4949ZM360.173 60.6124C359.912 63.3886 359.04 80.9796 377.443 90.514C395.846 80.9805 394.973 63.3886 394.712 60.6124C383.283 60.541 378.632 57.3544 377.443 56.3428C376.254 57.3544 371.603 60.541 360.173 60.6124Z" fill="#6AAFE8"/>
<path d="M226.457 168.26H200.907V170.88H226.457V168.26Z" fill="#E0E0E0"/>
<path d="M252.056 187.98H233.608V190.599H252.056V187.98Z" fill="#E0E0E0"/>
<path d="M267.171 187.98H254.93V190.599H267.171V187.98Z" fill="#1487E3"/>
<path d="M292.181 267.153H279.94V269.773H292.181V267.153Z" fill="#1487E3"/>
<path d="M213.439 237.573H201.197V240.191H213.439V237.573Z" fill="#1487E3"/>
<path d="M299.146 187.98H269.59V190.599H299.146V187.98Z" fill="#E0E0E0"/>
<path d="M220.19 227.641H201.197V230.258H220.19V227.641Z" fill="#E0E0E0"/>
<path d="M271.222 247.433H252.23V250.052H271.222V247.433Z" fill="#E0E0E0"/>
<path d="M342.164 267.153H323.171V269.773H342.164V267.153Z" fill="#E0E0E0"/>
<path d="M239.266 247.433H227.672V250.052H239.266V247.433Z" fill="#E0E0E0"/>
<path d="M224.168 247.433H201.197V250.052H224.168V247.433Z" fill="#1487E3"/>
<path d="M213.867 257.293H201.197V259.913H213.867V257.293Z" fill="#E0E0E0"/>
<path d="M249.567 168.26H231.429V170.88H249.567V168.26Z" fill="#78C2FF"/>
<path d="M249.567 197.84H231.429V200.46H249.567V197.84Z" fill="#1487E3"/>
<path d="M230.109 207.701H222.36V210.32H230.109V207.701Z" fill="#E0E0E0"/>
<path d="M232.017 217.707H214.61V220.325H232.017V217.707Z" fill="#78C2FF"/>
<path d="M258.679 217.707H234.648V220.325H258.679V217.707Z" fill="#1487E3"/>
<path d="M334.781 257.293H310.751V259.913H334.781V257.293Z" fill="#1487E3"/>
<path d="M219.335 207.773H201.197V210.392H219.335V207.773Z" fill="#1487E3"/>
<path d="M211.959 217.707H201.197V220.325H211.959V217.707Z" fill="#1487E3"/>
<path d="M243.917 207.773H233.763V210.392H243.917V207.773Z" fill="#FF8761"/>
<path d="M211.655 267.153H201.501V269.773H211.655V267.153Z" fill="#FF8761"/>
<path d="M219.263 187.98H201.125V190.599H219.263V187.98Z" fill="#78C2FF"/>
<path d="M235.303 237.573H217.165V240.191H235.303V237.573Z" fill="#78C2FF"/>
<path d="M235.527 257.293H217.388V259.913H235.527V257.293Z" fill="#78C2FF"/>
<path d="M267.748 257.293H249.61V259.913H267.748V257.293Z" fill="#78C2FF"/>
<path d="M226.981 197.84H201.125V200.46H226.981V197.84Z" fill="#78C2FF"/>
<path d="M340.424 168.26H322.286V170.88H340.424V168.26Z" fill="#78C2FF"/>
<path d="M275.81 267.153H257.671V269.773H275.81V267.153Z" fill="#78C2FF"/>
<path d="M358.209 168.26H346.067V170.88H358.209V168.26Z" fill="#78C2FF"/>
<path d="M399.288 178.121H387.147V180.739H399.288V178.121Z" fill="#78C2FF"/>
<path d="M277.558 168.26H254.449V170.88H277.558V168.26Z" fill="#1487E3"/>
<path d="M369.177 267.153H346.067V269.773H369.177V267.153Z" fill="#1487E3"/>
<path d="M238.597 267.153H215.489V269.773H238.597V267.153Z" fill="#1487E3"/>
<path d="M367.597 178.121H344.489V180.739H367.597V178.121Z" fill="#1487E3"/>
<path d="M339.257 187.98H316.147V190.599H339.257V187.98Z" fill="#1487E3"/>
<path d="M319.175 267.153H296.067V269.773H319.175V267.153Z" fill="#1487E3"/>
<path d="M315.62 247.433H292.511V250.052H315.62V247.433Z" fill="#1487E3"/>
<path d="M247.876 247.433H242.895V250.052H247.876V247.433Z" fill="#FF8761"/>
<path d="M370.217 195.246L345.791 192.841L345.535 195.447L369.961 197.853L370.217 195.246Z" fill="#78C2FF"/>
<path d="M317.758 168.26H294.65V170.88H317.758V168.26Z" fill="#FF8761"/>
<path d="M298.067 209.954L262.276 193.978L263.345 191.587L299.135 207.564L298.067 209.954Z" fill="#1487E3"/>
<path d="M271.221 237.719H257.671V240.337H271.221V237.719Z" fill="#FF8761"/>
<path d="M290.29 168.26H281.832V170.88H290.29V168.26Z" fill="#E0E0E0"/>
<path d="M262.908 197.84H254.449V200.46H262.908V197.84Z" fill="#E0E0E0"/>
<path d="M381.629 178.121H373.171V180.739H381.629V178.121Z" fill="#E0E0E0"/>
<path d="M214.14 178.121H200.907V180.739H214.14V178.121Z" fill="#1487E3"/>
<path d="M246.664 227.713H236.216V230.331H246.664V227.713Z" fill="#1487E3"/>
<path d="M221.662 178.121H217.388V180.739H221.662V178.121Z" fill="#1487E3"/>
<path d="M340.424 178.121H305.107V180.739H340.424V178.121Z" fill="#E0E0E0"/>
<path d="M306.538 257.293H271.222V259.913H306.538V257.293Z" fill="#E0E0E0"/>
<path d="M229.161 178.121H224.801V180.739H229.161V178.121Z" fill="#FF8761"/>
<path d="M301.845 178.121H290.29V180.739H301.845V178.121Z" fill="#1487E3"/>
<path d="M313.4 187.98H301.845V190.599H313.4V187.98Z" fill="#FF8761"/>
<path d="M287.608 247.433H276.054V250.052H287.608V247.433Z" fill="#FF8761"/>
<path d="M253.984 267.153H242.43V269.773H253.984V267.153Z" fill="#FF8761"/>
<path d="M287.232 178.121H262.647V180.739H287.232V178.121Z" fill="#1487E3"/>
<path d="M344.434 247.433H319.849V250.052H344.434V247.433Z" fill="#1487E3"/>
<path d="M254.127 237.719H239.763V240.337H254.127V237.719Z" fill="#1487E3"/>
<path d="M246.022 257.293H238.84V259.913H246.022V257.293Z" fill="#1487E3"/>
<path d="M259.159 178.121H250.7V180.739H259.159V178.121Z" fill="#78C2FF"/>
<path d="M346.393 257.293H337.935V259.913H346.393V257.293Z" fill="#FF8761"/>
<path d="M230.687 187.98H222.229V190.599H230.687V187.98Z" fill="#FF8761"/>
<path d="M232.373 227.713H223.915V230.331H232.373V227.713Z" fill="#FF8761"/>
<path d="M247.474 178.121H232.736V180.739H247.474V178.121Z" fill="#1487E3"/>
<path d="M200.907 238.289H136.716V191.072H137.587V237.417H200.907V238.289Z" fill="#78C2FF"/>
<path d="M330.943 189.289H330.072V126.796H377.007V85.8501H377.879V127.669H330.943V189.289Z" fill="#78C2FF"/>
<path d="M197.67 277.371C197.666 277.369 197.664 277.368 197.658 277.369C197.705 277.391 197.711 277.392 197.67 277.371Z" fill="#323657"/>
<path d="M406.3 102.304H398.817V101.432H405.428V94.8198H406.3V102.304Z" fill="#6AAFE8"/>
<path d="M355.983 102.304H348.501V94.8198H349.372V101.432H355.983V102.304Z" fill="#6AAFE8"/>
<path d="M349.376 51.9368H348.504V44.4453H355.981V45.3186H349.376V51.9368Z" fill="#6AAFE8"/>
<path d="M406.3 51.9329H405.428V45.322H398.817V44.4487H406.3V51.9329Z" fill="#6AAFE8"/>
<path d="M406.3 63.1191H405.428V83.6336H406.3V63.1191Z" fill="#6AAFE8"/>
<path d="M349.372 63.1191H348.501V83.6336H349.372V63.1191Z" fill="#6AAFE8"/>
<path d="M137.151 191.509C135.385 191.509 133.949 190.07 133.949 188.303C133.949 186.536 135.386 185.097 137.151 185.097C138.918 185.097 140.353 186.536 140.353 188.303C140.353 190.07 138.917 191.509 137.151 191.509ZM137.151 185.97C135.866 185.97 134.821 187.017 134.821 188.303C134.821 189.59 135.866 190.636 137.151 190.636C138.436 190.636 139.482 189.59 139.482 188.303C139.481 187.017 138.436 185.97 137.151 185.97Z" fill="#78C2FF"/>
<path d="M377.443 86.2866C375.676 86.2866 374.24 84.8483 374.24 83.081C374.24 81.3128 375.676 79.8745 377.443 79.8745C379.208 79.8745 380.645 81.3128 380.645 83.081C380.644 84.8474 379.208 86.2866 377.443 86.2866ZM377.443 80.7478C376.157 80.7478 375.112 81.7937 375.112 83.081C375.112 84.3674 376.157 85.4142 377.443 85.4142C378.728 85.4142 379.773 84.3674 379.773 83.081C379.773 81.7937 378.727 80.7478 377.443 80.7478Z" fill="#78C2FF"/>
<path d="M159.63 70.7867H137.645V48.7788H159.63V70.7867ZM138.518 69.9134H158.759V49.6521H138.518V69.9134Z" fill="#A1D4FF"/>
<path d="M149.075 54.7778H148.202V65.0355H149.075V54.7778Z" fill="#A1D4FF"/>
<path d="M153.761 59.4697H143.515V60.343H153.761V59.4697Z" fill="#A1D4FF"/>
<path d="M494.643 97.3347H463.219V74.8784H494.643V97.3347ZM464.092 96.4614H493.77V75.7508H464.092V96.4614Z" fill="#A1D4FF"/>
<path d="M478.93 88.4797L463.377 75.651L463.932 74.9775L478.93 87.3488L493.929 74.9775L494.483 75.651L478.93 88.4797Z" fill="#A1D4FF"/>
<path d="M483.229 84.6856L482.596 85.2866L493.875 97.1897L494.508 96.5887L483.229 84.6856Z" fill="#A1D4FF"/>
<path d="M474.625 84.7133L463.352 96.6206L463.985 97.2213L475.259 85.314L474.625 84.7133Z" fill="#A1D4FF"/>
<path d="M110.307 253.826L109.98 252.971C109.687 252.932 109.4 252.866 109.12 252.773L108.452 253.399L106.516 252.021L106.889 251.183C106.71 250.95 106.553 250.7 106.421 250.435L105.507 250.406L105.111 248.059L105.966 247.733C106.004 247.44 106.07 247.152 106.163 246.872L105.537 246.204L106.915 244.267L107.75 244.64C107.984 244.46 108.234 244.304 108.497 244.172L108.527 243.256L110.871 242.86L111.197 243.716C111.491 243.754 111.779 243.819 112.058 243.913L112.724 243.287L114.661 244.666L114.288 245.502C114.466 245.736 114.624 245.986 114.756 246.251L115.67 246.279L116.066 248.625L115.21 248.953C115.172 249.246 115.106 249.535 115.013 249.814L115.639 250.481L114.261 252.42L113.426 252.047C113.193 252.227 112.942 252.383 112.678 252.516L112.649 253.432L110.307 253.826ZM108.967 252.018L109.158 252.091C109.505 252.225 109.87 252.308 110.243 252.34L110.447 252.358L110.727 253.091L112.014 252.873L112.039 252.089L112.227 252.005C112.568 251.853 112.885 251.654 113.169 251.415L113.325 251.283L114.041 251.603L114.798 250.537L114.261 249.965L114.335 249.773C114.467 249.426 114.551 249.061 114.583 248.689L114.601 248.484L115.333 248.204L115.117 246.916L114.332 246.891L114.249 246.704C114.096 246.362 113.897 246.044 113.659 245.76L113.527 245.603L113.846 244.886L112.782 244.13L112.212 244.667L112.02 244.592C111.672 244.46 111.309 244.376 110.936 244.344L110.732 244.325L110.452 243.593L109.164 243.81L109.139 244.593L108.952 244.678C108.61 244.83 108.293 245.029 108.01 245.268L107.853 245.401L107.137 245.081L106.38 246.145L106.916 246.718L106.843 246.908C106.71 247.257 106.626 247.621 106.595 247.993L106.577 248.197L105.843 248.479L106.06 249.768L106.844 249.791L106.928 249.978C107.08 250.321 107.278 250.638 107.518 250.922L107.649 251.079L107.33 251.795L108.394 252.553L108.967 252.018ZM110.584 250.93C110.052 250.93 109.533 250.764 109.092 250.45C107.93 249.624 107.659 248.005 108.485 246.843C109.31 245.682 110.927 245.409 112.088 246.236C113.249 247.062 113.521 248.681 112.696 249.843C112.296 250.405 111.7 250.778 111.02 250.893C110.873 250.919 110.728 250.93 110.584 250.93ZM110.592 246.411C109.987 246.411 109.392 246.694 109.017 247.223C108.718 247.643 108.6 248.155 108.686 248.664C108.772 249.173 109.05 249.619 109.47 249.918C109.89 250.216 110.403 250.335 110.91 250.249C111.419 250.162 111.864 249.884 112.162 249.464C112.78 248.595 112.575 247.388 111.709 246.77C111.37 246.527 110.979 246.411 110.592 246.411Z" fill="#A1D4FF"/>
<path d="M92.1526 256.563L91.4221 254.654C90.6392 254.566 89.8707 254.39 89.1302 254.128L87.6429 255.527L83.601 252.648L84.4336 250.781C83.945 250.168 83.526 249.499 83.1865 248.787L81.1448 248.723L80.3203 243.825L82.2275 243.095C82.3151 242.311 82.4921 241.542 82.7531 240.801L81.3561 239.312L84.2322 235.265L86.096 236.099C86.7092 235.609 87.3774 235.19 88.089 234.85L88.154 232.806L93.0457 231.981L93.7754 233.89C94.5583 233.979 95.3267 234.154 96.0663 234.416L97.5545 233.018L101.596 235.897L100.765 237.763C101.254 238.377 101.671 239.047 102.012 239.757L104.053 239.822L104.877 244.719L102.97 245.45C102.881 246.234 102.706 247.003 102.445 247.744L103.842 249.234L100.966 253.28L99.1023 252.447C98.4891 252.937 97.8209 253.355 97.1102 253.696L97.0452 255.739L92.1526 256.563ZM88.9297 253.12L89.1844 253.217C90.0125 253.535 90.8821 253.734 91.7697 253.81L92.0425 253.833L92.7107 255.583L96.1937 254.995L96.2523 253.124L96.5025 253.013C97.3161 252.649 98.0728 252.175 98.751 251.604L98.9596 251.428L100.666 252.192L102.714 249.309L101.436 247.945L101.533 247.69C101.85 246.862 102.05 245.99 102.126 245.101L102.148 244.829L103.896 244.16L103.309 240.673L101.439 240.614L101.328 240.364C100.965 239.549 100.492 238.792 99.9213 238.113L99.7452 237.903L100.507 236.195L97.6286 234.143L96.2659 235.423L96.0112 235.327C95.1832 235.008 94.3136 234.81 93.425 234.734L93.1523 234.71L92.484 232.961L89.0011 233.549L88.9415 235.42L88.6922 235.531C87.8777 235.894 87.121 236.368 86.4428 236.94L86.2342 237.116L84.5275 236.353L82.4794 239.235L83.759 240.599L83.6615 240.855C83.3436 241.683 83.145 242.554 83.0691 243.443L83.0456 243.715L81.2983 244.384L81.8853 247.871L83.7554 247.931L83.8665 248.181C84.2295 248.995 84.7036 249.754 85.2743 250.433L85.4504 250.64L84.6882 252.349L87.5671 254.399L88.9297 253.12ZM92.5915 249.918C91.46 249.918 90.3177 249.579 89.328 248.873C88.0999 247.999 87.2862 246.698 87.0352 245.21C86.7851 243.722 87.1282 242.226 88.0023 240.997C89.8066 238.46 93.3356 237.863 95.8704 239.67C98.4052 241.476 99.0002 245.008 97.196 247.547C96.0961 249.093 94.3569 249.918 92.5915 249.918ZM92.6086 239.496C92.3423 239.496 92.0741 239.518 91.8059 239.563C90.5489 239.774 89.4508 240.464 88.7121 241.504C87.9734 242.542 87.6836 243.808 87.8949 245.065C88.1062 246.323 88.7952 247.423 89.8328 248.163C91.9756 249.689 94.9601 249.186 96.4844 247.041C97.2231 246.002 97.5139 244.737 97.3017 243.48C97.0903 242.221 96.4013 241.122 95.3638 240.382C94.5483 239.8 93.5911 239.496 92.6086 239.496Z" fill="#A1D4FF"/>
<path d="M278.752 113.185C269.782 113.185 262.483 105.879 262.483 96.8978H263.355C263.355 105.397 270.262 112.312 278.752 112.312C287.243 112.312 294.15 105.397 294.15 96.8978C294.15 88.3984 287.243 81.4846 278.752 81.4846V80.6113C287.723 80.6113 295.022 87.9184 295.022 96.8987C295.022 105.879 287.723 113.185 278.752 113.185ZM278.752 110.921C271.029 110.921 264.745 104.63 264.745 96.8978C264.745 89.1659 271.029 82.8749 278.752 82.8749C286.476 82.8749 292.76 89.1659 292.76 96.8978H291.888C291.888 89.6477 285.996 83.7482 278.752 83.7482C271.509 83.7482 265.617 89.6468 265.617 96.8978C265.617 104.149 271.509 110.047 278.752 110.047V110.921Z" fill="#78C2FF"/>
<path d="M276.758 102.294L270.891 96.4197L271.507 95.8023L276.758 101.059L285.996 91.812L286.613 92.4285L276.758 102.294Z" fill="#78C2FF"/>
<path d="M413.237 322.886C413.237 322.886 414.031 326.011 414.14 326.482C414.248 326.953 419.142 325.657 419.142 325.657L419.137 321.835C419.137 321.835 413.812 322.371 413.237 322.886Z" fill="#5C544D"/>
<path d="M414.043 326.083C414.043 326.083 412.673 328.166 411.239 329.164C409.805 330.162 404.269 331.453 403.461 332.414C402.877 333.107 402.066 335.73 410.95 334.533C417.26 333.682 420.374 333.896 420.941 332.795C421.509 331.694 419.142 325.315 419.142 325.315C419.142 325.315 417.791 326.05 414.043 326.083Z" fill="#3C4145"/>
<path d="M412.2 411.805L394.469 230.944L396.704 230.728L414.435 411.589L412.2 411.805Z" fill="#F0C141"/>
<path d="M432.852 227.197L430.617 227.417L448.353 408.274L450.588 408.054L432.852 227.197Z" fill="#F0C141"/>
<path d="M432.017 230.386L395.869 233.898L396.086 236.135L432.233 232.623L432.017 230.386Z" fill="#F0C141"/>
<path d="M433.674 247.228L397.522 250.722L397.738 252.96L433.89 249.466L433.674 247.228Z" fill="#F0C141"/>
<path d="M435.303 263.997L399.155 267.513L399.372 269.751L435.52 266.235L435.303 263.997Z" fill="#F0C141"/>
<path d="M436.945 280.875L400.793 284.373L401.009 286.61L437.161 283.112L436.945 280.875Z" fill="#F0C141"/>
<path d="M438.573 297.664L402.426 301.191L402.644 303.429L438.791 299.902L438.573 297.664Z" fill="#F0C141"/>
<path d="M440.179 314.505L404.031 318.017L404.248 320.254L440.396 316.742L440.179 314.505Z" fill="#F0C141"/>
<path d="M441.809 331.332L405.662 334.844L405.879 337.081L442.026 333.569L441.809 331.332Z" fill="#F0C141"/>
<path d="M443.451 348.143L407.304 351.655L407.521 353.892L443.668 350.38L443.451 348.143Z" fill="#F0C141"/>
<path d="M445.072 364.985L408.924 368.498L409.141 370.734L445.289 367.222L445.072 364.985Z" fill="#F0C141"/>
<path d="M446.721 381.819L410.574 385.345L410.792 387.582L446.939 384.055L446.721 381.819Z" fill="#F0C141"/>
<path d="M448.348 398.622L412.2 402.134L412.417 404.372L448.565 400.86L448.348 398.622Z" fill="#F0C141"/>
<path d="M407.202 257.107C407.202 257.107 403.641 270.343 402.702 275.075C401.885 279.199 400.239 290.178 400.006 292.788C399.772 295.399 410.517 320.668 411.635 325.232L421.425 323.659C421.425 323.659 411.097 297.359 413.79 291.516C417.797 282.824 418.32 283.086 421.476 275.926C424.632 268.766 431.86 268.597 433.8 255.311C433.8 255.311 409.829 252.894 407.202 257.107Z" fill="#3C4145"/>
<path d="M424.609 192.794C424.609 192.794 418.109 190.364 415.111 195.317C412.115 200.271 412.403 210.188 415.68 211.407C418.956 212.626 423.878 211.989 425.556 208.889C427.234 205.79 428.747 201.309 428.675 198.314C428.602 195.32 426.316 193.659 424.609 192.794Z" fill="#EEA886"/>
<path d="M416.77 211.103C416.77 211.103 417.033 212.81 416.6 213.65C416.165 214.489 424.776 214.512 424.776 214.512C424.776 214.512 425.475 209.941 426.8 206.08C428.125 202.218 416.77 211.103 416.77 211.103Z" fill="#EEA886"/>
<path d="M426.8 206.079C426.8 206.079 426.206 207.06 423.78 206.681C421.353 206.299 418.394 203.069 417.382 202.714C416.369 202.359 416.359 201.764 416.359 201.764L415.725 202.691L414.65 202.759C414.65 202.759 415.631 199.869 414.151 198.691C412.67 197.512 415.687 189.336 423.466 192.058C423.466 192.058 429.441 193.707 429.224 197.109C429.006 200.51 428.137 204.384 426.8 206.079Z" fill="#3A3F47"/>
<path d="M416.52 200.526C416.656 199.956 418.106 198.325 418.661 200.071C419.216 201.816 417.822 204.165 417.045 203.964C416.268 203.763 416.175 201.973 416.52 200.526Z" fill="#EEA886"/>
<path d="M441.313 235.984C441.241 236.837 440.268 237.761 439.604 238.218C439.178 238.51 438.669 238.687 438.121 238.705L437.735 238.718L430.979 238.949C430.979 238.949 425.958 222.7 435.378 216.504C435.67 216.532 441.967 228.152 441.313 235.984Z" fill="#518AFA"/>
<path d="M420.941 332.795C420.373 333.897 417.259 333.683 410.948 334.532C409.223 334.765 407.864 334.854 406.797 334.839L406.43 331.039C408.276 330.396 410.422 329.733 411.239 329.165C412.673 328.167 414.042 326.084 414.042 326.084C417.79 326.052 419.141 325.315 419.141 325.315C419.141 325.315 421.508 331.694 420.941 332.795Z" fill="#3C4145"/>
<path d="M416.766 213.154C416.766 213.154 422.066 211.919 425.054 212.929L425.505 213.347C425.505 213.347 426.413 215.09 422.996 215.24C419.577 215.389 414.203 215.639 416.766 213.154Z" fill="#FFD255"/>
<path d="M437.479 337.498C437.479 337.498 438.274 340.621 438.383 341.093C438.491 341.563 443.383 340.267 443.383 340.267L443.379 336.445C443.379 336.445 438.055 336.983 437.479 337.498Z" fill="#5C544D"/>
<path d="M433.799 255.312C433.799 255.312 435.583 262.679 436.111 270.055C436.6 276.872 437.488 284.348 438.195 291.478C438.982 299.425 441.229 312.273 441.346 316.524C441.464 320.776 445.038 339.356 445.038 339.356L435.895 340.408C435.895 340.408 429.954 307.574 428.55 304.217C427.147 300.861 420.189 276.933 419.955 274.249C419.721 271.563 433.799 255.312 433.799 255.312Z" fill="#3C4145"/>
<path d="M438.286 340.694C438.286 340.694 436.915 342.776 435.482 343.774C434.047 344.772 428.511 346.064 427.702 347.024C427.119 347.717 426.307 350.341 435.191 349.143C441.502 348.292 444.617 348.507 445.183 347.405C445.75 346.304 443.383 339.925 443.383 339.925C443.383 339.925 442.033 340.661 438.286 340.694Z" fill="#3C4145"/>
<path d="M405.352 273.64C404.573 273.529 407.285 250.289 407.077 248.832C406.939 247.86 406.961 240.307 407.018 235.599L406.17 230.834C405.698 230.489 405.064 230.092 404.307 229.654C403.128 228.972 401.649 228.194 400.006 227.372C400.196 226.247 400.329 225.361 400.381 224.843C400.791 220.657 403.598 218.439 405.19 217.506C405.84 217.125 406.287 216.958 406.287 216.958C406.892 216.701 407.486 216.453 408.063 216.215C411.898 214.635 416.768 213.153 416.768 213.153H424.592C424.592 213.153 430.548 214.345 434.098 215.798C434.553 215.986 434.979 216.223 435.38 216.503L434.316 238.832C434.315 238.838 434.315 238.842 434.314 238.848C434.313 238.855 434.312 238.864 434.31 238.876C433.831 242.019 433.327 245.724 433.159 248.322C433.091 249.383 434.303 255.079 434.936 260.309L437.148 272.822C437.148 272.822 435.868 278.008 405.352 273.64Z" fill="#518AFA"/>
<path d="M365.406 201.218C365.406 201.218 365.868 201.791 366.191 201.943C366.191 201.943 366.803 202.173 367.226 202.364C367.36 202.425 367.475 202.481 367.547 202.525C367.844 202.709 368.44 203.201 369.277 203.442C370.112 203.683 373.892 204.545 373.892 204.545L374.771 202.3L375.401 200.487C375.401 200.487 371.903 195.948 371.15 195.635C371.076 195.604 371.002 195.577 370.93 195.557C370.267 195.353 369.688 195.479 369.327 195.411C369.195 195.387 367.863 195.238 367.575 195.515C367.174 195.901 367.053 196.332 367.121 196.707C367.121 196.707 366.37 197.498 366.316 198.231C366.316 198.231 365.598 198.938 365.79 199.869C365.79 199.869 365.145 200.667 365.406 201.218Z" fill="#EEA886"/>
<path d="M405.918 230.656C405.045 230.092 403.914 229.33 400.005 227.372C392.726 223.726 383.739 217.117 382.03 216.163C379.403 214.694 371.102 204.543 371.102 204.543C371.531 203.014 375.465 199.945 375.465 199.945C375.465 199.945 388.049 211.876 390.799 213.345C393.163 214.607 404.843 215.883 408.061 216.214C408.584 216.267 408.882 216.297 408.882 216.297C412.244 220.887 407.793 231.865 405.918 230.656Z" fill="#518AFA"/>
<path d="M168.062 144.061C168.062 144.061 165.829 139.959 164.56 138.483C163.289 137.006 159.07 135.899 159.644 134.013C160.217 132.127 165.87 132.947 167.427 134.793C168.984 136.639 173.735 137.294 173.9 138.072C174.064 138.852 172.25 143.117 171.231 143.814C170.213 144.511 168.062 144.061 168.062 144.061Z" fill="#6A75BA"/>
<path d="M158.573 147.536C158.573 147.536 154.936 144.65 153.185 143.799C151.434 142.949 147.122 143.61 146.901 141.651C146.679 139.692 152.193 138.197 154.353 139.272C156.514 140.348 161.134 139.06 161.595 139.71C162.055 140.36 162.082 144.995 161.423 146.04C160.764 147.084 158.573 147.536 158.573 147.536Z" fill="#545D94"/>
<path d="M166.648 155.05C166.648 155.05 168.236 144.183 168.164 142.297C168.144 141.758 171.431 141.959 171.277 142.994C170.942 145.248 172.46 153.984 172.196 155.583C171.933 157.183 166.513 156.058 166.648 155.05Z" fill="#EEA886"/>
<path d="M161.674 158.174C161.674 158.174 158.7 147.621 158.006 145.867C157.698 145.086 160.729 143.876 161.14 145.269C161.785 147.455 166.585 154.886 166.977 156.458C167.37 158.031 161.949 159.152 161.674 158.174Z" fill="#EEA886"/>
<path d="M163.74 165.508C163.74 165.508 160.545 154.723 160.053 153.574L165.092 150.457C165.092 150.457 167.426 157.346 167.755 159.069C168.082 160.791 163.74 165.508 163.74 165.508Z" fill="#207CD6"/>
<path d="M252.928 137.012C252.928 137.012 248.062 138.243 245.747 141.927C243.431 145.611 241.431 149.853 237.081 151.778C232.731 153.702 232.703 158.662 233.042 159.426C233.381 160.192 246.744 175.229 249.66 175.811C252.575 176.391 258.034 175.987 257.45 172.123C256.866 168.258 251.145 159.947 254.356 155.754C257.567 151.561 258.377 147.698 258.377 147.698L252.928 137.012Z" fill="#2E334D"/>
<path d="M252.08 154.996C252.08 154.996 251.937 154.949 251.7 154.926C251.423 154.901 251.02 154.908 250.561 155.063C250.447 155.101 250.294 155.178 250.116 155.284C248.96 155.967 246.224 157.818 245.853 157.862C245.426 157.913 245.787 151.524 245.787 151.524C245.787 151.524 247.244 148.944 247.427 147.246C247.611 145.547 252.08 154.996 252.08 154.996Z" fill="#EEA886"/>
<path d="M217.853 161.673C217.853 161.673 212.508 157.921 206.241 159.09C199.974 160.258 199.297 163.192 197.146 163.325C194.996 163.458 187.807 162.843 181.909 164.565C176.01 166.287 171.033 166.471 170.357 165.98C169.682 165.488 174.043 155.645 174.043 154.293L166.731 152.386C166.731 152.386 164.642 161.121 163.823 163.09C162.947 165.195 161.263 169.158 163.659 172.603C166.056 176.048 172.753 174.495 176.808 175.19C180.864 175.884 199.015 175.438 202.186 175.268C205.626 175.084 216.011 174.591 216.011 174.591L217.853 161.673Z" fill="#207CD6"/>
<path d="M261.758 142.225C261.758 142.225 262.1 147.512 260.927 149.098C260.457 149.732 260.139 150.078 259.926 150.263C259.625 150.525 259.392 150.856 259.258 151.232C258.896 152.249 258.673 153.679 258.384 153.986C258.069 154.318 257.157 153.471 256.827 153.469C256.497 153.468 253.28 156.247 252.511 155.678C251.742 155.109 247.049 150.342 247.443 147.073C247.837 143.805 249.278 138.924 254.561 138.955C259.846 138.985 261.355 140.91 261.758 142.225Z" fill="#EEA886"/>
<path d="M245.79 167.455C245.688 167.672 243.746 170.777 241.616 172.58C240.733 173.328 239.818 173.852 238.989 173.852C238.737 173.852 238.489 173.855 238.25 173.862C235.807 173.928 233.931 174.302 230.634 174.466C227.208 174.637 218.898 174.159 218.652 174.159C218.405 174.159 216.009 174.59 216.009 174.59C215.149 173.544 217.422 161.733 217.852 161.672C218.282 161.611 221.047 162.656 223.689 162.225C226.332 161.795 227.376 161.549 231.308 156.935C235.241 152.322 239.174 151.153 240.832 151.522C242.491 151.892 245.79 151.522 245.79 151.522C245.79 151.522 245.933 167.148 245.79 167.455Z" fill="#FFC955"/>
<path d="M259.539 146.011C259.539 146.011 260.523 148.565 261.045 148.917C261.045 148.917 262.945 146.905 261.725 141.94C260.504 136.975 255.901 136.508 252.929 137.012C249.229 137.64 245.504 150.172 245.696 151.392C245.888 152.612 250.034 144.915 253.666 145.535C257.297 146.154 257.325 146.357 259.539 146.011Z" fill="#2E334D"/>
<path d="M251.699 154.926C251.422 154.901 251.019 154.908 250.56 155.063C250.446 155.101 250.294 155.179 250.115 155.284C249.265 153.958 248.478 150.813 248.452 150.707C249.019 152.429 251.699 154.926 251.699 154.926Z" fill="#A77860"/>
<path d="M241.617 172.581C240.734 173.329 239.819 173.853 238.99 173.853C238.737 173.853 238.49 173.856 238.251 173.863L239.257 164.072L241.617 172.581Z" fill="#C29941"/>
<path d="M260.736 189.439L258.377 191.587C256.343 190.496 251.243 186.822 250.263 185.985C249.233 185.107 242.373 179.363 241.431 178.054C240.48 176.745 239.278 163.213 239.399 162.594C239.521 161.982 245.363 161.668 246.026 163.1C246.026 163.1 246.331 170.818 246.488 172.11C246.636 173.401 247.131 174.569 248.016 175.655C249.241 177.159 251.849 180.652 254.374 183.476C254.977 184.149 259.958 188.769 260.736 189.439Z" fill="#EEA886"/>
<path d="M246.507 163.272C246.507 163.272 246.876 152.995 243.537 153.123C239.315 153.284 238.683 158.454 239.256 164.072C239.256 164.072 245.564 164.133 246.507 163.272Z" fill="#FFC955"/>
<path d="M259.6 188.433C259.6 188.433 259.914 188.927 260.37 189.082C261.156 189.348 262.318 188.836 262.891 189.867C263.464 190.897 260.696 193.471 259.954 193.627C259.21 193.784 258.019 192.626 257.088 190.34C256.156 188.055 259.6 188.433 259.6 188.433Z" fill="#EEA886"/>
<path d="M262.647 189.546C262.647 189.546 264.059 190.622 265.486 192.003C266.739 193.214 268.012 194.805 267.69 195.105C267.252 195.516 266.397 194.15 265.076 193.028C263.859 191.995 263.928 192.393 263.928 192.393C263.928 192.393 263.915 192.279 265.025 193.652C266.218 195.128 267.451 196.88 267.083 197.133C266.852 197.291 266.841 197.334 266.32 196.866C266.563 197.196 266.506 197.306 266.377 197.413C265.712 197.972 263.621 196.061 262.791 195.303C263.425 195.889 263.827 196.385 263.183 196.461C262.447 196.547 259.611 193.719 258.499 192.798C257.288 191.794 262.647 189.546 262.647 189.546Z" fill="#EEA886"/>
<path d="M220.255 162.143C220.255 162.143 219.128 170.23 219.683 174.209C219.683 174.209 220.271 174.645 221.44 174.292C221.44 174.292 221.732 165.464 222.387 162.33C222.387 162.33 222.027 162.058 220.255 162.143Z" fill="#E0E0E0"/>
<path d="M221.395 16.5703H220.523V168.26H221.395V16.5703Z" fill="#E0E0E0"/>
<path d="M146.417 389.769C146.417 389.769 145.975 392.872 145.92 393.339C145.865 393.805 140.998 393.064 140.998 393.064L140.604 389.368C140.604 389.368 145.809 389.331 146.417 389.769Z" fill="#5C544D"/>
<path d="M145.971 392.943C145.971 392.943 147.513 394.814 149.004 395.629C150.495 396.443 152.839 396.768 153.721 397.61C154.357 398.22 156.04 400.842 149.846 400.79C143.652 400.736 140.666 401.16 140.002 400.154C139.338 399.15 140.963 392.733 140.963 392.733C140.963 392.733 142.429 393.267 145.971 392.943Z" fill="#3C4145"/>
<path d="M181.286 389.769C181.286 389.769 180.844 392.872 180.789 393.339C180.733 393.805 175.867 393.064 175.867 393.064L175.472 389.368C175.472 389.368 180.678 389.331 181.286 389.769Z" fill="#5C544D"/>
<path d="M180.84 392.943C180.84 392.943 182.383 394.814 183.874 395.629C185.365 396.443 190.853 397.114 191.735 397.958C192.371 398.567 193.43 401.019 184.715 400.79C178.523 400.626 175.535 401.16 174.871 400.154C174.208 399.15 175.832 392.733 175.832 392.733C175.832 392.733 177.214 393.303 180.84 392.943Z" fill="#3C4145"/>
<path d="M148.146 309.639C148.146 309.639 145.556 317.341 145.897 323.978C146.238 330.615 144.558 337.878 143.871 344.811C143.105 352.541 139.971 370.84 139.858 374.974C139.744 379.109 140.344 392.313 140.344 392.313L146.618 392.458C146.618 392.458 151.887 360.466 153.251 357.203C154.616 353.938 161.383 330.667 161.61 328.056C161.836 325.444 148.146 309.639 148.146 309.639Z" fill="#33373B"/>
<path d="M174.518 311.009C174.518 311.009 177.964 329.201 178.419 333.263C178.874 337.325 179.177 352.922 179.405 355.462C179.631 358.001 180.921 388.686 182.133 392.458H174.113C174.113 392.458 167.956 370.151 167.956 359.596C167.956 349.041 163.2 336.65 160.13 329.687C157.06 322.723 150.033 322.558 148.146 309.638C148.146 309.638 171.963 306.912 174.518 311.009Z" fill="#3C4145"/>
<path d="M158.219 248.839C158.219 248.839 164.541 246.474 167.456 251.292C170.371 256.109 170.09 265.754 166.903 266.94C163.716 268.127 158.929 267.507 157.298 264.492C155.667 261.477 154.193 257.12 154.264 254.207C154.336 251.294 156.56 249.678 158.219 248.839Z" fill="#EEA886"/>
<path d="M165.843 266.644C165.843 266.644 165.587 268.303 166.009 269.12C166.432 269.936 158.057 269.959 158.057 269.959C158.057 269.959 157.377 265.514 156.088 261.759C154.8 258.002 165.843 266.644 165.843 266.644Z" fill="#EEA886"/>
<path d="M156.09 261.758C156.09 261.758 156.667 262.713 159.026 262.342C161.385 261.972 164.264 258.829 165.249 258.484C166.234 258.139 166.243 257.56 166.243 257.56L166.86 258.462L167.906 258.527C167.906 258.527 166.952 255.717 168.391 254.571C169.831 253.424 166.897 245.473 159.331 248.121C159.331 248.121 153.52 249.723 153.732 253.033C153.943 256.342 154.788 260.109 156.09 261.758Z" fill="#FCCCA2"/>
<path d="M166.507 269.022C166.507 269.022 166.48 267.46 165.773 267.311C165.066 267.16 157.969 266.477 157.102 266.819V268.638C157.102 268.638 158.773 269.669 166.507 269.022Z" fill="#E2D2CA"/>
<path d="M166.086 256.357C165.954 255.802 164.544 254.216 164.004 255.915C163.464 257.612 164.82 259.896 165.576 259.701C166.332 259.506 166.422 257.764 166.086 256.357Z" fill="#EEA886"/>
<path d="M166.507 269.022C166.507 269.022 170.397 270.423 174.903 272.339C174.903 272.339 180.086 274.275 180.648 280.007C180.946 283.049 184.182 299.194 184.788 300.559C185.394 301.925 192.569 323.87 192.821 324.324C193.074 324.78 186.966 327.318 186.561 327.116C186.157 326.913 179.615 307.101 178.958 305.632C178.958 305.632 175.192 293.753 175.091 291.982C175.091 291.982 174.983 297.029 174.781 298.446C174.579 299.862 178.13 327.371 178.028 328.13C177.927 328.89 161.89 329.852 155.471 329.145C149.052 328.437 143.873 326.958 143.873 326.958C143.873 326.958 148.923 305.248 148.768 302.842C148.43 297.597 146.679 287.72 146.679 287.72L141.445 297.597L148.145 314.851L146.61 320.096C146.61 320.096 134.161 301.263 133.758 299.543C133.353 297.823 134.368 295.631 135.025 294.214C135.682 292.798 139.998 282.015 141.008 280.498C142.02 278.979 143.727 272.901 147.856 271.209C151.308 269.795 157.101 268.636 157.101 268.636L166.507 269.022Z" fill="#495054"/>
<path d="M175.059 334.257L204.387 326.728L199.14 306.245L169.812 313.774L175.059 334.257Z" fill="#D6D6D6"/>
<path d="M195.375 328.804C195.375 328.804 196.213 330.16 196.519 330.546C196.825 330.934 195.766 331.176 195.313 330.785C194.86 330.393 195.375 328.804 195.375 328.804Z" fill="#C98462"/>
<path d="M189.268 333.435C189.268 333.435 188.773 332.918 188.665 332.587C188.665 332.587 188.518 331.968 188.387 331.536C188.345 331.398 188.305 331.28 188.272 331.206C188.131 330.896 187.73 330.259 187.601 329.421C187.471 328.585 187.106 324.829 187.106 324.829L189.378 324.256L191.203 323.87C191.203 323.87 195.145 327.807 195.356 328.572C195.376 328.647 195.393 328.722 195.404 328.794C195.519 329.459 195.325 330.003 195.347 330.359C195.353 330.489 195.334 331.796 195.03 332.04C194.609 332.379 194.179 332.443 193.826 332.33C193.826 332.33 192.971 332.958 192.258 332.92C192.258 332.92 191.488 333.526 190.615 333.226C190.615 333.226 189.766 333.754 189.268 333.435Z" fill="#DE9D7D"/>
<path d="M180.4 309.68C180.4 309.68 185.605 325.46 186.561 327.116C186.561 327.116 190.378 326.312 192.821 324.324L187.106 307.294L180.4 309.68Z" fill="#495054"/>
<defs>
<linearGradient id="paint0_linear_326_4657" x1="43.7988" y1="337.7" x2="97.03" y2="337.7" gradientUnits="userSpaceOnUse">
<stop stop-color="#3076A1"/>
<stop offset="1" stop-color="#639C38"/>
</linearGradient>
<linearGradient id="paint1_linear_326_4657" x1="82.8482" y1="367.435" x2="130.986" y2="367.435" gradientUnits="userSpaceOnUse">
<stop stop-color="#3076A1"/>
<stop offset="1" stop-color="#639C38"/>
</linearGradient>
<linearGradient id="paint2_linear_326_4657" x1="86.9631" y1="374.443" x2="123.094" y2="374.443" gradientUnits="userSpaceOnUse">
<stop stop-color="#3076A1"/>
<stop offset="1" stop-color="#639C38"/>
</linearGradient>
<linearGradient id="paint3_linear_326_4657" x1="73.916" y1="345.337" x2="115.993" y2="345.337" gradientUnits="userSpaceOnUse">
<stop stop-color="#3076A1"/>
<stop offset="1" stop-color="#639C38"/>
</linearGradient>
<linearGradient id="paint4_linear_326_4657" x1="64.2596" y1="405.756" x2="103.088" y2="405.756" gradientUnits="userSpaceOnUse">
<stop stop-color="#FF9340"/>
<stop offset="1" stop-color="#FFCE45"/>
</linearGradient>
<linearGradient id="paint5_linear_326_4657" x1="64.2598" y1="405.756" x2="103.088" y2="405.756" gradientUnits="userSpaceOnUse">
<stop stop-color="#C97332"/>
<stop offset="1" stop-color="#FFCE45"/>
</linearGradient>
<linearGradient id="paint6_linear_326_4657" x1="197.977" y1="408.345" x2="404.943" y2="408.345" gradientUnits="userSpaceOnUse">
<stop stop-color="#FF9F55"/>
<stop offset="1" stop-color="#FFD255"/>
</linearGradient>
<linearGradient id="paint7_linear_326_4657" x1="102.051" y1="434.001" x2="309.017" y2="434.001" gradientUnits="userSpaceOnUse">
<stop stop-color="#E37E30"/>
<stop offset="1" stop-color="#E8A12E"/>
</linearGradient>
<linearGradient id="paint8_linear_326_4657" x1="171.682" y1="236.37" x2="444.925" y2="236.37" gradientUnits="userSpaceOnUse">
<stop stop-color="#FF9F55"/>
<stop offset="1" stop-color="#FFD255"/>
</linearGradient>
<linearGradient id="paint9_linear_326_4657" x1="187.795" y1="224.838" x2="415.928" y2="224.838" gradientUnits="userSpaceOnUse">
<stop stop-color="#404B61"/>
<stop offset="0.486" stop-color="#3C4860"/>
<stop offset="1" stop-color="#2F3E5C"/>
</linearGradient>
<linearGradient id="paint10_linear_326_4657" x1="238.007" y1="368.107" x2="366.151" y2="368.107" gradientUnits="userSpaceOnUse">
<stop stop-color="#FF9F55"/>
<stop offset="1" stop-color="#FFD255"/>
</linearGradient>
</defs>
</svg>
