<svg width="40" height="40" viewBox="0 0 40 40" fill="none" xmlns="http://www.w3.org/2000/svg">
<rect width="40" height="40" rx="8" fill="#F7C15F" fill-opacity="0.2"/>
<path d="M29.992 25.25C30.613 25.25 31.2086 25.0077 31.6477 24.5763C32.0868 24.145 32.3335 23.56 32.3335 22.95V10.3C32.3335 9.69 32.0868 9.10499 31.6477 8.67365C31.2086 8.24232 30.613 8 29.992 8H17.6525C18.0623 8.7015 18.2847 9.495 18.2847 10.3H29.992V22.95H19.4554V25.25M24.1384 13.75V16.05H17.114V31H14.7725V24.1H12.4311V31H10.0896V21.8H8.3335V16.05C8.3335 15.44 8.58019 14.855 9.01929 14.4237C9.4584 13.9923 10.054 13.75 10.675 13.75H24.1384ZM15.9433 10.3C15.9433 10.91 15.6966 11.495 15.2575 11.9263C14.8183 12.3577 14.2228 12.6 13.6018 12.6C12.9808 12.6 12.3852 12.3577 11.9461 11.9263C11.507 11.495 11.2603 10.91 11.2603 10.3C11.2603 9.69 11.507 9.10499 11.9461 8.67365C12.3852 8.24232 12.9808 8 13.6018 8C14.2228 8 14.8183 8.24232 15.2575 8.67365C15.6966 9.10499 15.9433 9.69 15.9433 10.3Z" fill="#F7C15F"/>
</svg>
