<svg width="24" height="25" viewBox="0 0 24 25" fill="none" xmlns="http://www.w3.org/2000/svg">
<path d="M6.62 11.7641C8.06 14.5941 10.38 16.9041 13.21 18.3541L15.41 16.1541C15.68 15.8841 16.08 15.7941 16.43 15.9141C17.55 16.2841 18.76 16.4841 20 16.4841C20.55 16.4841 21 16.9341 21 17.4841V20.9741C21 21.5241 20.55 21.9741 20 21.9741C10.61 21.9741 3 14.3641 3 4.97412C3 4.42412 3.45 3.97412 4 3.97412H7.5C8.05 3.97412 8.5 4.42412 8.5 4.97412C8.5 6.22412 8.7 7.42412 9.07 8.54412C9.18 8.89412 9.1 9.28412 8.82 9.56412L6.62 11.7641Z" fill="#F7C15F"/>
</svg>
