<svg width="543" height="410" viewBox="0 0 543 410" fill="none" xmlns="http://www.w3.org/2000/svg">
<path d="M123.78 319.72H394.208V128.884C394.208 123.652 389.967 119.411 384.734 119.411H133.254C128.022 119.411 123.78 123.652 123.78 128.884V319.72Z" fill="url(#paint0_linear_326_5419)"/>
<path d="M133.34 283.31H384.17V129.222H133.34V283.31Z" fill="url(#paint1_linear_326_5419)"/>
<path d="M106.992 129.934H43.1895L43.3005 129.366C44.3245 124.111 48.9625 120.296 54.3265 120.296C55.1005 120.296 55.8724 120.377 56.6264 120.536C59.9504 114.219 66.4085 110.311 73.5695 110.311C79.6725 110.311 85.4244 113.24 89.0314 118.164C90.3444 117.764 91.7125 117.562 93.0975 117.562C100.039 117.562 105.847 122.535 106.906 129.386L106.992 129.934ZM44.3655 128.98H105.867C104.668 122.975 99.2755 118.514 93.0995 118.514C91.6975 118.514 90.3175 118.736 88.9975 119.175L88.6604 119.286L88.4575 118.997C85.0455 114.155 79.4804 111.265 73.5704 111.265C66.6474 111.265 60.4164 115.109 57.3074 121.298L57.1365 121.638L56.7675 121.547C55.9725 121.351 55.1525 121.251 54.3275 121.251C49.6135 121.25 45.5135 124.467 44.3655 128.98Z" fill="white"/>
<path d="M341.308 51.3991L341.092 51.2881C318.45 39.7281 321.491 17.3411 321.524 17.1161L321.585 16.7091H321.996C336.391 16.7091 340.916 12.0701 340.96 12.0231L341.311 11.6511L341.661 12.0261C341.704 12.0711 346.227 16.7101 360.623 16.7101H361.034L361.095 17.1171C361.128 17.3421 364.169 39.7291 341.527 51.2891L341.308 51.3991ZM322.423 17.6611C322.136 20.6931 321.183 39.9111 341.308 50.3271C361.435 39.9111 360.481 20.6931 360.195 17.6611C347.696 17.5831 342.609 14.1011 341.308 12.9971C340.009 14.1021 334.922 17.5831 322.423 17.6611Z" fill="white"/>
<path d="M465.201 348.93C461.793 333.356 469.157 329.469 476.278 325.711C482.097 322.639 487.594 319.738 487.301 310.56C486.913 298.392 495.202 293.965 502.515 290.06C507.956 287.154 513.094 284.41 513.861 278.872C515.706 265.551 527.994 248.992 528.117 248.827L528.881 249.398C528.758 249.56 516.616 265.925 514.806 279.003C513.973 285.02 508.625 287.875 502.965 290.9C495.551 294.859 487.885 298.953 488.254 310.529C488.567 320.302 482.545 323.48 476.723 326.553C469.604 330.31 462.879 333.859 466.132 348.725L465.201 348.93Z" fill="url(#paint2_linear_326_5419)"/>
<path d="M468.941 344.961C468.778 344.961 468.615 344.955 468.45 344.944C465.37 344.715 462.351 342.375 458.949 337.581L458.736 337.28L458.974 336.998C459.029 336.932 464.482 330.286 462.48 317.809C462.012 314.897 461.388 312.669 460.886 310.88C460.154 308.269 459.67 306.544 460.48 305.167C461.509 303.42 464.289 302.504 472.119 300.64C480.457 298.654 483.244 289.26 485.704 280.972C488.02 273.165 490.215 265.803 496.702 266.031C502.664 266.259 511.718 256.917 519.705 248.682C527.118 241.04 534.113 233.841 538.587 233.984C539.661 234.023 540.567 234.473 541.28 235.322C545.267 240.071 541.548 247.276 537.951 254.243C534.882 260.186 531.982 265.8 533.847 269.503C536.193 274.155 536.521 278.366 534.796 281.676C532.757 285.595 528.001 288.121 520.661 289.185C513.95 290.159 513.226 297.477 512.457 305.226C511.561 314.269 510.545 324.517 499.284 325.492C490.922 326.216 485.285 332.086 480.311 337.265C476.357 341.381 472.92 344.961 468.941 344.961ZM459.932 337.317C463.031 341.609 465.842 343.794 468.52 343.993C472.263 344.27 475.674 340.717 479.624 336.602C484.714 331.301 490.482 325.293 499.202 324.539C509.675 323.633 510.606 314.226 511.509 305.129C512.315 296.998 513.075 289.318 520.525 288.238C527.545 287.221 532.061 284.865 533.952 281.233C535.528 278.206 535.199 274.296 532.997 269.929C530.912 265.792 533.92 259.967 537.103 253.802C540.558 247.113 544.129 240.195 540.55 235.931C540.011 235.288 539.357 234.962 538.552 234.933C534.509 234.798 527.65 241.858 520.389 249.342C511.974 258.018 503.276 266.984 496.91 266.985C496.829 266.985 496.748 266.984 496.667 266.981C490.914 266.767 488.922 273.475 486.617 281.24C484.085 289.776 481.214 299.451 472.339 301.564C465.258 303.25 462.16 304.191 461.303 305.648C460.698 306.675 461.115 308.16 461.805 310.621C462.313 312.434 462.945 314.688 463.421 317.655C465.281 329.252 461.009 335.867 459.932 337.317Z" fill="url(#paint3_linear_326_5419)"/>
<path d="M469.289 341.698C469.178 341.698 469.066 341.693 468.955 341.682C463.904 341.222 460.02 330.157 456.264 319.455C454.482 314.379 452.799 309.584 451.159 306.507C449.888 304.119 448.272 301.63 446.71 299.223C442.549 292.812 438.246 286.182 439.646 280.365C440.382 277.305 442.579 274.758 446.361 272.578C454.638 267.807 453.366 265.114 450.576 259.211C448.528 254.879 445.723 248.946 445.615 239.61C445.569 235.597 445.476 232.128 445.393 229.067C445.129 219.227 444.997 214.289 447.098 212.502C447.968 211.763 449.185 211.572 450.927 211.903C453.907 212.47 455.195 214.877 456.56 217.423C458.3 220.673 460.273 224.356 466.226 225.602C471.813 226.771 477.187 228.365 478.669 232.077C479.712 234.687 478.726 238.12 475.651 242.572C474.906 243.651 474.65 244.569 474.87 245.378C475.356 247.171 478.14 248.47 481.364 249.974C485.95 252.115 491.659 254.779 493.276 260.293C494.579 264.739 493.071 270.284 488.667 277.244C478.248 293.712 478.667 304.881 479.036 314.733C479.31 322.035 479.569 328.931 475.166 336.636C473.223 340.038 471.297 341.697 469.289 341.698ZM449.436 212.699C448.692 212.699 448.132 212.874 447.715 213.227C445.962 214.719 446.098 219.806 446.346 229.042C446.428 232.106 446.521 235.579 446.568 239.599C446.673 248.727 449.427 254.551 451.437 258.804C454.205 264.661 455.876 268.195 446.836 273.404C443.293 275.447 441.243 277.797 440.571 280.589C439.267 286.008 443.457 292.463 447.509 298.706C449.082 301.131 450.709 303.637 451.999 306.061C453.673 309.203 455.367 314.031 457.161 319.142C460.647 329.074 464.599 340.331 469.04 340.736C470.735 340.887 472.518 339.352 474.339 336.166C478.607 328.697 478.364 322.244 478.084 314.77C477.71 304.779 477.285 293.454 487.862 276.737C492.11 270.02 493.583 264.729 492.361 260.562C490.866 255.46 485.603 253.004 480.961 250.838C477.523 249.235 474.552 247.849 473.95 245.629C473.653 244.532 473.953 243.357 474.867 242.031C477.746 237.862 478.7 234.722 477.784 232.431C476.465 229.127 471.102 227.597 466.031 226.535C459.642 225.197 457.468 221.135 455.719 217.873C454.41 215.431 453.281 213.321 450.748 212.84C450.258 212.746 449.822 212.699 449.436 212.699Z" fill="url(#paint4_linear_326_5419)"/>
<path d="M469.388 347.603L468.48 347.316C473.572 331.221 464.361 295.11 461.617 286.322C460.266 282.001 461.514 275.495 462.721 269.204C464.28 261.079 465.891 252.677 461.782 249.527C454.067 243.612 454.473 229.927 454.494 229.347L455.446 229.382C455.442 229.519 455.039 243.155 462.362 248.771C466.938 252.278 465.27 260.974 463.657 269.383C462.473 275.559 461.249 281.943 462.526 286.037C465.922 296.906 474.468 331.547 469.388 347.603Z" fill="url(#paint5_linear_326_5419)"/>
<path d="M430.874 243.061C428.754 237.68 420.475 238.497 421.236 246.105C421.996 253.714 427.323 261.83 419.207 274.766C411.09 287.701 429.605 290.238 436.2 298.354C442.795 306.47 445.078 317.63 450.658 324.733C456.238 331.835 460.043 348.829 464.607 342.488C469.174 336.147 464.877 327.901 465.383 316.487C465.89 305.073 476.049 297.847 465.89 290.492C455.73 283.135 445.513 280.881 448.868 264.292C450.347 256.972 437.468 259.802 430.874 243.061Z" fill="url(#paint6_linear_326_5419)"/>
<path d="M472 343.956C471.944 343.619 466.304 310.185 453.675 301.022C440.797 291.679 438.457 283.047 433.959 262.694L434.89 262.489C439.333 282.591 441.638 291.113 454.235 300.252C467.18 309.644 472.712 342.41 472.941 343.801L472 343.956Z" fill="white"/>
<path d="M460.605 342.758C460.605 342.758 464.358 333.479 457.529 320.288C450.699 307.097 445.172 309.126 461.635 298.978C478.097 288.831 461.738 256.868 475.752 252.81C489.766 248.75 501.942 197.017 512.597 203.605C523.252 210.192 509.045 235.56 516.656 243.17C524.266 250.781 525.282 260.465 509.553 268.306C493.824 276.148 520.715 306.082 499.407 315.214C478.096 324.346 484.209 360.155 460.605 342.758Z" fill="url(#paint7_linear_326_5419)"/>
<path d="M467.115 352.6C467.091 352.481 464.8 340.599 472.039 325.246C479.414 309.605 482.944 292.507 481.482 279.507C480.689 272.468 485.199 269.714 489.561 267.051C493.855 264.429 498.295 261.718 498.05 254.781C497.829 248.515 500.481 233.826 500.594 233.204L501.532 233.375C501.504 233.526 498.784 248.584 499.003 254.748C499.267 262.241 494.585 265.1 490.057 267.863C485.761 270.487 481.704 272.963 482.429 279.4C483.91 292.568 480.348 309.858 472.901 325.651C465.804 340.701 468.025 352.295 468.049 352.41L467.115 352.6Z" fill="white"/>
<path d="M484.334 287.035C489.119 282.591 495.447 281.95 494.129 288.543C492.811 295.136 488.289 297.02 490.551 301.164C492.811 305.309 496.578 309.452 490.174 314.539C483.769 319.625 480.19 320.189 478.306 329.798C476.422 339.404 476.799 345.965 468.51 346.375C460.221 346.784 463.424 334.694 466.061 329.231C466.061 329.231 470.017 322.998 467.379 314.812C464.742 306.626 459.656 302.205 470.394 299.424C481.13 296.643 481.107 290.032 484.334 287.035Z" fill="white"/>
<path d="M469.109 352.516C469.082 351.34 468.512 323.665 473.689 319.007C478.975 314.249 479.991 305.842 480.126 301.254C480.303 295.276 488.025 291.727 488.354 291.579L488.746 292.447C488.671 292.481 481.237 295.9 481.078 301.281C480.908 307.071 479.599 314.97 474.326 319.715C469.472 324.084 470.054 352.21 470.061 352.494L469.109 352.516Z" fill="url(#paint8_linear_326_5419)"/>
<path d="M488.55 341.221L479.964 373.797H460.775L452.189 341.221H488.55Z" fill="url(#paint9_linear_326_5419)"/>
<path d="M488.55 341.221C488.55 341.221 469.648 344.77 469.648 373.796H460.775L452.189 341.221H488.55Z" fill="url(#paint10_linear_326_5419)"/>
<path d="M150.275 256.093H125.003V258.954H150.275V256.093Z" fill="#1487E3"/>
<path d="M119.727 177.142H79.3923V125.56H80.3453V176.189H119.727V177.142Z" fill="white"/>
<path d="M290.455 143.155H289.502V89.965H340.832V45.233H341.786V90.918H290.455V143.155Z" fill="white"/>
<path d="M456.278 202.404H402.871V201.45H455.324V170.439H456.278V202.404Z" fill="white"/>
<path d="M56.9934 245.502C56.9934 245.502 55.8494 261.548 58.9844 263.469C60.9484 264.672 68.7794 268.73 68.5474 269.491C68.3154 270.252 64.1254 276.261 64.1254 276.261C64.1254 276.261 49.0834 266.356 48.5984 263.235C48.1244 260.185 49.3384 239.74 51.4074 238.797C52.9564 238.091 53.7724 238.675 55.7254 240.124C58.4634 242.157 56.9934 245.502 56.9934 245.502Z" fill="#FF7E55"/>
<path d="M55.2444 362.276C55.2444 362.276 54.7764 365.523 54.7194 366.01C54.6604 366.497 49.5154 365.723 49.5154 365.723L49.0984 361.858C49.0984 361.858 54.6014 361.818 55.2444 362.276Z" fill="#424773"/>
<path d="M54.7733 365.597C54.7733 365.597 56.4023 367.554 57.9793 368.407C59.5563 369.26 62.0333 369.597 62.9663 370.481C63.6383 371.118 65.4173 373.86 58.8683 373.805C52.3193 373.749 49.1633 374.193 48.4623 373.141C47.7603 372.089 49.4773 365.377 49.4773 365.377C49.4773 365.377 51.0283 365.935 54.7733 365.597Z" fill="#292C47"/>
<path d="M80.9944 362.276C80.9944 362.276 80.5254 365.523 80.4674 366.01C80.4084 366.497 75.2644 365.723 75.2644 365.723L74.8484 361.858C74.8484 361.858 80.3514 361.818 80.9944 362.276Z" fill="#424773"/>
<path d="M80.5224 365.597C80.5224 365.597 82.1524 367.554 83.7284 368.407C85.3054 369.26 91.1074 369.96 92.0404 370.843C92.7134 371.48 93.8324 374.045 84.6194 373.805C78.0724 373.634 74.9144 374.193 74.2114 373.141C73.5104 372.089 75.2274 365.377 75.2274 365.377C75.2274 365.377 76.6874 365.973 80.5224 365.597Z" fill="#292C47"/>
<path d="M57.0905 278.848C57.0905 278.848 52.2565 286.53 52.6165 293.472C52.9765 300.415 52.1854 307.832 51.4594 315.084C50.6504 323.17 48.4445 339.997 48.3245 344.321C48.2035 348.647 48.4814 364.922 48.4814 364.922L56.8675 364.859C56.8675 364.859 59.8444 331.981 61.2874 328.566C62.7284 325.151 68.6504 300.451 68.8914 297.719C69.1304 294.989 57.0905 278.848 57.0905 278.848Z" fill="#292C47"/>
<path d="M82.5395 279.889C82.5395 279.889 84.4495 298.764 84.9305 303.014C85.4105 307.263 85.0825 325.676 85.3225 328.332C85.5635 330.987 83.7165 359.078 83.2605 364.428L74.0435 364.369C74.0435 364.369 73.4075 341.645 73.4075 330.605C73.4075 319.564 70.5745 306.712 67.3285 299.427C64.0825 292.142 56.6525 291.97 54.6575 278.454C54.6575 278.456 79.8375 275.603 82.5395 279.889Z" fill="#292C47"/>
<path d="M62.1975 214.089C62.1975 214.089 67.9575 210.241 72.0025 214.363C76.0475 218.484 78.0355 228.176 75.1315 230.11C72.2265 232.044 67.2985 232.552 64.9595 229.927C62.6205 227.304 60.1235 223.3 59.5105 220.378C58.8945 217.454 60.7365 215.319 62.1975 214.089Z" fill="#EEA886"/>
<path d="M73.1714 230.762C73.1714 230.762 73.0964 234.811 73.5424 235.673C73.9894 236.536 65.1364 236.559 65.1364 236.559C65.1364 236.559 64.4174 231.865 63.0544 227.899C61.6924 223.932 73.1714 230.762 73.1714 230.762Z" fill="#EEA886"/>
<path d="M63.2774 227.834C63.2774 227.834 64.1024 228.675 66.4404 227.723C68.7794 226.77 70.9784 222.841 71.9084 222.249C72.8404 221.655 72.7084 221.058 72.7084 221.058L73.5624 221.835L74.6554 221.648C74.6554 221.648 72.9924 218.991 74.1964 217.464C75.3994 215.937 70.4554 208.474 63.3094 213.03C63.3094 213.03 57.7184 216.088 58.7374 219.437C59.7564 222.787 61.5394 226.456 63.2774 227.834Z" fill="#754836"/>
<path d="M74.0685 235.57C74.0685 235.57 74.0415 233.922 73.2935 233.763C72.5465 233.605 65.0435 232.883 64.1255 233.244V235.164C64.1255 235.164 65.8935 236.253 74.0685 235.57Z" fill="#E2D2CA"/>
<path d="M72.2554 219.858C71.9854 219.319 70.1504 218.031 70.0054 219.907C69.8614 221.784 71.8104 223.802 72.5404 223.419C73.2714 223.035 72.9424 221.222 72.2554 219.858Z" fill="#EEA886"/>
<path d="M60.5323 215.08C60.5323 215.08 52.2943 217.289 62.9433 227.516L60.5323 215.08Z" fill="#754836"/>
<path d="M134.132 258.879L125.737 258.802C126.462 258.38 127.633 257.622 127.374 257.277C127.004 256.785 124.627 257.866 123.661 257.965C122.775 258.056 121.29 257.942 120.163 258.353L117.512 259.483L119.943 261.732C119.943 261.732 124.334 262.362 125.619 262.452C127.709 262.599 134.103 260.11 134.209 259.732C134.4 259.05 134.132 258.879 134.132 258.879Z" fill="#EEA886"/>
<path d="M85.0274 237.855C79.6874 236.916 74.0684 235.57 74.0684 235.57L64.1254 235.164C64.1254 235.164 55.0004 237.173 51.4064 238.797C51.0644 238.951 51.0644 246.939 50.1284 249.032L53.1074 255.318C53.1074 255.318 54.8294 267.77 55.1854 273.307C55.3494 275.85 51.6364 297.147 51.6364 297.147C51.6364 297.147 55.6154 298.318 62.4024 299.066C69.1874 299.814 86.1434 298.796 86.2504 297.995C86.3574 297.193 82.9674 268.15 82.8164 266.646C82.5864 264.337 83.4824 253.671 83.4824 253.671C84.7614 255.388 92.1544 261.83 95.7624 263.877C98.3294 265.333 104.626 264.443 106.481 264.255C110.496 263.844 121.585 263.051 121.802 262.656C121.975 262.42 121.164 258.376 120.7 258.221C120.294 258.085 105.977 257.378 102.386 257.564C100.929 257.641 96.1764 252.333 96.1764 252.333C96.1764 252.333 87.9724 239.178 85.0274 237.855Z" fill="#FF7E55"/>
<path d="M23.8794 197.663H50.1614V216.712V220.723L46.1484 216.712H23.8794V197.663Z" fill="white"/>
<path d="M447.111 137.039H421.576V111.504H447.111V137.039ZM422.427 136.187H446.259V112.355H422.427V136.187Z" fill="white"/>
<path d="M510.664 120.866H452.219V114.624H510.664V120.866ZM453.068 120.015H509.812V115.475H453.068V120.015Z" fill="white"/>
<path d="M510.664 149.894H421.576V143.652H510.664V149.894ZM422.427 149.043H509.812V144.503H422.427V149.043Z" fill="white"/>
<path d="M478.32 161.882H421.576V155.64H478.32V161.882ZM422.427 161.031H477.468V156.491H422.427V161.031Z" fill="white"/>
<path d="M491.797 132.774H452.219V126.532H491.797V132.774ZM453.068 131.922H490.945V127.382H453.068V131.922Z" fill="white"/>
<path d="M520.807 175.456H411.433V97.9291H520.807V175.456ZM412.285 174.605H519.956V98.7811H412.285V174.605Z" fill="white"/>
<path d="M372.869 63.2081H364.685V62.2541H371.916V55.0311H372.869V63.2081Z" fill="white"/>
<path d="M317.84 63.2081H309.656V55.0311H310.611V62.2541H317.84V63.2081Z" fill="white"/>
<path d="M310.614 8.18306H309.66V6.10352e-05H317.837V0.95306H310.614V8.18306Z" fill="white"/>
<path d="M372.869 8.18005H371.916V0.957054H364.685V0.00305176H372.869V8.18005Z" fill="white"/>
<path d="M372.87 20.4001H371.917V42.8121H372.87V20.4001Z" fill="white"/>
<path d="M310.611 20.4001H309.656V42.8121H310.611V20.4001Z" fill="white"/>
<path d="M79.8704 126.037C77.9374 126.037 76.3674 124.466 76.3674 122.534C76.3674 120.603 77.9374 119.032 79.8704 119.032C81.8014 119.032 83.3724 120.603 83.3724 122.534C83.3724 124.466 81.8004 126.037 79.8704 126.037ZM79.8704 119.986C78.4644 119.986 77.3204 121.13 77.3204 122.535C77.3204 123.94 78.4644 125.084 79.8704 125.084C81.2754 125.084 82.4184 123.94 82.4184 122.535C82.4184 121.129 81.2754 119.986 79.8704 119.986Z" fill="white"/>
<path d="M341.308 45.7101C339.377 45.7101 337.806 44.1381 337.806 42.2071C337.806 40.2761 339.377 38.7051 341.308 38.7051C343.24 38.7051 344.811 40.2761 344.811 42.2071C344.811 44.1381 343.24 45.7101 341.308 45.7101ZM341.308 39.6581C339.904 39.6581 338.759 40.8021 338.759 42.2071C338.759 43.6131 339.903 44.7561 341.308 44.7561C342.714 44.7561 343.857 43.6131 343.857 42.2071C343.857 40.8021 342.715 39.6581 341.308 39.6581Z" fill="white"/>
<path d="M455.801 171.081C453.87 171.081 452.298 169.509 452.298 167.578C452.298 165.647 453.87 164.076 455.801 164.076C457.732 164.076 459.303 165.647 459.303 167.578C459.303 169.509 457.732 171.081 455.801 171.081ZM455.801 165.029C454.396 165.029 453.251 166.173 453.251 167.578C453.251 168.983 454.395 170.127 455.801 170.127C457.206 170.127 458.35 168.983 458.35 167.578C458.35 166.173 457.207 165.029 455.801 165.029Z" fill="white"/>
<path d="M103.1 28.7771H79.0583V4.73407H103.1V28.7771ZM80.0114 27.8231H102.146V5.68807H80.0114V27.8231Z" fill="white"/>
<path d="M91.5553 11.287H90.6023V22.4941H91.5553V11.287Z" fill="white"/>
<path d="M96.6813 16.4131H85.4763V17.3671H96.6813V16.4131Z" fill="white"/>
<path d="M469.484 57.7791H435.117V33.2461H469.484V57.7791ZM436.072 56.8251H468.53V34.1991H436.072V56.8251Z" fill="white"/>
<path d="M452.3 48.105L435.292 34.091L435.898 33.355L452.3 46.87L468.706 33.355L469.31 34.091L452.3 48.105Z" fill="white"/>
<path d="M457.001 43.9588L456.309 44.6146L468.645 57.6185L469.336 56.9626L457.001 43.9588Z" fill="white"/>
<path d="M447.597 43.988L435.271 57.0001L435.964 57.6562L448.289 44.6441L447.597 43.988Z" fill="white"/>
<path d="M163.093 82.424L162.736 81.4891C162.416 81.4471 162.101 81.3751 161.796 81.2731L161.066 81.9581L158.949 80.451L159.357 79.5371C159.16 79.2821 158.989 79.0081 158.844 78.7191L157.843 78.687L157.412 76.1241L158.347 75.7661C158.388 75.4451 158.461 75.131 158.563 74.826L157.878 74.0971L159.385 71.979L160.298 72.3871C160.554 72.1911 160.827 72.0191 161.116 71.8751L161.147 70.8741L163.71 70.4431L164.068 71.3771C164.387 71.4191 164.704 71.4911 165.008 71.5931L165.738 70.9081L167.855 72.4151L167.447 73.3291C167.643 73.5841 167.814 73.8581 167.959 74.1471L168.96 74.1781L169.391 76.7411L168.457 77.0991C168.414 77.4191 168.342 77.7341 168.24 78.0401L168.926 78.7691L167.418 80.8871L166.505 80.479C166.25 80.675 165.977 80.8471 165.688 80.9911L165.656 81.9921L163.093 82.424ZM161.628 80.4491L161.837 80.5291C162.216 80.6741 162.614 80.7651 163.023 80.8001L163.246 80.8191L163.553 81.6201L164.961 81.3831L164.988 80.5251L165.193 80.4331C165.566 80.2661 165.912 80.0501 166.222 79.7881L166.394 79.6431L167.177 79.993L168.004 78.8301L167.417 78.2051L167.497 77.9951C167.643 77.6171 167.733 77.2181 167.769 76.8101L167.789 76.5871L168.589 76.2811L168.353 74.8731L167.496 74.8461L167.404 74.6411C167.238 74.2691 167.021 73.9221 166.759 73.6111L166.614 73.4401L166.964 72.6581L165.802 71.8301L165.176 72.4171L164.967 72.3371C164.587 72.1911 164.189 72.1011 163.782 72.0661L163.559 72.0461L163.251 71.2451L161.844 71.4821L161.817 72.3391L161.612 72.4311C161.239 72.5971 160.892 72.814 160.581 73.076L160.411 73.2201L159.628 72.8711L158.8 74.034L159.387 74.659L159.306 74.868C159.161 75.246 159.07 75.6451 159.035 76.0531L159.015 76.2761L158.214 76.5831L158.452 77.9911L159.309 78.0191L159.4 78.2231C159.566 78.5961 159.784 78.9431 160.046 79.2541L160.19 79.4251L159.841 80.2081L161.003 81.0361L161.628 80.4491ZM163.396 79.2601C162.814 79.2601 162.248 79.0801 161.764 78.7361C160.494 77.8331 160.197 76.0651 161.1 74.7961C162.003 73.5261 163.772 73.229 165.04 74.132C165.655 74.569 166.063 75.22 166.188 75.965C166.313 76.709 166.141 77.4581 165.704 78.0721C165.266 78.6871 164.616 79.0951 163.871 79.2201C163.714 79.2471 163.554 79.2601 163.396 79.2601ZM163.406 74.3241C162.746 74.3241 162.095 74.6331 161.683 75.2101C161.356 75.6691 161.228 76.2281 161.322 76.784C161.416 77.34 161.72 77.8261 162.179 78.1531C162.638 78.4801 163.197 78.6081 163.753 78.5151C164.308 78.4211 164.795 78.1171 165.121 77.6571C165.448 77.1981 165.577 76.6391 165.483 76.0831C165.389 75.5271 165.085 75.0411 164.626 74.7141C164.255 74.4511 163.829 74.3241 163.406 74.3241Z" fill="white"/>
<path d="M143.24 85.413L142.441 83.327C141.585 83.231 140.744 83.039 139.935 82.753L138.308 84.28L133.887 81.134L134.797 79.096C134.263 78.425 133.805 77.694 133.434 76.916L131.202 76.846L130.301 71.496L132.387 70.698C132.483 69.842 132.676 69.001 132.961 68.192L131.434 66.565L134.579 62.145L136.618 63.055C137.289 62.52 138.02 62.063 138.798 61.691L138.868 59.459L144.218 58.558L145.017 60.644C145.872 60.741 146.712 60.933 147.523 61.219L149.15 59.691L153.57 62.837L152.66 64.875C153.195 65.546 153.652 66.277 154.024 67.055L156.255 67.125L157.157 72.475L155.071 73.273C154.974 74.13 154.782 74.97 154.496 75.779L156.024 77.406L152.878 81.827L150.841 80.917C150.17 81.452 149.439 81.909 148.661 82.281L148.591 84.513L143.24 85.413ZM139.715 81.652L139.994 81.759C140.9 82.106 141.851 82.324 142.822 82.407L143.12 82.433L143.852 84.344L147.662 83.702L147.726 81.657L147.999 81.535C148.89 81.138 149.718 80.62 150.459 79.996L150.688 79.804L152.555 80.637L154.794 77.49L153.396 75.999L153.502 75.72C153.849 74.815 154.067 73.863 154.15 72.892L154.175 72.594L156.086 71.863L155.443 68.053L153.398 67.989L153.277 67.716C152.88 66.825 152.361 65.998 151.738 65.257L151.546 65.028L152.379 63.162L149.233 60.922L147.742 62.32L147.464 62.213C146.558 61.867 145.607 61.649 144.636 61.565L144.337 61.54L143.607 59.629L139.797 60.271L139.732 62.316L139.46 62.438C138.57 62.835 137.742 63.352 137 63.977L136.771 64.169L134.905 63.336L132.666 66.483L134.064 67.974L133.957 68.253C133.61 69.158 133.393 70.11 133.309 71.081L133.284 71.379L131.374 72.11L132.016 75.92L134.061 75.984L134.182 76.257C134.58 77.147 135.097 77.975 135.722 78.717L135.913 78.946L135.08 80.812L138.227 83.052L139.715 81.652ZM143.719 78.154C142.482 78.154 141.233 77.783 140.15 77.013C137.379 75.04 136.728 71.18 138.701 68.407C140.674 65.636 144.533 64.985 147.305 66.958C150.078 68.931 150.728 72.791 148.755 75.562C147.553 77.253 145.65 78.154 143.719 78.154ZM143.735 66.771C142.103 66.771 140.494 67.533 139.478 68.961C138.669 70.097 138.352 71.479 138.583 72.853C138.815 74.227 139.567 75.429 140.702 76.236C143.046 77.904 146.309 77.354 147.977 75.01C148.785 73.875 149.102 72.493 148.872 71.119C148.64 69.745 147.888 68.543 146.752 67.735C145.837 67.084 144.781 66.771 143.735 66.771Z" fill="white"/>
<path d="M18.4434 90.4301C8.63239 90.4301 0.650391 82.4471 0.650391 72.6361H1.60339C1.60339 81.9221 9.15839 89.4751 18.4434 89.4751C27.7284 89.4751 35.2834 81.9211 35.2834 72.6361C35.2834 63.3511 27.7284 55.7971 18.4434 55.7971V54.8431C28.2544 54.8431 36.2364 62.8251 36.2364 72.6361C36.2364 82.4481 28.2544 90.4301 18.4434 90.4301ZM18.4434 87.9571C9.99639 87.9571 3.12539 81.0851 3.12539 72.6371C3.12539 64.1901 9.99639 57.3181 18.4434 57.3181C26.8904 57.3181 33.7624 64.1901 33.7624 72.6371H32.8084C32.8084 64.7161 26.3644 58.2721 18.4434 58.2721C10.5214 58.2721 4.07839 64.7161 4.07839 72.6371C4.07839 80.5581 10.5214 87.0031 18.4434 87.0031V87.9571Z" fill="white"/>
<path d="M16.2635 78.5321L9.84546 72.1141L10.5205 71.4401L16.2635 77.1831L26.3675 67.0801L27.0415 67.7541L16.2635 78.5321Z" fill="white"/>
<path d="M394.197 290.799H259.035H123.875L94.2935 401.366H259.922H423.778L394.197 290.799Z" fill="url(#paint11_linear_326_5419)"/>
<path d="M134.101 310.197H150.709C151.403 310.197 151.927 310.737 151.797 311.319L150.189 318.544C150.089 318.989 149.632 319.312 149.101 319.312H132.208C131.499 319.312 130.972 318.751 131.127 318.161L133.02 310.937C133.132 310.505 133.582 310.197 134.101 310.197Z" fill="white"/>
<path d="M158.326 310.197H170.88L169.212 319.311H156.417L158.326 310.197Z" fill="white"/>
<path d="M177.16 310.197H189.715L188.402 319.311L175.605 319.324L177.16 310.197Z" fill="white"/>
<path d="M195.993 310.197H208.548L207.593 319.311H194.799L195.993 310.197Z" fill="white"/>
<path d="M214.827 310.197H227.382L226.785 319.311H213.991L214.827 310.197Z" fill="white"/>
<path d="M233.66 310.197H246.216L245.978 319.311L233.182 319.324L233.66 310.197Z" fill="white"/>
<path d="M384.373 310.197H365.539L367.568 319.311H386.759L384.373 310.197Z" fill="white"/>
<path d="M359.26 310.197H346.705L348.377 319.311H361.171L359.26 310.197Z" fill="white"/>
<path d="M340.427 310.197H327.871L329.183 319.311L341.98 319.324L340.427 310.197Z" fill="white"/>
<path d="M321.593 310.197H309.037L309.992 319.311H322.787L321.593 310.197Z" fill="white"/>
<path d="M302.759 310.197H290.203L290.8 319.311H303.594L302.759 310.197Z" fill="white"/>
<path d="M283.925 310.197H271.369L271.609 319.311L284.404 319.324L283.925 310.197Z" fill="white"/>
<path d="M252.494 310.197H265.05L265.257 319.311H252.494V310.197Z" fill="white"/>
<path d="M128.577 326.102H154.814L153.319 335.505H126.585L128.577 326.102Z" fill="white"/>
<path d="M388.468 326.102H356.037L357.884 335.505H390.931L388.468 326.102Z" fill="white"/>
<path d="M349.55 326.102H336.579L338.056 335.505H351.275L349.55 326.102Z" fill="white"/>
<path d="M330.092 326.102H317.12L318.228 335.505H331.447L330.092 326.102Z" fill="white"/>
<path d="M310.634 326.102H297.662L298.4 335.505H311.619L310.634 326.102Z" fill="white"/>
<path d="M291.175 326.102H278.203L278.572 335.505H291.791L291.175 326.102Z" fill="white"/>
<path d="M124.658 342.862H151.48L149.523 352.201H122.211L124.658 342.862Z" fill="white"/>
<path d="M158.186 342.862H171.597L170.007 352.201H156.351L158.186 342.862Z" fill="white"/>
<path d="M178.303 342.862H191.715H278.882L279.255 352.201H176.836L178.303 342.862Z" fill="white"/>
<path d="M285.595 342.862H299.005L299.74 352.201H286.084L285.595 342.862Z" fill="white"/>
<path d="M305.712 342.862H319.124L320.224 352.201H306.568L305.712 342.862Z" fill="white"/>
<path d="M325.83 342.862H339.24L340.709 352.201H327.052L325.83 342.862Z" fill="white"/>
<path d="M345.947 342.862H359.358L361.193 352.201H347.537L345.947 342.862Z" fill="white"/>
<path d="M366.064 342.862H392.886L395.333 352.201H368.021L366.064 342.862Z" fill="white"/>
<path d="M271.744 326.102H258.877V335.505H271.991L271.744 326.102Z" fill="white"/>
<path d="M252.286 326.102H239.313L238.943 335.505H252.162L252.286 326.102Z" fill="white"/>
<path d="M232.827 326.102H219.855L219.116 335.505H232.335L232.827 326.102Z" fill="white"/>
<path d="M213.369 326.102H200.396L199.287 335.505H212.507L213.369 326.102Z" fill="white"/>
<path d="M193.91 326.102H180.937L179.459 335.505H192.677L193.91 326.102Z" fill="white"/>
<path d="M174.451 326.102H161.478L159.632 335.505H172.85L174.451 326.102Z" fill="white"/>
<path d="M134.715 304.469L136.845 296.332H142.942L140.953 304.469H134.715Z" fill="white"/>
<path d="M149.039 296.332H161.23L159.525 304.469H147.12L149.039 296.332Z" fill="white"/>
<path d="M167.329 296.332H179.52L178.135 304.469H165.729L167.329 296.332Z" fill="white"/>
<path d="M185.617 296.332H197.808L196.743 304.469H184.337L185.617 296.332Z" fill="white"/>
<path d="M203.905 296.332H216.097L215.351 304.469H202.946L203.905 296.332Z" fill="white"/>
<path d="M222.194 296.332H234.386L233.961 304.469H221.554L222.194 296.332Z" fill="white"/>
<path d="M240.483 296.332H252.675L252.569 304.469H240.164L240.483 296.332Z" fill="white"/>
<path d="M258.771 296.332H270.965L271.177 304.469H258.771V296.332Z" fill="white"/>
<path d="M277.06 296.332H289.254L289.787 304.469H277.38L277.06 296.332Z" fill="white"/>
<path d="M295.349 296.332H307.543L308.395 304.469H295.99L295.349 296.332Z" fill="white"/>
<path d="M313.638 296.332H325.832L327.004 304.469H314.597L313.638 296.332Z" fill="white"/>
<path d="M331.927 296.332H344.121L345.613 304.469H333.207L331.927 296.332Z" fill="white"/>
<path d="M350.216 296.332H362.409L364.221 304.469H351.816L350.216 296.332Z" fill="white"/>
<path d="M368.505 296.332H380.698L382.83 304.469H370.423L368.505 296.332Z" fill="white"/>
<path d="M415.17 409.974H102.9C98.1465 409.974 94.2935 406.12 94.2935 401.366H423.778C423.778 406.12 419.923 409.974 415.17 409.974Z" fill="url(#paint12_linear_326_5419)"/>
<path d="M297.337 365.637C297.015 363.69 295.332 362.263 293.358 362.263H259.034H224.71C222.737 362.263 221.055 363.69 220.733 365.637L216.444 391.589C216.038 394.045 217.932 396.277 220.421 396.277H259.034H297.647C300.136 396.277 302.031 394.045 301.626 391.589L297.337 365.637Z" fill="#4D78EB"/>
<path d="M178.218 142.296H150.275V145.157H178.218V142.296Z" fill="#E0E0E0"/>
<path d="M206.214 163.84H186.039V166.701H206.214V163.84Z" fill="#E0E0E0"/>
<path d="M222.744 163.84H209.356V166.701H222.744V163.84Z" fill="#1487E3"/>
<path d="M163.98 218.017H150.592V220.878H163.98V218.017Z" fill="#1487E3"/>
<path d="M257.714 163.84H225.39V166.701H257.714V163.84Z" fill="#E0E0E0"/>
<path d="M171.363 207.166H150.592V210.027H171.363V207.166Z" fill="#E0E0E0"/>
<path d="M192.226 228.79H179.546V231.65H192.226V228.79Z" fill="#E0E0E0"/>
<path d="M175.714 228.79H150.592V231.65H175.714V228.79Z" fill="#1487E3"/>
<path d="M164.448 239.561H150.592V242.422H164.448V239.561Z" fill="#E0E0E0"/>
<path d="M203.491 142.296H183.654V145.157H203.491V142.296Z" fill="#78C2FF"/>
<path d="M203.491 174.612H183.654V177.473H203.491V174.612Z" fill="#1487E3"/>
<path d="M182.212 185.384H173.736V188.245H182.212V185.384Z" fill="#E0E0E0"/>
<path d="M184.298 196.315H165.26V199.176H184.298V196.315Z" fill="#78C2FF"/>
<path d="M213.456 196.315H187.175V199.176H213.456V196.315Z" fill="#1487E3"/>
<path d="M170.429 185.463H150.592V188.324H170.429V185.463Z" fill="#1487E3"/>
<path d="M162.362 196.315H150.592V199.176H162.362V196.315Z" fill="#1487E3"/>
<path d="M197.312 185.463H186.208V188.324H197.312V185.463Z" fill="#FF8761"/>
<path d="M162.028 250.334H150.925V253.194H162.028V250.334Z" fill="#FF8761"/>
<path d="M170.349 163.84H150.513V166.701H170.349V163.84Z" fill="#78C2FF"/>
<path d="M187.892 218.017H168.055V220.878H187.892V218.017Z" fill="#78C2FF"/>
<path d="M188.136 239.561H168.3V242.422H188.136V239.561Z" fill="#78C2FF"/>
<path d="M223.375 239.561H203.539V242.422H223.375V239.561Z" fill="#78C2FF"/>
<path d="M178.79 174.612H150.513V177.473H178.79V174.612Z" fill="#78C2FF"/>
<path d="M302.857 142.296H283.021V145.157H302.857V142.296Z" fill="#78C2FF"/>
<path d="M232.192 250.334H212.355V253.194H232.192V250.334Z" fill="#78C2FF"/>
<path d="M322.308 142.296H309.029V145.157H322.308V142.296Z" fill="#78C2FF"/>
<path d="M367.233 153.068H353.955V155.929H367.233V153.068Z" fill="#78C2FF"/>
<path d="M234.105 142.296H208.833V145.157H234.105V142.296Z" fill="#1487E3"/>
<path d="M332.574 153.068H307.302V155.929H332.574V153.068Z" fill="#1487E3"/>
<path d="M301.579 163.84H276.306V166.701H301.579V163.84Z" fill="#1487E3"/>
<path d="M268.675 174.612H243.403V177.473H268.675V174.612Z" fill="#1487E3"/>
<path d="M322.725 163.84H304.759V166.701H322.725V163.84Z" fill="#78C2FF"/>
<path d="M278.069 142.296H252.797V145.157H278.069V142.296Z" fill="#FF8761"/>
<path d="M238.777 174.612H223.959V177.473H238.777V174.612Z" fill="#FF8761"/>
<path d="M227.173 218.177H212.355V221.038H227.173V218.177Z" fill="#FF8761"/>
<path d="M248.029 142.296H238.777V145.157H248.029V142.296Z" fill="#E0E0E0"/>
<path d="M218.083 174.612H208.833V177.473H218.083V174.612Z" fill="#E0E0E0"/>
<path d="M347.922 153.068H338.67V155.929H347.922V153.068Z" fill="#E0E0E0"/>
<path d="M164.748 153.068H150.275V155.929H164.748V153.068Z" fill="#1487E3"/>
<path d="M200.316 207.245H188.89V210.106H200.316V207.245Z" fill="#1487E3"/>
<path d="M172.972 153.068H168.3V155.929H172.972V153.068Z" fill="#1487E3"/>
<path d="M302.857 153.068H264.233V155.929H302.857V153.068Z" fill="#E0E0E0"/>
<path d="M265.798 239.561H227.173V242.422H265.798V239.561Z" fill="#E0E0E0"/>
<path d="M181.174 153.068H176.407V155.929H181.174V153.068Z" fill="#FF8761"/>
<path d="M260.665 153.068H248.029V155.929H260.665V153.068Z" fill="#1487E3"/>
<path d="M273.303 163.84H260.666V166.701H273.303V163.84Z" fill="#FF8761"/>
<path d="M208.325 250.334H195.688V253.194H208.325V250.334Z" fill="#FF8761"/>
<path d="M244.684 153.068H217.797V155.929H244.684V153.068Z" fill="#1487E3"/>
<path d="M208.479 218.177H192.771V221.038H208.479V218.177Z" fill="#1487E3"/>
<path d="M199.614 239.561H191.759V242.422H199.614V239.561Z" fill="#1487E3"/>
<path d="M213.982 153.068H204.73V155.929H213.982V153.068Z" fill="#78C2FF"/>
<path d="M182.843 163.84H173.593V166.701H182.843V163.84Z" fill="#FF8761"/>
<path d="M184.688 207.245H175.438V210.106H184.688V207.245Z" fill="#FF8761"/>
<path d="M201.203 153.068H185.085V155.929H201.203V153.068Z" fill="#1487E3"/>
<g opacity="0.76">
<path d="M421.086 267.247H304.202C301.985 267.247 300.188 265.449 300.188 263.232V182.206C300.188 179.989 301.985 178.191 304.202 178.191H421.086C423.303 178.191 425.101 179.988 425.101 182.206V263.232C425.1 265.449 423.302 267.247 421.086 267.247Z" fill="white"/>
</g>
<path d="M411.611 230.212H391.486C390.634 230.212 389.945 229.523 389.945 228.673V225.565C389.945 224.715 390.634 224.025 391.486 224.025H411.611C412.463 224.025 413.152 224.715 413.152 225.565V228.673C413.152 229.522 412.462 230.212 411.611 230.212Z" fill="#4AAFFF"/>
<path d="M411.611 241.798H391.486C390.634 241.798 389.945 241.11 389.945 240.259V237.151C389.945 236.3 390.634 235.611 391.486 235.611H411.611C412.463 235.611 413.152 236.301 413.152 237.151V240.259C413.152 241.109 412.462 241.798 411.611 241.798Z" fill="#4AAFFF"/>
<path d="M411.611 253.385H391.486C390.634 253.385 389.945 252.695 389.945 251.845V248.738C389.945 247.886 390.634 247.197 391.486 247.197H411.611C412.463 247.197 413.152 247.886 413.152 248.738V251.845C413.152 252.695 412.462 253.385 411.611 253.385Z" fill="#4AAFFF"/>
<path d="M378.725 210.221C373.563 195.787 359.769 186.922 345.23 187.36C341.71 187.466 338.148 188.116 334.652 189.366C324.062 193.155 316.468 201.589 313.348 211.555C311.186 218.461 311.172 226.102 313.797 233.442C314.058 234.172 314.341 234.889 314.646 235.591C316.027 238.77 317.839 241.646 319.991 244.173C329.013 254.78 343.984 259.263 357.873 254.297C375.802 247.884 385.138 228.151 378.725 210.221ZM354.966 246.172C344.553 249.897 333.329 246.535 326.565 238.583C324.953 236.688 323.593 234.532 322.559 232.148C322.331 231.623 322.118 231.083 321.921 230.537C319.953 225.034 319.964 219.305 321.585 214.129C323.924 206.656 329.616 200.332 337.556 197.493C340.177 196.555 342.849 196.068 345.488 195.987C356.387 195.658 366.73 202.305 370.601 213.127C375.41 226.569 368.409 241.364 354.966 246.172Z" fill="#4AAFFF"/>
<path d="M321.586 214.128L313.349 211.556C316.469 201.59 324.063 193.156 334.653 189.367C338.149 188.117 341.712 187.466 345.231 187.361L345.489 195.987C342.85 196.068 340.179 196.555 337.557 197.493C329.617 200.33 323.924 206.655 321.586 214.128Z" fill="#1A598C"/>
<path d="M322.559 232.147L314.646 235.591C314.341 234.889 314.058 234.172 313.797 233.442C311.172 226.102 311.186 218.462 313.348 211.555L321.585 214.127C319.964 219.303 319.953 225.032 321.921 230.535C322.118 231.083 322.331 231.622 322.559 232.147Z" fill="#2273B5"/>
<path d="M319.991 244.174C317.84 241.647 316.027 238.771 314.646 235.592L322.559 232.148C323.593 234.533 324.953 236.689 326.565 238.583L319.991 244.174Z" fill="#3788CC"/>
<path d="M357.772 242.281C357.772 242.281 356.102 239.358 358.75 231.525C361.311 223.95 370.179 224.636 372.996 229.49C375.814 234.343 374.863 237.358 370.714 242.837C366.565 248.317 359.494 244.786 357.772 242.281Z" fill="#EEA886"/>
<path d="M378.367 377.044C378.367 377.044 378.806 380.261 378.861 380.745C378.915 381.227 383.742 380.46 383.742 380.46L384.133 376.63C384.133 376.63 378.97 376.591 378.367 377.044Z" fill="#EEA886"/>
<path d="M378.808 380.336C378.808 380.336 377.279 382.275 375.8 383.118C374.321 383.964 371.997 384.298 371.122 385.173C370.491 385.804 368.823 388.523 374.966 388.467C381.109 388.413 384.07 388.852 384.728 387.81C385.386 386.767 383.777 380.119 383.777 380.119C383.777 380.119 382.273 380.542 378.808 380.336Z" fill="#414773"/>
<path d="M344.949 377.044C344.949 377.044 345.388 380.261 345.443 380.745C345.498 381.227 350.324 380.46 350.324 380.46L350.715 376.63C350.715 376.63 345.552 376.591 344.949 377.044Z" fill="#EEA886"/>
<path d="M345.393 380.336C345.393 380.336 343.864 382.275 342.384 383.118C340.905 383.964 335.462 384.657 334.588 385.532C333.956 386.164 332.906 388.705 341.549 388.467C347.69 388.298 350.653 388.852 351.312 387.81C351.97 386.767 350.36 380.119 350.36 380.119C350.36 380.119 348.452 380.457 345.393 380.336Z" fill="#414773"/>
<path d="M376.742 296.946C376.742 296.946 379.217 304.635 378.89 311.262C378.564 317.889 380.169 325.141 380.825 332.064C381.557 339.781 384.552 358.051 384.659 362.18C384.768 366.307 384.195 379.49 384.195 379.49L378.201 379.634C378.201 379.634 373.168 347.693 371.864 344.435C370.56 341.176 364.094 317.941 363.878 315.333C363.662 312.726 376.742 296.946 376.742 296.946Z" fill="#2D314F"/>
<path d="M351.893 296.145C351.893 296.145 348.254 316.477 347.819 320.534C347.385 324.59 347.094 340.162 346.878 342.697C346.661 345.231 345.43 375.869 344.271 379.635H350.954C350.954 379.635 357.816 357.363 357.816 346.825C357.816 336.287 362.359 323.916 365.293 316.964C368.227 310.011 374.939 309.847 376.743 296.946C376.743 296.946 354.334 292.054 351.893 296.145Z" fill="#2D314F"/>
<path d="M360.195 244.348C360.195 244.348 360.949 246.542 360.195 248.109C359.441 249.673 369.826 248.735 369.826 248.735C369.826 248.735 369.356 245.499 370.714 242.837C372.07 240.176 360.195 244.348 360.195 244.348Z" fill="#EEA886"/>
<path d="M377.223 298.622C377.223 298.622 373.488 302.459 351.557 298.024L351.892 296.145L376.823 297.085L377.223 298.622Z" fill="#2B3B57"/>
<path d="M358.623 248.617C358.623 248.617 354.787 249.008 353.691 249.218C352.595 249.426 345.218 247.898 343.705 247.741C342.191 247.585 335.738 243.164 335.529 242.641C335.321 242.119 331.603 232.707 331.394 230.672C331.185 228.635 327.773 229.687 328.066 231.089C328.613 233.713 329.316 240.081 329.702 241.928C330.118 243.921 331.232 248.435 331.859 248.991C332.485 249.547 338.296 253.966 343.984 255.845C349.674 257.724 353.955 260.49 353.955 260.49H381.99C381.99 260.49 392.894 244.903 393.129 242.555C393.363 240.206 385.513 224.598 383.947 222.64C382.381 220.683 380.117 223.279 380.117 223.279C380.117 223.279 384.808 237.045 385.433 239.002C386.06 240.959 379.977 249.558 378.306 249.584C376.636 249.61 372.349 249.062 370.444 248.983C368.539 248.904 366.529 248.069 366.529 248.069L358.623 248.617Z" fill="#EEA886"/>
<path d="M346.541 259.028C346.541 259.028 349.974 261.31 350.287 265.223C350.6 269.138 351.852 275.322 352.478 277.435C353.105 279.549 351.93 294.892 351.773 295.988C351.617 297.085 373.467 299.688 376.823 297.085C376.823 297.085 377.762 282.759 378.154 278.688C378.546 274.618 380.424 264.754 381.051 263.423C381.677 262.092 389.271 251.442 389.584 250.037C389.584 250.037 385.655 243.774 382.838 243.696C382.838 243.696 378.363 248.941 376.903 249.176C375.443 249.41 366.499 247.772 366.497 247.758C366.497 247.758 365.519 249.088 360.33 247.522C360.33 247.522 354.148 248.219 353.144 248.347C351.926 248.503 343.463 247.285 343.463 247.285C343.463 247.285 340.067 253.019 340.662 255.913L346.541 259.028Z" fill="#F7C15F"/>
<path d="M331.59 231.895C331.59 231.895 330.823 228.267 331.747 227.225C332.272 226.632 333.534 225.062 333.649 224.831C333.764 224.601 335.12 223.821 335.12 223.446C335.12 223.071 333.794 222.61 332.64 223.677C331.487 224.743 330.766 224.975 330.305 224.859C329.842 224.744 329.18 220.909 329.122 219.958C329.064 219.006 328.697 216.497 328.101 216.671C327.506 216.844 327.536 217.94 327.536 217.94C327.536 217.94 326.844 216.036 326.383 216.412C325.921 216.786 325.979 217.71 325.979 217.71C325.979 217.71 325.114 216.643 324.883 217.421C324.653 218.2 324.883 218.892 324.883 218.892C324.883 218.892 323.988 218.402 323.932 219.613C323.873 220.824 324.192 224.371 324.826 225.64C325.46 226.909 327.835 230.227 328.118 231.523C328.402 232.819 331.59 231.895 331.59 231.895Z" fill="#EEA886"/>
<path d="M380.88 225.524C380.88 225.524 378.272 221.139 377.384 220.748C376.497 220.356 375.245 220.135 374.149 219.352C373.053 218.57 371.605 217.917 371.683 217.657C371.761 217.396 373.053 217.5 374.436 218.1C375.82 218.7 376.425 218.41 376.556 218.097C376.687 217.783 375.82 215.573 375.402 215.051C374.984 214.528 372.009 211.536 372.506 211.093C373.002 210.65 374.933 212.294 375.246 212.632C375.246 212.632 373.706 209.398 374.307 209.24C374.907 209.083 376.029 210.231 376.029 210.231C376.029 210.231 375.899 207.465 378.874 211.954C378.874 211.954 378.247 210.467 379.161 210.963C380.074 211.458 380.962 214.251 381.249 215.66C381.535 217.068 382.838 221.557 383.948 222.639C385.056 223.722 380.88 225.524 380.88 225.524Z" fill="#EEA886"/>
<path d="M370.714 242.837C370.714 242.837 369.34 242.959 366.417 241.95C363.494 240.94 363.276 235.831 362.645 236.435C361.355 237.67 360.137 236.818 359.65 236.086C359.65 236.086 361.077 234.208 360.416 233.303C359.755 232.399 358.679 231.739 358.679 231.739C358.679 231.739 360.735 221.832 370.089 226.345C381.047 231.635 370.714 242.837 370.714 242.837Z" fill="#353A3D"/>
<path d="M360.196 248.109L360.525 246.676C360.525 246.676 366.496 246.555 369.753 247.026L370.097 248.738C370.097 248.738 365.924 250.631 360.196 248.109Z" fill="#D4D8E8"/>
<path d="M361.669 235.182C362.211 234.282 364.216 233.673 364.452 236.226C364.635 238.205 360.868 240.367 360.833 238.523C360.798 236.678 361.307 235.782 361.669 235.182Z" fill="#EEA886"/>
<path d="M331.45 231.072C331.45 231.072 329.296 231.124 328.251 232.068C328.251 232.068 328.182 232.668 328.424 233.139C328.424 233.139 330.292 232.268 331.725 232.105C331.725 232.105 331.7 231.322 331.45 231.072Z" fill="#E55353"/>
<path d="M328.909 231.608C328.711 232.079 328.931 232.623 329.402 232.822C329.873 233.02 330.417 232.8 330.616 232.329C330.814 231.857 330.595 231.314 330.123 231.115C329.652 230.916 329.108 231.137 328.909 231.608Z" fill="#353A3D"/>
<path d="M275.997 155.051C275.997 155.051 279.076 160.271 280.376 161.123C282.142 162.28 281.034 163.451 280.196 163.452C279.358 163.453 275.079 163.759 274.136 162.689C273.193 161.619 272.725 158.411 271.847 157.572C270.97 156.733 270.065 153.398 272.274 152.588C274.228 151.87 275.997 155.051 275.997 155.051Z" fill="#6069A8"/>
<path d="M274.663 152.755C274.663 152.755 278.189 158.868 278.797 159.771C279.404 160.674 277.652 160.672 276.566 160.244C275.48 159.815 272.75 155.431 272.357 154.632C271.889 153.679 272.273 152.588 272.273 152.588L274.663 152.755Z" fill="#202338"/>
<path d="M271.09 156.044L271.904 162.31L272.336 162.329L272.201 157.821L271.09 156.044Z" fill="#6069A8"/>
<path d="M245.461 155.051C245.461 155.051 248.541 160.271 249.84 161.123C251.606 162.28 250.5 163.451 249.662 163.452C248.824 163.453 244.543 163.759 243.601 162.689C242.658 161.619 242.19 158.411 241.313 157.572C240.436 156.733 239.5 153.312 241.74 152.588C243.704 151.952 245.461 155.051 245.461 155.051Z" fill="#6069A8"/>
<path d="M244.312 152.767C244.312 152.767 247.654 158.867 248.262 159.77C248.869 160.673 247.116 160.671 246.032 160.243C244.946 159.814 242.215 155.43 241.823 154.631C241.355 153.678 241.739 152.587 241.739 152.587L244.312 152.767Z" fill="#202338"/>
<path d="M240.554 156.044L241.369 162.31L241.8 162.329L241.667 157.821L240.554 156.044Z" fill="#6069A8"/>
<path d="M231.799 107.546L259.663 120.242C259.663 120.242 262.772 121.253 263.122 124.707C264.21 135.486 272.272 152.587 272.272 152.587C274.86 153.852 274.662 152.754 274.662 152.754C273.032 147.52 271.047 125.951 270.339 117.278C270.189 115.441 270.096 114.183 270.075 113.781C270.061 113.507 269.762 113.149 269.247 112.731C265.423 109.63 249.69 103.211 249.69 103.211C237.879 102.913 231.799 107.546 231.799 107.546Z" fill="#202338"/>
<path d="M226.548 112.998C227.41 120.53 238.161 119.668 238.161 119.668H251.192C251.192 119.668 247.769 127.284 246.447 133.708C245.045 140.525 241.739 152.588 241.739 152.588C241.739 152.588 241.955 152.997 244.312 152.768C244.312 152.768 254.541 132.382 258.457 127.257C259.299 126.154 261.713 120.168 262.129 116.597C262.27 115.395 262.183 114.468 261.734 114.091C261.281 113.713 260.243 112.998 258.857 112.125C254.775 109.551 247.687 105.589 243.738 104.702C238.449 103.513 230.084 101.285 230.084 101.285C230.084 101.285 225.686 105.467 226.548 112.998Z" fill="#202338"/>
<path d="M235.416 54.9851C235.416 54.9851 233.466 51.2821 234.416 47.3391C235.367 43.3961 239.025 39.4671 244.383 41.2721C249.741 43.0761 254.071 47.2381 250.86 52.0501C247.648 56.8611 253.766 59.0351 252.207 61.3251C250.648 63.6151 251.239 66.0051 251.899 66.5381C252.559 67.0701 254.688 68.9701 254.454 71.2181C254.22 73.4661 244.06 64.6651 244.06 64.6651C244.06 64.6651 238.526 53.5481 235.416 54.9851Z" fill="#464240"/>
<path d="M251.744 102.31C251.744 102.31 250.937 106.23 230.127 101.281C230.127 101.281 237.102 98.9631 251.744 102.31Z" fill="#EB4747"/>
<path d="M229.89 102.38C229.567 102.996 229.244 103.612 228.922 104.228C236.529 104.45 244.137 104.671 251.743 104.893C250.541 100.864 250.93 95.4071 251.141 91.2651C251.399 86.2061 254.192 82.6891 253.895 77.5721C255.4 77.8161 255.66 77.8621 257.167 78.0931C254.861 71.5251 254.072 68.2721 246.912 65.7431C244.58 64.9201 243.049 64.7571 240.525 64.9651C232.232 65.6481 229.73 65.7461 225.658 73.2611C232.034 74.2761 230.984 76.5661 232.918 82.9091C233.861 86.0021 234.846 89.4541 234.34 92.7171C233.843 95.9281 229.89 99.4511 229.89 102.38Z" fill="#325BB3"/>
<path d="M243.125 67.3351C239.73 66.6931 240.453 64.8061 240.453 64.8061C240.453 64.8061 240.61 63.7411 240.672 62.3941C240.688 62.0491 240.696 61.6851 240.694 61.3171C240.693 60.7581 240.666 60.1861 240.601 59.6481C240.323 57.3701 246.761 58.7291 246.761 58.7291C246.761 58.7291 246.39 63.3381 247.279 64.7201C248.166 66.1021 246.519 67.9761 243.125 67.3351Z" fill="#EEA886"/>
<path d="M236.65 64.794C236.65 64.794 243.496 72.699 246.027 74.531C246.027 74.531 248.934 71.903 247.142 64.965C247.142 64.965 243.836 63.31 236.65 64.794Z" fill="#EEA886"/>
<path d="M236.836 45.7681C236.836 45.7681 233.28 52.6191 236.806 59.1071C240.333 65.5961 247.261 56.2811 247.708 55.1881C248.157 54.0951 250.532 47.9141 245.808 46.0351C241.083 44.1581 237.843 43.9091 236.836 45.7681Z" fill="#EEA886"/>
<path d="M238.018 48.1991C238.018 48.1991 235.571 51.4141 235.281 53.7891C235.281 53.7891 234.306 49.2981 237.061 44.9841C239.816 40.6701 246.821 44.7791 247.759 46.5031C248.697 48.2271 251.447 49.7461 246.827 57.1541C246.827 57.1541 238.521 51.3821 238.018 48.1991Z" fill="#464240"/>
<path d="M243.7 59.7911C243.7 59.7911 243.083 61.1401 240.672 62.3941C240.688 62.0491 240.696 61.6851 240.694 61.3171C240.694 61.3171 242.327 61.1201 243.7 59.7911Z" fill="#A77860"/>
<path d="M207.767 96.217C207.767 96.217 206.078 96.9681 205.275 96.6281C204.474 96.2871 203.235 96.221 202.844 96.22C202.322 96.219 200.685 95.635 200.712 96.274C200.741 96.914 203.369 97.3591 203.907 97.5591C204.445 97.7581 202.298 98.94 202.098 99.465C201.899 99.99 204.323 103.436 205.689 102.454C207.056 101.472 207.796 99.512 208.075 99.388C208.353 99.264 209.101 98.713 209.101 98.713L207.767 96.217Z" fill="#EEA886"/>
<path d="M202.358 99.16C202.358 99.16 198.394 102.447 198.333 102.89C198.27 103.334 198.48 103.542 198.864 103.25C199.248 102.959 202.795 100.187 202.795 100.187C202.795 100.187 198.823 104.877 198.69 105.226C198.612 105.43 198.993 105.854 199.214 105.717C199.436 105.58 203.659 101.164 203.659 101.164C203.659 101.164 199.959 105.55 199.939 105.879C199.921 106.166 200.367 106.476 200.666 106.17C200.965 105.864 204.646 101.994 204.646 101.994C204.646 101.994 202.171 105.361 202.324 105.658C202.418 105.839 202.73 106.22 203.34 105.33C203.949 104.44 205.623 102.499 205.623 102.499L202.358 99.16Z" fill="#EEA886"/>
<path d="M249.832 119.668H238.162C238.162 119.668 227.41 120.53 226.549 112.999C225.686 105.467 230.084 101.285 230.084 101.285C230.084 101.285 235.764 102.797 240.723 103.995C243.205 103.468 246.198 103.125 249.692 103.213C249.692 103.213 270.712 110.159 270.079 113.815C270.079 113.815 261.285 109.114 249.832 119.668Z" fill="#FF7E55"/>
<path d="M242.236 106.626L264.486 106.298L253.252 112.003L242.236 106.626Z" fill="#5E5853"/>
<path d="M249.148 103.783C249.148 103.783 244.142 105.722 238.006 103.969L237.719 101.678L250.353 102.38L249.148 103.783Z" fill="#325BB3"/>
<path d="M253.252 112.003L242.236 107.735V106.626L254.123 110.914L253.252 112.003Z" fill="#91887F"/>
<path d="M249.071 104.843C249.012 105.665 249.843 106.258 250.602 105.934L251.893 105.383C252.282 105.218 252.507 104.808 252.44 104.39C251.903 101.024 250.749 87.9241 252.436 85.6751C253.059 84.8441 253.448 84.1161 253.666 83.4801C254.78 86.3511 256.166 90.0491 256.717 92.0391L267.229 106.024L270.754 106.918C266.355 96.3201 262.822 90.7051 262.822 90.7051C262.133 88.8581 260.161 83.2641 258.414 78.2851C257.31 75.1401 256.298 72.2401 255.754 70.6821C255.478 69.8921 254.934 69.2251 254.215 68.7971C252.587 67.8231 249.874 66.2901 247.413 65.0951C247.403 65.0901 247.393 65.0861 247.384 65.0811C247.305 65.0431 247.227 65.0051 247.149 64.9671C247.146 64.9671 247.144 64.9661 247.144 64.9661L247.143 64.9651C251.821 72.0431 249.997 92.0321 249.074 104.815C249.073 104.824 249.072 104.834 249.071 104.843Z" fill="#EDDAD3"/>
<path d="M231.706 65.5691C230.207 65.8011 226.491 69.4081 224.518 73.0491C222.266 77.2051 219.973 81.9361 218.255 83.4921C215.096 86.3551 206.252 96.4721 205.832 96.2271C205.67 96.1331 208.257 99.2481 208.586 99.3931C208.75 99.4661 223.121 87.0141 224.501 85.1161C225.811 83.3171 229.309 75.7681 230.355 75.9341C230.355 75.9341 230.357 75.9361 230.359 75.9391L230.361 75.9421C230.44 76.1131 231.713 78.8741 232.92 82.9081C232.94 82.9751 232.959 83.0421 232.98 83.1091C233.811 85.9231 233.735 88.9781 233.285 92.4111C232.945 95.0021 231.011 99.2391 229.845 101.3C229.704 101.548 229.741 102.02 229.892 102.379C229.983 102.593 230.115 102.767 230.275 102.826L234.493 104.39L235.486 104.757C236.2 105.021 236.949 104.884 237.508 104.477C237.967 104.144 238.298 103.631 238.379 103.011C239.317 95.7951 240.504 88.4221 241.45 85.6451C245.6 73.4581 239.828 64.3011 239.828 64.3011C239.828 64.3011 233.02 65.0781 231.706 65.5691Z" fill="#EDDAD3"/>
<path d="M253.252 112.003L259.871 93.9321L281.207 94.2811L274.898 110.933L253.252 112.003Z" fill="#6E6760"/>
<path d="M266.697 101.926C266.047 103.228 266.243 104.645 267.136 105.093C268.031 105.54 269.282 104.847 269.933 103.546C270.584 102.245 270.388 100.827 269.494 100.379C268.601 99.9321 267.348 100.625 266.697 101.926Z" fill="#807066"/>
<path d="M244.206 52.5901C244.206 52.5901 245.572 54.7161 244.31 56.5521C243.046 58.3871 244.628 60.1901 244.902 62.1301C245.176 64.0701 239.632 69.2331 245.799 71.8301C251.965 74.4271 253.928 70.1341 252.354 67.7711C250.782 65.4081 249.665 63.4911 249.532 60.1231C249.398 56.7541 248.29 51.5031 244.206 52.5901Z" fill="#464240"/>
<path d="M199.541 27.0731H225.822V46.1231V50.1351L221.81 46.1231H199.541V27.0731Z" fill="white"/>
<defs>
<linearGradient id="paint0_linear_326_5419" x1="115.622" y1="219.565" x2="416.051" y2="219.565" gradientUnits="userSpaceOnUse">
<stop stop-color="#40D5E6"/>
<stop offset="1" stop-color="#5577FF"/>
</linearGradient>
<linearGradient id="paint1_linear_326_5419" x1="133.34" y1="206.266" x2="384.17" y2="206.266" gradientUnits="userSpaceOnUse">
<stop stop-color="#404B61"/>
<stop offset="0.486" stop-color="#3C4860"/>
<stop offset="1" stop-color="#2F3E5C"/>
</linearGradient>
<linearGradient id="paint2_linear_326_5419" x1="464.342" y1="298.879" x2="528.881" y2="298.879" gradientUnits="userSpaceOnUse">
<stop stop-color="#3076A1"/>
<stop offset="1" stop-color="#639C38"/>
</linearGradient>
<linearGradient id="paint3_linear_326_5419" x1="458.736" y1="289.47" x2="543" y2="289.47" gradientUnits="userSpaceOnUse">
<stop stop-color="#3076A1"/>
<stop offset="1" stop-color="#639C38"/>
</linearGradient>
<linearGradient id="paint4_linear_326_5419" x1="439.376" y1="276.722" x2="493.729" y2="276.722" gradientUnits="userSpaceOnUse">
<stop stop-color="#3076A1"/>
<stop offset="1" stop-color="#639C38"/>
</linearGradient>
<linearGradient id="paint5_linear_326_5419" x1="454.484" y1="288.475" x2="470.963" y2="288.475" gradientUnits="userSpaceOnUse">
<stop stop-color="#3076A1"/>
<stop offset="1" stop-color="#639C38"/>
</linearGradient>
<linearGradient id="paint6_linear_326_5419" x1="417.186" y1="291.742" x2="470.387" y2="291.742" gradientUnits="userSpaceOnUse">
<stop stop-color="#3076A1"/>
<stop offset="1" stop-color="#639C38"/>
</linearGradient>
<linearGradient id="paint7_linear_326_5419" x1="452.808" y1="412.282" x2="497.569" y2="238.212" gradientUnits="userSpaceOnUse">
<stop stop-color="#3076A1"/>
<stop offset="1" stop-color="#639C38"/>
</linearGradient>
<linearGradient id="paint8_linear_326_5419" x1="469.078" y1="322.048" x2="488.746" y2="322.048" gradientUnits="userSpaceOnUse">
<stop stop-color="#3076A1"/>
<stop offset="1" stop-color="#639C38"/>
</linearGradient>
<linearGradient id="paint9_linear_326_5419" x1="452.189" y1="357.509" x2="488.551" y2="357.509" gradientUnits="userSpaceOnUse">
<stop stop-color="#FF9340"/>
<stop offset="1" stop-color="#FFCE45"/>
</linearGradient>
<linearGradient id="paint10_linear_326_5419" x1="452.189" y1="357.509" x2="488.551" y2="357.509" gradientUnits="userSpaceOnUse">
<stop stop-color="#C97332"/>
<stop offset="1" stop-color="#FFCE45"/>
</linearGradient>
<linearGradient id="paint11_linear_326_5419" x1="259.036" y1="280.11" x2="259.036" y2="446.686" gradientUnits="userSpaceOnUse">
<stop stop-color="#40D5E6"/>
<stop offset="1" stop-color="#5577FF"/>
</linearGradient>
<linearGradient id="paint12_linear_326_5419" x1="-58.4184" y1="405.67" x2="271.067" y2="405.67" gradientUnits="userSpaceOnUse">
<stop stop-color="#40D5E6"/>
<stop offset="1" stop-color="#5577FF"/>
</linearGradient>
</defs>
</svg>
