<svg width="406" height="300" viewBox="0 0 406 300" fill="none" xmlns="http://www.w3.org/2000/svg">
<rect width="405.333" height="300" rx="16" fill="#D9D9D9"/>
<g opacity="0.5">
<path d="M203 128.941C198.88 128.941 194.852 130.162 191.426 132.452C188 134.741 185.329 137.995 183.752 141.801C182.176 145.608 181.763 149.797 182.567 153.838C183.371 157.88 185.355 161.592 188.269 164.505C191.182 167.419 194.894 169.403 198.936 170.207C202.977 171.011 207.166 170.598 210.973 169.021C214.779 167.445 218.033 164.774 220.322 161.348C222.611 157.922 223.833 153.894 223.833 149.774C223.833 147.038 223.294 144.329 222.247 141.801C221.2 139.274 219.666 136.977 217.731 135.043C215.797 133.108 213.5 131.573 210.973 130.526C208.445 129.479 205.736 128.941 203 128.941ZM198.833 159.149V140.399L211.333 149.774L198.833 159.149Z" fill="black"/>
</g>
</svg>
